<?xml version="1.0" encoding="utf-8"?>
<!-- Generator: Adobe Illustrator 26.1.0, SVG Export Plug-In . SVG Version: 6.00 Build 0)  -->
<svg version="1.1" id="Capa_1" xmlns="http://www.w3.org/2000/svg" xmlns:xlink="http://www.w3.org/1999/xlink" x="0px" y="0px"
	 viewBox="0 0 22 22" style="enable-background:new 0 0 22 22;" xml:space="preserve">
<style type="text/css">
	.st0{fill:#09141F;}
</style>
<path class="st0" d="M19.07,9.53H2.93c-0.81,0-1.47,0.66-1.47,1.47v0c0,0.81,0.66,1.47,1.47,1.47h16.13c0.81,0,1.47-0.66,1.47-1.47
	v0C20.53,10.19,19.88,9.53,19.07,9.53z"/>
<path class="st0" d="M19.07,15.4H2.93c-0.81,0-1.47,0.66-1.47,1.47v0c0,0.81,0.66,1.47,1.47,1.47h16.13c0.81,0,1.47-0.66,1.47-1.47
	v0C20.53,16.06,19.88,15.4,19.07,15.4z"/>
<path class="st0" d="M19.07,3.67H2.93c-0.81,0-1.47,0.66-1.47,1.47v0c0,0.81,0.66,1.47,1.47,1.47h16.13c0.81,0,1.47-0.66,1.47-1.47
	v0C20.53,4.32,19.88,3.67,19.07,3.67z"/>
</svg>
