<?xml version="1.0" encoding="utf-8"?>
<!-- Generator: Adobe Illustrator 24.0.0, SVG Export Plug-In . SVG Version: 6.00 Build 0)  -->
<svg version="1.1" id="Capa_2" xmlns="http://www.w3.org/2000/svg" xmlns:xlink="http://www.w3.org/1999/xlink" x="0px" y="0px"
	 viewBox="0 0 50.7 50.7" style="enable-background:new 0 0 50.7 50.7;" xml:space="preserve">
<style type="text/css">
	.st0{fill:#091420;}
</style>
<g id="g22" transform="translate(34.7656,9.749)">
	<path id="path24" class="st0" d="M11.6,27.9L-4.7,15.2L11.6,2.4V27.9z M10.6,30.4h-40c-0.2,0-0.3,0-0.4-0.1l17.5-13.7
		c0,0,0,0,0.1,0c0.8,0.5,1.8,0.8,2.9,0.8c1.1,0,2-0.3,2.9-0.8c0,0,0,0,0.1,0L11,30.3C10.9,30.4,10.7,30.4,10.6,30.4 M-30.5,2.4
		l16.3,12.8l-16.3,12.8V2.4z M-29.4-0.1h40c0.2,0,0.3,0,0.4,0.1L-3.8,11.6l-3.1,2.5l-0.9,0.7c-0.5,0.3-1,0.4-1.6,0.4
		c-0.6,0-1.1-0.2-1.6-0.4l-0.9-0.7l-3.1-2.5L-29.9,0C-29.7-0.1-29.6-0.1-29.4-0.1 M10.6-2.5h-40c-1.9,0-3.5,1.6-3.5,3.5v28.4
		c0,1.9,1.6,3.5,3.5,3.5h40c1.9,0,3.5-1.6,3.5-3.5V0.9C14-1,12.5-2.5,10.6-2.5"/>
</g>
</svg>
