<?xml version="1.0" encoding="utf-8"?>
<!-- Generator: Adobe Illustrator 26.1.0, SVG Export Plug-In . SVG Version: 6.00 Build 0)  -->
<svg version="1.1" id="Capa_1" xmlns="http://www.w3.org/2000/svg" xmlns:xlink="http://www.w3.org/1999/xlink" x="0px" y="0px"
	 viewBox="0 0 30 30" style="enable-background:new 0 0 30 30;" xml:space="preserve">
<style type="text/css">
	.st0{fill:#09141F;}
</style>
<g>
	<path class="st0" d="M5.71,13C5.71,13,5.71,13,5.71,13C5.71,13,5.71,13,5.71,13z"/>
	<path class="st0" d="M10.27,15.84c0,1.01,0,2.03-0.01,3.04l0,0C10.26,17.87,10.27,16.86,10.27,15.84z"/>
	<path class="st0" d="M10.26,12.19c0-0.18,0-0.37,0-0.55c0,0.44,0,0.87,0,1.31c0,0,0,0,0,0C10.26,12.7,10.26,12.45,10.26,12.19z"/>
	<path class="st0" d="M7.08,12.99C7.08,12.99,7.08,12.99,7.08,12.99C7.08,12.99,7.08,12.99,7.08,12.99z"/>
	<polygon class="st0" points="5.78,12.95 5.78,12.95 5.78,12.95 	"/>
	<polygon class="st0" points="7.02,12.95 7.02,12.95 7.02,12.95 	"/>
	<path class="st0" d="M13.54,13.01C13.54,13,13.54,13,13.54,13.01C13.54,13,13.54,13,13.54,13.01z"/>
	<path class="st0" d="M13.51,13.04C13.51,13.03,13.51,13.03,13.51,13.04C13.51,13.03,13.51,13.03,13.51,13.04z"/>
	<path class="st0" d="M13.56,12.98C13.56,12.98,13.56,12.98,13.56,12.98C13.56,12.98,13.56,12.98,13.56,12.98z"/>
	<path class="st0" d="M13.49,13.07c0,0,0.01-0.01,0.01-0.01C13.49,13.06,13.49,13.06,13.49,13.07z"/>
	<path class="st0" d="M16.56,17.5c0-0.02,0-0.03,0-0.05c0-0.75,0-1.51,0-2.26c0,0.75,0,1.51,0,2.26
		C16.57,17.47,16.56,17.48,16.56,17.5z"/>
	<path class="st0" d="M13.46,13.14c0-0.01,0-0.02,0-0.03C13.46,13.12,13.46,13.13,13.46,13.14z"/>
	<path class="st0" d="M13.53,15.96c-0.02-0.02-0.03-0.03-0.04-0.05C13.5,15.93,13.52,15.95,13.53,15.96z"/>
	<path class="st0" d="M5.64,17.21c0-0.33,0-0.65,0-0.98C5.64,16.56,5.64,16.89,5.64,17.21L5.64,17.21z"/>
	<path class="st0" d="M7.14,13.09C7.14,13.09,7.14,13.09,7.14,13.09C7.14,13.09,7.14,13.09,7.14,13.09z"/>
	<path class="st0" d="M7.13,13.06C7.13,13.05,7.12,13.05,7.13,13.06C7.12,13.05,7.13,13.05,7.13,13.06z"/>
	<path class="st0" d="M7.11,13.02C7.11,13.02,7.11,13.02,7.11,13.02C7.11,13.02,7.11,13.02,7.11,13.02z"/>
	<path class="st0" d="M7.06,12.97C7.06,12.97,7.05,12.97,7.06,12.97C7.05,12.97,7.06,12.97,7.06,12.97z"/>
	<path class="st0" d="M7.15,13.14c0,0,0-0.01,0-0.01C7.15,13.14,7.15,13.14,7.15,13.14z"/>
	<path class="st0" d="M5.74,12.97C5.74,12.97,5.74,12.97,5.74,12.97C5.74,12.97,5.74,12.97,5.74,12.97z"/>
	<path class="st0" d="M7.15,13.19c0,0,0-0.01,0-0.01C7.15,13.18,7.15,13.19,7.15,13.19z"/>
	<path class="st0" d="M5.64,13.17C5.64,13.18,5.64,13.18,5.64,13.17C5.64,13.18,5.64,13.18,5.64,13.17z"/>
	<path class="st0" d="M2.46,14.48c0-0.92,0-1.84-0.01-2.77C2.46,12.63,2.46,13.56,2.46,14.48z"/>
	<path class="st0" d="M2.46,17.42c0,0.06,0.01,0.12,0.01,0.18c1.07,0,2.1,0,3.17,0l0,0c-1.07,0-2.1,0-3.17,0
		C2.47,17.54,2.47,17.48,2.46,17.42z"/>
	<path class="st0" d="M5.67,13.07C5.67,13.07,5.66,13.08,5.67,13.07C5.66,13.08,5.67,13.07,5.67,13.07z"/>
	<path class="st0" d="M2.46,17.24c0,0.06,0,0.12,0.01,0.18C2.46,17.36,2.46,17.3,2.46,17.24L2.46,17.24z"/>
	<path class="st0" d="M5.65,13.12C5.65,13.12,5.65,13.12,5.65,13.12C5.65,13.12,5.65,13.12,5.65,13.12z"/>
	<path class="st0" d="M5.64,13.23c0,0,0,0.01,0,0.01C5.64,13.24,5.64,13.23,5.64,13.23z"/>
	<polygon class="st0" points="13.61,12.95 13.61,12.95 13.61,12.95 	"/>
	<path class="st0" d="M13.47,13.1c0-0.01,0-0.01,0.01-0.02C13.48,13.09,13.47,13.1,13.47,13.1z"/>
	<path class="st0" d="M21.25,13.14c0,0,0,0.01,0,0.01C21.25,13.15,21.25,13.15,21.25,13.14z"/>
	<path class="st0" d="M21.28,13.06C21.28,13.06,21.27,13.06,21.28,13.06C21.27,13.06,21.28,13.06,21.28,13.06z"/>
	<path class="st0" d="M21.25,13.19c0,0,0,0.01,0,0.01C21.25,13.2,21.25,13.2,21.25,13.19z"/>
	<path class="st0" d="M18.11,17.6c1.05,0,2.07,0,3.15,0l0,0C20.18,17.6,19.16,17.6,18.11,17.6L18.11,17.6z"/>
	<path class="st0" d="M22.74,13.07C22.73,13.07,22.73,13.07,22.74,13.07C22.73,13.07,22.73,13.07,22.74,13.07z"/>
	<path class="st0" d="M22.71,13.03C22.71,13.03,22.71,13.03,22.71,13.03C22.71,13.03,22.71,13.03,22.71,13.03z"/>
	<path class="st0" d="M22.66,12.97C22.65,12.97,22.65,12.97,22.66,12.97C22.65,12.97,22.65,12.97,22.66,12.97z"/>
	<path class="st0" d="M21.34,12.97C21.34,12.97,21.34,12.97,21.34,12.97C21.34,12.97,21.34,12.97,21.34,12.97z"/>
	<path class="st0" d="M21.29,13.02C21.29,13.02,21.29,13.03,21.29,13.02C21.29,13.03,21.29,13.02,21.29,13.02z"/>
	<path class="st0" d="M25.8,13C25.8,13,25.8,13,25.8,13C25.8,13,25.8,13,25.8,13z"/>
	<polygon class="st0" points="25.73,12.95 25.73,12.95 25.73,12.95 	"/>
	<path class="st0" d="M25.88,16.24c0,0.33,0,0.65,0,0.98c0,0.03,0,0.06,0,0.1c0-0.03,0-0.06,0-0.1
		C25.88,16.89,25.88,16.56,25.88,16.24z"/>
	<path class="st0" d="M24.43,12.99C24.43,12.99,24.43,12.99,24.43,12.99C24.43,12.99,24.43,12.99,24.43,12.99z"/>
	<path class="st0" d="M22.68,13C22.68,13,22.69,13,22.68,13C22.69,13,22.68,13,22.68,13z"/>
	<path class="st0" d="M22.76,17.6L22.76,17.6c0.56,0,1.06,0,1.6,0c0-0.04,0-0.07,0-0.11c0,0.03,0,0.07,0,0.11
		C23.83,17.6,23.32,17.6,22.76,17.6z"/>
	<polygon class="st0" points="22.61,12.95 22.61,12.95 22.61,12.95 	"/>
	<path class="st0" d="M21.25,17.25c0-0.04,0-0.08,0-0.11c0-0.65,0-1.29,0-1.94c0,0.65,0,1.29,0,1.94
		C21.25,17.18,21.25,17.22,21.25,17.25z"/>
	<path class="st0" d="M22.76,13.18c0,0,0-0.01,0-0.01C22.76,13.17,22.76,13.17,22.76,13.18z"/>
	<path class="st0" d="M25.85,13.08C25.85,13.08,25.85,13.07,25.85,13.08C25.85,13.07,25.85,13.08,25.85,13.08z"/>
	<path class="st0" d="M24.39,13.05C24.39,13.05,24.39,13.06,24.39,13.05C24.39,13.06,24.39,13.05,24.39,13.05z"/>
	<path class="st0" d="M25.87,13.12C25.87,13.12,25.87,13.12,25.87,13.12C25.87,13.12,25.87,13.12,25.87,13.12z"/>
	<path class="st0" d="M16.57,12.19c0,0.19,0,0.38,0,0.56c0-0.39,0-0.78,0-1.18C16.57,11.79,16.57,11.99,16.57,12.19z"/>
	<path class="st0" d="M25.88,13.18C25.88,13.18,25.88,13.18,25.88,13.18C25.88,13.18,25.88,13.18,25.88,13.18z"/>
	<path class="st0" d="M22.75,13.12C22.75,13.11,22.75,13.11,22.75,13.12C22.75,13.11,22.75,13.11,22.75,13.12z"/>
	<path class="st0" d="M24.38,13.09C24.38,13.09,24.38,13.1,24.38,13.09C24.38,13.1,24.38,13.09,24.38,13.09z"/>
	<path class="st0" d="M25.88,13.24c0,0,0-0.01,0-0.01C25.88,13.23,25.88,13.24,25.88,13.24z"/>
	<path class="st0" d="M22.77,13.23c0-0.01,0-0.01,0-0.02C22.77,13.22,22.77,13.23,22.77,13.23z"/>
	<path class="st0" d="M24.37,13.14C24.37,13.14,24.37,13.14,24.37,13.14C24.37,13.14,24.37,13.14,24.37,13.14z"/>
	<path class="st0" d="M24.37,17.39c0,0.03,0,0.07,0,0.1C24.37,17.46,24.37,17.43,24.37,17.39z"/>
	<path class="st0" d="M24.37,15.22c0,0.66,0,1.31,0,1.97C24.37,16.54,24.37,15.88,24.37,15.22z"/>
	<path class="st0" d="M24.36,13.19c0,0,0,0.01,0,0.01C24.36,13.2,24.36,13.19,24.36,13.19z"/>
	<path class="st0" d="M0.97,9.84c0,3.11,0,6.19,0,9.29c0.15,0,0.29,0,0.42,0c2.34,0,4.68,0,7.02-0.01c0.28,0,0.37,0.08,0.36,0.36
		c-0.02,0.4-0.01,0.8-0.01,1.2c2.1,0,4.14,0,6.21,0c0-0.52,0-1.01,0-1.56c4.71,0,9.37,0,14.03,0c0-3.12,0-6.2,0-9.29
		C19.64,9.84,10.31,9.84,0.97,9.84z M8.74,12.19c0,0.25,0,0.51,0,0.76c0,1.56,0,3.1,0,4.65l0,0c-0.52,0-1.03,0-1.59,0l0,0
		c0-0.12,0-0.23,0-0.35c0-0.67,0-1.33,0-2c0-0.67,0-1.33,0.01-2c0-0.02,0-0.04,0-0.05c0,0,0-0.01,0-0.01c0-0.01,0-0.02,0-0.04
		c0,0,0-0.01,0-0.01c0-0.01,0-0.03-0.01-0.04c0,0,0,0,0,0c0-0.01-0.01-0.02-0.01-0.03c0,0,0-0.01,0-0.01c0-0.01-0.01-0.02-0.01-0.03
		c0,0,0,0,0,0C7.1,13.01,7.09,13,7.09,12.99c0,0,0,0,0,0c-0.01-0.01-0.01-0.01-0.02-0.02c0,0,0,0-0.01,0
		c-0.01-0.01-0.02-0.01-0.03-0.01c0,0,0,0,0,0H5.78h0c-0.01,0.01-0.03,0.01-0.04,0.02c0,0,0,0,0,0C5.73,12.98,5.72,12.99,5.71,13
		c0,0,0,0,0,0c-0.02,0.02-0.03,0.04-0.04,0.07c0,0,0,0,0,0.01c0,0.01-0.01,0.03-0.01,0.04c0,0,0,0,0,0.01
		c0,0.02-0.01,0.03-0.01,0.05c0,0,0,0.01,0,0.01c0,0.01,0,0.03,0,0.05c0,0,0,0.01,0,0.01c0,0.02,0,0.04,0,0.06
		c0.01,0.98,0.01,1.96,0.01,2.93c0,0.33,0,0.65,0,0.98c0,0.12,0,0.24,0,0.38l0,0c-1.07,0-2.1,0-3.17,0c0-0.06-0.01-0.12-0.01-0.18
		c0-0.06-0.01-0.12-0.01-0.18l0,0l0,0c0-0.92,0-1.84,0-2.77c0-0.92,0-1.84-0.01-2.77c0-0.29,0.08-0.38,0.37-0.38
		c1.86,0.01,3.73,0.01,5.59,0.01c0.1,0,0.2,0,0.33,0C8.74,11.63,8.74,11.91,8.74,12.19z M16.57,12.95c0,0.75,0,1.49,0,2.24
		c0,0.75,0,1.51,0,2.26c0,0.01,0,0.03,0,0.05c0,0.01,0,0.01,0,0.02c-0.01,0.03-0.01,0.06-0.02,0.1c-1.02,0-2.03,0-3.08,0
		c0,0.21,0,0.42,0,0.63c0,0.1,0,0.2,0,0.3c0,0.1,0,0.2,0.01,0.3c0,0.02,0,0.03,0,0.05c0,0.08-0.01,0.14-0.03,0.18
		c-0.01,0.03-0.03,0.05-0.06,0.07c-0.02,0.01-0.03,0.02-0.06,0.03c-0.05,0.02-0.12,0.03-0.2,0.02c-0.42-0.01-0.84-0.01-1.27-0.01
		c-0.42,0-0.85,0-1.27,0.01c-0.04,0-0.08,0-0.12-0.01c-0.02,0-0.04-0.01-0.06-0.02c-0.01,0-0.02-0.01-0.03-0.01
		c-0.08-0.04-0.11-0.13-0.11-0.28l0,0l0,0c0-1.01,0-2.03,0.01-3.04c0-0.96,0-1.93,0-2.89c0-0.44,0-0.87,0-1.31
		c0-0.24,0.08-0.31,0.31-0.31c1.89,0.01,3.79,0,5.68,0c0.18,0,0.32,0,0.32,0.25c0,0.39,0,0.78,0,1.18
		C16.57,12.82,16.57,12.89,16.57,12.95z M27.51,17.59L27.51,17.59c-0.55,0-1.06,0-1.61,0c0-0.03,0-0.06-0.01-0.09
		c0-0.06-0.01-0.13-0.01-0.19c0-0.03,0-0.06,0-0.1c0-0.33,0-0.65,0-0.98c0-0.33,0-0.65,0-0.98c0-0.65,0-1.3,0.01-1.95
		c0-0.02,0-0.04,0-0.06c0-0.01,0-0.01,0-0.01c0-0.02,0-0.03,0-0.05c0,0,0-0.01,0-0.01c0-0.02-0.01-0.03-0.01-0.05c0,0,0,0,0-0.01
		c0-0.01-0.01-0.03-0.01-0.04c0,0,0,0,0-0.01c-0.01-0.03-0.03-0.05-0.05-0.07c0,0,0,0,0,0c-0.02-0.02-0.04-0.04-0.07-0.05l0,0H24.5
		c-0.03,0.01-0.05,0.02-0.06,0.04c0,0,0,0,0,0c-0.02,0.02-0.03,0.04-0.04,0.06c0,0,0,0,0,0c0,0.01-0.01,0.02-0.01,0.03c0,0,0,0,0,0
		c0,0.01-0.01,0.03-0.01,0.04c0,0,0,0,0,0.01c0,0.01,0,0.03,0,0.04c0,0,0,0.01,0,0.01c0,0.02,0,0.03,0,0.05
		c0.01,0.66,0.01,1.31,0.01,1.97c0,0.66,0,1.31,0,1.97c0,0.03,0,0.07,0,0.1s0,0.07,0,0.1c0,0.03,0,0.07,0,0.1c0,0.03,0,0.07,0,0.11
		c-0.54,0-1.05,0-1.6,0l0,0l0,0c0-0.16,0-0.31,0-0.46c0-0.15,0-0.3,0-0.45c0-0.57,0-1.13,0-1.7c0-0.57,0-1.13,0.01-1.7
		c0-0.02,0-0.04,0-0.06c0-0.01,0-0.01,0-0.02c0-0.01,0-0.03,0-0.04c0,0,0-0.01,0-0.01c0-0.02-0.01-0.03-0.01-0.05c0,0,0,0,0,0
		c0-0.01-0.01-0.03-0.01-0.04c0,0,0-0.01,0-0.01c-0.01-0.01-0.01-0.02-0.02-0.03c0,0,0,0,0,0c-0.01-0.01-0.02-0.02-0.03-0.03
		c0,0,0,0,0,0c-0.01-0.01-0.02-0.01-0.03-0.02c0,0,0,0-0.01,0c-0.01-0.01-0.02-0.01-0.04-0.02c0,0,0,0,0,0h-1.23
		c-0.01,0-0.02,0.01-0.03,0.02c0,0,0,0,0,0c-0.02,0.01-0.04,0.03-0.05,0.05c0,0,0,0,0,0c-0.01,0.01-0.01,0.02-0.02,0.03
		c0,0,0,0,0,0.01c-0.01,0.02-0.02,0.05-0.02,0.08c0,0,0,0.01,0,0.01c0,0.01,0,0.03,0,0.04c0,0,0,0.01,0,0.01c0,0.02,0,0.04,0,0.05
		c0,0.65,0.01,1.29,0.01,1.94c0,0.65,0,1.29,0,1.94c0,0.04,0,0.07,0,0.11s0,0.08,0,0.11c0,0.04,0,0.08,0,0.12c0,0.04,0,0.08,0,0.12
		l0,0c-1.07,0-2.1,0-3.15,0l0,0c0-1.55,0-3.1,0-4.65c0-0.25,0-0.51,0-0.76c0-0.28,0-0.56,0-0.84c0.11-0.01,0.22-0.02,0.33-0.02
		c2.89,0,5.78,0,8.67,0c0.4,0,0.4,0,0.4,0.4c0,1.82,0,3.65,0,5.47C27.51,17.33,27.51,17.45,27.51,17.59z"/>
	<path class="st0" d="M13.56,12.98C13.56,12.98,13.56,12.98,13.56,12.98c-0.01,0.01-0.02,0.01-0.02,0.02c0,0,0,0,0,0
		c-0.01,0.01-0.01,0.01-0.02,0.02c0,0,0,0.01-0.01,0.01c0,0.01-0.01,0.01-0.01,0.02c0,0-0.01,0.01-0.01,0.01
		c0,0-0.01,0.01-0.01,0.01c0,0.01-0.01,0.01-0.01,0.02c0,0,0,0.01,0,0.01c0,0.01,0,0.02,0,0.03c-0.01,0.89-0.01,1.79,0,2.69
		c0,0.02,0.01,0.05,0.03,0.08c0.01,0.02,0.03,0.04,0.04,0.05C13.56,15.98,13.58,16,13.6,16c0.44,0.01,0.89,0.01,1.35,0.01
		c0-1.03,0-2.03,0-3.06c0,0,0-0.01,0-0.01c-0.45,0-0.89-0.01-1.32,0.01c0,0-0.01,0-0.02,0l0,0C13.6,12.96,13.58,12.97,13.56,12.98z"
		/>
</g>
</svg>
