<?xml version="1.0" encoding="utf-8"?>
<!-- Generator: Adobe Illustrator 24.0.0, SVG Export Plug-In . SVG Version: 6.00 Build 0)  -->
<svg version="1.1" id="Capa_3" xmlns="http://www.w3.org/2000/svg" xmlns:xlink="http://www.w3.org/1999/xlink" x="0px" y="0px"
	 viewBox="0 0 46.7 46.7" style="enable-background:new 0 0 46.7 46.7;" xml:space="preserve">
<style type="text/css">
	.st0{fill:#E4E7EC;}
</style>
<path class="st0" d="M40.3,16.1L40.3,16.1c0-0.8-0.1-1.5-0.3-2.3c-0.5-2-1.5-3.8-3.2-5.1c-1.8-1.4-3.8-2.2-6.2-2.2
	c-1.6,0-3.2,0-4.7,0l-10,0c-1.8,0-3.3,0.4-4.7,1.2c-3.3,1.9-4.9,4.7-5,8.4c0,3.7,0,7.4,0,10.6c0,1.4,0,2.8,0,4.2
	c0,1.7,0.4,3.3,1.2,4.6c1.9,3.3,4.7,4.9,8.4,5c2.1,0,4.1,0,6.2,0c1.7,0,3.5,0,5.2,0l3.5,0c2.3,0,4.4-0.7,6.1-2.2
	c2.3-1.9,3.4-4.4,3.4-7.4C40.4,25.5,40.4,20.7,40.3,16.1z M36.7,30.8c0,2.5-1.2,4.3-3.5,5.5c-0.7,0.4-1.6,0.5-2.6,0.5l-5.2,0l-4.2,0
	l-5.1,0c-1.3,0-2.4-0.3-3.4-1c-1.7-1.1-2.5-2.6-2.7-4.5c0-0.3,0-0.7,0-1l0-14.1c0-1.9,0.7-3.4,2-4.6c1.1-1,2.4-1.5,4-1.5l3.5,0
	c3.8,0,7.5,0,11.2,0c2.5,0,4.4,1.2,5.5,3.5c0.4,0.7,0.5,1.6,0.5,2.5l0,3.8C36.8,23.6,36.8,27.2,36.7,30.8z"/>
<path id="path36" class="st0" d="M31.7,13.1c-1,0-1.8,0.8-1.8,1.8c0,0.5,0.2,0.9,0.5,1.3c0.3,0.3,0.8,0.5,1.3,0.5h0
	c1,0,1.8-0.8,1.8-1.8c0-0.5-0.2-0.9-0.5-1.3C32.6,13.3,32.2,13.1,31.7,13.1"/>
<path id="path28" class="st0" d="M23.4,28.5L23.4,28.5c-1.3,0-2.5-0.5-3.4-1.4c-0.9-0.9-1.4-2.1-1.4-3.4c0-2.7,2.2-4.8,4.8-4.8h0
	c1.3,0,2.5,0.5,3.4,1.4c0.9,0.9,1.4,2.1,1.4,3.4C28.2,26.3,26,28.5,23.4,28.5 M23.4,15.9L23.4,15.9c-4.2,0-7.7,3.5-7.7,7.7
	c0,4.2,3.4,7.7,7.7,7.7h0c2,0,4-0.8,5.4-2.3c1.5-1.5,2.3-3.4,2.3-5.4c0-2-0.8-4-2.3-5.4C27.3,16.7,25.4,15.9,23.4,15.9"/>
</svg>
