<?xml version="1.0" encoding="utf-8"?>
<!-- Generator: Adobe Illustrator 24.0.0, SVG Export Plug-In . SVG Version: 6.00 Build 0)  -->
<svg version="1.1" id="Capa_3" xmlns="http://www.w3.org/2000/svg" xmlns:xlink="http://www.w3.org/1999/xlink" x="0px" y="0px"
	 viewBox="0 0 46.7 46.7" style="enable-background:new 0 0 46.7 46.7;" xml:space="preserve">
<style type="text/css">
	.st0{fill:#E4E7EC;}
</style>
<path id="path24" class="st0" d="M40.6,24.2c0-0.8-0.1-1.6-0.2-2.3c-0.3-2.1-1.1-3.9-2.9-5.2c-3.2-2.4-8.5-1.8-11.1,1.2
	c-0.1,0.1-0.2,0.2-0.4,0.4v-2.6h-6.7v23.1h6.7v-0.6c0-3.3,0-6.6,0-9.8c0-1.2,0-2.3,0-3.5c0-0.6,0.1-1.2,0.4-1.7
	c0.8-1.4,2.1-2.1,3.7-2.2c1.6-0.1,2.8,0.7,3.2,2.3c0.2,0.6,0.3,1.3,0.3,1.9c0,4.4,0,8.7,0,13.1v0.5h6.8v-0.4
	C40.6,33.7,40.6,29,40.6,24.2"/>
<path id="path30" class="st0" d="M10,5.1C7.8,5.1,6.1,6.9,6.1,9c0,2.2,1.8,3.9,3.9,3.9c2.2,0,3.9-1.7,3.9-3.9
	C13.9,6.9,12.2,5.1,10,5.1"/>
<path id="path26" class="st0" d="M6.6,38.8h6.7V15.7H6.6V38.8z"/>
</svg>
