<?xml version="1.0" encoding="utf-8"?>
<!-- Generator: Adobe Illustrator 26.1.0, SVG Export Plug-In . SVG Version: 6.00 Build 0)  -->
<svg version="1.1" id="Capa_1" xmlns="http://www.w3.org/2000/svg" xmlns:xlink="http://www.w3.org/1999/xlink" x="0px" y="0px"
	 viewBox="0 0 30 30" style="enable-background:new 0 0 30 30;" xml:space="preserve">
<style type="text/css">
	.st0{fill:#09141F;}
</style>
<path class="st0" d="M26.91,1C18.97,1,11.02,1,3.08,1c-0.1,0-0.2,0.01-0.3,0c-0.21-0.02-0.3,0.04-0.27,0.28
	c0.09,0.77,2.14,22.76,2.29,24.67c0.03,0.38,0.16,0.51,0.5,0.6c2.77,0.73,5.54,1.46,8.3,2.24c0.95,0.27,1.83,0.3,2.79,0.02
	c2.78-0.81,5.59-1.53,8.39-2.29c0.2-0.05,0.42-0.04,0.44-0.37c0.08-1.16,2.1-22.96,2.25-24.55C27.52,1,27.53,1,26.91,1z M22.72,6.54
	c-0.09,0.7-0.12,1.41-0.14,2.11c-0.01,0.37-0.14,0.56-0.49,0.71c-2.28,0.94-4.55,1.91-6.82,2.86c-0.09,0.04-0.17,0.1-0.26,0.15
	c0.13,0.24,0.36,0.14,0.54,0.14c1.95,0.01,3.9,0.02,5.85,0c0.41,0,0.71,0.03,0.76,0.51c-0.11,1.39-0.21,2.78-0.32,4.17
	c-0.12,1.46-0.26,2.92-0.36,4.37c-0.02,0.27-0.08,0.4-0.37,0.48c-1.96,0.53-3.91,1.08-5.87,1.62c-0.17,0.05-0.32,0.05-0.49,0
	c-1.93-0.57-3.87-1.12-5.8-1.69c-0.15-0.04-0.31-0.05-0.33-0.3c-0.05-0.7-0.1-1.4-0.16-2.1c-0.03-0.33-0.07-0.66-0.09-0.98
	c-0.01-0.24-0.04-0.49-0.02-0.73c0.01-0.11,0.02-0.24,0.07-0.34c0.06-0.16,0.12-0.16,0.29-0.17c0.32-0.02,0.65-0.03,0.97-0.05
	c0.43-0.02,0.86-0.06,1.29-0.1c0.56-0.04,0.51,0.55,0.49,0.96c-0.01,0.2-0.06,0.41-0.01,0.61c0.05,0.23-0.01,0.48,0.15,0.67
	c0.12,0.15,0.34,0.21,0.81,0.33c0.61,0.17,1.24,0.3,1.84,0.52c0.55,0.2,1.07,0.17,1.61-0.02c0.74-0.26,1.5-0.49,2.26-0.69
	c0.32-0.08,0.42-0.23,0.43-0.55c0.05-1.09,0.12-2.18,0.21-3.27c0.03-0.33-0.1-0.35-0.36-0.34c-1.72,0.01-3.43,0-5.15,0
	c-1.6,0-3.2-0.02-4.8,0.01c-0.41,0.01-0.52-0.14-0.53-0.51c-0.03-0.76-0.08-1.51-0.12-2.27c-0.01-0.19-0.01-0.33,0.22-0.43
	c2.39-0.99,4.77-1.98,7.15-2.98c0.1-0.05,0.27-0.12,0.03-0.18c-0.21-0.05-0.47-0.01-0.69-0.02c-0.52,0-1.03-0.01-1.55-0.01
	c-1.23,0-2.46,0-3.7,0c-0.34,0-0.68,0.02-1.03,0.01c-0.2,0-0.43,0-0.62-0.05C7.44,9,7.48,8.84,7.44,8.65
	c-0.04-0.17-0.07-0.34-0.1-0.51C7.29,7.82,7.24,7.5,7.2,7.18C7.18,7.03,7.16,6.89,7.15,6.74C7.14,6.62,7.07,6.39,7.1,6.28
	c0.06-0.21,0.44-0.15,0.62-0.15c0.32-0.01,0.64,0.01,0.96,0.01c0.56,0,1.12,0,1.69-0.01c1.11,0,2.22,0,3.34-0.01
	c2.86-0.01,5.72-0.02,8.58-0.04C22.66,6.07,22.77,6.14,22.72,6.54z"/>
</svg>
