<?xml version="1.0" encoding="utf-8"?>
<!-- Generator: Adobe Illustrator 26.1.0, SVG Export Plug-In . SVG Version: 6.00 Build 0)  -->
<svg version="1.1" id="Capa_1" xmlns="http://www.w3.org/2000/svg" xmlns:xlink="http://www.w3.org/1999/xlink" x="0px" y="0px"
	 viewBox="0 0 30 30" style="enable-background:new 0 0 30 30;" xml:space="preserve">
<style type="text/css">
	.st0{fill:#09141F;}
</style>
<path class="st0" d="M17.8,21.63c0.72-0.17,1.47-0.3,2.18-0.52c2.23-0.71,3.53-2.25,3.94-4.55c0.24-1.35,0.33-2.72-0.22-4.02
	c-0.22-0.52-0.58-0.98-0.86-1.48c-0.07-0.12-0.12-0.3-0.09-0.43c0.29-1.11,0.23-2.19-0.14-3.26c-0.08-0.22-0.19-0.28-0.41-0.28
	c-0.87,0.01-1.63,0.35-2.38,0.75c-0.34,0.18-0.66,0.4-1,0.58c-0.12,0.06-0.29,0.1-0.42,0.07c-2.18-0.54-4.36-0.55-6.54,0
	c-0.15,0.04-0.34-0.02-0.49-0.09c-0.81-0.38-1.59-0.8-2.41-1.15C8.64,7.11,8.27,7.12,7.93,7.1c-0.1,0-0.25,0.1-0.29,0.2
	c-0.41,1.08-0.48,2.19-0.19,3.32c0.03,0.13,0,0.33-0.08,0.43c-1.06,1.28-1.37,2.77-1.24,4.38c0.09,1.08,0.29,2.12,0.81,3.09
	c0.85,1.57,2.24,2.36,3.9,2.78c0.5,0.13,1.02,0.2,1.55,0.31c-0.02,0.05-0.04,0.11-0.08,0.15c-0.35,0.41-0.56,0.87-0.65,1.39
	c-0.04,0.21-0.12,0.32-0.32,0.4c-1.53,0.59-2.85,0.17-3.74-1.19c-0.36-0.55-0.77-1.08-1.4-1.32c-0.37-0.14-0.79-0.17-1.19-0.17
	c-0.3,0-0.38,0.25-0.18,0.49c0.09,0.11,0.19,0.22,0.31,0.29c0.85,0.46,1.29,1.26,1.64,2.09c0.45,1.06,1.23,1.64,2.33,1.77
	c0.65,0.08,1.32,0,1.98-0.01c0.13,0,0.26-0.03,0.44-0.05c0,0.2,0,0.36,0,0.52c0,0.64,0.01,1.28,0.01,1.93
	c0,0.66-0.39,0.95-1.02,0.75c-1.09-0.36-2.11-0.85-3.06-1.48c-3.07-2.01-5.13-4.77-6.01-8.34c-1.1-4.46-0.24-8.58,2.61-12.18
	c2.47-3.13,5.76-4.9,9.76-5.24c4.1-0.35,7.7,0.86,10.73,3.63c2.83,2.59,4.35,5.85,4.53,9.7c0.17,3.68-0.97,6.93-3.33,9.74
	c-1.62,1.93-3.64,3.29-6,4.15c-0.08,0.03-0.17,0.05-0.26,0.07c-0.52,0.11-0.9-0.18-0.9-0.72c0-1.24,0.01-2.48,0.02-3.72
	c0-0.62-0.05-1.24-0.34-1.81C18.15,22.16,17.96,21.89,17.8,21.63z"/>
</svg>
