<?xml version="1.0" encoding="utf-8"?>
<!-- Generator: Adobe Illustrator 26.1.0, SVG Export Plug-In . SVG Version: 6.00 Build 0)  -->
<svg version="1.1" id="Capa_1" xmlns="http://www.w3.org/2000/svg" xmlns:xlink="http://www.w3.org/1999/xlink" x="0px" y="0px"
	 viewBox="0 0 30 30" style="enable-background:new 0 0 30 30;" xml:space="preserve">
<style type="text/css">
	.st0{fill:#09141F;}
</style>
<path class="st0" d="M28.91,18.28c-0.26-0.86-0.83-1.46-1.61-1.87c-0.76-0.39-1.57-0.51-2.41-0.47c-0.76,0.04-1.48,0.21-2.17,0.54
	c-0.07,0.03-0.09,0-0.12-0.05c-0.1-0.2-0.21-0.4-0.3-0.61c-0.27-0.55-0.33-1.14-0.25-1.74c0.05-0.35,0.18-0.68,0.28-1.02
	c0.05-0.16,0.02-0.24-0.13-0.32c-0.07-0.04-0.14-0.06-0.22-0.07c-0.3-0.05-0.6-0.01-0.91,0.04c-0.29,0.04-0.45,0.18-0.52,0.48
	c-0.08,0.32-0.14,0.65-0.28,0.96c-0.35,0.77-0.76,1.5-1.18,2.23c-0.11,0.2-0.23,0.39-0.36,0.61c-0.01-0.02-0.02-0.03-0.02-0.05
	c-0.18-0.35-0.35-0.7-0.39-1.1c-0.04-0.33-0.06-0.65-0.01-0.97c0.06-0.35,0.18-0.68,0.29-1.01c0.04-0.11,0-0.19-0.08-0.26
	c-0.07-0.05-0.14-0.08-0.22-0.09c-0.4-0.06-0.8-0.03-1.19,0.09c-0.12,0.04-0.2,0.11-0.23,0.25c-0.07,0.28-0.13,0.55-0.24,0.82
	c-0.36,0.86-0.74,1.71-1.12,2.55c-0.38,0.84-0.74,1.68-1.16,2.5c-0.08,0.15-0.15,0.31-0.25,0.44c-0.02,0.02-0.03,0.05-0.06,0.05
	c-0.03-0.01-0.03-0.04-0.03-0.07c-0.02-0.14-0.02-0.27-0.01-0.41c0.04-0.44,0.15-0.86,0.26-1.29c0.15-0.58,0.3-1.17,0.45-1.75
	c0.03-0.13,0.04-0.26-0.06-0.37c-0.18-0.21-0.54-0.25-0.76-0.09c-0.02,0.02-0.04,0.04-0.08,0.03c0-0.03,0-0.06,0.01-0.09
	c0.05-0.28,0.05-0.56,0.02-0.84c-0.07-0.51-0.37-0.8-0.87-0.81c-0.24-0.01-0.46,0.06-0.68,0.16c-0.7,0.32-1.25,0.81-1.71,1.4
	c-0.04,0.06-0.09,0.11-0.16,0.15c-0.86,0.47-1.73,0.94-2.59,1.42c-0.06,0.03-0.1,0.03-0.15-0.02c-0.15-0.16-0.31-0.32-0.48-0.47
	c-0.59-0.52-1.23-0.98-1.85-1.48c-0.51-0.41-1.01-0.84-1.4-1.37c-0.39-0.53-0.61-1.12-0.56-1.79c0.04-0.63,0.26-1.2,0.61-1.73
	c0.47-0.72,1.08-1.31,1.77-1.82c1.65-1.23,3.43-2.2,5.4-2.81c1.25-0.39,2.53-0.59,3.84-0.43c0.5,0.06,0.99,0.18,1.44,0.43
	c0.45,0.25,0.74,0.61,0.8,1.14c0.05,0.37,0,0.72-0.11,1.07c-0.22,0.68-0.61,1.25-1.1,1.77c-0.71,0.75-1.55,1.32-2.49,1.73
	c-1.14,0.5-2.33,0.8-3.59,0.73c-0.42-0.02-0.82-0.12-1.2-0.29c-0.3-0.13-0.56-0.32-0.78-0.57c-0.06-0.06-0.12-0.13-0.22-0.08
	c-0.09,0.05-0.08,0.14-0.07,0.22c0.04,0.17,0.1,0.32,0.21,0.46c0.38,0.51,0.9,0.83,1.5,1.01c0.64,0.19,1.3,0.21,1.97,0.17
	c0.85-0.05,1.68-0.22,2.5-0.47c1.72-0.53,3.08-1.53,4.05-3.04c0.56-0.88,0.89-1.83,0.82-2.9c-0.03-0.36-0.1-0.71-0.26-1.04
	c-0.33-0.68-0.88-1.13-1.55-1.46c-0.93-0.45-1.92-0.6-2.94-0.62c-0.4-0.01-0.79,0.02-1.19,0.06C12,4.14,11.21,4.31,10.45,4.57
	C8.77,5.13,7.18,5.87,5.69,6.83C4.52,7.58,3.45,8.45,2.58,9.55c-0.5,0.63-0.91,1.31-1.14,2.09c-0.1,0.35-0.17,0.71-0.12,1.08
	c0.08,0.53,0.3,1.01,0.59,1.45c0.49,0.74,1.13,1.33,1.82,1.87c0.67,0.53,1.38,1,2.08,1.49c0.3,0.21,0.59,0.42,0.87,0.65
	c0.05,0.04,0.05,0.06-0.01,0.09c-0.09,0.05-0.18,0.1-0.28,0.15c-1.09,0.57-2.15,1.2-3.06,2.05c-0.54,0.5-0.93,1.09-1.08,1.82
	c-0.12,0.62-0.06,1.22,0.28,1.76c0.16,0.25,0.36,0.47,0.66,0.56c0.24,0.07,0.49,0.11,0.75,0.13c0.05,0,0.09,0,0.14,0h0.3
	c0.04,0,0.08,0,0.12,0c0.4-0.03,0.8-0.12,1.17-0.27c1.16-0.47,2.02-1.27,2.53-2.41c0.35-0.77,0.46-1.59,0.38-2.43
	c-0.04-0.39-0.11-0.78-0.29-1.13c-0.04-0.08-0.03-0.12,0.05-0.17c0.44-0.25,0.87-0.51,1.32-0.75c0.04-0.02,0.08-0.04,0.14-0.07
	c-0.04,0.12-0.07,0.21-0.1,0.31c-0.22,0.86-0.37,1.73-0.17,2.62c0.11,0.51,0.29,1,0.61,1.43c0.34,0.47,1.11,0.46,1.45,0.09
	c0.13-0.14,0.23-0.29,0.32-0.45c0.32-0.58,0.59-1.18,0.84-1.79c0-0.02,0.01-0.04,0.04-0.06c0.01,0.04,0.01,0.07-0.01,0.1
	c-0.02,0.24-0.05,0.47-0.05,0.71c0,0.05,0,0.1,0,0.15c0.02,0.29,0.05,0.58,0.18,0.85c0.12,0.23,0.3,0.37,0.56,0.38
	c0.21,0.01,0.38-0.1,0.54-0.23c0.27-0.24,0.48-0.53,0.66-0.85c0.83-1.48,1.58-3,2.21-4.57c0.05-0.12,0.09-0.23,0.16-0.38
	c0.13,0.77,0.34,1.48,0.72,2.13c0.12,0.21,0.11,0.38-0.06,0.54c-0.05,0.04-0.08,0.11-0.12,0.16c-0.37,0.49-0.78,0.94-1.17,1.41
	c-0.17,0.21-0.35,0.41-0.49,0.64c-0.2,0.34-0.05,0.67,0.32,0.74c0.08,0.02,0.17,0.03,0.25,0.02c0.81-0.01,1.54-0.27,2.18-0.77
	c0.51-0.4,0.76-0.93,0.75-1.58c0-0.42-0.13-0.82-0.28-1.2c-0.02-0.05-0.03-0.09,0.01-0.15c0.59-0.85,1.11-1.75,1.57-2.67
	c0.01-0.02,0.01-0.06,0.06-0.06c0.12,0.74,0.34,1.45,0.71,2.11c0.04,0.07,0.03,0.1-0.03,0.15c-0.46,0.38-0.85,0.82-1.16,1.34
	c-0.23,0.39-0.39,0.8-0.39,1.26c0,0.47,0.36,0.75,0.83,0.67c0.18-0.03,0.34-0.11,0.51-0.17c0.58-0.21,1.07-0.54,1.47-1.01
	c0.23-0.26,0.38-0.57,0.42-0.92c0.04-0.37-0.05-0.71-0.15-1.05c-0.06-0.2-0.07-0.2,0.14-0.27c0.69-0.24,1.39-0.31,2.11-0.26
	c0.52,0.04,1.02,0.12,1.51,0.3c0.58,0.22,1.08,0.56,1.4,1.11c0.23,0.4,0.34,0.82,0.19,1.27c-0.13,0.39-0.41,0.66-0.75,0.88
	c-0.04,0.03-0.08,0.06-0.12,0.09c-0.04,0.03-0.05,0.08-0.04,0.12c0.02,0.05,0.06,0.07,0.11,0.07c0.08,0,0.16-0.01,0.24-0.04
	c0.7-0.32,1.14-0.83,1.2-1.62c0-0.08,0-0.15,0-0.23C28.99,18.63,28.96,18.45,28.91,18.28z M5.17,23.12
	c-0.21,0.06-0.42,0.1-0.64,0.09c-0.38-0.02-0.6-0.23-0.61-0.62c-0.02-0.49,0.15-0.92,0.4-1.32c0.28-0.46,0.68-0.8,1.1-1.13
	c0.6-0.48,1.24-0.89,1.9-1.28c0.07-0.04,0.09-0.03,0.11,0.05c0.07,0.3,0.12,0.6,0.11,0.9C7.57,21.36,6.4,22.73,5.17,23.12z
	 M12.97,16.54c-0.35,1.18-0.79,2.32-1.29,3.44c-0.08,0.17-0.17,0.33-0.29,0.47c-0.14,0.15-0.25,0.14-0.35-0.05
	c-0.13-0.25-0.14-0.53-0.17-0.81c-0.01-0.06,0-0.13,0-0.2c0-0.95,0.27-1.81,0.75-2.62c0.21-0.35,0.42-0.7,0.76-0.95
	c0.16-0.11,0.32-0.22,0.52-0.23c0.16-0.01,0.22,0.04,0.21,0.21C13.11,16.06,13.04,16.3,12.97,16.54z M18.01,19.81
	c-0.23,0.32-0.53,0.56-0.88,0.75c-0.06,0.03-0.15,0.09-0.2,0.03c-0.04-0.06,0.06-0.1,0.1-0.15c0.4-0.44,0.8-0.88,1.16-1.36
	c0.02-0.03,0.05-0.06,0.09-0.12C18.29,19.3,18.18,19.57,18.01,19.81z M21.9,18.84c-0.18,0.42-0.53,0.67-0.94,0.83
	c-0.09,0.04-0.1-0.03-0.09-0.08c0-0.08,0.01-0.15,0.04-0.23c0.19-0.62,0.52-1.15,1-1.59c0.01-0.01,0.02-0.02,0.05-0.03
	C22.07,18.13,22.05,18.49,21.9,18.84z"/>
</svg>
