<?xml version="1.0" encoding="utf-8"?>
<!-- Generator: Adobe Illustrator 26.1.0, SVG Export Plug-In . SVG Version: 6.00 Build 0)  -->
<svg version="1.1" id="Capa_1" xmlns="http://www.w3.org/2000/svg" xmlns:xlink="http://www.w3.org/1999/xlink" x="0px" y="0px"
	 viewBox="0 0 30 30" style="enable-background:new 0 0 30 30;" xml:space="preserve">
<style type="text/css">
	.st0{fill:none;}
	.st1{fill:#09141F;}
</style>
<g>
	<path class="st0" d="M10.96,7.96c-0.72,0-1.44,0-2.16,0c-0.24,0-0.24,0.01-0.24,0.24v9.06c0,0.91,0,1.82,0,2.74
		c0,0.11,0.01,0.21,0.16,0.21h2.27c0.1,0,0.15-0.06,0.17-0.15c0.01-0.05,0.01-0.11,0.01-0.17c0-3.82,0-7.64,0-11.45
		c0-0.1,0-0.19,0-0.29C11.15,8.01,11.1,7.96,10.96,7.96z"/>
	<path class="st0" d="M21.56,18.08c0-3.63,0-7.26,0-10.89c0-0.23,0-0.23-0.23-0.23c-0.68,0-1.35,0-2.03,0
		c-0.35,0-0.34-0.05-0.34,0.35c0,1.09,0,2.18,0,3.27c0,0.12-0.01,0.17-0.16,0.16c-0.26-0.03-0.53-0.03-0.8-0.02
		c-0.71,0.03-1.41,0.15-2.07,0.42c-0.51,0.21-0.97,0.5-1.39,0.86h0c-0.05,0-0.08,0.03-0.08,0.08c-0.56,0.54-0.99,1.17-1.25,1.91
		c-0.33,0.94-0.34,1.9-0.16,2.87c0.21,1.15,0.79,2.07,1.78,2.72c0.86,0.57,1.84,0.78,2.86,0.81c0.5,0.01,1-0.03,1.5-0.1
		c0.77-0.1,1.52-0.29,2.23-0.58c0.2-0.08,0.21-0.1,0.2-0.32C21.61,18.95,21.56,18.52,21.56,18.08z M18.96,15.51
		C18.96,15.51,18.96,15.51,18.96,15.51c0,0.81,0,1.61,0,2.42c0,0.07,0.02,0.14-0.09,0.16c-0.79,0.1-1.57,0.12-2.28-0.34
		c-0.5-0.33-0.76-0.82-0.9-1.39c-0.15-0.6-0.14-1.2,0.04-1.8c0.18-0.58,0.58-1,1.1-1.3c0.62-0.36,1.29-0.45,2-0.33
		c0.11,0.02,0.13,0.06,0.13,0.16C18.96,13.9,18.96,14.7,18.96,15.51z"/>
	<path class="st1" d="M28.88,5.93c0-0.52-0.08-1.04-0.24-1.53C27.96,2.36,26.08,1,23.93,1C17.96,1,11.98,1,6,1
		C5.7,1,5.41,1.03,5.12,1.07C2.78,1.47,1.03,3.53,1.03,5.89c0,5.78-0.01,11.55,0,17.33c0,1.65,0.7,2.99,2.02,3.99
		c0.43,0.32,0.9,0.57,1.42,0.71c0.37,0.13,0.75,0.21,1.14,0.22c0.01,0,0.02,0,0.03,0c0.08,0.01,0.16,0.02,0.23,0.02
		c6.06,0,12.11,0,18.17,0c0.06,0,0.12,0.01,0.18-0.02c0.02,0,0.03,0,0.05,0c0.28,0,0.55-0.05,0.82-0.12
		c2.2-0.51,3.79-2.52,3.79-4.77C28.88,17.48,28.88,11.7,28.88,5.93z M11.16,8.43c0,3.82,0,7.64,0,11.45c0,0.06,0,0.11-0.01,0.17
		c-0.02,0.09-0.07,0.15-0.17,0.15H8.72c-0.14,0-0.16-0.09-0.16-0.21c0-0.91,0-1.82,0-2.74V8.2c0-0.23,0.01-0.24,0.24-0.24
		c0.72,0,1.44,0,2.16,0c0.14,0,0.19,0.05,0.2,0.19C11.16,8.24,11.16,8.34,11.16,8.43z M21.42,19.71c-0.72,0.29-1.46,0.48-2.23,0.58
		c-0.5,0.07-1,0.11-1.5,0.1c-1.02-0.03-1.99-0.24-2.86-0.81c-0.98-0.65-1.56-1.57-1.78-2.72c-0.18-0.97-0.17-1.93,0.16-2.87
		c0.26-0.74,0.69-1.37,1.25-1.91c0-0.05,0.03-0.08,0.08-0.08h0c0.42-0.35,0.88-0.65,1.39-0.86c0.66-0.27,1.36-0.39,2.07-0.42
		c0.27-0.01,0.53-0.01,0.8,0.02c0.14,0.01,0.16-0.04,0.16-0.16c0-1.09,0-2.18,0-3.27c0-0.4-0.01-0.35,0.34-0.35
		c0.68,0,1.35,0,2.03,0c0.23,0,0.23,0,0.23,0.23c0,3.63,0,7.26,0,10.89c0,0.44,0.05,0.87,0.06,1.31
		C21.63,19.61,21.62,19.63,21.42,19.71z"/>
	<path class="st1" d="M18.83,12.93c-0.7-0.12-1.38-0.04-2,0.33c-0.52,0.3-0.92,0.71-1.1,1.3c-0.18,0.59-0.19,1.2-0.04,1.8
		c0.14,0.57,0.4,1.06,0.9,1.39c0.71,0.46,1.49,0.44,2.28,0.34c0.1-0.01,0.09-0.09,0.09-0.16c0-0.81,0-1.61,0-2.42c0,0,0,0,0,0
		c0-0.81,0-1.61,0-2.42C18.96,12.99,18.94,12.95,18.83,12.93z"/>
</g>
</svg>
