<?xml version="1.0" encoding="utf-8"?>
<!-- Generator: Adobe Illustrator 26.1.0, SVG Export Plug-In . SVG Version: 6.00 Build 0)  -->
<svg version="1.1" id="Capa_1" xmlns="http://www.w3.org/2000/svg" xmlns:xlink="http://www.w3.org/1999/xlink" x="0px" y="0px"
	 viewBox="0 0 30 30" style="enable-background:new 0 0 30 30;" xml:space="preserve">
<style type="text/css">
	.st0{fill:#09141F;}
</style>
<path class="st0" d="M9.79,5.7c0.98,0.99,1.93,1.93,2.86,2.89c0.1,0.1,0.13,0.32,0.11,0.46c-0.17,0.99,0.11,1.78,0.93,2.39
	c0.15,0.11,0.29,0.36,0.29,0.54c0.02,2.26,0.02,4.53,0,6.79c0,0.17-0.12,0.4-0.26,0.5c-0.83,0.58-1.2,1.51-0.95,2.42
	c0.25,0.88,1.06,1.54,1.95,1.57c0.99,0.03,1.81-0.51,2.15-1.44c0.32-0.86,0.01-1.8-0.76-2.43c-0.13-0.11-0.27-0.3-0.27-0.46
	c-0.02-2.3-0.01-4.6,0-6.9c0-0.03,0.03-0.06,0.07-0.14c0.85,0.85,1.7,1.68,2.52,2.54c0.11,0.11,0.07,0.39,0.05,0.58
	c-0.11,0.92,0.25,1.78,1,2.19c0.82,0.45,1.64,0.41,2.41-0.14c0.69-0.49,1-1.45,0.76-2.29c-0.27-0.89-1.03-1.59-1.9-1.51
	c-0.76,0.06-1.22-0.25-1.69-0.76c-0.59-0.65-1.25-1.23-1.83-1.87c-0.16-0.18-0.28-0.5-0.26-0.73c0.17-1.43-1.02-2.62-2.47-2.43
	c-0.18,0.02-0.43-0.03-0.55-0.15c-0.9-0.87-1.77-1.76-2.66-2.64c-0.08-0.08-0.15-0.15-0.21-0.22c0.87-0.9,1.69-1.83,2.62-2.66
	c0.71-0.63,1.63-0.51,2.31,0.17c3.98,3.97,7.95,7.94,11.91,11.92c0.84,0.84,0.84,1.84,0,2.69c-3.95,3.96-7.91,7.92-11.88,11.88
	c-0.74,0.74-1.79,0.71-2.57-0.06c-2.12-2.11-4.23-4.23-6.34-6.35c-1.85-1.85-3.71-3.69-5.55-5.56c-0.84-0.85-0.81-1.83,0.03-2.68
	c2.57-2.57,5.14-5.14,7.72-7.72C9.49,5.98,9.62,5.86,9.79,5.7z"/>
</svg>
