<?xml version="1.0" encoding="utf-8"?>
<!-- Generator: Adobe Illustrator 26.1.0, SVG Export Plug-In . SVG Version: 6.00 Build 0)  -->
<svg version="1.1" id="Capa_1" xmlns="http://www.w3.org/2000/svg" xmlns:xlink="http://www.w3.org/1999/xlink" x="0px" y="0px"
	 viewBox="0 0 30 30" style="enable-background:new 0 0 30 30;" xml:space="preserve">
<style type="text/css">
	.st0{fill:none;}
	.st1{fill:#09141F;}
</style>
<g>
	<path class="st0" d="M22.12,15.95c0-1.42-0.01-2.84,0-4.27c0-0.28-0.07-0.4-0.37-0.39c-0.63,0.02-1.26,0.02-1.89,0
		c-0.27-0.01-0.37,0.08-0.37,0.36c0.01,2.88,0.01,5.76,0,8.64c0,0.28,0.1,0.37,0.37,0.36c0.61-0.01,1.21-0.02,1.82,0
		c0.34,0.01,0.44-0.1,0.44-0.44C22.12,18.79,22.12,17.37,22.12,15.95z"/>
	<path class="st0" d="M14.07,8.58C14,8.41,13.91,8.33,13.71,8.33c-0.9,0.01-1.8,0.01-2.69,0c-0.21,0-0.3,0.06-0.29,0.28
		c0.01,0.41-0.11,0.8-0.24,1.19c-1.21,3.48-2.41,6.95-3.62,10.43c-0.13,0.37-0.1,0.41,0.28,0.41c0.59,0,1.19-0.01,1.78,0
		c0.26,0.01,0.4-0.09,0.48-0.35c0.23-0.77,0.5-1.53,0.73-2.3c0.07-0.22,0.16-0.29,0.39-0.29c1.25,0.01,2.5,0.01,3.74,0
		c0.25,0,0.34,0.09,0.41,0.31c0.25,0.77,0.54,1.54,0.79,2.31c0.07,0.23,0.19,0.32,0.43,0.31c0.34-0.01,0.68,0,1.01,0
		c0.35,0,0.7-0.01,1.05,0c0.26,0.01,0.37-0.05,0.26-0.34C16.83,16.4,15.45,12.49,14.07,8.58z M13.62,15.36
		c-0.8-0.01-1.61-0.01-2.41,0c-0.25,0-0.29-0.05-0.21-0.29c0.44-1.31,0.86-2.63,1.23-3.97c0.05-0.17,0.08-0.34,0.15-0.58
		c0.33,1.07,0.64,2.07,0.94,3.07c0.16,0.51,0.32,1.02,0.49,1.53C13.86,15.29,13.83,15.36,13.62,15.36z"/>
	<path class="st0" d="M20.83,7.39c-0.84,0-1.45,0.62-1.45,1.46c0,0.87,0.57,1.46,1.43,1.46c0.88,0,1.47-0.59,1.48-1.46
		C22.29,7.96,21.72,7.39,20.83,7.39z"/>
	<path class="st1" d="M28.23,3.33c-0.89-1.15-1.95-1.97-3.49-1.96c-0.12-0.02-0.25,0.04-0.36-0.03c-6.25,0-12.51,0-18.76,0
		C5.5,1.41,5.38,1.36,5.26,1.38C4.78,1.4,4.3,1.41,3.87,1.61C2.78,2.1,1.97,2.9,1.39,3.94C1.11,4.45,1.12,5,1,5.54
		c0,6.18,0,12.37,0,18.55c0.07,0.12,0.02,0.24,0.04,0.36c0.04,0.45,0.04,0.91,0.24,1.32c0.5,1.1,1.3,1.91,2.36,2.49
		c0.5,0.27,1.04,0.25,1.57,0.37c6.51,0,13.02,0,19.53,0c0.47-0.1,0.96-0.06,1.4-0.27c1.1-0.51,1.91-1.3,2.49-2.36
		c0.27-0.5,0.26-1.05,0.38-1.57c0-6.28,0-12.55,0-18.83C28.93,4.79,28.76,4.01,28.23,3.33z M17.96,20.65c-0.35-0.01-0.7,0-1.05,0
		c-0.34,0-0.68-0.01-1.01,0c-0.24,0.01-0.35-0.08-0.43-0.31c-0.25-0.77-0.54-1.54-0.79-2.31c-0.07-0.22-0.16-0.31-0.41-0.31
		c-1.25,0.02-2.5,0.01-3.74,0c-0.23,0-0.32,0.07-0.39,0.29c-0.23,0.77-0.5,1.53-0.73,2.3c-0.08,0.26-0.21,0.35-0.48,0.35
		c-0.59-0.01-1.19,0-1.78,0c-0.37,0-0.4-0.05-0.28-0.41c1.2-3.48,2.41-6.95,3.62-10.43c0.13-0.39,0.25-0.78,0.24-1.19
		c0-0.22,0.09-0.28,0.29-0.28c0.9,0.01,1.8,0.01,2.69,0c0.2,0,0.29,0.07,0.35,0.25c1.38,3.91,2.77,7.82,4.16,11.72
		C18.33,20.6,18.22,20.65,17.96,20.65z M21.69,20.65c-0.61-0.02-1.21-0.02-1.82,0c-0.27,0.01-0.37-0.09-0.37-0.36
		c0.01-2.88,0.01-5.76,0-8.64c0-0.28,0.1-0.37,0.37-0.36c0.63,0.01,1.26,0.02,1.89,0c0.3-0.01,0.37,0.12,0.37,0.39
		c-0.01,1.42,0,2.84,0,4.27c0,1.42-0.01,2.84,0.01,4.27C22.13,20.55,22.03,20.66,21.69,20.65z M20.81,10.32
		c-0.85,0-1.43-0.59-1.43-1.46c0-0.84,0.61-1.46,1.45-1.46c0.9,0,1.46,0.57,1.46,1.47C22.28,9.73,21.68,10.32,20.81,10.32z"/>
	<path class="st1" d="M13.32,13.58c-0.31-1-0.62-2-0.94-3.07c-0.06,0.24-0.1,0.41-0.15,0.58c-0.36,1.34-0.79,2.66-1.23,3.97
		c-0.08,0.24-0.04,0.3,0.21,0.29c0.8-0.01,1.61-0.01,2.41,0c0.21,0,0.23-0.07,0.18-0.25C13.64,14.6,13.47,14.09,13.32,13.58z"/>
</g>
</svg>
