<?xml version="1.0" encoding="utf-8"?>
<!-- Generator: Adobe Illustrator 26.1.0, SVG Export Plug-In . SVG Version: 6.00 Build 0)  -->
<svg version="1.1" id="Capa_1" xmlns="http://www.w3.org/2000/svg" xmlns:xlink="http://www.w3.org/1999/xlink" x="0px" y="0px"
	 viewBox="0 0 30 30" style="enable-background:new 0 0 30 30;" xml:space="preserve">
<style type="text/css">
	.st0{fill:#09141F;}
</style>
<g>
	<path class="st0" d="M28.98,5.37C28.98,5.37,28.98,5.37,28.98,5.37c-0.03-0.4-0.03-0.81-0.19-1.19c-0.31-0.8-0.78-1.5-1.43-2.06
		c-0.79-0.67-1.67-1.12-2.73-1.11c0,0,0,0,0,0C24.54,1.01,24.45,1.05,24.36,1C18.12,1,11.88,1,5.64,1C5.55,1.05,5.46,1.01,5.37,1.02
		c0,0,0,0,0,0c-0.4,0.03-0.8,0.04-1.19,0.19c-0.8,0.31-1.5,0.78-2.05,1.43C1.46,3.42,1.01,4.31,1.02,5.37c0,0,0,0,0,0
		C1.01,5.46,1.05,5.55,1,5.64c0,6.01,0,12.02,0,18.02c0.05,0.08,0.01,0.18,0.02,0.26c0,0,0,0,0,0c0.03,0.4,0.04,0.8,0.19,1.19
		c0.31,0.8,0.78,1.5,1.43,2.06c0.8,0.68,1.69,1.13,2.77,1.1c0,0,0,0,0.01,0c0.07,0.01,0.15-0.02,0.22,0.02c6.24,0,12.48,0,18.73,0
		c0.07-0.04,0.15-0.01,0.22-0.02c0,0,0.01,0,0.01,0c0.41-0.03,0.82-0.03,1.22-0.18c0.98-0.38,1.78-0.99,2.38-1.84
		c0.49-0.7,0.81-1.45,0.79-2.32c0,0,0,0,0,0c0.01-0.09-0.02-0.18,0.02-0.26c0-6.01,0-12.02,0-18.02
		C28.95,5.55,28.99,5.46,28.98,5.37z M15.93,13.53c-0.44,1.38-1.41,2.2-2.77,2.61c-0.96,0.28-1.94,0.29-2.93,0.26
		c-0.4-0.01-0.4-0.01-0.4,0.39c0,1.07,0,2.14,0,3.21c0,0.27-0.02,0.29-0.28,0.29c-0.66,0-1.31,0-1.97,0c-0.27,0-0.28-0.01-0.28-0.28
		c0-1.96,0-3.92,0-5.88c0-1.95,0-3.89,0-5.84C7.29,8.07,7.36,8,7.58,8C8.92,8,10.26,7.9,11.6,7.96c1.16,0.05,2.25,0.32,3.16,1.09
		c0.97,0.82,1.35,1.9,1.35,3.14C16.12,12.64,16.06,13.09,15.93,13.53z M22.91,19.89c-0.55,0.35-1.16,0.53-1.81,0.6
		c-1.11,0.12-2.2,0.03-3.26-0.33c-0.03-0.01-0.07-0.03-0.1-0.04c-0.38-0.15-0.38-0.16-0.38-0.57c0-0.26,0-0.51,0-0.77
		c0-0.31,0-0.61,0-0.92c0-0.22,0.05-0.25,0.24-0.14c0.92,0.5,1.9,0.72,2.94,0.69c0.24-0.01,0.48-0.04,0.7-0.13
		c0.41-0.17,0.49-0.59,0.18-0.9c-0.2-0.2-0.45-0.3-0.69-0.41c-0.66-0.28-1.35-0.51-1.96-0.91c-0.66-0.42-1.16-0.95-1.33-1.74
		c-0.27-1.22,0.31-2.42,1.42-3.01c0.48-0.26,1-0.41,1.54-0.44c1-0.07,1.99-0.03,2.96,0.28c0.22,0.07,0.3,0.19,0.29,0.41
		c-0.01,0.54,0,1.08,0,1.62c0,0.32-0.08,0.37-0.38,0.24c-0.84-0.39-1.74-0.53-2.66-0.48c-0.16,0.01-0.32,0.04-0.47,0.1
		c-0.36,0.15-0.45,0.56-0.19,0.85c0.13,0.14,0.29,0.24,0.46,0.33c0.55,0.3,1.15,0.45,1.7,0.73c0.24,0.12,0.48,0.25,0.71,0.38
		C24.69,16.37,24.47,18.9,22.91,19.89z"/>
	<path class="st0" d="M12.28,10.4c-0.76-0.25-1.54-0.15-2.32-0.14c-0.13,0-0.12,0.1-0.12,0.18c0,0.59,0,1.18,0,1.77
		c0,0.6,0,1.19,0,1.79c0,0.12,0.02,0.19,0.16,0.2c0.77,0.03,1.53,0.04,2.27-0.2c0.88-0.28,1.3-0.87,1.31-1.84
		C13.58,11.28,13.13,10.67,12.28,10.4z"/>
</g>
</svg>
