<?xml version="1.0" encoding="utf-8"?>
<!-- Generator: Adobe Illustrator 24.0.0, SVG Export Plug-In . SVG Version: 6.00 Build 0)  -->
<svg version="1.1" id="Capa_1" xmlns="http://www.w3.org/2000/svg" xmlns:xlink="http://www.w3.org/1999/xlink" x="0px" y="0px"
	 viewBox="0 0 1080 1080" style="enable-background:new 0 0 1080 1080;" xml:space="preserve">
<style type="text/css">
	.st0{fill:none;}
	.st1{fill:#1D1D1B;}
	.st2{display:none;}
	.st3{display:inline;fill:none;}
	.st4{display:inline;fill:#FCCE9E;}
	.st5{fill:#FCCE9E;}
	.st6{display:inline;}
</style>
<g>
	<path class="st0" d="M741.6,800.5H345.8c-8.3,0-15,6.7-15,15s6.7,15,15,15h395.8c8.3,0,15-6.7,15-15S749.9,800.5,741.6,800.5z"/>
	<path class="st0" d="M798.8,675.3H288.6c-19,0-34.9,13.3-39,31c4.1,17.7,20,31,39,31h510.2c19,0,34.9-13.3,39-31
		C833.6,688.5,817.7,675.3,798.8,675.3z M543.7,716.2c-5.5,0-10-4.5-10-10s4.5-10,10-10s10,4.5,10,10S549.2,716.2,543.7,716.2z"/>
	<path class="st1" d="M848.8,559.6c-5.5,0-10,4.5-10,10v0v20v81c-10.6-9.5-24.6-15.3-40-15.3H288.6c-15.4,0-29.4,5.8-40,15.3V335
		c0-22.1,17.9-40,40-40h244.2h20h0c5.5,0,10-4.5,10-10s-4.5-10-10-10h0h-20H288.6c-33.1,0-60,26.9-60,60v362.2c0,3.1,0.2,6.1,0.7,9
		c2.1,14.1,9.2,26.6,19.3,35.6c10.6,9.5,24.6,15.3,40,15.3h510.2c15.4,0,29.4-5.8,40-15.3c10.1-9.1,17.2-21.6,19.3-35.6
		c0.4-2.9,0.7-6,0.7-9V589.6v-20v0C858.8,564,854.3,559.6,848.8,559.6z M798.8,737.2H288.6c-19,0-34.9-13.3-39-31
		c4.1-17.7,20-31,39-31h510.2c19,0,34.9,13.3,39,31C833.6,724,817.7,737.2,798.8,737.2z"/>
	<circle class="st1" cx="543.7" cy="706.2" r="10"/>
	<path class="st1" d="M741.6,780.5H345.8c-19.3,0-35,15.7-35,35s15.7,35,35,35h395.8c19.3,0,35-15.7,35-35S760.9,780.5,741.6,780.5z
		 M741.6,830.5H345.8c-8.3,0-15-6.7-15-15s6.7-15,15-15h395.8c8.3,0,15,6.7,15,15S749.9,830.5,741.6,830.5z"/>
</g>
<g class="st2">
	<path class="st3" d="M397.8,394.6v-39.3c-24.7,2.6-45.2,19.8-52.3,43.5h48C395.9,398.9,397.8,397,397.8,394.6z"/>
	<path class="st3" d="M435.7,355h-24.9v39.6c0,9.5-7.8,17.3-17.3,17.3h-50.1c-0.1,0-0.2,0-0.3,0c-0.1,1.5-0.2,2.9-0.2,4.4v127
		c0,33.8,27.5,61.3,61.3,61.3h31.4c33.8,0,61.3-27.5,61.3-61.3v-127C497.1,382.5,469.6,355,435.7,355z M475.9,558.6H364.2
		c-2.4,0-4.2-2.8-4.2-6.6s1.8-6.6,4.2-6.6h111.6c2.4,0,4.2,2.8,4.2,6.6S478.3,558.6,475.9,558.6z M360,512.8c0-4.6,0.9-6.6,2.9-6.6
		h41.7c2,0,2.9,2,2.9,6.6s-0.9,6.6-2.9,6.6h-41.7C360.9,519.4,360,517.4,360,512.8z M477.2,519.4h-41.7c-2,0-2.9-2-2.9-6.6
		s0.9-6.6,2.9-6.6h41.7c2,0,2.9,2,2.9,6.6S479.2,519.4,477.2,519.4z M475.9,487.8H364.2c-2.4,0-4.2-2.8-4.2-6.6s1.8-6.6,4.2-6.6
		h111.6c2.4,0,4.2,2.8,4.2,6.6S478.3,487.8,475.9,487.8z M475.9,448.8H364.2c-2.4,0-4.2-2.8-4.2-6.6s1.8-6.6,4.2-6.6h111.6
		c2.4,0,4.2,2.8,4.2,6.6S478.3,448.8,475.9,448.8z"/>
	<path class="st4" d="M854.9,291.4c-7.4-14-22.8-20.4-34.5-14.2L624.4,380.4c-3.6,1.9-6.4,4.8-8.4,8.2l-34.6,33.9l-8.3,8.1l0,0.1
		c-3.1,2.2-4.3,6.2-2.9,9.7c0.1,0.2,0.2,0.5,0.3,0.7l0,0c0,0,0,0,0,0c0.1,0.2,0.3,0.5,0.4,0.7c2.1,3.2,6.1,4.5,9.6,3.1l0,0.1
		l11.4-2.2l47.5-9.3c4,0.3,7.9-0.4,11.5-2.3l196.1-103.1C858.8,321.8,862.3,305.4,854.9,291.4z"/>
	<path class="st4" d="M477.2,506.2h-41.7c-2,0-2.9,2-2.9,6.6s0.9,6.6,2.9,6.6h41.7c2,0,2.9-2,2.9-6.6S479.2,506.2,477.2,506.2z"/>
	<path class="st4" d="M404.6,519.4c2,0,2.9-2,2.9-6.6s-0.9-6.6-2.9-6.6h-41.7c-2,0-2.9,2-2.9,6.6s0.9,6.6,2.9,6.6H404.6z"/>
	<path class="st4" d="M475.9,545.4H364.2c-2.4,0-4.2,2.8-4.2,6.6s1.8,6.6,4.2,6.6h111.6c2.4,0,4.2-2.8,4.2-6.6
		S478.3,545.4,475.9,545.4z"/>
	<path class="st4" d="M475.9,474.7H364.2c-2.4,0-4.2,2.8-4.2,6.6s1.8,6.6,4.2,6.6h111.6c2.4,0,4.2-2.8,4.2-6.6
		S478.3,474.7,475.9,474.7z"/>
	<path class="st4" d="M475.9,435.6H364.2c-2.4,0-4.2,2.8-4.2,6.6s1.8,6.6,4.2,6.6h111.6c2.4,0,4.2-2.8,4.2-6.6
		S478.3,435.6,475.9,435.6z"/>
	<path class="st4" d="M438,342.7L438,342.7l-35.9,0v0c-0.8,0-1.6,0.1-2.4,0.1c-28.9,1.8-54.2,20.6-64.4,47.7
		c-1.8,4.9-3.2,10.1-3.9,15.3c-0.5,3.5-0.7,7-0.7,10.5v127c0,40.6,33,73.6,73.6,73.6h31.4c27.7,0,52.9-15.4,65.6-40.1
		c0.3-0.5,0.5-1.1,0.8-1.6c4.8-10,7.3-20.7,7.3-31.9v-127C509.4,376.5,477.5,343.9,438,342.7z M397.8,355.3v39.3
		c0,2.3-1.9,4.2-4.2,4.2h-48C352.6,375.1,373.1,357.9,397.8,355.3z M497.1,543.4c0,33.8-27.5,61.3-61.3,61.3h-31.4
		c-33.8,0-61.3-27.5-61.3-61.3v-127c0-1.5,0.1-2.9,0.2-4.4c0.1,0,0.2,0,0.3,0h50.1c9.5,0,17.3-7.8,17.3-17.3V355h24.9
		c33.8,0,61.3,27.5,61.3,61.3V543.4z"/>
</g>
<g>
	<g>
		<ellipse class="st0" cx="419.1" cy="406.2" rx="51.8" ry="49.8"/>
		<path class="st0" d="M419.1,490.3c-39.3,0-71.4,31.5-72.5,70.6c0.2,8.9,2.1,17.5,5.5,25.7c15.9-21,40.6-33.4,67-33.4
			s51.1,12.4,67,33.4c3.4-8.2,5.2-16.8,5.5-25.7C490.5,521.8,458.4,490.3,419.1,490.3z"/>
		<path class="st5" d="M419.1,478.9c-46.3,0-83.9,37.6-83.9,83.9c0,14.1,3.6,28,10.3,40.3c1.3,2.3,2.7,4.6,4.1,6.8l2.3,3.4l1.8-3.7
			c1-2.1,2.2-4.3,3.5-6.4c13.3-21.7,36.4-34.7,61.8-34.7s48.5,13,61.8,34.7c1.3,2.1,2.4,4.2,3.5,6.4l1.8,3.7l2.3-3.4
			c1.5-2.2,2.9-4.4,4.1-6.8c6.7-12.3,10.3-26.2,10.3-40.3C503,516.6,465.4,478.9,419.1,478.9z M486.1,586.6
			c-15.9-21-40.6-33.4-67-33.4s-51.1,12.4-67,33.4c-3.4-8.2-5.2-16.8-5.5-25.7c1-39.1,33.1-70.6,72.5-70.6
			c39.3,0,71.4,31.5,72.5,70.6C491.3,569.8,489.5,578.4,486.1,586.6z"/>
		<path class="st5" d="M419.1,466.7c34.5,0,62.5-28,62.5-62.5s-28-62.5-62.5-62.5s-62.5,28-62.5,62.5S384.7,466.7,419.1,466.7z
			 M419.1,356.3c27.9,0,50.7,22.2,51.8,49.8c-1.1,27.7-23.9,49.8-51.8,49.8s-50.7-22.2-51.8-49.8
			C368.4,378.5,391.2,356.3,419.1,356.3z"/>
	</g>
	<path class="st5" d="M810.9,286.3H683.3c-30.6,0-55.4,24.8-55.4,55.4s24.8,55.4,55.4,55.4h127.6c30.6,0,55.4-24.8,55.4-55.4
		S841.5,286.3,810.9,286.3z"/>
	<circle class="st5" cx="608" cy="410.4" r="23.9"/>
	<circle class="st5" cx="557.7" cy="442" r="14.1"/>
</g>
<g class="st2">
	<g class="st6">
		<path class="st5" d="M458.3,403.6c-3.4,0-6.1,2.6-6.3,6l-44.4,147.4c-0.6,1-0.9,2.1-0.9,3.2c0,3.5,2.8,6.3,6.3,6.3
			c3.4,0,6.1-2.6,6.3-6L463.7,413c0.6-1,0.9-2.1,0.9-3.2C464.6,406.4,461.7,403.6,458.3,403.6z"/>
		<path class="st5" d="M568.7,481.6l0.1-0.3l-79.3-68.9l-1.5-1.3l-0.2,0.2c-0.8-0.3-1.6-0.5-2.4-0.5c-3.5,0-6.3,2.8-6.3,6.3
			c0,1.1,0.3,2.1,0.8,3l-0.3,0.3l74.1,64.4l-74.1,64.4l0.3,0.4c-0.5,0.9-0.8,2-0.8,3.1c0,3.5,2.8,6.3,6.3,6.3c1.9,0,3.7-0.9,4.9-2.4
			l76.4-66.5c1.8-1.2,2.8-3.1,2.8-5.2C569.6,483.8,569.3,482.6,568.7,481.6z"/>
		<path class="st5" d="M382.1,410.9c-0.8,0-1.6,0.2-2.4,0.5l-0.2-0.3l-79.6,69.2l-1.4,1.2l0.2,0.3c-0.5,0.9-0.8,2-0.8,3.1
			c0,2.1,1,4.1,2.8,5.2l76.4,66.5c1.2,1.5,3,2.4,4.9,2.4c3.5,0,6.3-2.8,6.3-6.3c0-1.1-0.3-2.1-0.8-3.1l0.3-0.4l-74.1-64.4l72.6-63.1
			l1.5-1.3l-0.3-0.3c0.5-0.9,0.8-1.9,0.8-3C388.4,413.7,385.6,410.9,382.1,410.9z"/>
	</g>
	<g class="st6">
		<path class="st5" d="M697.1,512.5c25.4-42,50.8-84.1,76.2-126.2c4.3-7.1,5.1-14.2,0.3-21.2c-4.8-7.1-11.7-8.6-19.9-7.2
			c-24.7,4.3-49.4,8.3-74.2,12.5c-24.5,4.1-49,8.2-73.5,12.3c-10,1.7-15.2,6.2-16.9,14.5c-1.7,8.3,1.2,14.2,10.1,19.9
			c13.5,8.7,27.1,17.3,40.7,25.7c6.4,3.9,10.6,9,12.1,16.5c3.2,15.7,6.7,31.4,10,47.1c2.2,10.3,6.6,15.5,14.6,16.9
			C685.1,524.8,691.8,521.4,697.1,512.5z"/>
		<path class="st5" d="M769.7,316.7c-0.7-5.3-1.7-10.5-2.6-15.8c-1-5.7-1.8-11.5-2.9-17.2c-1.2-6.1-5-9.3-11.4-8.6
			c-5.7,0.6-9.4,5.2-8.5,11.4c1.6,11.3,3.5,22.5,5.6,33.7c1.2,6.2,5.6,9.3,11.6,8.3C767.6,327.3,770.5,322.9,769.7,316.7z"/>
		<path class="st5" d="M804.5,332.5c3.2-4.2,6.2-8.7,9.3-13c3.4-4.7,6.9-9.4,10.1-14.2c3.4-5.2,3.1-10.1-1.9-14.1
			c-4.5-3.6-10.3-3-14.1,2c-6.9,9.1-13.4,18.4-19.8,27.8c-3.5,5.2-2.7,10.5,2.4,14.1C795.5,338.5,800.7,337.5,804.5,332.5z"/>
		<path class="st5" d="M801.8,401.9c4.2,3.2,8.7,6.2,13,9.3c4.7,3.4,9.4,6.9,14.2,10.1c5.2,3.4,10.1,3.1,14.1-1.9
			c3.6-4.5,3-10.3-2-14.1c-9.1-6.9-18.4-13.4-27.8-19.8c-5.2-3.5-10.5-2.7-14.1,2.4C795.7,392.8,796.7,398,801.8,401.9z"/>
		<path class="st5" d="M813.8,348c-6.2,1.2-9.4,5.1-8.6,11.3c0.7,6,4.9,9.2,10.7,8.5c11.8-1.5,23.5-3.5,35.1-5.9
			c5.6-1.2,8.5-5.4,7.6-11.4c-0.9-5.6-5.6-8.8-11.8-8c-5.5,0.7-11,1.8-16.5,2.7C824.8,346.1,819.3,347,813.8,348z"/>
	</g>
</g>
<g class="st2">
	<path class="st3" d="M420.7,612.8c12.5,0,23.2-8.4,26.5-20.1h-52.9C397.4,604.4,408.1,612.8,420.7,612.8z"/>
	<path class="st3" d="M420.7,396.2c-35.6,0-64.6,29-64.6,64.6c0,15,5.3,29.7,14.9,41.2c1.6,1.9,3.4,3.8,5.2,5.6l0.8,0.8l-0.3,1.1
		c-0.6,2.5-1,5-1.2,7.6c-0.1,1-0.1,2.1-0.1,3.1c0,24.9,20.3,45.2,45.2,45.2c24.9,0,45.2-20.3,45.2-45.2c0-1,0-2-0.1-3.1
		c-0.2-2.6-0.6-5.1-1.2-7.6l-0.3-1.1l0.8-0.8c1.8-1.7,3.6-3.6,5.2-5.6l0,0c1.2-1.4,2.3-2.9,3.4-4.5c3.7-5.4,6.6-11.3,8.5-17.4
		c0,0,0,0,0,0c1.1-3.5,1.9-7.2,2.4-10.9c0.4-2.8,0.6-5.6,0.6-8.4C485.2,425.2,456.3,396.2,420.7,396.2z"/>
	<path class="st4" d="M855.7,274.6c-3.8-4-8.9-6.3-14.4-6.5c-5.5-0.2-10.7,1.8-14.7,5.5l-119.2,93.8l-0.2,0.1
		c-13.7,12.8-14.3,34.4-1.5,48.1c6.7,7.1,15.7,10.7,24.8,10.7c8.4,0,16.7-3.1,23.3-9.2l0.1-0.1l101.1-113.3
		C863.1,296,863.5,282.9,855.7,274.6z"/>
	<path class="st4" d="M648.4,407.3c-23.6,5.2-38.8,28-34.8,51.6l-0.1,0l0.5,2.2c0,0,0,0,0,0c0,0.1,0,0.1,0,0.2
		c0.5,2.2,4.4,20.8-3.8,34c-4,6.4-10.2,10.6-18.6,12.4l0.9,4.2l75.1-16.5l2.1-0.5l0-0.1c23.1-6.2,37.4-29.6,32.3-53.2
		C696.8,417.4,672.7,402,648.4,407.3z"/>
	<path class="st4" d="M420.7,385.5c-41.5,0-75.3,33.8-75.3,75.3c0,19,7.1,37.1,20,51.1c-0.4,2.7-0.6,5.5-0.6,8.3
		c0,30.8,25.1,55.9,55.9,55.9c30.8,0,55.9-25.1,55.9-55.9c0-2.8-0.2-5.6-0.6-8.3c12.9-14,20-32.1,20-51.1
		C496,419.3,462.2,385.5,420.7,385.5z M482.3,480.1C482.3,480.1,482.3,480.1,482.3,480.1c-2,6.2-4.8,12.1-8.6,17.5
		c-1.1,1.5-2.2,3-3.4,4.5l0,0c-1.6,1.9-3.4,3.8-5.2,5.6l-0.8,0.8l0.3,1.1c0.6,2.5,1,5,1.2,7.6c0.1,1.1,0.1,2.1,0.1,3.1
		c0,24.9-20.3,45.2-45.2,45.2c-24.9,0-45.2-20.3-45.2-45.2c0-1,0-2,0.1-3.1c0.2-2.6,0.6-5.1,1.2-7.6l0.3-1.1l-0.8-0.8
		c-1.8-1.7-3.6-3.6-5.2-5.6c-9.6-11.6-14.9-26.2-14.9-41.2c0-35.6,29-64.6,64.6-64.6s64.6,29,64.6,64.6c0,2.8-0.2,5.6-0.6,8.4
		C484.2,472.9,483.4,476.5,482.3,480.1z"/>
	<path class="st4" d="M417.1,368.3L417.1,368.3c0.2,0.8,0.5,1.7,0.8,2.6c0.2,0.7,0.6,1.7,1,2.7l1.8,4l1.8-4c0.5-1,0.8-2,1-2.7
		c0.3-0.9,0.6-1.8,0.8-2.6c0.4-1.7,0.8-3.4,1-5.1c0.5-3.3,0.7-6.6,0.7-10.2c0-3.6-0.3-6.9-0.7-10.2c-0.3-1.7-0.6-3.4-1-5.2
		c-0.2-0.8-0.4-1.7-0.7-2.6c-0.3-1.1-0.7-1.9-1-2.7l-1.8-4l-1.8,4c-0.5,1-0.8,2-1,2.7c-0.3,0.9-0.5,1.8-0.8,2.6
		c-0.4,1.7-0.8,3.4-1,5.1c-0.5,3.3-0.7,6.6-0.7,10.2c0,3.6,0.2,6.9,0.7,10.2C416.3,364.9,416.6,366.6,417.1,368.3z"/>
	<path class="st4" d="M547.2,458.1c-0.9-0.3-1.8-0.5-2.6-0.8c-1.7-0.4-3.4-0.8-5.1-1c-3.3-0.5-6.6-0.7-10.2-0.7c0,0,0,0,0,0
		c-3.6,0-7,0.3-10.2,0.7c-1.7,0.3-3.4,0.6-5.2,1c-0.8,0.2-1.7,0.4-2.6,0.7c-0.7,0.2-1.7,0.6-2.7,1l-4,1.8l4,1.8c1,0.5,2,0.8,2.7,1
		c0.9,0.3,1.8,0.6,2.6,0.8c1.7,0.4,3.4,0.8,5.1,1c3.3,0.5,6.6,0.7,10.2,0.7c0,0,0,0,0,0c3.6,0,6.9-0.2,10.2-0.7
		c1.7-0.3,3.4-0.6,5.2-1c0.8-0.2,1.7-0.4,2.6-0.7c0.7-0.2,1.7-0.6,2.7-1l4-1.8l-4-1.8C548.9,458.7,547.9,458.4,547.2,458.1z"/>
	<path class="st4" d="M518.9,385.5c1-1.4,2-2.9,2.9-4.4c0.4-0.7,0.9-1.5,1.3-2.4c0.3-0.7,0.8-1.6,1.2-2.6l1.5-4.1l-4.1,1.5
		c-1,0.4-1.9,0.8-2.6,1.2c-0.9,0.4-1.7,0.9-2.4,1.3c-1.5,0.9-3,1.9-4.4,2.9c-2.7,2-5.2,4.2-7.7,6.7c-2.5,2.6-4.7,5.1-6.7,7.7
		c-1,1.4-2,2.9-2.9,4.4c-0.4,0.7-0.9,1.5-1.3,2.4c-0.3,0.7-0.8,1.6-1.2,2.6l-1.6,4.1l4.1-1.6c1-0.4,1.9-0.8,2.6-1.2
		c0.9-0.4,1.7-0.9,2.4-1.3c1.5-0.9,3-1.9,4.4-2.9c2.7-1.9,5.2-4.1,7.7-6.7C514.8,390.7,517,388.2,518.9,385.5z"/>
	<path class="st4" d="M327.4,458.1c-0.9-0.3-1.8-0.5-2.6-0.7l0,0c-1.7-0.4-3.4-0.8-5.1-1c-3.3-0.5-6.6-0.7-10.2-0.7
		c-3.6,0-6.9,0.2-10.2,0.7c-1.7,0.3-3.4,0.6-5.2,1c-0.8,0.2-1.7,0.5-2.6,0.7c-0.7,0.2-1.7,0.6-2.7,1l-4,1.8l4,1.8c1,0.5,2,0.8,2.7,1
		c0.9,0.3,1.8,0.6,2.6,0.8c1.7,0.4,3.4,0.8,5.1,1c3.3,0.5,6.6,0.7,10.2,0.7c0,0,0,0,0,0c3.6,0,6.9-0.3,10.2-0.7
		c1.7-0.3,3.4-0.6,5.2-1c0.8-0.2,1.7-0.4,2.6-0.7c0.7-0.2,1.7-0.6,2.7-1l4-1.8l-4-1.8C329.1,458.7,328.1,458.4,327.4,458.1z"/>
	<path class="st4" d="M345.1,402.8c-0.4-1-0.8-1.9-1.2-2.6c-0.4-0.9-0.9-1.7-1.3-2.4l0,0c-0.9-1.5-1.9-3-2.9-4.4
		c-1.9-2.7-4.1-5.2-6.7-7.7c-2.5-2.5-5.1-4.7-7.7-6.7c-1.4-1-2.9-2-4.4-2.9c-0.7-0.4-1.5-0.9-2.4-1.3c-0.7-0.3-1.6-0.8-2.6-1.2
		l-4.1-1.5l1.5,4.1c0.4,1,0.8,1.9,1.2,2.6c0.4,0.9,0.9,1.7,1.3,2.4c0.9,1.5,1.9,3,2.9,4.4c2,2.7,4.2,5.2,6.7,7.7
		c2.6,2.6,5.1,4.7,7.7,6.7c1.4,1,2.9,2,4.4,2.9c0.7,0.4,1.5,0.9,2.4,1.3c0.7,0.3,1.6,0.8,2.6,1.2l4.1,1.6L345.1,402.8z"/>
	<path class="st4" d="M382.4,587.3c0,21.1,17.1,38.2,38.2,38.2s38.2-17.1,38.2-38.2v-5.4h-76.4V587.3z M447.1,592.7
		c-3.2,11.7-14,20.1-26.5,20.1c-12.5,0-23.2-8.4-26.5-20.1H447.1z"/>
</g>
</svg>
