<?xml version="1.0" encoding="utf-8"?>
<!-- Generator: Adobe Illustrator 24.0.0, SVG Export Plug-In . SVG Version: 6.00 Build 0)  -->
<svg version="1.1" id="Capa_2" xmlns="http://www.w3.org/2000/svg" xmlns:xlink="http://www.w3.org/1999/xlink" x="0px" y="0px"
	 viewBox="0 0 50.7 50.7" style="enable-background:new 0 0 50.7 50.7;" xml:space="preserve">
<style type="text/css">
	.st0{fill:#091420;}
</style>
<path id="path24" class="st0" d="M11.6,5.6c-0.5,0-1,0.1-1.4,0.3C7.7,7.2,6.2,9,5.6,11.6c-1,4-0.3,8,2,12.2
	c4.9,8.9,12.7,15.4,23.3,19.4c2.4,0.9,5.2,1,7.2,0.9c4.1-0.2,6.1-2.9,7.1-5.2c0.4-0.9,0.5-1.8,0.1-2.5c-0.3-0.7-1.1-1.2-2.1-1.5
	c-2.1-0.5-4.3-1-6.4-1.4c-2-0.4-3.3-0.6-3.9-0.3c-0.5,0.2-3.7,4.2-3.7,4.2l-0.7-0.3c-6.6-3.1-11.8-8-15.5-14.6l-0.6-1.1
	c0,0,4.1-2.8,4.3-3.2c0.2-0.4,0-1.4-0.3-2.7c-0.2-1.2-0.6-2.4-0.9-3.5c-0.4-1.5-0.8-3-1.1-4.6c-0.1-0.8-0.6-1.4-1.3-1.7
	C12.6,5.7,12.1,5.6,11.6,5.6 M36.9,47.1c-2.1,0-4.7-0.2-7-1.1c-5.4-2.1-10.2-4.8-14.2-8.1c-4.3-3.5-7.8-7.8-10.5-12.7
	c-2.6-4.8-3.4-9.6-2.3-14.2c0.8-3.4,2.8-5.9,5.9-7.6c1.6-0.9,3.8-0.9,5.4,0c1.5,0.7,2.5,2.1,2.8,3.7c0.3,1.5,0.6,2.9,1,4.4
	c0.3,1.2,0.6,2.4,0.9,3.6c0.4,1.9,0.6,3.2,0.1,4.4c-0.5,1.2-1.6,1.8-3.2,2.9c3.2,5.3,7.3,9.2,12.6,11.9c1.1-1.8,1.9-2.9,3.1-3.4
	c1.4-0.6,2.8-0.3,5.5,0.1c2.2,0.4,4.4,0.9,6.6,1.4c1.9,0.4,3.3,1.5,4,2.9c0.7,1.4,0.7,3.2-0.1,4.9c-1.9,4.2-5.2,6.7-9.5,6.9
	C37.8,47,37.4,47.1,36.9,47.1"/>
</svg>
