<?xml version="1.0" encoding="utf-8"?>
<!-- Generator: Adobe Illustrator 26.1.0, SVG Export Plug-In . SVG Version: 6.00 Build 0)  -->
<svg version="1.1" id="Capa_1" xmlns="http://www.w3.org/2000/svg" xmlns:xlink="http://www.w3.org/1999/xlink" x="0px" y="0px"
	 viewBox="0 0 30 30" style="enable-background:new 0 0 30 30;" xml:space="preserve">
<style type="text/css">
	.st0{fill:#09141F;}
</style>
<g>
	<path class="st0" d="M27.28,13.05c-0.39-0.62-0.62-1.31-0.78-2.02c-0.19-0.83-0.29-1.67-0.31-2.52c-0.02-0.7,0.01-1.39-0.03-2.09
		c-0.07-1.24-1.02-2.37-2.29-2.57C23.7,3.82,23.51,3.8,23.33,3.8c-5.44,0-10.88,0.01-16.32-0.01c-1.55,0-2.61,1.09-2.84,2.36
		C4.14,6.35,4.14,6.54,4.14,6.72c0,0.48,0.01,0.97,0,1.45c-0.04,1.2-0.16,2.4-0.52,3.55c-0.17,0.54-0.39,1.05-0.72,1.51
		c-0.45,0.62-1.03,1.02-1.8,1.11C1.03,14.36,1,14.39,1,14.47c0,0.41,0,0.81,0,1.22c0,0.08,0.03,0.11,0.1,0.12
		c0.81,0.1,1.41,0.53,1.86,1.2c0.36,0.53,0.58,1.12,0.75,1.73c0.19,0.7,0.3,1.42,0.36,2.14c0.08,0.87,0.06,1.74,0.06,2.62
		c0,1.06,0.46,1.88,1.34,2.46c0.35,0.23,0.73,0.35,1.15,0.38c0.03,0,0.07,0.02,0.1,0.03c5.62,0,11.24,0,16.86,0
		c0.13-0.02,0.26-0.04,0.38-0.06c1.13-0.27,1.83-0.99,2.13-2.1c0.06-0.23,0.08-0.48,0.08-0.72c0.02-0.67-0.01-1.34,0.02-2
		c0.06-1.2,0.22-2.38,0.66-3.51c0.21-0.54,0.49-1.05,0.91-1.46c0.43-0.42,0.95-0.66,1.55-0.71c0-0.47,0-0.94,0-1.42
		C28.41,14.28,27.76,13.8,27.28,13.05z M19.53,19.46c-0.42,0.68-1.05,1.1-1.79,1.35c-0.53,0.19-1.09,0.28-1.65,0.29
		c-1.71,0.01-3.41,0.01-5.12,0.02c-0.17,0-0.18,0-0.18-0.17c0-3.02,0-6.05,0-9.07c0-0.89,0-1.78,0-2.67c0-0.18,0-0.18,0.17-0.18
		c1.57,0,3.13,0,4.7,0c0.75,0,1.49,0.11,2.17,0.46c0.88,0.46,1.4,1.17,1.54,2.16c0.21,1.48-0.79,2.71-1.97,3.02
		c-0.05,0.01-0.1,0.03-0.18,0.05c0.64,0.09,1.2,0.28,1.68,0.66c0.63,0.5,0.99,1.15,1.07,1.94C20.06,18.08,19.93,18.8,19.53,19.46z"
		/>
	<path class="st0" d="M17.03,15.97c-0.44-0.22-0.91-0.31-1.39-0.32c-0.92-0.02-1.83-0.01-2.75-0.01c-0.03,0-0.07,0.01-0.11,0.01
		c0,1.29,0,2.56,0,3.85c0.04,0,0.07,0.01,0.11,0.01c0.89,0,1.79,0.01,2.68-0.01c0.31-0.01,0.63-0.05,0.93-0.12
		c0.45-0.1,0.84-0.3,1.13-0.68c0.3-0.39,0.37-0.85,0.34-1.33C17.92,16.73,17.61,16.26,17.03,15.97z"/>
	<path class="st0" d="M14.86,14.14c0.44-0.01,0.89-0.04,1.31-0.18c0.44-0.15,0.82-0.38,1.05-0.81c0.18-0.34,0.22-0.7,0.18-1.09
		c-0.05-0.41-0.22-0.76-0.56-1.01c-0.37-0.28-0.8-0.4-1.24-0.41c-0.9-0.02-1.8-0.01-2.7-0.01c-0.04,0-0.07,0.01-0.11,0.01
		c0,1.17,0,2.32,0,3.49c0.04,0,0.06,0.01,0.08,0.01C13.53,14.15,14.2,14.15,14.86,14.14z"/>
</g>
</svg>
