<?xml version="1.0" encoding="utf-8"?>
<!-- Generator: Adobe Illustrator 24.0.0, SVG Export Plug-In . SVG Version: 6.00 Build 0)  -->
<svg version="1.1" xmlns="http://www.w3.org/2000/svg" xmlns:xlink="http://www.w3.org/1999/xlink" x="0px" y="0px"
	 viewBox="0 0 206.7 76" style="enable-background:new 0 0 206.7 76;" xml:space="preserve">
<style type="text/css">
	.st0{fill:#FCCE9E;}
</style>
<g id="Capa_3">
	<path id="path24" class="st0" d="M103.3,45.8c-8.2,0-14.8-6.6-14.8-14.8c0-8.2,6.6-14.8,14.8-14.8c8.2,0,14.8,6.6,14.8,14.8
		C118.2,39.2,111.5,45.8,103.3,45.8 M114,59.8c0,5.9-4.8,10.7-10.7,10.7c-5.9,0-10.7-4.8-10.7-10.7c0-5.9,4.8-10.7,10.7-10.7
		C109.2,49.2,114,53.9,114,59.8 M121.5,31c0-0.2,0-0.4,0-0.6V12.9c0,0,0-0.1,0-0.1h-3.3v7.7c-3.3-4.6-8.7-7.7-14.8-7.7
		c-10,0-18.2,8.2-18.2,18.2c0,7.5,4.6,14,11.1,16.7c-4.2,2.4-6.9,6.9-6.9,12.1c0,7.7,6.3,14,14,14c7.7,0,14-6.3,14-14
		c0-5.2-2.8-9.7-7-12.1C116.9,45,121.5,38.5,121.5,31"/>
	<path id="path28" class="st0" d="M179.7,45.8L179.7,45.8c-0.1,0-0.1,0-0.2,0h-22.3c4.6-3.3,7.7-8.7,7.7-14.8c0-6.1-3-11.5-7.7-14.8
		h22.5v0c4.1,0,7.8,1.7,10.5,4.3c2.7,2.7,4.3,6.4,4.3,10.5C194.5,39.2,187.9,45.8,179.7,45.8 M146.8,45.8c-8.2,0-14.8-6.6-14.8-14.8
		c0-8.2,6.6-14.8,14.8-14.8c8.2,0,14.8,6.6,14.8,14.8C161.6,39.2,154.9,45.8,146.8,45.8 M179.7,12.8L179.7,12.8c-0.1,0-0.1,0-0.2,0
		h-32.7c0,0,0,0,0,0c0,0-0.1,0-0.1,0v0c-6.1,0-11.5,3-14.8,7.7V2.3c0,0,0-0.1,0-0.1h-3.3V31c0,0.2,0,0.3,0,0.5c0,0.3,0,0.6,0,0.9
		c0.1,1.7,0.5,3.3,1.1,4.9c0.1,0.3,0.2,0.5,0.3,0.8c0.2,0.4,0.4,0.9,0.6,1.3c0.1,0.1,0.1,0.2,0.2,0.3c0.1,0.3,0.3,0.5,0.4,0.8
		c0.1,0.1,0.2,0.3,0.2,0.4c0.1,0.2,0.3,0.4,0.4,0.6c0.1,0.1,0.1,0.2,0.2,0.2c0.1,0.2,0.3,0.4,0.4,0.6c0.1,0.1,0.2,0.2,0.3,0.3
		c0.2,0.2,0.4,0.4,0.6,0.7c0,0,0,0,0,0c0.2,0.2,0.4,0.4,0.6,0.6c0.2,0.2,0.4,0.4,0.6,0.6l0,0c0.1,0.1,0.2,0.2,0.3,0.3
		c0.8,0.7,1.6,1.3,2.5,1.8c0.1,0.1,0.3,0.2,0.4,0.2c0.4,0.2,0.8,0.4,1.2,0.6c0.2,0.1,0.5,0.2,0.7,0.3c0.1,0,0.1,0.1,0.2,0.1
		c0.1,0,0.2,0.1,0.3,0.1c1,0.4,2,0.7,3.1,0.9c0.1,0,0.2,0,0.3,0.1c0.3,0.1,0.7,0.1,1,0.2c0.1,0,0.2,0,0.3,0c0.2,0,0.3,0,0.5,0
		c0.2,0,0.5,0,0.7,0c0.1,0,0.1,0,0.2,0c0.1,0,0.3,0,0.4,0c0,0,0.1,0,0.1,0h33c5,0,9.6-2,12.8-5.3c3.3-3.3,5.3-7.8,5.3-12.8
		C197.9,21,189.8,12.8,179.7,12.8"/>
	<path id="path36" class="st0" d="M78,29.5c-0.7-9.3-8.6-16.7-18.1-16.7c-7.3,0-13.6,4.3-16.5,10.5c-2.9-6.2-9.2-10.5-16.5-10.5
		c-6.1,0-11.5,3-14.8,7.7v-7.6c0,0,0-0.1,0-0.1H8.8v17.7h0c0,0.2,0,0.3,0,0.5v17.7h3.3c0,0,0-0.1,0-0.1V31h0
		c0-8.2,6.6-14.8,14.8-14.8c8.2,0,14.8,6.6,14.8,14.8c0,0.1,0,0.2,0,0.3v17.4h3.3c0,0,0-0.1,0-0.1c0-5.7,0-11.5,0-17.2
		c0-0.1,0-0.2,0-0.4c0-8.2,6.6-14.8,14.8-14.8c8.2,0,14.8,6.6,14.8,14.8v17.7h3.3c0,0,0-0.1,0-0.1V31h0c0-0.2,0-0.4,0-0.6
		C78.1,30.1,78.1,29.8,78,29.5"/>
</g>
<g id="Capa_4">
</g>
</svg>
