<?xml version="1.0" encoding="utf-8"?>
<!-- Generator: Adobe Illustrator 24.0.0, SVG Export Plug-In . SVG Version: 6.00 Build 0)  -->
<svg version="1.1" id="Capa_2" xmlns="http://www.w3.org/2000/svg" xmlns:xlink="http://www.w3.org/1999/xlink" x="0px" y="0px"
	 viewBox="0 0 200 78" style="enable-background:new 0 0 200 78;" xml:space="preserve">
<style type="text/css">
	.st0{fill:#091420;}
</style>
<path class="st0" d="M78.8,32.6c0-0.3,0-0.5,0-0.8c-0.6-7.9-7.2-14.1-15.2-14.1c-6.1,0-11.4,3.6-13.9,8.9c-2.4-5.2-7.7-8.9-13.9-8.9
	c-5.1,0-9.7,2.6-12.5,6.5v-6.4c0,0,0-0.1,0-0.1h-2.8v14.9h0c0,0.1,0,0.3,0,0.4v14.9h2.8c0,0,0-0.1,0-0.1V33.1h0
	c0-6.9,5.6-12.5,12.5-12.5s12.5,5.6,12.5,12.5c0,0.1,0,0.1,0,0.2v14.7H51c0,0,0-0.1,0-0.1c0-4.8,0-9.7,0-14.5c0-0.1,0-0.2,0-0.3
	c0-6.9,5.6-12.5,12.5-12.5s12.5,5.6,12.5,12.5v14.9h2.8c0,0,0-0.1,0-0.1V33.1h0C78.8,32.9,78.8,32.8,78.8,32.6"/>
<path class="st0" d="M164.3,45.5L164.3,45.5c0,0-0.1,0-0.1,0h-18.8c3.9-2.8,6.5-7.3,6.5-12.5s-2.6-9.7-6.5-12.5h18.9v0
	c3.4,0,6.6,1.4,8.8,3.7c2.3,2.3,3.7,5.4,3.7,8.8C176.7,39.9,171.1,45.5,164.3,45.5 M124.1,33.1c0-6.9,5.6-12.5,12.5-12.5
	S149,26.2,149,33.1s-5.6,12.5-12.5,12.5S124.1,39.9,124.1,33.1 M164.3,17.8L164.3,17.8c0,0-0.1,0-0.1,0h-27.5c0,0,0,0,0,0
	c0,0-0.1,0-0.1,0v0c-5.1,0-9.7,2.6-12.5,6.5V8.9c0,0,0-0.1,0-0.1h-2.8v24.3c0,0.1,0,0.3,0,0.4c0,0.3,0,0.5,0,0.8
	c0.1,1.4,0.4,2.8,0.9,4.1c0.1,0.2,0.2,0.4,0.3,0.6c0.2,0.4,0.3,0.7,0.5,1.1c0.1,0.1,0.1,0.2,0.2,0.3c0.1,0.2,0.2,0.4,0.4,0.6
	c0.1,0.1,0.1,0.2,0.2,0.3c0.1,0.2,0.2,0.4,0.4,0.5c0,0.1,0.1,0.1,0.1,0.2c0.1,0.2,0.2,0.3,0.4,0.5c0.1,0.1,0.2,0.2,0.2,0.3
	c0.2,0.2,0.3,0.4,0.5,0.6c0,0,0,0,0,0c0.2,0.2,0.3,0.4,0.5,0.5c0.2,0.2,0.3,0.3,0.5,0.5c0,0,0,0,0,0c0.1,0.1,0.2,0.2,0.3,0.2
	c0.6,0.6,1.3,1.1,2.1,1.5c0.1,0.1,0.2,0.1,0.3,0.2c0.3,0.2,0.7,0.4,1,0.5c0.2,0.1,0.4,0.2,0.6,0.3c0.1,0,0.1,0.1,0.2,0.1
	c0.1,0,0.2,0.1,0.2,0.1c0.8,0.3,1.7,0.6,2.6,0.8c0.1,0,0.2,0,0.3,0.1c0.3,0.1,0.6,0.1,0.9,0.1c0.1,0,0.2,0,0.3,0c0.1,0,0.3,0,0.4,0
	c0.2,0,0.4,0,0.6,0c0,0,0.1,0,0.1,0c0.1,0,0.2,0,0.3,0c0,0,0.1,0,0.1,0h27.8c4.2,0,8-1.7,10.8-4.5c2.8-2.8,4.5-6.6,4.5-10.8
	C179.6,24.6,172.7,17.8,164.3,17.8"/>
<path class="st0" d="M100,66.3c-4.9,0-9-4-9-9s4-9,9-9s9,4,9,9S105,66.3,100,66.3 M87.5,33.1c0-6.9,5.6-12.5,12.5-12.5
	s12.5,5.6,12.5,12.5c0,6.9-5.6,12.5-12.5,12.5S87.5,40,87.5,33.1 M106,47.2c5.5-2.3,9.3-7.8,9.3-14.1c0-0.2,0-0.3,0-0.5V17.9
	c0,0,0-0.1,0-0.1h-2.8v6.4c-2.8-3.9-7.3-6.4-12.5-6.4c-8.4,0-15.3,6.9-15.3,15.3c0,6.3,3.9,11.8,9.3,14.1c-3.5,2.1-5.8,5.8-5.8,10.2
	c0,6.5,5.3,11.8,11.8,11.8s11.8-5.3,11.8-11.8C111.8,53,109.5,49.2,106,47.2"/>
</svg>
