<svg id="elOxo6u1FQV1" xmlns="http://www.w3.org/2000/svg" xmlns:xlink="http://www.w3.org/1999/xlink" viewBox="0 0 1920 240" shape-rendering="geometricPrecision" text-rendering="geometricPrecision"><style><![CDATA[#elOxo6u1FQV3 {animation: elOxo6u1FQV3_c_o 9900ms linear infinite reverse forwards}@keyframes elOxo6u1FQV3_c_o { 0% {opacity: 1;animation-timing-function: step-end} 20.20202% {opacity: 0;animation-timing-function: step-start} 40.40404% {opacity: 0;animation-timing-function: step-start} 60.606061% {opacity: 1;animation-timing-function: step-start} 80.808081% {opacity: 0;animation-timing-function: step-start} 100% {opacity: 1}} #elOxo6u1FQV18 {animation: elOxo6u1FQV18_c_o 9900ms linear infinite reverse forwards}@keyframes elOxo6u1FQV18_c_o { 0% {opacity: 1;animation-timing-function: step-end} 20.20202% {opacity: 0;animation-timing-function: step-start} 40.40404% {opacity: 0;animation-timing-function: step-start} 60.606061% {opacity: 1;animation-timing-function: step-start} 80.808081% {opacity: 0;animation-timing-function: step-start} 100% {opacity: 1}} #elOxo6u1FQV33 {animation: elOxo6u1FQV33_c_o 9900ms linear infinite reverse forwards}@keyframes elOxo6u1FQV33_c_o { 0% {opacity: 0;animation-timing-function: step-start} 10.10101% {opacity: 0;animation-timing-function: step-start} 30.30303% {opacity: 1;animation-timing-function: step-start} 50.505051% {opacity: 0;animation-timing-function: step-start} 70.707071% {opacity: 1;animation-timing-function: step-start} 90.909091% {opacity: 0;animation-timing-function: step-start} 100% {opacity: 1}} #elOxo6u1FQV39 {animation: elOxo6u1FQV39_c_o 9900ms linear infinite reverse forwards}@keyframes elOxo6u1FQV39_c_o { 0% {opacity: 0;animation-timing-function: step-start} 10.10101% {opacity: 0;animation-timing-function: step-start} 30.30303% {opacity: 1;animation-timing-function: step-start} 50.505051% {opacity: 0;animation-timing-function: step-start} 70.707071% {opacity: 1;animation-timing-function: step-start} 90.909091% {opacity: 0;animation-timing-function: step-start} 100% {opacity: 1}} #elOxo6u1FQV46 {animation: elOxo6u1FQV46_c_o 9900ms linear infinite reverse forwards}@keyframes elOxo6u1FQV46_c_o { 0% {opacity: 1;animation-timing-function: step-start} 10.10101% {opacity: 1;animation-timing-function: step-start} 30.30303% {opacity: 0;animation-timing-function: step-start} 50.505051% {opacity: 1;animation-timing-function: step-start} 70.707071% {opacity: 0;animation-timing-function: step-start} 100% {opacity: 1}}]]></style><rect width="1920" height="240" rx="0" ry="0" transform="matrix(.999896 0 0 1 0.09984 0)" fill="#fcce9e"/><g id="elOxo6u1FQV3" transform="matrix(-1.0075 0 0-1.0075 1917.822437 241.8)"><rect width="2" height="240" rx="0" ry="0" transform="translate(489.8 0)" fill="#fff"/><rect width="2" height="240" rx="0" ry="0" transform="translate(496.2 0)" fill="#fff"/><rect width="2" height="240" rx="0" ry="0" transform="translate(502.8 0)" fill="#fff"/><rect width="2" height="240" rx="0" ry="0" transform="translate(509.5 0)" fill="#fff"/><rect width="2" height="240" rx="0" ry="0" transform="translate(516.1 0)" fill="#fff"/><rect width="2" height="240" rx="0" ry="0" transform="translate(522.8 0)" fill="#fff"/><rect width="2" height="240" rx="0" ry="0" transform="translate(529.4 0)" fill="#fff"/><g><path d="M344.7,105.4c76.1,0,138.6,59.6,143.1,134.6h2c-4.5-76.1-67.9-136.6-145.1-136.6s-140.6,60.5-145.1,136.6h2c4.6-75,67-134.6,143.1-134.6Z" fill="#fff"/><path d="M344.7,112.1c72.4,0,131.9,56.6,136.4,127.9h2c-4.5-72.4-64.9-129.9-138.4-129.9s-133.8,57.5-138.4,129.9h2c4.6-71.3,64-127.9,136.4-127.9Z" fill="#fff"/><path d="M344.7,119.6c68.3,0,124.4,53.3,128.9,120.4h2c-4.5-68.3-61.5-122.4-130.9-122.4s-126.4,54.2-130.9,122.4h2c4.6-67.2,60.6-120.4,128.9-120.4Z" fill="#fff"/><path d="M344.7,125.6c65,0,118.3,50.6,122.8,114.4h2c-4.5-64.9-58.8-116.4-124.8-116.4-66.1,0-120.3,51.5-124.8,116.4h2c4.5-63.8,57.9-114.4,122.8-114.4Z" fill="#fff"/><path d="M344.7,132.5c61.2,0,111.5,47.5,116,107.5h2c-4.5-61.1-55.7-109.5-118-109.5s-113.5,48.4-118,109.5h2c4.6-60.1,54.8-107.5,116-107.5Z" fill="#fff"/><path d="M344.7,137.9c58.2,0,106,45,110.5,102.1h2c-4.5-58.1-53.2-104.1-112.5-104.1s-108,45.9-112.5,104.1h2c4.5-57.1,52.4-102.1,110.5-102.1Z" fill="#fff"/></g></g><g id="elOxo6u1FQV18"><rect width="2" height="240" rx="0" ry="0" transform="translate(489.8 0)" fill="#fff"/><rect width="2" height="240" rx="0" ry="0" transform="translate(496.2 0)" fill="#fff"/><rect width="2" height="240" rx="0" ry="0" transform="translate(502.8 0)" fill="#fff"/><rect width="2" height="240" rx="0" ry="0" transform="translate(509.5 0)" fill="#fff"/><rect width="2" height="240" rx="0" ry="0" transform="translate(516.1 0)" fill="#fff"/><rect width="2" height="240" rx="0" ry="0" transform="translate(522.8 0)" fill="#fff"/><rect width="2" height="240" rx="0" ry="0" transform="translate(529.4 0)" fill="#fff"/><g><path d="M344.7,105.4c76.1,0,138.6,59.6,143.1,134.6h2c-4.5-76.1-67.9-136.6-145.1-136.6s-140.6,60.5-145.1,136.6h2c4.6-75,67-134.6,143.1-134.6Z" fill="#fff"/><path d="M344.7,112.1c72.4,0,131.9,56.6,136.4,127.9h2c-4.5-72.4-64.9-129.9-138.4-129.9s-133.8,57.5-138.4,129.9h2c4.6-71.3,64-127.9,136.4-127.9Z" fill="#fff"/><path d="M344.7,119.6c68.3,0,124.4,53.3,128.9,120.4h2c-4.5-68.3-61.5-122.4-130.9-122.4s-126.4,54.2-130.9,122.4h2c4.6-67.2,60.6-120.4,128.9-120.4Z" fill="#fff"/><path d="M344.7,125.6c65,0,118.3,50.6,122.8,114.4h2c-4.5-64.9-58.8-116.4-124.8-116.4-66.1,0-120.3,51.5-124.8,116.4h2c4.5-63.8,57.9-114.4,122.8-114.4Z" fill="#fff"/><path d="M344.7,132.5c61.2,0,111.5,47.5,116,107.5h2c-4.5-61.1-55.7-109.5-118-109.5s-113.5,48.4-118,109.5h2c4.6-60.1,54.8-107.5,116-107.5Z" fill="#fff"/><path d="M344.7,137.9c58.2,0,106,45,110.5,102.1h2c-4.5-58.1-53.2-104.1-112.5-104.1s-108,45.9-112.5,104.1h2c4.5-57.1,52.4-102.1,110.5-102.1Z" fill="#fff"/></g></g><g id="elOxo6u1FQV33"><path d="M770.9,75.3C716.4,75.3,669,44.8,644.7,0h-2.3c24.4,46,72.8,77.4,128.4,77.4s104-31.4,128.4-77.4h-2.3c-24.1,44.8-71.5,75.3-126,75.3Z" fill="#fff"/><path d="M770.9,68.6C720.3,68.6,676,41,652.4,0h-2.3c23.8,42.1,69,70.7,120.8,70.7s97-28.5,120.8-70.7h-2.3c-23.6,41-67.9,68.6-118.5,68.6Z" fill="#fff"/><path d="M770.9,61.2c-46.3,0-87-24.5-109.8-61.2h-2.4c23,37.8,64.7,63.2,112.1,63.2C818.3,63.2,860,37.8,883,0h-2.4c-22.7,36.7-63.4,61.2-109.7,61.2Z" fill="#fff"/><path d="M770.9,55.1c-42.8,0-80.5-21.9-102.6-55.1h-2.4c22.3,34.4,61.1,57.1,105,57.1s82.7-22.8,105-57.1h-2.4c-22.1,33.2-59.8,55.1-102.6,55.1Z" fill="#fff"/><path d="M770.9,48.3c-38.7,0-73.1-19.1-94.3-48.3h-2.5c21.4,30.4,56.8,50.3,96.7,50.3s75.3-19.9,96.7-50.3h-2.5c-21,29.2-55.4,48.3-94.1,48.3Z" fill="#fff"/></g><g id="elOxo6u1FQV39"><path d="M1920,82.5c-81.9,0-148.6,66.7-148.6,148.6c0,3,.1,6,.3,8.9h2c-.2-3-.3-5.9-.3-8.9c0-80.8,65.8-146.6,146.6-146.6v0-2v0Z" fill="#fff"/><path d="M1778.2,231.1c0,3,.1,6,.3,8.9h2c-.2-3-.3-5.9-.3-8.9c0-77,62.7-139.7,139.7-139.7v0-2v0c-78.1-.1-141.7,63.5-141.7,141.7Z" fill="#fff"/><path d="M1785.9,231.1c0,3,.1,6,.3,8.9h2c-.2-3-.3-5.9-.3-8.9c0-72.8,59.2-132.1,132.1-132.1v0-2v0c-73.9,0-134.1,60.1-134.1,134.1Z" fill="#fff"/><path d="M1792.1,231.1c0,3,.1,6,.3,8.9h2c-.2-3-.3-5.9-.3-8.9c0-69.4,56.5-125.9,125.9-125.9v0-2v0c-70.5-.1-127.9,57.3-127.9,127.9Z" fill="#fff"/><path d="M1799.1,231.1c0,3,.1,6,.3,8.9h2c-.2-2.9-.3-5.9-.3-8.9c0-65.5,53.3-118.9,118.9-118.9v0-2v0c-66.7-.1-120.9,54.2-120.9,120.9Z" fill="#fff"/><path d="M1806,231.2c0,3,.1,5.9.3,8.8h2c-.2-2.9-.3-5.9-.3-8.8c0-61.8,50.2-112,112-112v0-2v0c-62.9-.1-114,51.1-114,114Z" fill="#fff"/></g><g id="elOxo6u1FQV46" transform="matrix(1.005249 0 0 1.005249-5.939243-.904665)"><path d="M1131.5,106c76.1,0,138.6,59.6,143.1,134.6h2c-4.5-76.1-67.9-136.6-145.1-136.6s-140.6,60.5-145.1,136.6h2c4.5-74.9,66.9-134.6,143.1-134.6Z" fill="#fff"/><path d="M1131.5,112.8c72.4,0,131.9,56.6,136.4,127.9h2c-4.5-72.4-64.9-129.9-138.4-129.9s-133.9,57.5-138.4,129.9h2c4.5-71.3,63.9-127.9,136.4-127.9Z" fill="#fff"/><path d="M1131.5,120.2c68.3,0,124.4,53.3,128.9,120.4h2c-4.5-68.3-61.5-122.4-130.9-122.4s-126.4,54.2-130.9,122.4h2c4.5-67.1,60.6-120.4,128.9-120.4Z" fill="#fff"/><path d="M1131.5,126.3c65,0,118.3,50.6,122.8,114.4h2c-4.5-64.9-58.8-116.4-124.8-116.4-66.1,0-120.3,51.5-124.8,116.4h2c4.4-63.9,57.8-114.4,122.8-114.4Z" fill="#fff"/><path d="M1131.5,133.1c61.2,0,111.5,47.5,116,107.5h2c-4.5-61.1-55.7-109.5-118-109.5s-113.5,48.4-118,109.5h2c4.5-60,54.8-107.5,116-107.5Z" fill="#fff"/><path d="M1131.5,139.6c-57.8,0-105.4,44.5-110.4,101.1h220.8c-5-56.6-52.6-101.1-110.4-101.1Z" fill="none"/><path d="M1131.5,139.6c57.8,0,105.4,44.5,110.4,101.1h2c-5-57.7-53.5-103.1-112.4-103.1s-107.4,45.4-112.4,103.1h2c4.9-56.6,52.5-101.1,110.4-101.1Z" fill="#fff"/><g transform="translate(5.908231 0)"><path d="M0,158.4c81.9,0,148.6-66.7,148.6-148.6c0-3-.1-6-.3-8.9h-2c.2,3,.3,5.9.3,8.9C146.6,90.6,80.8,156.4,0,156.4v0v2v0Z" fill="#fff"/><path d="M141.8,9.8c0-3-.1-6-.3-8.9h-2c.2,3,.3,5.9.3,8.9c0,77-62.7,139.7-139.7,139.7v0v2v0C78.2,151.5,141.8,88,141.8,9.8Z" fill="#fff"/><path d="M134.1,9.8c0-3-.1-6-.3-8.9h-2c.2,3,.3,5.9.3,8.9C132.1,82.6,72.9,141.9,0,141.9v0v2v0c73.9,0,134.1-60.2,134.1-134.1Z" fill="#fff"/><path d="M127.9,9.8c0-3-.1-6-.3-8.9h-2c.2,3,.3,5.9.3,8.9C125.9,79.2,69.4,135.7,0,135.7v0v2v0c70.5,0,127.9-57.4,127.9-127.9Z" fill="#fff"/><path d="M120.9,9.8c0-3-.1-6-.3-8.9h-2c.2,2.9.3,5.9.3,8.9C118.9,75.3,65.6,128.7,0,128.7v0v2v0c66.7,0,120.9-54.2,120.9-120.9Z" fill="#fff"/><path d="M114,9.7c0-3-.1-5.9-.3-8.8h-2c.2,2.9.3,5.9.3,8.8c0,61.8-50.2,112-112,112v0v2v0c62.9,0,114-51.1,114-114Z" fill="#fff"/></g></g></svg>