<?xml version="1.0" encoding="utf-8"?>
<!-- Generator: Adobe Illustrator 26.1.0, SVG Export Plug-In . SVG Version: 6.00 Build 0)  -->
<svg version="1.1" id="Capa_2" xmlns="http://www.w3.org/2000/svg" xmlns:xlink="http://www.w3.org/1999/xlink" x="0px" y="0px"
	 viewBox="0 0 400 400" style="enable-background:new 0 0 400 400;" xml:space="preserve">
<style type="text/css">
	.st0{fill:none;}
	.st1{fill:#FFFFFF;}
</style>
<g>
	<path class="st0" d="M133.3,165.4H130v19.5h2.5c5.6,0,6.5-3.3,6.5-8.9v-2.9C139,168.9,138.3,165.4,133.3,165.4z"/>
	<path class="st0" d="M240.3,154.8C240.3,154.8,240.3,154.8,240.3,154.8C240.3,154.8,240.3,154.8,240.3,154.8z"/>
	<path class="st0" d="M304.8,211.4c0.3,0.6,0.8,0.7,1.3,0.5c0.2-0.1,0.4-0.2,0.6-0.4c0.4-0.4,0.8-0.7,1.1-1.1c1.1-1.5,2.2-3,3.4-4.4
		c1.6-2,2.8-4.1,4-6.4c1.8-3.5,3.2-7.1,3.9-11c0.2-0.9,0-1.8-0.4-2.7c-0.5-1.1-1.6-1.5-2.7-1c-0.5,0.3-1.1,0.6-1.5,1
		c-0.7,0.6-1.3,1.3-1.9,2.1c-1.5,1.8-2.7,3.9-3.8,5.9c-0.4,0.7-0.8,1.4-1.1,2.2c-0.9,2.3-1.7,4.7-2.3,7.1c-0.5,1.9-0.9,3.8-1,5.7
		c0,0.4,0,0.8,0.1,1.2C304.6,210.6,304.7,211,304.8,211.4z"/>
	<path class="st0" d="M166.9,165.3c-3.2,0-5,2.3-5,7.2v29.2c0,4.8,1.7,7.1,5,7.1c3.5,0,5-2.1,5-7.2v-6.4c-2-6.4-0.1-9.6-0.1-9.6
		s0,0.2,0.1,0.6v-13.7C171.9,167.9,170.5,165.3,166.9,165.3z"/>
	<path class="st0" d="M185.5,203.2c-1.5-0.1-3.1-0.3-4.5-0.6c-0.2,2.5-0.6,4.7-1.3,6.5C181.5,207.6,183.4,205.6,185.5,203.2z"/>
	<path class="st0" d="M216.2,170.4c0,0-0.1,0-0.1,0c-5.1,8.4-10.1,16.9-15.2,25.4c3.6-0.1,6.4-0.6,8.1-0.9c1.1-3.5,2.2-7.1,3.3-10.6
		c1.3-4.4,2.7-8.8,3.8-13.3C216.1,170.7,216.1,170.6,216.2,170.4z"/>
	<polygon points="69.5,189.5 82.3,189.5 82.3,181.3 69.5,181.3 69.5,166.3 83,166.3 83,158 60.5,158 60.5,216 83.1,216 84.2,207.8 
		69.5,207.8 	"/>
	<polygon points="117.1,158 107.7,158 102.4,177.2 102.4,177.2 97,158 87.1,158 96.9,186.5 86.7,216 95.9,216 102,195 102.1,195 
		107.9,216 117.8,216 107.3,185.2 	"/>
	<path d="M134,158h-12.9v58h9v-23.9h3.5c11,0,14.4-6.4,14.4-15.9v-3.4C147.9,162.5,143.2,158,134,158z M139,175.9
		c0,5.7-1,8.9-6.5,8.9H130v-19.5h3.2c5,0,5.7,3.5,5.7,7.7V175.9z"/>
	<path d="M159.7,214.6c0.4,0.3,0.9,0.5,1.3,0.7c1.3,0.6,2.8,0.9,4.6,0.7c3.4-0.2,8.1-1.7,14-6.9c0.7-1.8,1.2-4,1.3-6.5
		c-3.8-0.8-7.1-2.3-8.2-5.2c-0.3-0.8-0.6-1.6-0.8-2.3v6.4c0,5.1-1.6,7.2-5,7.2c-3.2,0-5-2.3-5-7.1v-29.2c0-4.9,1.7-7.2,5-7.2
		c3.6,0,5,2.5,5,7.2v13.7c0.3,1.6,1.8,5.8,9.1,8.1v-20.8c0-11.2-5.2-16.3-14-16.3c-8.7,0-14.2,5.1-14.2,16.2v27.3
		c0,1.4,0.1,2.6,0.2,3.8c0,0,0.4,1.3,1.1,3.1C155,209.6,156.8,212.8,159.7,214.6z"/>
	<path class="st1" d="M346.9,212.5c0-0.2,0-0.4-0.1-0.5c-0.3-3.5-1.6-5.1-1.6-5.1s0,0.7-0.3,1.7c-0.7,1.8-2.8,4.7-9.6,6.9
		c-1,0.3-2.1,0.6-3.1,0.8c-1.1,0.3-2.3,0.5-3.4,0.8c0,0,0,0,0,0c-1,0.2-1.9,0.4-2.7,0.6c-6.9,1.5-13.9,2.6-21,3.6
		c-3.9,0.5-7.7,1-11.6,1.4c-3.4,0.4-6.7,0.6-10.1,0.9c-4.4,0.3-8.8,0.6-13.2,0.8c-4.2,0.2-8.3,0.3-12.5,0.4
		c-6.8,0.1-13.7,0.2-20.5-0.2c-4.2-0.2-8.3-0.5-12.5-1.1c-2.4-0.4-4.8-0.9-7.2-1.8c-1.2-0.5-2.4-1.1-3.4-2c-0.7-0.7-1-1.4-1.1-2.4
		c-0.1-2.8,0.3-5.5,0.7-8.2c0.7-4.2,1.7-8.2,2.8-12.3c2.6-9.5,6-18.7,10.1-27.7c1.5-3.4,3.1-6.7,5.2-9.8c0.8-1.2,1.7-2.5,2.6-3.6
		c1-1.2,2.2-1.5,3.3-1.5c1.3,0.1,2.1,0.4,2.4,0.6l0.1,0.1c0,0,0,0-0.1,0c0,0,0.1,0,0.1,0s-0.5-0.9-2-2.1c-0.1-0.1-0.3-0.2-0.4-0.3
		c-1.6-1.1-4.3-2.3-8.3-2.9c-4.7-0.7-9.2,4.5-12.2,9.4c-2.1,2.6-4.1,5.4-6.1,8.1c-5,7.2-9.9,14.3-14.9,21.5
		c-1.3,1.8-2.6,3.7-3.9,5.5c0,0-0.5,0.6-1.2,1.6c-4.2-0.1-7.6-0.6-10.1-1.4c-7.3-2.3-8.8-6.5-9.1-8.1c-0.1-0.4-0.1-0.6-0.1-0.6
		s-1.9,3.2,0.1,9.6c0.2,0.7,0.5,1.5,0.8,2.3c1.2,2.9,4.5,4.4,8.2,5.2c1.5,0.3,3,0.5,4.5,0.6c-2.1,2.4-4,4.4-5.9,6
		c-5.9,5.2-10.7,6.7-14,6.9c-1.7,0.2-3.2-0.1-4.6-0.7c-0.5-0.2-0.9-0.4-1.3-0.7c-2.9-1.8-4.7-5-5.6-7.1c-0.7-1.7-1.1-3.1-1.1-3.1
		c0,0,0,0,0,0s-0.1,1.2,0,2.9c0,0.6,0.1,1.3,0.3,2c0.1,0.4,0.1,0.7,0.2,1.2c1,4.5,4,10.1,11.9,11.6c0.2,0.1,0.5,0.1,0.7,0.1
		c0,0,0,0,0,0c0,0,0,0,0,0c0,0,0,0,0,0c14.6,2.3,25.9-11.8,25.9-11.8l0,0c1.8-2.1,3.6-4.6,5.1-7.6c3-0.1,6.3-0.3,9-0.7
		c-0.6,1.8-1.3,3.7-1.9,5.5c-1.1,3.2-1.9,6.4-2.4,9.7c-0.2,1.4-0.2,2.8,0.1,4.2c0.7,3.5,2.5,6.4,5.2,8.7c2.2,2,4.8,3.4,7.5,4.6
		c3.3,1.5,6.7,2.5,10.1,3.5c6.9,1.9,13.9,3,20.9,3.8c3.3,0.4,6.6,0.7,9.9,0.9c3.3,0.3,6.6,0.5,9.9,0.6c3.7,0.2,7.3,0.3,11,0.3
		c7.4,0.2,14.8,0.1,22.2-0.2c3-0.1,6.1-0.3,9.1-0.5c2.9-0.2,5.8-0.4,8.8-0.7c3.4-0.4,6.7-0.8,10-1.3c3.8-0.6,7.6-1.5,11.3-2.6
		c2.7-0.8,4.8-2.5,6.1-5c0.3-0.5,0.5-1.1,0.8-1.6c0.9-2,1.3-4.1,1.5-6.3c0.3-2.6,0.5-5.2,0.5-7.9c0-0.3,0-0.6,0.1-0.9v-2.6
		C347,213.9,347,213.2,346.9,212.5z M209,194.8c-1.7,0.3-4.6,0.8-8.1,0.9c5.1-8.5,10.2-17,15.2-25.4c0,0,0.1,0,0.1,0
		c0,0.2-0.1,0.3-0.1,0.5c-1.1,4.5-2.5,8.9-3.8,13.3C211.2,187.7,210.1,191.3,209,194.8z"/>
	<path class="st1" d="M235.8,166.4c-4.6,9-8.4,18.3-11.1,28c-1.2,4.2-2.3,8.4-2.4,12.8c-0.1,1.6,0,3.1,0.3,4.7
		c0.2,1.2,0.7,2.3,1.5,3.2c1,1.2,2.3,1.7,3.8,1.4c0.9-0.2,1.8-0.5,2.6-1c0.9-0.5,1.8-1.2,2.6-2c1.9-1.7,3.6-3.6,5.3-5.6
		c0.1-0.1,0.3-0.3,0.5-0.5c0.1,0.3,0.1,0.5,0.1,0.7c0.1,0.8,0.1,1.7,0.3,2.5c0.2,1.4,0.8,2.8,1.7,3.9c0.8,1,1.8,1.6,3.1,1.7
		c0.2,0,0.4,0,0.6,0c0.6,0,1.1-0.1,1.7-0.2c1.5-0.4,2.8-1.2,4-2.2c1.4-1.2,2.6-2.5,3.7-4c0.1-0.1,0.1-0.2,0.2-0.2c0,0,0,0,0,0
		c0.1-0.1,0.2-0.2,0.4-0.2c0.2,1.6,0.9,3,1.7,4.4c0.9,1.5,2.2,2.5,3.8,3c1.5,0.4,3,0.6,4.6,0.3c2-0.3,4-0.8,5.9-1.6
		c3.8-1.5,7-3.8,9.8-6.7c0.1-0.1,0.2-0.1,0.4-0.3c0.1,0.6,0.1,1.1,0.2,1.6c0.1,0.4,0.2,0.9,0.3,1.3c0,0.1,0,0.2,0.1,0.2
		c0,0.1,0,0.1,0.1,0.2c0,0.1,0.1,0.2,0.1,0.4c0,0,0,0.1,0,0.1c0,0.1,0.1,0.2,0.1,0.4c0,0.1,0.1,0.1,0.1,0.2c0,0.1,0.1,0.2,0.1,0.3
		c0.1,0.1,0.1,0.2,0.2,0.3c0,0,0,0.1,0.1,0.1c0.1,0.2,0.3,0.4,0.4,0.6c0.9,1.1,2,1.8,3.4,2c0,0,0.1,0,0.1,0c0,0,0,0,0,0
		c0.1,0,0.2,0,0.3,0c0,0,0.1,0,0.1,0c0.1,0,0.2,0,0.4,0c0,0,0.1,0,0.1,0c0.1,0,0.1,0,0.2,0c0,0,0.1,0,0.1,0c0.3,0,0.5-0.1,0.8-0.1
		c0,0,0,0,0.1,0c0,0,0,0,0,0c0.2,0,0.3-0.1,0.5-0.1c0.1,0,0.2-0.1,0.3-0.1c0,0,0,0,0.1,0c0,0,0,0,0,0c1.2-0.4,2.2-1.1,3.2-1.9
		c1.2-1,2.3-2.2,3.2-3.4c0.1-0.2,0.3-0.3,0.4-0.5c0.1-0.2,0.3-0.3,0.4-0.5c0.3,0.2,0.3,0.5,0.3,0.8c0.2,1.7,0.8,3.2,1.9,4.5
		c0.8,0.9,1.8,1.5,3,1.6c1.1,0.1,2.1-0.1,3-0.6c0.7-0.4,1.4-0.9,2.1-1.4c3.1-2.5,5.6-5.6,7.9-9c0.1-0.2,0.2-0.4,0.5-0.4
		c0,0.2,0,0.4,0,0.5c0,1.1-0.1,2.2,0,3.3c0.1,1.7,0.4,3.3,1.2,4.7c1.2,2.1,3.1,2.9,5.4,2.4c1.4-0.3,2.6-1,3.8-1.8
		c1.3-1,2.4-2.1,3.5-3.3c2.3-2.5,4.3-5.1,6.2-7.9c1.9-2.8,3.8-5.6,5.3-8.6c0.2-0.4,0.4-0.9,0.6-1.3c0.1-0.3,0.1-0.5-0.2-0.7
		c-0.1-0.1-0.3-0.2-0.4-0.2c-0.7-0.3-1.6,0-2,0.8c-1.2,2.4-2.5,4.7-4,6.9c-2.3,3.5-4.9,6.8-7.8,9.9c-1,1-2,2-3.3,2.7
		c-0.3,0.2-0.6,0.3-0.9,0.4c-0.8,0.2-1.3-0.1-1.6-0.9c0-0.1-0.1-0.3-0.1-0.4c-0.2-1.3,0-2.5,0.3-3.7c0.9-3.4,2.1-6.7,3.5-9.9
		c1.5-3.5,3.3-6.8,5.2-10c0.9-1.5,2-2.8,3.4-3.8c0.8-0.5,0.7-0.8,0-1.2c-2.2-1.3-4.5-2.2-7-2.7c-1.6-0.3-2.3,0-3.1,1.5
		c-0.5,0.9-1,1.9-1.4,2.8c-0.1,0.1-0.2,0.3-0.3,0.5c-0.1-0.3-0.2-0.6-0.3-0.9c-0.4-1.3-1-2.6-1.8-3.8c-0.6-0.9-1.4-1.7-2.5-2.1
		c-1.5-0.6-3-0.8-4.6-0.5c-1.6,0.3-3,0.9-4.2,1.9c-2,1.5-3.6,3.4-4.9,5.5c-2.3,3.8-3.9,7.9-4.9,12.2c-0.4,1.5-0.7,3.1-1.1,4.6
		c-0.3,1.2-0.8,2.3-1.3,3.3c-0.6,0.8-1.1,1.5-1.7,2.2c0,0-0.1,0.1-0.1,0.1c0,0,0,0,0,0c-0.2,0.2-0.3,0.4-0.5,0.6
		c-0.9,1-1.7,1.9-2.6,2.9c-0.2,0.2-0.3,0.3-0.5,0.5c-0.2,0.2-0.4,0.3-0.6,0.5c-0.3,0.2-0.7,0.4-1.1,0.6c0,0-0.1,0-0.1,0c0,0,0,0,0,0
		c-0.6,0.2-1.2,0.1-1.5-0.3c0,0,0,0,0,0c0,0,0,0,0,0c-0.1-0.2-0.2-0.4-0.2-0.7c-0.1-0.3-0.1-0.7-0.1-1.1c0-0.1,0-0.1,0-0.2
		c0-0.1,0-0.1,0-0.2c0-0.1,0-0.3,0-0.4c0-0.3,0-0.5,0.1-0.7c0.2-1.1,0.4-2.2,0.6-3.3c0.1-0.6,0.3-1.1,0.4-1.7c0,0,0,0,0,0
		c1.2-4.3,2.7-8.4,4.5-12.5c1.1-2.5,2.4-5,3.9-7.3c0.8-1.2,1.7-2,2.2-2.4c0,0,0,0,0,0c0.1-0.1,0.2-0.2,0.3-0.2c0,0,0,0,0,0l0,0
		c0.3-0.3,0.3-0.5,0-0.8c0,0,0,0,0,0c-0.1-0.1-0.2-0.2-0.4-0.3c0,0,0,0,0,0c-3.8-2.4-7.5-2.5-7.5-2.5c-1.1-0.2-1.9,0.3-2.5,1.3
		c-0.1,0.2-0.2,0.4-0.3,0.5c-0.6,1.5-1.3,2.9-1.9,4.4c-1.7,4.3-3,8.7-4,13.1c0,0,0,0,0,0c0,0.2-0.1,0.3-0.1,0.5
		c-0.3,1.3-0.5,2.6-0.8,4c0,0.3-0.1,0.5-0.2,0.8c0,0.1,0,0.2,0,0.3c-0.1,0.4-0.3,0.7-0.6,1.1c-2.7,3.4-6.2,6-10.1,7.9
		c-0.8,0.4-1.6,0.7-2.4,0.9c-0.6,0.2-1.3,0.3-2,0.3c-1.5,0-2.5-0.6-3.1-2c-0.2-0.5-0.3-1-0.4-1.5c-0.2-1.3-0.1-2.6,0.2-3.8
		c0.6-3.7,1.8-7.2,3.3-10.6c1.1-2.5,2.4-4.8,3.9-7c0.8-1.2,1.7-2.2,2.8-3c0.5-0.3,0.9-0.6,1.5-0.7c0.1,0,0.2,0,0.4,0
		c-0.3,0.5-0.5,0.9-0.7,1.3c-0.5,1-1,2-1.5,3c-0.4,0.9-0.6,1.8-0.7,2.8c0,2.4,1,4.2,3,5.5c0.5,0.4,1.1,0.1,1.3-0.5
		c0-0.2,0-0.4,0-0.6c0-0.4,0.1-0.9,0.2-1.3c0.2-1.2,0.8-2.2,1.5-3.2c1-1.3,1.9-2.6,2.9-3.9c0.2-0.3,0.4-0.6,0.6-0.9
		c0.5-0.8,0.6-1.7,0-2.6c-0.2-0.4-0.5-0.7-0.7-1c-2.1-2.6-4.7-4.2-7.8-5.2c-1.4-0.5-2.8-0.4-4.2,0.1c-1,0.3-1.8,0.9-2.6,1.5
		c-2.2,1.6-3.8,3.7-5.2,6.1c-3.2,5.6-5.2,11.6-6.1,17.9c-0.1,0.4-0.2,0.7-0.4,1.1c-0.7,0.9-1.4,1.9-2.2,2.8
		c-1.1,1.5-2.3,2.8-3.7,4.1c-0.5,0.5-1.1,0.9-1.8,1.2c-0.2,0.1-0.5,0.1-0.7,0.1c-0.6,0-1-0.4-1.1-1.1c-0.1-0.6-0.1-1.2-0.1-1.8
		c0.1-1.7,0.5-3.4,1-5.1c1.2-4.5,2.8-8.8,4.7-13.1c1.1-2.5,2.4-5,3.9-7.3c0.8-1.2,1.7-2,2.2-2.4c0,0,0,0,0,0
		c0.1-0.1,0.2-0.1,0.2-0.2c0,0,0,0,0,0c0,0,0,0,0,0c0,0,0,0,0,0l0,0c0,0,0,0,0,0c0,0,0,0,0.1-0.1c0,0,0,0,0,0c0,0,0-0.1,0.1-0.1
		c0,0,0,0,0,0c0,0,0,0,0,0c0,0,0,0,0,0c0,0,0,0,0,0c0,0,0,0,0-0.1c0,0,0,0,0,0c0,0,0-0.1,0-0.1c0,0,0,0,0,0c0,0,0,0,0-0.1
		c0,0,0,0,0,0c0,0-0.1-0.1-0.1-0.1c0,0,0,0,0,0c0,0-0.1,0-0.1-0.1c0,0,0,0,0,0c0,0-0.1,0-0.1-0.1c0,0,0,0,0,0c0,0-0.1,0-0.1-0.1
		c0,0,0,0,0,0c-3.8-2.4-7.5-2.5-7.5-2.5c-0.1,0-0.3,0-0.4,0c-0.9,0-1.6,0.5-2.1,1.3c-0.1,0.2-0.2,0.4-0.3,0.5
		c-0.6,1.5-1.3,2.9-1.9,4.4c-2.3,5.7-3.8,11.6-4.9,17.6c0,0,0,0.1,0,0.1c0,0.1,0,0.2-0.1,0.2c0,0,0,0.1,0,0.1c0,0.1-0.1,0.2-0.1,0.3
		c-0.1,0.2-0.2,0.5-0.4,0.7c-0.9,1.1-1.8,2.3-2.8,3.4c-1.3,1.5-2.7,3-4.2,4.3c-0.6,0.5-1.2,1-1.9,1.3c-0.7,0.3-1.1,0.1-1.4-0.5
		c-0.3-0.6-0.4-1.2-0.4-1.9c0.1-1.6,0.3-3.2,0.8-4.7c0.8-2.4,1.6-4.8,2.5-7.1c4.1-10.7,9.1-21,15.4-30.6c0.1-0.2,0.2-0.3,0.3-0.5
		c0.2-0.3,0.4-0.6,0.6-1c0.6-0.9,1.3-1.8,2-2.7c1.6-1.8,3-2.2,3.9-2.2c0.9,0.1,1.5,0.4,1.5,0.4s-0.6-1.1-2.5-2.2
		c-1.4-0.9-3.4-2-5.5-2.2c-3.8-0.4-5.4-0.2-7.1,2.3C238.4,161.9,237,164.1,235.8,166.4z M305.4,203.3c0.6-2.4,1.4-4.8,2.3-7.1
		c0.3-0.8,0.7-1.5,1.1-2.2c1.1-2.1,2.3-4.1,3.8-5.9c0.6-0.7,1.2-1.4,1.9-2.1c0.4-0.4,1-0.8,1.5-1c1.1-0.5,2.2-0.1,2.7,1
		c0.4,0.9,0.6,1.8,0.4,2.7c-0.7,3.9-2.1,7.5-3.9,11c-1.1,2.2-2.4,4.4-4,6.4c-1.2,1.4-2.3,2.9-3.4,4.4c-0.3,0.4-0.7,0.8-1.1,1.1
		c-0.2,0.2-0.4,0.3-0.6,0.4c-0.6,0.3-1.1,0.1-1.3-0.5c-0.2-0.4-0.3-0.8-0.3-1.3c-0.1-0.4,0-0.8-0.1-1.2
		C304.5,207,304.9,205.1,305.4,203.3z"/>
	<path class="st1" d="M253.3,164.7c-0.2,0.2-0.5,0.5-0.7,0.8c-0.1,0.1-0.2,0.3-0.3,0.4c-0.7,1-1.2,2-1.7,3.1
		c-0.3,0.8-0.6,1.6-0.8,2.5c0,0.2-0.1,0.4-0.1,0.6c0,0.1,0,0.3,0,0.4c0,0,0,0,0,0.1c0,0,0,0,0,0c0.1,0.4,0.4,0.8,0.9,1.1
		c0,0,0.1,0,0.1,0.1c0.3,0.2,0.5,0.3,0.8,0.5c0.5,0.3,1,0.5,1.4,0.7c1.2,0.5,2.4,0.7,3.7,0.9c0.1,0,0.2,0,0.3,0c0.1,0,0.2,0,0.3,0.1
		c0.2,0,0.4-0.1,0.5-0.2c0.1-0.1,0.2-0.1,0.2-0.2c0.1-0.1,0.2-0.3,0.3-0.4c0.2-0.4,0.4-0.7,0.7-1c0.7-1.2,1.5-2.5,2.2-3.7
		c0.1-0.2,0.3-0.4,0.4-0.6c0.2-0.3,0.4-0.5,0.6-0.7c0.3-0.3,0.6-0.5,1-0.7c0.3-0.1,0.4-0.3,0.4-0.5c0-0.1,0-0.3-0.1-0.4
		c0-0.1-0.1-0.2-0.2-0.2c0,0-0.1-0.1-0.1-0.1c-0.1-0.2-0.3-0.4-0.4-0.5c-0.4-0.4-0.9-0.8-1.3-1.1c-0.8-0.6-1.7-1.2-2.7-1.6
		c-0.5-0.2-1-0.4-1.6-0.4c-0.3-0.1-0.6-0.1-0.9-0.1c-0.2,0-0.3,0-0.5,0c-0.1,0-0.2,0-0.3,0C254.7,163.5,253.9,164,253.3,164.7z"/>
	<path class="st1" d="M292.7,173.7c0.6,0.4,1.3,0.8,2,1.1c1.3,0.6,2.6,0.8,4,1.1c0.8,0.1,1.3-0.1,1.7-0.8c0.2-0.4,0.4-0.7,0.7-1
		c0.8-1.4,1.6-2.7,2.5-4.1c0.4-0.7,0.9-1.3,1.6-1.7c0.1,0,0.2-0.1,0.2-0.2c0.3-0.3,0.4-0.5,0.1-0.8c0-0.1-0.1-0.2-0.2-0.2
		c-1.3-1.4-2.7-2.6-4.5-3.3c-0.7-0.3-1.4-0.5-2.3-0.4c-1.6,0-2.9,0.7-3.9,2.1c-1.3,1.9-2.2,3.9-2.7,6
		C291.6,172.6,291.8,173.1,292.7,173.7z"/>
</g>
</svg>
