<?xml version="1.0" encoding="utf-8"?>
<!-- Generator: Adobe Illustrator 26.1.0, SVG Export Plug-In . SVG Version: 6.00 Build 0)  -->
<svg version="1.1" xmlns="http://www.w3.org/2000/svg" xmlns:xlink="http://www.w3.org/1999/xlink" x="0px" y="0px"
	 viewBox="0 0 400 400" style="enable-background:new 0 0 400 400;" xml:space="preserve">
<style type="text/css">
	.st0{display:none;}
	.st1{display:inline;fill:none;}
	.st2{display:inline;}
	.st3{fill:#A8A8A8;}
	.st4{font-family:'Oxygen-Bold';}
	.st5{font-size:41.3035px;}
	.st6{fill:none;}
	.st7{fill:url(#SVGID_1_);}
	.st8{fill:url(#SVGID_00000126306119597374624170000011499420075010286738_);}
	.st9{fill:url(#SVGID_00000103257734100510539070000004917248127098680990_);}
	.st10{fill:url(#SVGID_00000123410408915919315780000006010436100448521912_);}
	.st11{fill:#979797;}
	.st12{font-size:18.6345px;}
	.st13{fill:#FF1515;}
</style>
<g id="Capa_3">
	<g class="st0">
		<path class="st1" d="M173.9,237.88c-7.7-6.02-16.54-8.6-26.29-7.59c-7.72,0.79-14.69,3.56-20.63,8.64
			c-5,4.28-8.31,9.71-10.48,15.87c-0.28,0.8-0.12,1.56,0.44,2.24c4.23,5.13,8.46,10.27,12.66,15.43c0.84,1.03,1.63,2.12,2.32,3.26
			c1.1,1.82,0.92,3.69-0.03,5.52c-0.7,1.34-2.54,1.63-3.47,0.35c-0.12-0.17-0.26-0.33-0.37-0.5c-4.08-5.77-8.15-11.55-12.23-17.32
			c-0.18-0.25-0.39-0.48-0.64-0.79c-0.08,0.21-0.12,0.29-0.13,0.37c-0.31,2.43-0.38,4.86-0.04,7.28
			c1.4,10.11,6.37,18.13,14.56,24.07c7.56,5.48,16.1,7.77,25.4,6.78c10.45-1.12,18.98-5.86,25.4-14.17
			c5.52-7.13,7.92-15.29,7.17-24.28C186.67,252.69,182.05,244.26,173.9,237.88z"/>
		<path class="st1" d="M220.23,237.65c2.29-2.71,5.17-4.59,8.33-6.02v0c3.38-1.67,6.7-2.77,9.81-3.5c1.01-0.41,2.27-0.86,3.87-1.36
			c0,0-23.19-14.98-42.24-16.4c-19.06,1.42-42.24,16.4-42.24,16.4c1.66,0.51,2.95,0.98,3.97,1.39c3.08,0.73,6.36,1.83,9.71,3.48v0
			c3.17,1.44,6.04,3.31,8.33,6.02c1.63,1.93,3.12,3.97,4.64,5.98c1.8,2.4,3.57,4.82,5.34,7.24c0.66,0.91,1.52,1.31,2.57,1.31
			c0.7-0.13,3.66-0.63,7.68-0.63l0,0c0,0,0,0,0,0s0,0,0,0l0,0c3.82,0,6.67,0.45,7.55,0.61c1.11,0.03,2.01-0.36,2.7-1.3
			c1.77-2.42,3.54-4.85,5.34-7.24C217.1,241.62,218.6,239.58,220.23,237.65z"/>
		<path class="st1" d="M284.83,262.98c-0.25,0.31-0.46,0.54-0.64,0.79c-4.08,5.77-8.15,11.55-12.23,17.32
			c-0.12,0.17-0.25,0.33-0.37,0.5c-0.93,1.28-2.77,0.98-3.47-0.35c-0.96-1.83-1.14-3.7-0.03-5.52c0.69-1.14,1.48-2.22,2.32-3.26
			c4.2-5.16,8.43-10.29,12.66-15.43c0.57-0.69,0.72-1.44,0.44-2.24c-2.17-6.16-5.49-11.59-10.48-15.87
			c-5.94-5.08-12.91-7.84-20.63-8.64c-9.75-1.01-18.59,1.57-26.29,7.59c-8.16,6.37-12.78,14.81-13.64,25.17
			c-0.75,8.99,1.65,17.15,7.17,24.28c6.43,8.31,14.96,13.05,25.4,14.17c9.3,0.99,17.85-1.3,25.4-6.78
			c8.2-5.94,13.16-13.96,14.56-24.07c0.34-2.42,0.27-4.85-0.04-7.28C284.95,263.27,284.91,263.2,284.83,262.98z"/>
		<path class="st2" d="M297.93,259.67c-3.65-2.2-6.5-5.25-9.15-8.52c-2.14-2.63-4.16-5.35-6.39-7.9
			c-4.92-5.62-10.67-10.02-17.39-12.94h0.01c-0.01,0-0.02,0-0.03-0.01c-1.66-0.72-3.38-1.35-5.16-1.89
			c-0.85-0.26-1.7-0.55-2.57-0.74c-0.11-0.03-0.23-0.05-0.34-0.08v0c0,0-0.08-0.02-0.22-0.05c-0.37-0.08-0.75-0.15-1.12-0.22
			c-25.16-9.64-38.59-28.94-38.59-28.94h-0.05c-0.01-0.34,0.16-0.68,0.48-1.08c0.54-0.67,1.05-1.37,1.6-2.03
			c1.59-1.96,3.2-3.91,4.79-5.87c2.9-3.54,5.79-7.09,8.68-10.63c2.29-2.82,4.55-5.64,6.83-8.46c2.59-3.22,5.18-6.43,7.78-9.64
			c2.37-2.93,4.76-5.86,7.14-8.78c2.8-3.43,5.6-6.86,8.4-10.29c2.38-2.92,4.77-5.84,7.15-8.77c3.05-3.76,6.09-7.53,9.14-11.29
			c2.68-3.3,5.36-6.6,8.03-9.9c2.79-3.44,5.58-6.87,8.35-10.32c0.76-0.95,1.54-1.9,2.16-2.94c0.31-0.53,0.45-1.09,0.44-1.65
			c-0.02-0.79-0.35-1.56-0.95-2.19l-2.36-2.36c-1.62,1.53-3.24,3.06-4.87,4.59c-1.94,1.8-3.87,3.61-5.79,5.42
			c-4.92,4.62-9.82,9.26-14.73,13.89c-5.84,5.5-11.68,11.01-17.52,16.51c-6.62,6.23-13.25,12.46-19.87,18.7
			c-3.7,3.48-7.39,6.98-11.09,10.46c-5.71,5.38-11.42,10.77-17.13,16.15c-0.78,0.74-1.57,1.46-2.37,2.17
			c-0.94,0.82-1.43,0.83-2.44,0.08c-0.28-0.21-0.54-0.46-0.81-0.69c-0.08-0.07-0.14-0.13-0.21-0.18c-0.27-0.25-0.54-0.49-0.81-0.74
			c-0.09,0.07-0.19,0.16-0.33,0.29c-2.46,2.25-4.94,4.46-7.35,6.76c-0.81,0.77-1.58,0.79-2.51,0.41c-0.47-0.19-0.69-0.53-0.66-1.04
			c0.04-0.77,0.29-1.43,0.88-1.97c2.29-2.12,4.57-4.26,6.84-6.39c0.17-0.16,0.34-0.32,0.52-0.51c-0.86-0.81-1.73-1.63-2.59-2.44
			c-0.22,0.19-0.41,0.35-0.59,0.51c-2.16,1.95-4.32,3.91-6.48,5.86c-0.39,0.36-0.79,0.73-1.24,1c-0.77,0.47-1.62,0.18-1.94-0.59
			c-0.31-0.74,0.05-2.26,0.66-2.81c1.69-1.54,3.39-3.07,5.07-4.63c0.65-0.6,1.26-1.23,1.88-1.84c-0.86-0.81-1.71-1.62-2.57-2.42
			c-0.02,0.01-0.03,0.03-0.05,0.04c-2.22,2.02-4.45,4.03-6.66,6.06c-0.54,0.49-1.11,0.9-1.86,0.97c-0.81,0.09-1.3-0.23-1.57-1
			c-0.18-0.54-0.17-1.07,0.17-1.53c0.3-0.4,0.65-0.77,1.02-1.11c2.05-1.89,4.12-3.76,6.19-5.65c0.06-0.06,0.12-0.13,0.18-0.22
			c-0.87-0.82-1.74-1.64-2.62-2.47c-0.11,0.1-0.22,0.19-0.32,0.28c-2.06,1.89-4.11,3.79-6.18,5.66c-0.33,0.3-0.69,0.58-1.08,0.76
			c-0.66,0.29-1.28,0.13-1.81-0.37c-0.53-0.49-0.57-1.11-0.32-1.72c0.15-0.37,0.42-0.72,0.7-1.01c0.69-0.69,1.43-1.34,2.14-2.01
			c1.35-1.26,2.7-2.51,4.03-3.78c0.1-0.09,0.17-0.17,0.23-0.25c-0.86-0.81-1.72-1.62-2.58-2.43c0,0-0.01,0.01-0.01,0.01
			c-1.99,1.78-3.98,3.57-5.98,5.36c-0.31,0.27-0.62,0.56-0.96,0.78c-0.81,0.52-1.49,0.45-2.09-0.18c-0.63-0.65-0.72-1.43-0.19-2.18
			c0.22-0.31,0.49-0.59,0.78-0.85c1.92-1.78,3.85-3.54,5.77-5.31c0.03-0.03,0.06-0.06,0.08-0.09c-0.88-0.83-1.75-1.65-2.63-2.48
			c-0.1,0.09-0.19,0.17-0.27,0.25c-1.78,1.62-3.54,3.27-5.35,4.85c-0.45,0.39-1.05,0.67-1.62,0.87c-0.61,0.22-1.18-0.02-1.59-0.52
			c-0.42-0.52-0.46-1.1-0.1-1.66c0.26-0.39,0.54-0.78,0.88-1.1c1.38-1.31,2.78-2.59,4.17-3.9c0.42-0.39,0.82-0.8,1.27-1.25
			c-0.05-0.05-0.11-0.1-0.16-0.15c-0.8-0.76-1.6-1.51-2.41-2.27c-0.06,0.05-0.12,0.1-0.18,0.15c-1.8,1.6-3.58,3.22-5.38,4.82
			c-0.2,0.18-0.41,0.34-0.63,0.48c-0.91,0.55-1.82,0.31-2.36-0.6c-0.47-0.79-0.26-1.66,0.61-2.45c1.3-1.18,2.62-2.34,3.91-3.52
			c0.46-0.42,0.9-0.87,1.39-1.36c-0.87-0.82-1.74-1.64-2.61-2.46c-0.75,0.69-1.5,1.38-2.25,2.07c-1.03,0.94-2.05,1.89-3.1,2.82
			c-0.81,0.71-1.56,0.77-2.26,0.25c-0.92-0.7-1.06-1.69-0.26-2.53c0.8-0.83,1.69-1.58,2.53-2.38c0.9-0.87,1.79-1.75,2.72-2.68
			c-0.86-0.81-1.72-1.61-2.57-2.42c-0.08,0.07-0.16,0.14-0.24,0.21c-1.43,1.3-2.84,2.62-4.28,3.91c-0.37,0.33-0.8,0.63-1.25,0.83
			c-0.67,0.29-1.37,0.04-1.83-0.53c-0.48-0.61-0.53-1.26-0.1-1.9c0.18-0.27,0.41-0.51,0.65-0.73c0.81-0.75,1.63-1.47,2.43-2.23
			c0.67-0.64,1.33-1.3,2.03-1.99c-0.86-0.81-1.72-1.62-2.59-2.43c-0.01,0.01-0.03,0.02-0.04,0.03c-1.42,1.26-2.86,2.51-4.27,3.79
			c-0.57,0.51-1.24,0.7-1.97,0.62c-1.03-0.12-1.58-0.96-1.21-1.93c0.15-0.4,0.44-0.78,0.75-1.08c1.16-1.11,2.35-2.18,3.53-3.27
			c0.2-0.19,0.41-0.39,0.62-0.61c-0.87-0.82-1.75-1.65-2.62-2.47c-0.02,0.02-0.05,0.04-0.07,0.06c-1.27,1.17-2.53,2.34-3.81,3.49
			c-0.3,0.27-0.66,0.51-1.04,0.67c-0.72,0.31-1.37,0.12-1.84-0.46c-0.52-0.64-0.58-1.41-0.13-2.06c0.17-0.24,0.38-0.45,0.6-0.66
			c1.19-1.12,2.38-2.24,3.57-3.36c0.04-0.04,0.09-0.08,0.13-0.13c-0.87-0.82-1.74-1.64-2.61-2.45c-0.17,0.09-0.34,0.22-0.53,0.38
			c-0.96,0.85-1.87,1.75-2.84,2.58c-0.42,0.35-0.92,0.64-1.44,0.84c-0.59,0.23-1.19,0.1-1.64-0.38c-0.45-0.48-0.51-1.09-0.24-1.67
			c0.22-0.47,0.52-0.94,0.9-1.3c1-0.98,2.05-1.89,3.08-2.83c0.03-0.03,0.06-0.06,0.09-0.08c-0.86-0.81-1.73-1.63-2.59-2.44
			c-1,0.9-1.99,1.81-2.99,2.71c-0.26,0.24-0.54,0.48-0.84,0.66c-0.79,0.47-1.58,0.34-2.17-0.32c-0.57-0.64-0.6-1.39-0.08-2.12
			c0.19-0.26,0.43-0.49,0.67-0.72c0.9-0.86,1.82-1.71,2.72-2.58c0.03-0.03,0.05-0.06,0.08-0.09c-0.37-0.35-0.75-0.7-1.12-1.05
			c-0.5-0.47-1-0.94-1.49-1.41c-0.21,0.19-0.42,0.37-0.62,0.55c-0.89,0.79-1.76,1.6-2.67,2.36c-0.65,0.54-1.32,0.55-1.89,0.14
			c-0.72-0.52-0.98-1.23-0.67-2.03c0.15-0.37,0.4-0.74,0.68-1.02c0.65-0.65,1.36-1.24,2.04-1.86c0.19-0.18,0.38-0.37,0.57-0.55
			c-0.87-0.82-1.74-1.64-2.61-2.46c-0.15,0.12-0.3,0.25-0.44,0.37c-0.65,0.57-1.26,1.18-1.93,1.72c-0.39,0.3-0.85,0.57-1.32,0.69
			c-1.19,0.3-2.15-0.64-1.88-1.85c0.09-0.41,0.35-0.82,0.63-1.14c0.41-0.47,0.91-0.85,1.36-1.29c0.32-0.31,0.64-0.63,0.97-0.96
			c-0.96-0.91-1.92-1.81-2.88-2.72c-0.15,0.18-0.29,0.36-0.44,0.53c-0.61,0.69-1.2,1.4-1.9,2c-0.69,0.6-1.62,0.43-2.22-0.27
			c-0.67-0.77-0.67-1.61,0.02-2.3c0.25-0.25,0.54-0.46,0.81-0.69c0.51-0.43,1.02-0.87,1.54-1.32c-0.13-0.12-0.26-0.25-0.39-0.37
			c-0.79-0.75-1.59-1.48-2.38-2.23c-0.68,0.59-1.33,1.19-2.03,1.76c-0.88,0.72-1.74,0.65-2.44-0.14c-0.65-0.74-0.62-1.59,0.16-2.38
			c0.56-0.57,1.17-1.08,1.77-1.62c-0.29-0.27-0.58-0.54-0.87-0.81c-0.66-0.62-1.31-1.24-1.97-1.86c-0.25,0.31-0.49,0.62-0.74,0.91
			c-0.27,0.31-0.59,0.6-0.93,0.82c-0.85,0.53-1.75,0.28-2.39-0.61c-0.5-0.7-0.36-1.5,0.4-2.12c0.27-0.22,0.59-0.4,0.89-0.58
			c0.21-0.13,0.43-0.25,0.67-0.39c-0.26-0.24-0.52-0.49-0.78-0.73c-0.02,0.01-0.04,0.02-0.06,0.02l-2.31,2.31
			c-0.21,0.22-0.38,0.45-0.52,0.7c-0.27,0.47-0.42,0.97-0.43,1.49c-0.01,0.55,0.13,1.11,0.44,1.65c0.62,1.04,1.4,1.99,2.16,2.94
			c2.77,3.45,5.56,6.88,8.35,10.32c2.67,3.3,5.35,6.6,8.03,9.9c3.05,3.76,6.09,7.53,9.14,11.29c2.38,2.93,4.77,5.85,7.15,8.77
			c2.8,3.43,5.6,6.86,8.4,10.29c2.38,2.93,4.76,5.85,7.14,8.78c2.6,3.21,5.19,6.43,7.78,9.64c2.28,2.82,4.54,5.65,6.83,8.46
			c2.88,3.55,5.78,7.09,8.68,10.63c1.6,1.96,3.2,3.91,4.79,5.87c0.54,0.66,1.05,1.36,1.6,2.03c0.07,0.08,0.12,0.16,0.18,0.24
			c0.09,0.13,0.15,0.25,0.2,0.37c0.03,0.12,0.06,0.24,0.06,0.35h0c0,0-13.46,19.33-38.66,28.97c-0.35,0.06-0.7,0.13-1.05,0.2
			c-0.14,0.03-0.22,0.05-0.22,0.05v0c-0.11,0.03-0.23,0.05-0.34,0.08c-0.87,0.19-1.71,0.49-2.57,0.74
			c-1.75,0.52-3.44,1.14-5.08,1.85c-0.04,0.01-0.07,0.02-0.11,0.03h0.05c-6.73,2.91-12.49,7.32-17.42,12.95
			c-2.23,2.55-4.25,5.27-6.39,7.9c-2.65,3.27-5.5,6.32-9.15,8.52c-0.8,0.48-1.16,1.27-1.05,2.2c0.34,2.74,0.68,5.49,1.09,8.22
			c0.26,1.8,1.12,2.66,2.94,2.98c2.16,0.39,3.74,1.56,4.91,3.38c2.51,3.92,4.99,7.88,7.57,11.76c1.26,1.9,2.61,3.77,4.13,5.47
			c4.15,4.65,9.29,7.92,15.07,10.2c5.77,2.27,11.78,2.96,17.94,2.39c5.55-0.52,10.9-1.77,15.92-4.25c3.4-1.68,6.4-3.9,8.85-6.79
			c2.65-3.13,5.05-6.46,7.24-9.93c3.44-5.46,6.11-11.27,7.82-17.51c0.21-0.77,0.48-1.53,0.81-2.26c0.37-0.83,0.92-1.44,1.63-1.85
			c0.04-0.02,0.09-0.05,0.13-0.07c0.04-0.02,0.08-0.04,0.13-0.06c0.18-0.08,0.37-0.16,0.56-0.22c0.04-0.01,0.07-0.03,0.11-0.04
			c0.03-0.01,0.06-0.02,0.09-0.03c0.16-0.04,0.32-0.08,0.49-0.1c0.32-0.05,0.65-0.11,0.97-0.13c1.55-0.1,2.93,0.15,4.07,0.89
			c0.51,0.39,0.92,0.92,1.22,1.58c0.33,0.72,0.6,1.49,0.81,2.26c1.71,6.24,4.38,12.04,7.82,17.51c2.19,3.48,4.58,6.8,7.24,9.93
			c2.46,2.9,5.46,5.12,8.85,6.79c5.02,2.48,10.37,3.73,15.92,4.25c6.16,0.58,12.17-0.12,17.94-2.39c5.77-2.27,10.91-5.54,15.07-10.2
			c1.52-1.7,2.87-3.57,4.13-5.47c2.58-3.88,5.06-7.83,7.57-11.76c1.16-1.82,2.75-2.99,4.91-3.37c1.81-0.32,2.67-1.18,2.94-2.98
			c0.4-2.73,0.75-5.48,1.09-8.22C299.09,260.94,298.73,260.15,297.93,259.67z M180.37,287.33c-6.43,8.31-14.96,13.05-25.4,14.17
			c-9.3,0.99-17.85-1.3-25.4-6.78c-8.2-5.94-13.16-13.96-14.56-24.07c-0.34-2.42-0.27-4.85,0.04-7.28c0.01-0.08,0.05-0.15,0.13-0.37
			c0.25,0.31,0.46,0.54,0.64,0.79c4.08,5.77,8.15,11.55,12.23,17.32c0.12,0.17,0.25,0.33,0.37,0.5c0.93,1.28,2.77,0.98,3.47-0.35
			c0.96-1.83,1.14-3.7,0.03-5.52c-0.69-1.14-1.48-2.22-2.32-3.26c-4.2-5.16-8.43-10.29-12.66-15.43c-0.57-0.69-0.72-1.44-0.44-2.24
			c2.17-6.16,5.49-11.59,10.48-15.87c5.94-5.08,12.91-7.84,20.63-8.64c9.75-1.01,18.59,1.57,26.29,7.59
			c8.16,6.37,12.78,14.81,13.64,25.17C188.29,272.04,185.89,280.2,180.37,287.33z M207.55,252.18c-0.88-0.16-3.74-0.61-7.55-0.61
			l0,0c0,0,0,0,0,0s0,0,0,0l0,0c-4.01,0-6.97,0.5-7.68,0.63c-1.05,0-1.91-0.4-2.57-1.31c-1.77-2.42-3.54-4.85-5.34-7.24
			c-1.52-2.02-3.01-4.05-4.64-5.98c-2.29-2.71-5.17-4.59-8.33-6.02v0c-3.35-1.65-6.63-2.75-9.71-3.48
			c-1.02-0.42-2.32-0.88-3.97-1.39c0,0,23.19-14.98,42.24-16.4c19.06,1.42,42.24,16.4,42.24,16.4c-1.6,0.5-2.87,0.95-3.87,1.36
			c-3.11,0.73-6.43,1.84-9.81,3.5v0c-3.17,1.44-6.04,3.31-8.33,6.02c-1.63,1.93-3.12,3.97-4.64,5.98c-1.8,2.4-3.57,4.82-5.34,7.24
			C209.56,251.82,208.66,252.21,207.55,252.18z M285,270.63c-1.4,10.11-6.37,18.13-14.56,24.07c-7.56,5.48-16.1,7.77-25.4,6.78
			c-10.45-1.12-18.98-5.86-25.4-14.17c-5.52-7.13-7.92-15.29-7.17-24.28c0.86-10.36,5.48-18.8,13.64-25.17
			c7.7-6.02,16.54-8.6,26.29-7.59c7.72,0.79,14.69,3.56,20.63,8.64c5,4.28,8.31,9.71,10.48,15.87c0.28,0.8,0.12,1.56-0.44,2.24
			c-4.23,5.13-8.46,10.27-12.66,15.43c-0.84,1.03-1.63,2.12-2.32,3.26c-1.1,1.82-0.92,3.69,0.03,5.52c0.7,1.34,2.54,1.63,3.47,0.35
			c0.12-0.17,0.26-0.33,0.37-0.5c4.08-5.77,8.15-11.55,12.23-17.32c0.18-0.25,0.39-0.48,0.64-0.79c0.08,0.21,0.12,0.29,0.13,0.37
			C285.27,265.78,285.34,268.21,285,270.63z"/>
	</g>
</g>
<g id="Capa_2">
	<g>
		<g>
			<text transform="matrix(1 0 0 1 101.6943 311.3906)" class="st3 st4 st5">J CHEDIAC</text>
		</g>
		<path class="st6" d="M153.68,103.67c3.55-5.54,8.23-9.3,13.01-11.85c-7.39,2.84-16.71,8.4-21.65,19.1l16.28-11L153.68,103.67z"/>
		<path class="st6" d="M258.74,228.89l-32.45,21.92C226.3,250.82,249.76,248.36,258.74,228.89z"/>
		<path class="st6" d="M153.68,103.67l7.64-3.75l16.17-10.92c0,0-4.75,0.5-10.8,2.82C161.9,94.37,157.22,98.13,153.68,103.67z"/>
		<g>
			<linearGradient id="SVGID_1_" gradientUnits="userSpaceOnUse" x1="225.0372" y1="265.4235" x2="225.0372" y2="225.7829">
				<stop  offset="0" style="stop-color:#C6C6C6"/>
				<stop  offset="1" style="stop-color:#878787"/>
			</linearGradient>
			<path class="st7" d="M207.87,237.53c-1.49-2.17-3.49-4.03-5.93-5.41c-6.36-3.57-13.98-2.81-19.45,1.32
				c0.7,0.23,6.61,2.16,12.34,3.02l1.37,3.83l-4.04,15.07l-2,3.04l-0.01,0.02l-0.15,0.23c-5.51-0.58-9.59-1.57-11.32-2.04h0l0,0
				c-0.59-0.16-0.91-0.26-0.91-0.26l-0.06-0.02c0.02,0.03,0.04,0.07,0.06,0.1c1.54,2.72,3.82,5.07,6.75,6.71
				c7.36,4.13,16.4,2.47,21.85-3.51c25.32-1.26,49.63-13.19,66.02-33.85h-24.63C235.79,233.28,221.96,237.35,207.87,237.53z
				 M226.3,250.82l32.45-21.92C249.76,248.36,226.3,250.82,226.3,250.82z"/>
			
				<linearGradient id="SVGID_00000070828337374807250590000007452870343777540023_" gradientUnits="userSpaceOnUse" x1="264.2153" y1="204.7823" x2="264.2153" y2="86.8769">
				<stop  offset="0" style="stop-color:#C6C6C6"/>
				<stop  offset="1" style="stop-color:#878787"/>
			</linearGradient>
			<path style="fill:url(#SVGID_00000070828337374807250590000007452870343777540023_);" d="M246.03,91.36
				c-0.02-0.01-0.05-0.03-0.07-0.04l0.39-0.69l-2.05-2.41l-6.16-1.34l-0.82,1.45l-0.82,1.45l4.33,4.57l3.13,0.51l0.45-0.81
				c0.03,0.01,0.05,0.03,0.08,0.04c36.89,20.73,50,67.44,29.27,104.33c-1.24,2.2-2.57,4.32-3.98,6.35h15.06
				C302.48,163.15,286.37,114.03,246.03,91.36z"/>
			
				<linearGradient id="SVGID_00000173841056825473844420000000883940599965108381_" gradientUnits="userSpaceOnUse" x1="168.9625" y1="204.7823" x2="168.9625" y2="74.3847">
				<stop  offset="0" style="stop-color:#C6C6C6"/>
				<stop  offset="1" style="stop-color:#878787"/>
			</linearGradient>
			<path style="fill:url(#SVGID_00000173841056825473844420000000883940599965108381_);" d="M195.91,102.28
				c1.49,2.17,3.49,4.03,5.93,5.41c6.36,3.57,13.98,2.81,19.45-1.32c-0.7-0.23-6.61-2.16-12.34-3.02l-1.37-3.83l4.04-15.07l2-3.04
				l0.01-0.02l0.15-0.23c5.51,0.58,9.59,1.57,11.32,2.04h0l0,0c0.59,0.16,0.91,0.26,0.91,0.26l0.06,0.02
				c-0.02-0.03-0.04-0.07-0.06-0.1c-1.54-2.72-3.82-5.07-6.75-6.71c-7.36-4.13-16.4-2.47-21.85,3.51
				c-29.86,1.48-58.32,17.81-74.04,45.79c-14.12,25.13-14.86,54.14-4.55,78.81h5.86c-7.23-20.18-6-43.26,5.32-63.41
				C143.91,116.65,169.46,102.61,195.91,102.28z M166.68,91.81c6.05-2.32,10.8-2.82,10.8-2.82l-16.17,10.92l-16.28,11
				C149.97,100.21,159.29,94.65,166.68,91.81z"/>
			
				<linearGradient id="SVGID_00000010992213815731183780000001694125919375299997_" gradientUnits="userSpaceOnUse" x1="149.2413" y1="252.9313" x2="149.2413" y2="225.7829">
				<stop  offset="0" style="stop-color:#C6C6C6"/>
				<stop  offset="1" style="stop-color:#878787"/>
			</linearGradient>
			<path style="fill:url(#SVGID_00000010992213815731183780000001694125919375299997_);" d="M159.82,244.94l-0.45,0.81
				c-0.03-0.01-0.05-0.03-0.08-0.04c-9.25-5.2-17-12.03-23.1-19.92h-4.99c7.07,8.96,15.97,16.72,26.55,22.66
				c0.02,0.01,0.05,0.03,0.07,0.04l-0.39,0.69l2.05,2.41l6.16,1.34l0.82-1.45l0.82-1.45l-4.33-4.57L159.82,244.94z"/>
		</g>
		<text transform="matrix(1 0 0 1 108.4609 222.3516)" class="st11 st4 st12">SERVICIO MECANICO</text>
		<g>
			<path class="st13" d="M148.26,144.03C148.27,144.03,148.27,144.03,148.26,144.03c0.55,0,1.02,0,1.2,0
				c2.29-6.61,6.48-15.53,13.19-18.89c1.29-0.64,2.96-1.22,4.91-1.74c4.21-1.12,9.72-1.98,15.46-2.62c0.12-0.01,0.24-0.03,0.37-0.04
				c7.41-0.94,13.7-1.33,17.66-1.49c3.96,0.16,10.25,0.55,17.66,1.49c0.12,0.01,0.24,0.03,0.37,0.04c5.75,0.64,11.25,1.5,15.46,2.62
				c1.95,0.52,3.62,1.1,4.91,1.74c6.71,3.35,10.9,12.27,13.19,18.89c0.18,0,0.65,0,1.19,0c0,0,0.01,0,0.01,0l2.44-0.02l0.04,0
				c0,0-3.47-17.46-12.73-22.09c-1.06-0.53-2.45-1.01-4.06-1.44c-3.48-0.93-8.04-1.63-12.79-2.17c-12.16-1.36-25.6-1.6-25.69-1.6v0
				c0,0,0,0,0,0c0,0,0,0,0,0v0c-0.09,0-13.53,0.24-25.69,1.6c-4.75,0.53-9.31,1.24-12.79,2.17c-1.61,0.43-2.99,0.91-4.06,1.44
				c-9.26,4.63-12.73,22.09-12.73,22.09l0.04,0L148.26,144.03z"/>
			<path class="st13" d="M264.58,143.34l-0.86-2.29c0,0,0,0,0-0.01c-0.19-0.51-0.36-0.94-0.43-1.11c-2.93,0.1-6.36,0.03-9.77-0.46
				c0.29,1.49,0.39,3.03,0.07,4.49c5.9,0.29,11-0.59,11-0.59L264.58,143.34z"/>
			<path class="st13" d="M137.59,143.34l0.86-2.29c0,0,0,0,0-0.01c0.19-0.51,0.36-0.94,0.43-1.11c2.93,0.1,6.36,0.03,9.77-0.46
				c-0.29,1.49-0.39,3.03-0.07,4.49c-5.9,0.29-11-0.59-11-0.59L137.59,143.34z"/>
			<g>
				<path class="st13" d="M258.08,182.3c-0.29-3.61-0.36-7.2,0.27-10.77c0.93-5.31,3.36-10.47,2.89-15.84
					c-0.06-0.64-0.18-1.33-0.65-1.78c-0.44-0.42-1.08-0.53-1.68-0.61c-7.48-0.95-15.2,0.15-22.12,3.14
					c-8,3.47-14.8,9.36-22.93,12.51c-6.93,2.69-14.73,3.24-21.88,1.21c-8.36-2.38-15.35-8.04-23.1-11.98
					c-4.12-2.09-8.51-3.69-13.06-4.55c-2.26-0.43-4.57-0.67-6.87-0.69c-1.15-0.01-2.3,0.04-3.44,0.14
					c-0.57,0.05-1.14,0.12-1.71,0.21c-0.49,0.07-1.26,0.07-1.71,0.3c-0.37,0.19-0.52,0.93-0.64,1.34c-0.15,0.52-0.25,1.05-0.3,1.59
					c-0.1,1.1-0.02,2.2,0.17,3.28c0.38,2.29,1.18,4.48,1.83,6.7c0.11,0.37,0.21,0.75,0.31,1.12c2.7,10.21-0.46,20.97-0.5,31.53
					c0,0.92,0.05,1.93,0.68,2.6c0.71,0.76,1.87,0.82,2.91,0.82c6.81,0.03,13.61,0.07,20.42,0.1c1.54,0.01,3.35-0.13,4.17-1.43
					c0.94-1.5-0.08-3.44,0.08-5.2c0.27-2.89,3.51-4.4,6.3-5.19c14.9-4.22,30.9-4.11,45.96-0.47c1.79,0.43,3.61,0.93,5.13,1.97
					c1.52,1.04,2.72,2.72,2.71,4.56c-0.01,1.62-0.86,3.46,0.15,4.73c0.73,0.92,2.08,1,3.26,0.99c7.08-0.01,14.17-0.02,21.25-0.04
					c0.91,0,1.9-0.03,2.59-0.63c0.77-0.67,0.88-1.8,0.9-2.81C259.56,193.55,258.54,187.91,258.08,182.3z M173,171.01
					c-6.29,2.24-15.97,0.7-21.64-2.53c-2.31-1.31-4.06-3.64-4.98-6.11c-0.49-1.32-1.06-3.55-0.59-4.93c0.61-1.8,1.96-0.9,3.13,0.03
					c0.04,0.03,0.08,0.06,0.12,0.09c0.36,0.29,0.7,0.57,0.99,0.77c1.52,1.04,3.02,2.11,4.68,2.94c3.93,1.96,8.41,3.03,12.7,4.25
					c1.87,0.53,4.13,0.76,5.68,2.03C174.36,168.63,174.94,170.32,173,171.01z M256.06,162.38c-0.92,2.47-2.67,4.79-4.98,6.11
					c-5.67,3.22-15.36,4.77-21.64,2.53c-1.94-0.69-1.36-2.38-0.08-3.44c1.54-1.28,3.81-1.5,5.68-2.03c4.28-1.22,8.76-2.29,12.7-4.25
					c1.65-0.82,3.16-1.9,4.68-2.94c0.29-0.2,0.63-0.48,0.99-0.77c0.04-0.03,0.08-0.06,0.12-0.09c1.17-0.93,2.52-1.83,3.13-0.03
					C257.12,158.83,256.55,161.06,256.06,162.38z"/>
				<path class="st13" d="M177.62,158.51c3.81,2.47,7.33,4.91,11.68,6.4c4.71,1.61,9.87,2.3,14.84,1.86c0.05,0,0.09-0.01,0.14-0.01
					c6.98-0.63,13.68-3.46,19.42-7.42c8.61-5.94,19.28-8.82,29.71-8.04c-34.22-7.65-70.14-7.65-104.36,0
					C159.01,150.85,169.27,153.09,177.62,158.51z"/>
			</g>
		</g>
	</g>
</g>
</svg>
