<?xml version="1.0" encoding="utf-8"?>
<!-- Generator: Adobe Illustrator 26.1.0, SVG Export Plug-In . SVG Version: 6.00 Build 0)  -->
<svg version="1.1" xmlns="http://www.w3.org/2000/svg" xmlns:xlink="http://www.w3.org/1999/xlink" x="0px" y="0px"
	 viewBox="0 0 400 400" style="enable-background:new 0 0 400 400;" xml:space="preserve">
<style type="text/css">
	.st0{display:none;}
	.st1{display:inline;fill:none;}
	.st2{display:inline;}
	.st3{fill:none;}
	.st4{fill:#FFFFFF;}
	.st5{fill:#ECBB00;}
</style>
<g id="Capa_3">
	<g class="st0">
		<path class="st1" d="M173.9,237.88c-7.7-6.02-16.54-8.6-26.29-7.59c-7.72,0.79-14.69,3.56-20.63,8.64
			c-5,4.28-8.31,9.71-10.48,15.87c-0.28,0.8-0.12,1.56,0.44,2.24c4.23,5.13,8.46,10.27,12.66,15.43c0.84,1.03,1.63,2.12,2.32,3.26
			c1.1,1.82,0.92,3.69-0.03,5.52c-0.7,1.34-2.54,1.63-3.47,0.35c-0.12-0.17-0.26-0.33-0.37-0.5c-4.08-5.77-8.15-11.55-12.23-17.32
			c-0.18-0.25-0.39-0.48-0.64-0.79c-0.08,0.21-0.12,0.29-0.13,0.37c-0.31,2.43-0.38,4.86-0.04,7.28
			c1.4,10.11,6.37,18.13,14.56,24.07c7.56,5.48,16.1,7.77,25.4,6.78c10.45-1.12,18.98-5.86,25.4-14.17
			c5.52-7.13,7.92-15.29,7.17-24.28C186.67,252.69,182.05,244.26,173.9,237.88z"/>
		<path class="st1" d="M220.23,237.65c2.29-2.71,5.17-4.59,8.33-6.02v0c3.38-1.67,6.7-2.77,9.81-3.5c1.01-0.41,2.27-0.86,3.87-1.36
			c0,0-23.19-14.98-42.24-16.4c-19.06,1.42-42.24,16.4-42.24,16.4c1.66,0.51,2.95,0.98,3.97,1.39c3.08,0.73,6.36,1.83,9.71,3.48v0
			c3.17,1.44,6.04,3.31,8.33,6.02c1.63,1.93,3.12,3.97,4.64,5.98c1.8,2.4,3.57,4.82,5.34,7.24c0.66,0.91,1.52,1.31,2.57,1.31
			c0.7-0.13,3.66-0.63,7.68-0.63l0,0c0,0,0,0,0,0s0,0,0,0l0,0c3.82,0,6.67,0.45,7.55,0.61c1.11,0.03,2.01-0.36,2.7-1.3
			c1.77-2.42,3.54-4.85,5.34-7.24C217.1,241.62,218.6,239.58,220.23,237.65z"/>
		<path class="st1" d="M284.83,262.98c-0.25,0.31-0.46,0.54-0.64,0.79c-4.08,5.77-8.15,11.55-12.23,17.32
			c-0.12,0.17-0.25,0.33-0.37,0.5c-0.93,1.28-2.77,0.98-3.47-0.35c-0.96-1.83-1.14-3.7-0.03-5.52c0.69-1.14,1.48-2.22,2.32-3.26
			c4.2-5.16,8.43-10.29,12.66-15.43c0.57-0.69,0.72-1.44,0.44-2.24c-2.17-6.16-5.49-11.59-10.48-15.87
			c-5.94-5.08-12.91-7.84-20.63-8.64c-9.75-1.01-18.59,1.57-26.29,7.59c-8.16,6.37-12.78,14.81-13.64,25.17
			c-0.75,8.99,1.65,17.15,7.17,24.28c6.43,8.31,14.96,13.05,25.4,14.17c9.3,0.99,17.85-1.3,25.4-6.78
			c8.2-5.94,13.16-13.96,14.56-24.07c0.34-2.42,0.27-4.85-0.04-7.28C284.95,263.27,284.91,263.2,284.83,262.98z"/>
		<path class="st2" d="M297.93,259.67c-3.65-2.2-6.5-5.25-9.15-8.52c-2.14-2.63-4.16-5.35-6.39-7.9
			c-4.92-5.62-10.67-10.02-17.39-12.94h0.01c-0.01,0-0.02,0-0.03-0.01c-1.66-0.72-3.38-1.35-5.16-1.89
			c-0.85-0.26-1.7-0.55-2.57-0.74c-0.11-0.03-0.23-0.05-0.34-0.08v0c0,0-0.08-0.02-0.22-0.05c-0.37-0.08-0.75-0.15-1.12-0.22
			c-25.16-9.64-38.59-28.94-38.59-28.94h-0.05c-0.01-0.34,0.16-0.68,0.48-1.08c0.54-0.67,1.05-1.37,1.6-2.03
			c1.59-1.96,3.2-3.91,4.79-5.87c2.9-3.54,5.79-7.09,8.68-10.63c2.29-2.82,4.55-5.64,6.83-8.46c2.59-3.22,5.18-6.43,7.78-9.64
			c2.37-2.93,4.76-5.86,7.14-8.78c2.8-3.43,5.6-6.86,8.4-10.29c2.38-2.92,4.77-5.84,7.15-8.77c3.05-3.76,6.09-7.53,9.14-11.29
			c2.68-3.3,5.36-6.6,8.03-9.9c2.79-3.44,5.58-6.87,8.35-10.32c0.76-0.95,1.54-1.9,2.16-2.94c0.31-0.53,0.45-1.09,0.44-1.65
			c-0.02-0.79-0.35-1.56-0.95-2.19l-2.36-2.36c-1.62,1.53-3.24,3.06-4.87,4.59c-1.94,1.8-3.87,3.61-5.79,5.42
			c-4.92,4.62-9.82,9.26-14.73,13.89c-5.84,5.5-11.68,11.01-17.52,16.51c-6.62,6.23-13.25,12.46-19.87,18.7
			c-3.7,3.48-7.39,6.98-11.09,10.46c-5.71,5.38-11.42,10.77-17.13,16.15c-0.78,0.74-1.57,1.46-2.37,2.17
			c-0.94,0.82-1.43,0.83-2.44,0.08c-0.28-0.21-0.54-0.46-0.81-0.69c-0.08-0.07-0.14-0.13-0.21-0.18c-0.27-0.25-0.54-0.49-0.81-0.74
			c-0.09,0.07-0.19,0.16-0.33,0.29c-2.46,2.25-4.94,4.46-7.35,6.76c-0.81,0.77-1.58,0.79-2.51,0.41c-0.47-0.19-0.69-0.53-0.66-1.04
			c0.04-0.77,0.29-1.43,0.88-1.97c2.29-2.12,4.57-4.26,6.84-6.39c0.17-0.16,0.34-0.32,0.52-0.51c-0.86-0.81-1.73-1.63-2.59-2.44
			c-0.22,0.19-0.41,0.35-0.59,0.51c-2.16,1.95-4.32,3.91-6.48,5.86c-0.39,0.36-0.79,0.73-1.24,1c-0.77,0.47-1.62,0.18-1.94-0.59
			c-0.31-0.74,0.05-2.26,0.66-2.81c1.69-1.54,3.39-3.07,5.07-4.63c0.65-0.6,1.26-1.23,1.88-1.84c-0.86-0.81-1.71-1.62-2.57-2.42
			c-0.02,0.01-0.03,0.03-0.05,0.04c-2.22,2.02-4.45,4.03-6.66,6.06c-0.54,0.49-1.11,0.9-1.86,0.97c-0.81,0.09-1.3-0.23-1.57-1
			c-0.18-0.54-0.17-1.07,0.17-1.53c0.3-0.4,0.65-0.77,1.02-1.11c2.05-1.89,4.12-3.76,6.19-5.65c0.06-0.06,0.12-0.13,0.18-0.22
			c-0.87-0.82-1.74-1.64-2.62-2.47c-0.11,0.1-0.22,0.19-0.32,0.28c-2.06,1.89-4.11,3.79-6.18,5.66c-0.33,0.3-0.69,0.58-1.08,0.76
			c-0.66,0.29-1.28,0.13-1.81-0.37c-0.53-0.49-0.57-1.11-0.32-1.72c0.15-0.37,0.42-0.72,0.7-1.01c0.69-0.69,1.43-1.34,2.14-2.01
			c1.35-1.26,2.7-2.51,4.03-3.78c0.1-0.09,0.17-0.17,0.23-0.25c-0.86-0.81-1.72-1.62-2.58-2.43c0,0-0.01,0.01-0.01,0.01
			c-1.99,1.78-3.98,3.57-5.98,5.36c-0.31,0.27-0.62,0.56-0.96,0.78c-0.81,0.52-1.49,0.45-2.09-0.18c-0.63-0.65-0.72-1.43-0.19-2.18
			c0.22-0.31,0.49-0.59,0.78-0.85c1.92-1.78,3.85-3.54,5.77-5.31c0.03-0.03,0.06-0.06,0.08-0.09c-0.88-0.83-1.75-1.65-2.63-2.48
			c-0.1,0.09-0.19,0.17-0.27,0.25c-1.78,1.62-3.54,3.27-5.35,4.85c-0.45,0.39-1.05,0.67-1.62,0.87c-0.61,0.22-1.18-0.02-1.59-0.52
			c-0.42-0.52-0.46-1.1-0.1-1.66c0.26-0.39,0.54-0.78,0.88-1.1c1.38-1.31,2.78-2.59,4.17-3.9c0.42-0.39,0.82-0.8,1.27-1.25
			c-0.05-0.05-0.11-0.1-0.16-0.15c-0.8-0.76-1.6-1.51-2.41-2.27c-0.06,0.05-0.12,0.1-0.18,0.15c-1.8,1.6-3.58,3.22-5.38,4.82
			c-0.2,0.18-0.41,0.34-0.63,0.48c-0.91,0.55-1.82,0.31-2.36-0.6c-0.47-0.79-0.26-1.66,0.61-2.45c1.3-1.18,2.62-2.34,3.91-3.52
			c0.46-0.42,0.9-0.87,1.39-1.36c-0.87-0.82-1.74-1.64-2.61-2.46c-0.75,0.69-1.5,1.38-2.25,2.07c-1.03,0.94-2.05,1.89-3.1,2.82
			c-0.81,0.71-1.56,0.77-2.26,0.25c-0.92-0.7-1.06-1.69-0.26-2.53c0.8-0.83,1.69-1.58,2.53-2.38c0.9-0.87,1.79-1.75,2.72-2.68
			c-0.86-0.81-1.72-1.61-2.57-2.42c-0.08,0.07-0.16,0.14-0.24,0.21c-1.43,1.3-2.84,2.62-4.28,3.91c-0.37,0.33-0.8,0.63-1.25,0.83
			c-0.67,0.29-1.37,0.04-1.83-0.53c-0.48-0.61-0.53-1.26-0.1-1.9c0.18-0.27,0.41-0.51,0.65-0.73c0.81-0.75,1.63-1.47,2.43-2.23
			c0.67-0.64,1.33-1.3,2.03-1.99c-0.86-0.81-1.72-1.62-2.59-2.43c-0.01,0.01-0.03,0.02-0.04,0.03c-1.42,1.26-2.86,2.51-4.27,3.79
			c-0.57,0.51-1.24,0.7-1.97,0.62c-1.03-0.12-1.58-0.96-1.21-1.93c0.15-0.4,0.44-0.78,0.75-1.08c1.16-1.11,2.35-2.18,3.53-3.27
			c0.2-0.19,0.41-0.39,0.62-0.61c-0.87-0.82-1.75-1.65-2.62-2.47c-0.02,0.02-0.05,0.04-0.07,0.06c-1.27,1.17-2.53,2.34-3.81,3.49
			c-0.3,0.27-0.66,0.51-1.04,0.67c-0.72,0.31-1.37,0.12-1.84-0.46c-0.52-0.64-0.58-1.41-0.13-2.06c0.17-0.24,0.38-0.45,0.6-0.66
			c1.19-1.12,2.38-2.24,3.57-3.36c0.04-0.04,0.09-0.08,0.13-0.13c-0.87-0.82-1.74-1.64-2.61-2.45c-0.17,0.09-0.34,0.22-0.53,0.38
			c-0.96,0.85-1.87,1.75-2.84,2.58c-0.42,0.35-0.92,0.64-1.44,0.84c-0.59,0.23-1.19,0.1-1.64-0.38c-0.45-0.48-0.51-1.09-0.24-1.67
			c0.22-0.47,0.52-0.94,0.9-1.3c1-0.98,2.05-1.89,3.08-2.83c0.03-0.03,0.06-0.06,0.09-0.08c-0.86-0.81-1.73-1.63-2.59-2.44
			c-1,0.9-1.99,1.81-2.99,2.71c-0.26,0.24-0.54,0.48-0.84,0.66c-0.79,0.47-1.58,0.34-2.17-0.32c-0.57-0.64-0.6-1.39-0.08-2.12
			c0.19-0.26,0.43-0.49,0.67-0.72c0.9-0.86,1.82-1.71,2.72-2.58c0.03-0.03,0.05-0.06,0.08-0.09c-0.37-0.35-0.75-0.7-1.12-1.05
			c-0.5-0.47-1-0.94-1.49-1.41c-0.21,0.19-0.42,0.37-0.62,0.55c-0.89,0.79-1.76,1.6-2.67,2.36c-0.65,0.54-1.32,0.55-1.89,0.14
			c-0.72-0.52-0.98-1.23-0.67-2.03c0.15-0.37,0.4-0.74,0.68-1.02c0.65-0.65,1.36-1.24,2.04-1.86c0.19-0.18,0.38-0.37,0.57-0.55
			c-0.87-0.82-1.74-1.64-2.61-2.46c-0.15,0.12-0.3,0.25-0.44,0.37c-0.65,0.57-1.26,1.18-1.93,1.72c-0.39,0.3-0.85,0.57-1.32,0.69
			c-1.19,0.3-2.15-0.64-1.88-1.85c0.09-0.41,0.35-0.82,0.63-1.14c0.41-0.47,0.91-0.85,1.36-1.29c0.32-0.31,0.64-0.63,0.97-0.96
			c-0.96-0.91-1.92-1.81-2.88-2.72c-0.15,0.18-0.29,0.36-0.44,0.53c-0.61,0.69-1.2,1.4-1.9,2c-0.69,0.6-1.62,0.43-2.22-0.27
			c-0.67-0.77-0.67-1.61,0.02-2.3c0.25-0.25,0.54-0.46,0.81-0.69c0.51-0.43,1.02-0.87,1.54-1.32c-0.13-0.12-0.26-0.25-0.39-0.37
			c-0.79-0.75-1.59-1.48-2.38-2.23c-0.68,0.59-1.33,1.19-2.03,1.76c-0.88,0.72-1.74,0.65-2.44-0.14c-0.65-0.74-0.62-1.59,0.16-2.38
			c0.56-0.57,1.17-1.08,1.77-1.62c-0.29-0.27-0.58-0.54-0.87-0.81c-0.66-0.62-1.31-1.24-1.97-1.86c-0.25,0.31-0.49,0.62-0.74,0.91
			c-0.27,0.31-0.59,0.6-0.93,0.82c-0.85,0.53-1.75,0.28-2.39-0.61c-0.5-0.7-0.36-1.5,0.4-2.12c0.27-0.22,0.59-0.4,0.89-0.58
			c0.21-0.13,0.43-0.25,0.67-0.39c-0.26-0.24-0.52-0.49-0.78-0.73c-0.02,0.01-0.04,0.02-0.06,0.02l-2.31,2.31
			c-0.21,0.22-0.38,0.45-0.52,0.7c-0.27,0.47-0.42,0.97-0.43,1.49c-0.01,0.55,0.13,1.11,0.44,1.65c0.62,1.04,1.4,1.99,2.16,2.94
			c2.77,3.45,5.56,6.88,8.35,10.32c2.67,3.3,5.35,6.6,8.03,9.9c3.05,3.76,6.09,7.53,9.14,11.29c2.38,2.93,4.77,5.85,7.15,8.77
			c2.8,3.43,5.6,6.86,8.4,10.29c2.38,2.93,4.76,5.85,7.14,8.78c2.6,3.21,5.19,6.43,7.78,9.64c2.28,2.82,4.54,5.65,6.83,8.46
			c2.88,3.55,5.78,7.09,8.68,10.63c1.6,1.96,3.2,3.91,4.79,5.87c0.54,0.66,1.05,1.36,1.6,2.03c0.07,0.08,0.12,0.16,0.18,0.24
			c0.09,0.13,0.15,0.25,0.2,0.37c0.03,0.12,0.06,0.24,0.06,0.35h0c0,0-13.46,19.33-38.66,28.97c-0.35,0.06-0.7,0.13-1.05,0.2
			c-0.14,0.03-0.22,0.05-0.22,0.05v0c-0.11,0.03-0.23,0.05-0.34,0.08c-0.87,0.19-1.71,0.49-2.57,0.74
			c-1.75,0.52-3.44,1.14-5.08,1.85c-0.04,0.01-0.07,0.02-0.11,0.03h0.05c-6.73,2.91-12.49,7.32-17.42,12.95
			c-2.23,2.55-4.25,5.27-6.39,7.9c-2.65,3.27-5.5,6.32-9.15,8.52c-0.8,0.48-1.16,1.27-1.05,2.2c0.34,2.74,0.68,5.49,1.09,8.22
			c0.26,1.8,1.12,2.66,2.94,2.98c2.16,0.39,3.74,1.56,4.91,3.38c2.51,3.92,4.99,7.88,7.57,11.76c1.26,1.9,2.61,3.77,4.13,5.47
			c4.15,4.65,9.29,7.92,15.07,10.2c5.77,2.27,11.78,2.96,17.94,2.39c5.55-0.52,10.9-1.77,15.92-4.25c3.4-1.68,6.4-3.9,8.85-6.79
			c2.65-3.13,5.05-6.46,7.24-9.93c3.44-5.46,6.11-11.27,7.82-17.51c0.21-0.77,0.48-1.53,0.81-2.26c0.37-0.83,0.92-1.44,1.63-1.85
			c0.04-0.02,0.09-0.05,0.13-0.07c0.04-0.02,0.08-0.04,0.13-0.06c0.18-0.08,0.37-0.16,0.56-0.22c0.04-0.01,0.07-0.03,0.11-0.04
			c0.03-0.01,0.06-0.02,0.09-0.03c0.16-0.04,0.32-0.08,0.49-0.1c0.32-0.05,0.65-0.11,0.97-0.13c1.55-0.1,2.93,0.15,4.07,0.89
			c0.51,0.39,0.92,0.92,1.22,1.58c0.33,0.72,0.6,1.49,0.81,2.26c1.71,6.24,4.38,12.04,7.82,17.51c2.19,3.48,4.58,6.8,7.24,9.93
			c2.46,2.9,5.46,5.12,8.85,6.79c5.02,2.48,10.37,3.73,15.92,4.25c6.16,0.58,12.17-0.12,17.94-2.39c5.77-2.27,10.91-5.54,15.07-10.2
			c1.52-1.7,2.87-3.57,4.13-5.47c2.58-3.88,5.06-7.83,7.57-11.76c1.16-1.82,2.75-2.99,4.91-3.37c1.81-0.32,2.67-1.18,2.94-2.98
			c0.4-2.73,0.75-5.48,1.09-8.22C299.09,260.94,298.73,260.15,297.93,259.67z M180.37,287.33c-6.43,8.31-14.96,13.05-25.4,14.17
			c-9.3,0.99-17.85-1.3-25.4-6.78c-8.2-5.94-13.16-13.96-14.56-24.07c-0.34-2.42-0.27-4.85,0.04-7.28c0.01-0.08,0.05-0.15,0.13-0.37
			c0.25,0.31,0.46,0.54,0.64,0.79c4.08,5.77,8.15,11.55,12.23,17.32c0.12,0.17,0.25,0.33,0.37,0.5c0.93,1.28,2.77,0.98,3.47-0.35
			c0.96-1.83,1.14-3.7,0.03-5.52c-0.69-1.14-1.48-2.22-2.32-3.26c-4.2-5.16-8.43-10.29-12.66-15.43c-0.57-0.69-0.72-1.44-0.44-2.24
			c2.17-6.16,5.49-11.59,10.48-15.87c5.94-5.08,12.91-7.84,20.63-8.64c9.75-1.01,18.59,1.57,26.29,7.59
			c8.16,6.37,12.78,14.81,13.64,25.17C188.29,272.04,185.89,280.2,180.37,287.33z M207.55,252.18c-0.88-0.16-3.74-0.61-7.55-0.61
			l0,0c0,0,0,0,0,0s0,0,0,0l0,0c-4.01,0-6.97,0.5-7.68,0.63c-1.05,0-1.91-0.4-2.57-1.31c-1.77-2.42-3.54-4.85-5.34-7.24
			c-1.52-2.02-3.01-4.05-4.64-5.98c-2.29-2.71-5.17-4.59-8.33-6.02v0c-3.35-1.65-6.63-2.75-9.71-3.48
			c-1.02-0.42-2.32-0.88-3.97-1.39c0,0,23.19-14.98,42.24-16.4c19.06,1.42,42.24,16.4,42.24,16.4c-1.6,0.5-2.87,0.95-3.87,1.36
			c-3.11,0.73-6.43,1.84-9.81,3.5v0c-3.17,1.44-6.04,3.31-8.33,6.02c-1.63,1.93-3.12,3.97-4.64,5.98c-1.8,2.4-3.57,4.82-5.34,7.24
			C209.56,251.82,208.66,252.21,207.55,252.18z M285,270.63c-1.4,10.11-6.37,18.13-14.56,24.07c-7.56,5.48-16.1,7.77-25.4,6.78
			c-10.45-1.12-18.98-5.86-25.4-14.17c-5.52-7.13-7.92-15.29-7.17-24.28c0.86-10.36,5.48-18.8,13.64-25.17
			c7.7-6.02,16.54-8.6,26.29-7.59c7.72,0.79,14.69,3.56,20.63,8.64c5,4.28,8.31,9.71,10.48,15.87c0.28,0.8,0.12,1.56-0.44,2.24
			c-4.23,5.13-8.46,10.27-12.66,15.43c-0.84,1.03-1.63,2.12-2.32,3.26c-1.1,1.82-0.92,3.69,0.03,5.52c0.7,1.34,2.54,1.63,3.47,0.35
			c0.12-0.17,0.26-0.33,0.37-0.5c4.08-5.77,8.15-11.55,12.23-17.32c0.18-0.25,0.39-0.48,0.64-0.79c0.08,0.21,0.12,0.29,0.13,0.37
			C285.27,265.78,285.34,268.21,285,270.63z"/>
	</g>
</g>
<g id="Capa_2">
	<g>
		<path class="st3" d="M272.11,194.83c0.8-1.04,1.06-2.24,1.09-3.52c0.08-2.76-1.39-4.82-4.03-5.4c-1.11-0.24-2.28-0.26-3.43-0.28
			c-3.55-0.04-7.11-0.03-10.66-0.03c-0.1,0-0.19,0.02-0.31,0.03c0,3.81,0,7.59,0,11.39c0.08,0.02,0.1,0.03,0.13,0.03
			c4.44-0.04,8.88,0.16,13.31-0.26C269.78,196.65,271.13,196.1,272.11,194.83z"/>
		<path class="st4" d="M203.59,163.13c0.68-1.02,1.35-2.05,2.02-3.09c-3.76,5.66-7.52,11.32-11.29,16.99
			C197.42,172.4,200.51,167.76,203.59,163.13z"/>
		<path d="M194.49,222.49c-3.39-5.11-6.77-10.21-10.16-15.32c-1.46-2.19-2.92-4.39-4.39-6.57c-0.37-0.54-0.45-1.05-0.23-1.57
			c-1.42,2.13-2.53,3.81-3.39,5.12l0.05-0.09l-2.52,3.79c0,0,6.31,9.62,9.28,14.18c0.48,0.73,1.06,1.14,1.97,1.13
			c2.87-0.03,5.74-0.02,8.61-0.03c0.36,0,0.72-0.04,1.16-0.06C194.7,222.83,194.6,222.66,194.49,222.49z"/>
		<path d="M173.46,190.75c-2-2.99-3.99-5.98-5.99-8.97c-0.66-0.98-1.31-1.96-1.97-2.94c-0.39-0.58-0.87-0.9-1.63-0.9
			c-3.13,0.02-6.27-0.01-9.4-0.02c-0.05,0-0.1,0.01-0.22,0.03c0.34,0.55,0.64,1.06,0.96,1.56c3.25,4.95,6.5,9.9,9.76,14.85
			c0.9,1.37,1.81,2.75,2.73,4.11c0.38,0.56,0.46,1.1,0.24,1.65c1.96-2.95,3.93-5.9,5.9-8.86
			C173.69,191.07,173.57,190.91,173.46,190.75z"/>
		<path class="st4" d="M146.95,231.68c-1.27,1.91-2.53,3.82-3.79,5.73c2.65-3.99,5.31-7.98,7.96-11.98
			C149.73,227.51,148.34,229.6,146.95,231.68z"/>
		<path d="M317.42,177.89c-1-0.02-1.62,0.34-2.11,1.2c-2.97,5.17-5.98,10.32-8.98,15.48c-0.22,0.37-0.46,0.73-0.72,1.13
			c-0.12-0.18-0.2-0.29-0.28-0.41c-2.06-3.42-4.12-6.83-6.16-10.25c-1.16-1.94-2.3-3.88-3.44-5.82c-0.48-0.82-1.12-1.34-2.14-1.33
			c-2.97,0.03-5.94,0.02-8.92,0.03c-0.12,0-0.25,0-0.45,0c0.2,0.33,0.34,0.59,0.5,0.85c5.05,8,10.11,15.99,15.17,23.98
			c0.56,0.89,0.84,1.83,0.84,2.88c0,5.64,0.02,11.28,0.04,16.92c0,0.15,0.01,0.31,0.02,0.46c3.05,0,6.06,0,9.1,0
			c0-0.2,0-0.37,0-0.55c0.01-5.54,0.02-11.08,0.01-16.61c0-1.08,0.27-2.06,0.85-2.97c1.39-2.17,2.74-4.36,4.13-6.53
			c3.8-5.93,7.62-11.85,11.43-17.77c0.07-0.12,0.18-0.21,0.27-0.31c0-0.12,0-0.23,0-0.35C323.54,177.91,320.48,177.94,317.42,177.89
			z"/>
		<path d="M278.57,210.95c-1.96-3.09-4.38-5.74-7.61-7.56c-0.06-0.03-0.14-0.04-0.24-0.07c1.29-0.34,2.46-0.57,3.59-0.94
			c3.12-1.02,5.58-2.87,7.04-5.87c1.44-2.96,1.67-6.09,0.88-9.24c-1.16-4.61-3.96-7.68-8.76-8.68c-2.74-0.57-5.51-0.68-8.3-0.68
			c-6.32,0-12.65,0-18.97,0c-0.17,0-0.35,0-0.55,0c0,15.13,0,30.2,0,45.27c3.04,0,6.05,0,9.12,0c0-6.3,0-12.57,0-18.9
			c1.49,0.05,2.91,0.07,4.34,0.15c2.14,0.12,3.88,1.03,5.21,2.71c0.72,0.91,1.45,1.83,2.1,2.79c2.92,4.3,5.81,8.61,8.71,12.92
			c0.14,0.21,0.27,0.36,0.57,0.36c3.43-0.01,6.85-0.01,10.27-0.01c0.09,0,0.18-0.02,0.28-0.04c-0.03-0.08-0.05-0.12-0.07-0.15
			C283.65,218.99,281.12,214.97,278.57,210.95z M254.91,197.06c-0.03,0-0.06-0.01-0.13-0.03c0-3.8,0-7.58,0-11.39
			c0.11-0.01,0.21-0.03,0.31-0.03c3.55,0.01,7.11-0.01,10.66,0.03c1.14,0.01,2.32,0.03,3.43,0.28c2.64,0.58,4.11,2.63,4.03,5.4
			c-0.03,1.28-0.29,2.48-1.09,3.52c-0.98,1.27-2.34,1.82-3.89,1.97C263.79,197.22,259.35,197.02,254.91,197.06z"/>
		<path d="M226.58,178.55c-0.01,8.99,0.01,17.99-0.03,26.98c-0.01,1.7-0.09,3.42-0.37,5.09c-0.43,2.59-1.87,4.48-4.5,5.19
			c-2.3,0.63-4.64,0.73-6.96,0.13c-2.79-0.72-4.77-2.41-5.44-5.27c-0.34-1.44-0.44-2.97-0.46-4.46c-0.07-5.22-0.06-10.43-0.07-15.65
			c-0.01-3.99,0-7.99,0-11.98c0-0.18,0-0.37,0-0.57c-3.06,0-6.06,0-9.13,0c0,0.16,0,0.29,0,0.42c0.03,9.59-0.16,19.18,0.28,28.77
			c0.08,1.66,0.11,3.33,0.38,4.96c0.89,5.44,4.06,8.99,9.27,10.69c2.68,0.87,5.47,1.12,8.28,1.11c2.49-0.01,4.98-0.19,7.4-0.84
			c5.87-1.55,9.6-5.88,10.15-11.87c0.17-1.88,0.21-3.78,0.23-5.67c0.08-8.04,0.14-16.09,0.2-24.13c0.01-1.13,0-2.27,0-3.41
			c-3.13,0-6.17,0-9.23,0C226.58,178.23,226.58,178.39,226.58,178.55z"/>
		<path d="M146.93,213.98c0.59-2,0.69-4.07,0.71-6.14c0.08-9.62,0.15-19.23,0.22-28.85c0-0.32,0-0.63,0-0.96c-3.11,0-6.13,0-9.21,0
			c0,0.21,0,0.39,0,0.58c0,5.45,0.02,10.9,0,16.35c-0.02,5.01,0.06,10.02-0.32,15.03c-0.21,2.72-1.59,4.8-4.06,5.6
			c-2.53,0.82-5.12,0.98-7.7,0.27c-2.87-0.79-4.78-2.6-5.33-5.56c-0.28-1.51-0.38-3.07-0.39-4.6c-0.04-9.04-0.03-18.07-0.03-27.11
			c0-0.18,0-0.37,0-0.57c-3.06,0-6.07,0-9.15,0c0,0.18,0,0.33,0,0.47c0.01,7.52,0.01,15.04,0.04,22.56
			c0.01,3.76,0.1,7.52,0.66,11.24c0.54,3.57,2.29,6.46,5.25,8.58c2.76,1.98,5.95,2.62,9.24,2.95c2.04,0.2,4.07,0.18,6.11,0
			c1.79-0.16,3.56-0.39,5.27-0.97C142.61,221.35,145.61,218.48,146.93,213.98z"/>
		<path d="M82.28,178.46c-3.07,0-6.08,0-9.09,0c0,14.9,0,29.77,0,44.63c10.61,0,21.2,0,31.78,0c0-2.54,0-5.04,0-7.58
			c-7.57,0-15.11,0-22.69,0C82.28,203.15,82.28,190.83,82.28,178.46z"/>
		<path class="st5" d="M179.7,199.04c4.88-7.34,9.76-14.67,14.63-22.01c3.76-5.66,7.52-11.32,11.29-16.99
			c0.14-0.21,0.28-0.43,0.42-0.64c0.28-0.41,0.63-0.77,0.94-1.15V158c-0.49,0.05-1.01,0.02-1.47,0.17
			c-8.08,2.52-14.5,7.33-19.18,14.34c-4.17,6.25-8.33,12.51-12.49,18.76c-1.96,2.95-3.93,5.9-5.9,8.86
			c-5.61,8.44-11.22,16.87-16.82,25.31c-2.65,3.99-5.3,7.98-7.96,11.98c-0.53,0.8-1.06,1.6-1.59,2.39
			c-0.28,0.41-0.63,0.77-0.95,1.14v0.26c0.49-0.05,1.01-0.02,1.47-0.16c7.71-2.41,13.91-6.9,18.52-13.39
			c0.21-0.24,0.42-0.47,0.61-0.72c1.56-1.97,2.92-4.13,4.16-6.38C165.43,220.49,174.97,206.15,179.7,199.04z"/>
	</g>
</g>
</svg>
