<?xml version="1.0" encoding="utf-8"?>
<!-- Generator: Adobe Illustrator 26.1.0, SVG Export Plug-In . SVG Version: 6.00 Build 0)  -->
<svg version="1.1" xmlns="http://www.w3.org/2000/svg" xmlns:xlink="http://www.w3.org/1999/xlink" x="0px" y="0px"
	 viewBox="0 0 400 400" style="enable-background:new 0 0 400 400;" xml:space="preserve">
<style type="text/css">
	.st0{fill:none;}
	.st1{fill:#D1111C;}
	.st2{fill:#1D1D1B;}
	.st3{fill:#FFFFFF;}
	.st4{opacity:0.05;fill:#D1111C;}
	.st5{opacity:0.05;}
	.st6{fill:#FBC10D;}
</style>
<g id="Capa_3">
	<g>
		<path class="st0" d="M168.96,219.75c-0.43,0.07-0.87,0.11-1.31,0.12c0,0.03,0,0.06-0.01,0.08c0.48-0.01,0.95-0.05,1.41-0.13
			c0.01-0.04,0.03-0.07,0.05-0.1C169.05,219.73,169,219.74,168.96,219.75C168.96,219.75,168.96,219.75,168.96,219.75z"/>
		<path class="st0" d="M185.53,206.95c-0.59,0.72-1.19,1.42-1.8,2.11C184.34,208.37,184.94,207.66,185.53,206.95
			c0.04-0.04,0.07-0.09,0.11-0.13c0,0,0,0,0,0C185.6,206.86,185.56,206.9,185.53,206.95L185.53,206.95z"/>
		<path class="st1" d="M285.26,182.24l-26.89,52.33h-1.16l-4.13-46.69c-0.49,0.44-1.01,0.87-1.54,1.3l-0.01,0.02l-7.62,12.56
			l-0.13-0.01l-0.16,0.26l-3.04-0.21c-0.75,0.48-1.56,1.07-2.37,1.79c-1.73,1.59-3.41,3.73-4.37,6.56
			c-0.28,1.51-1.87,8.29-8.84,14.02c-1.91,1.6-4.23,3.12-7.05,4.43c-3.5,1.62-6.11,3.34-8.08,5.01c-2.88,2.5-4.3,4.89-5,6.66
			c5.44,2.04,10.74,2.19,13.61,2.07l0.94-0.1l-0.37,0.65l-20.55,33.69l-3.31,5.13h23.29l12.72-59.99h1.45l4.77,59.99h19.8
			l30.35-59.99h1.45l-12.87,59.99h28.48l21.25-99.45H285.26z"/>
		<path class="st2" d="M281.52,176.11l-19.89,38.71l-2.95-33.37c1.62-2.58,2.67-5.32,3.09-8.15c0.03-0.19,0.06-0.38,0.1-0.57
			l2.44-4.29l0.03,0l5.15-9.09c0.11-0.19,0.22-0.37,0.31-0.55l2.1-3.72c0.18-0.29,0.36-0.59,0.51-0.91l1.4-2.48l0,0l0.87-1.54
			c1.25-2,2.35-5.33,0.9-10.06c-0.84-2.75-2.48-5.73-4.87-8.85c-4.41-5.78-11.21-11.85-19.13-17.08
			c-7.92-5.23-16.17-9.09-23.22-10.88c-2.92-0.74-5.59-1.11-7.96-1.1h-9.34H102.6h-9.47L67,225.34h9.47h57.05h9.47
			c2.36,0,4.61-0.08,6.75-0.22c-4.46,8.57-9.72,18.68-9.72,18.68h0c-0.49,0.87-0.73,1.68-0.8,2.43c-0.46,3.84,3.75,6.12,3.75,6.12
			l2.18,1.24c0.06,0.03,0.11,0.07,0.17,0.1l-0.08,0.01c-1.17,2.63-1.98,5.24-2.52,7.77c-2.92,13.53,2,24.8,2,24.8
			c-3.26,7.49-8.06,10.27-9.2,10.85c-0.01,0.01-0.02,0.01-0.03,0.01c-0.05,0.02-0.09,0.04-0.12,0.06c-0.07,0.03-0.1,0.05-0.1,0.05
			s0.02,0,0.05-0.01c0.03,0,0.07-0.01,0.13-0.02c0.11-0.02,0.28-0.05,0.49-0.09c0.04-0.01,0.08-0.02,0.13-0.02
			c3.29-0.59,16.29-3.21,27.9-9.27h145.65l23.87-111.71H281.52z M214.06,111.16c3.5-5.3,18.66-1.46,33.86,8.58
			c15.2,10.04,24.69,22.47,21.19,27.76c-3.5,5.3-18.66,1.46-33.86-8.58C220.05,128.88,210.56,116.45,214.06,111.16z M211.33,115.99
			c0.08-0.12,0.16-0.23,0.25-0.33c-2.07,5.7,7.2,17.37,21.63,26.89c14.87,9.82,29.69,13.7,33.61,8.91c-0.11,0.31-0.26,0.6-0.43,0.87
			c-3.5,5.3-18.66,1.46-33.86-8.58C217.32,133.72,207.83,121.29,211.33,115.99z M208.8,120.45c0.08-0.12,0.16-0.23,0.25-0.33
			c-2.07,5.7,7.2,17.37,21.63,26.89c14.87,9.82,29.69,13.7,33.61,8.91c-0.11,0.31-0.26,0.6-0.43,0.87
			c-3.5,5.3-18.66,1.46-33.86-8.58C214.79,138.18,205.3,125.75,208.8,120.45z M141.18,218.31c-0.97,0.03-1.96,0.04-2.97,0.04h-3.49
			h-20.86h-3.49H79.96h-3.49l23.3-109.8h3.49h51.71h3.49c3.79,0,7.23,0.31,10.34,0.93l0.01,0c0.23,0.05,0.46,0.1,0.69,0.15
			l0.87,0.18c14.32,3.05,20.16,10.77,17.52,23.17l-4.03,18.95c-1.78,8.35-5.43,13.05-10.96,14.11c4.67,3,6.17,8.39,4.52,16.16
			l-3.74,17.6c-0.63,0.34-1.3,0.62-1.98,0.88c-0.64,0.25-1.26,0.53-1.87,0.84c-4.33,2.16-7.96,5.53-11.29,9
			c-0.93,0.97-1.83,1.97-2.71,2.99c0,0-0.98,1.88-2.45,4.7c-0.01,0.02-0.02,0.04-0.03,0.07L141.18,218.31z M189.21,279.63
			c0,0-2.71,1.73-6.1,2c-1.54,0.12-3.22-0.06-4.85-0.84c-1.99-0.95-3.67-2.59-4.98-4.26c-1.32-1.66-2.28-3.35-2.82-4.41l0,0
			c-0.31-0.61-0.49-1.01-0.51-1.06c0,0.01,0.01,0.01,0.02,0.02c-0.01-0.01-0.01-0.02-0.01-0.02c0.01,0.02,0.02,0.03,0.04,0.04
			l-0.07-0.16c5.2-2.29,9.99-7.33,12.67-14.08c4.11-10.37,1.86-21.19-4.94-25.57c-0.15-0.09-0.3-0.18-0.45-0.27
			c0.16,0.11,0.31,0.21,0.46,0.33c5.68,4.32,7.44,13.87,3.81,23.03c-2.82,7.11-8.17,12.16-13.74,13.72c0,0,0,0,0,0
			c-0.5,1.15-0.91,2.41-1.17,3.79c-1.91,9.88-15.18,14.6-15.6,14.75c0,0,0.01,0,0.01-0.01c-0.01,0-0.01,0.01-0.02,0.01
			c0.26-0.17,5.21-3.63,6.11-15.44c0.13-1.77,0.32-3.29,0.54-4.61c-0.41-0.28-0.8-0.59-1.17-0.93c-0.13-0.12-0.26-0.24-0.39-0.36
			c-6.13,6.43-5.99,11.19-5.99,11.19s0-0.01-0.01-0.04c0,0.02,0,0.04,0,0.04s-3.32-12.24,1.66-20.47
			c-0.56-3.94-0.06-8.39,1.68-12.77c2.2-5.54,5.94-9.84,10.12-12.2c-5.1,1.92-9.87,6.73-12.47,13.3c-0.64,1.6-1.11,3.22-1.42,4.81
			c0,0-0.01,0-0.01,0c0,0,0,0,0,0c-0.31-0.14-0.56-0.26-0.73-0.34c-0.17-0.09-0.27-0.14-0.27-0.14c-2.16-0.95-2.45-3.53-2.45-3.53
			l14.66-28.16c0,0,0,0,0.01,0.01l0-0.01c0.08,0.09,0.17,0.17,0.25,0.25c3.74-4.24,7.41-6.29,7.41-6.29c0,0,0,0,0,0.01
			c0.01,0,0.01-0.01,0.01-0.01c-1.16,2.02-1.49,4.03-1.49,5.67c0,1.19,0.18,2.2,0.34,2.88c0.03,0.14,0.07,0.27,0.1,0.38h-0.06
			c0.02,0,0.04,0,0.06,0c0.04,0,0.08,0,0.12,0c0.01-0.31,0.07-0.74,0.26-1.32c0.62-1.88,2.62-5.23,8.72-10.37
			c10.29-8.67,9.9-15.48,9.9-15.48s0,0.01,0.01,0.04c0-0.02,0-0.04,0-0.04s1.61,5.35,1.33,11.42c-0.49,0.64-0.99,1.28-1.5,1.91
			c-0.21,0.26-0.42,0.52-0.63,0.77c0,0,0,0,0,0c0.21-0.26,0.42-0.51,0.63-0.77c0.51-0.63,1-1.27,1.5-1.91
			c1.94-2.54,3.76-5.14,5.4-7.64c0.85-1.3,1.66-2.57,2.41-3.78c0.12-0.2,0.25-0.4,0.37-0.59c1.17-1.9,2.19-3.66,3.05-5.17
			c-4.55,1.5-8.58,1.74-8.58,1.74l0,0c-0.01,0-0.01,0-0.01,0s6.26-1.87,10.3-13.8c0.35-1.04,0.7-1.99,1.05-2.86
			c-0.15-0.17-0.3-0.34-0.46-0.51c-1.12-1.2-2.32-2.24-3.53-3.15c-0.16-0.12-0.33-0.24-0.5-0.36c-1.81,1.73-3.71,3.38-5.25,5.2
			c-1.67,1.97-2.86,4.33-3.84,6.69c-1.24,2.98-2.21,6.15-2.78,9.34c0-0.01,0-0.02,0-0.03c0,0.01,0,0.02,0,0.03
			c-2.72-13.14,0.37-21.34,3.1-25.67c-0.01,0-0.02-0.01-0.03-0.01c-0.38-0.13-0.73-0.24-1.04-0.33l4.97-10.14l2.43-4.97
			c2.88-6.63,4.16-11.69,4.73-14.95c0.5-1.82,0.59-2.91,0.57-3.53l-0.12-0.72c0,0,0.01,0.01,0.01,0.01l0-0.01
			c0.96,0.71,1.85,1.83,2.61,3.29l3.15-6.43c0,0.01,0,0.01,0,0.02l0.01-0.02c0.14,6.22,9.08,16.68,22.24,25.36
			c11.4,7.53,22.78,11.62,29.37,11.07c1.84-0.16,3.31-0.67,4.3-1.58l-0.01,0.02c0.01-0.01,0.01-0.01,0.02-0.02l-5.11,8.43
			c-0.47,1.25-0.84,2.61-1.06,4.08c-0.85,5.73-5.22,10.05-9.22,12.87l-0.25,0.41l-5.08,8.37l-0.04,0.06l-0.43,0.71l-0.14,0.24
			c0,0-0.01,0-0.01,0l0,0c-0.34-0.02-0.74-0.05-1.21-0.09c-3.4,1.81-9.67,6.15-11.75,14.34c-2.89,11.35-18.74,15.87-18.98,15.94
			c0,0,0,0,0.01-0.01c-0.01,0-0.02,0-0.02,0.01c0.17-0.09,6.24-3.66,8.09-17.39c1.77-13.1,5.36-14.58,5.77-14.71
			c-0.53,0.12-5.32,1.27-7.83,6.08c0,0,0-0.01,0-0.02c0,0,0,0.01-0.01,0.02c0,0-0.25-4.35,1.37-9.98c-1.11-0.56-2.17-1.18-3.16-1.85
			c-0.84,11.41-11.57,16.15-11.57,16.15s-2.2,1.07-4.91,2.01c0,0,0,0,0,0c0,0,0,0,0,0c0,0,0,0,0,0c-1.54,2.99-2.77,5.73-3.75,8.2
			c-0.91,2.29-1.6,4.35-2.13,6.19c-1.07,3.69-1.48,6.45-1.63,8.23c7.69-8.23,18.05-12.69,18.37-12.83c0,0,0,0,0,0
			c0.01,0,0.01-0.01,0.02-0.01c-0.14,0.1-8.99,6.81-9.15,28.68c-0.01,1.11-0.03,2.16-0.07,3.17c3.97,1.92,8.1,1.94,9.87,1.83
			l-14.41,23.63L189.21,279.63z M304.63,281.68h-28.48l12.87-59.99h-1.45l-30.35,59.99h-19.8l-4.77-59.99h-1.45l-12.72,59.99h-23.29
			l3.31-5.13l20.55-33.69l0.37-0.65l-0.94,0.1c-2.87,0.12-8.16-0.02-13.61-2.07c0.7-1.77,2.12-4.15,5-6.66
			c1.96-1.67,4.58-3.39,8.08-5.01c2.82-1.31,5.14-2.83,7.05-4.43c6.97-5.72,8.57-12.51,8.84-14.02c0.96-2.83,2.64-4.97,4.37-6.56
			c0.81-0.71,1.63-1.31,2.37-1.79l3.04,0.21l0.16-0.26l0.13,0.01l7.62-12.56l0.01-0.02c0.53-0.43,1.05-0.86,1.54-1.3l4.13,46.69
			h1.16l26.89-52.33h40.62L304.63,281.68z"/>
		<path class="st2" d="M134.93,174.54c-0.41-0.16-0.92-0.29-1.54-0.4c-1.14-0.2-2.64-0.3-4.49-0.32c0,0-0.01,0-0.01,0.01h-3.49
			h-1.11l-3.99,18.82h4.18c2.04,0,3.72-0.09,5.04-0.29c0.53-0.07,1.01-0.17,1.42-0.27c1.44-0.37,2.5-1.22,3.19-2.55
			c0.69-1.33,1.31-3.38,1.84-6.15c0.21-1.17,0.4-2.2,0.56-3.11c0.16-0.9,0.24-1.68,0.24-2.31
			C136.77,176.16,136.15,175.02,134.93,174.54z"/>
		<path class="st2" d="M132.59,134.25l-3.67,17.7h4.18c2.87,0,5.03-0.18,6.46-0.56c0.37-0.09,0.71-0.22,1.02-0.37
			c0.92-0.45,1.62-1.15,2.09-2.1c0.64-1.28,1.22-3.19,1.76-5.75c0.21-1.17,0.4-2.15,0.56-2.95c0.16-0.8,0.24-1.51,0.24-2.15
			c0-1.7-0.64-2.77-1.92-3.19c-0.41-0.14-0.9-0.25-1.49-0.34c-1.26-0.2-2.95-0.3-5.05-0.3h-2.2c0,0,0,0-0.01,0.01H132.59z"/>
		<path class="st1" d="M132.59,134.25h1.97c0,0,0,0,0.01-0.01h-3.49c0,0,0,0-0.01,0.01h-1.97l-3.67,17.7h3.49L132.59,134.25z"/>
		<path class="st1" d="M128.9,173.82c-0.14,0-0.28,0-0.43,0h-3.05c0,0-0.01,0-0.01,0.01h3.49
			C128.89,173.82,128.9,173.82,128.9,173.82z"/>
		<path class="st1" d="M165.31,109.49c0.23,0.05,0.46,0.1,0.69,0.15l0.87,0.18c14.32,3.05,20.16,10.77,17.52,23.17l-4.03,18.95
			c-1.78,8.35-5.43,13.05-10.96,14.11c4.67,3,6.17,8.39,4.52,16.16l-4.11,19.32c0.61-0.3,1.23-0.58,1.87-0.84
			c0.68-0.27,1.35-0.54,1.98-0.88l3.74-17.6c1.65-7.78,0.15-13.17-4.52-16.16c5.53-1.06,9.18-5.76,10.96-14.11l4.03-18.95
			c2.64-12.4-3.2-20.13-17.52-23.17l-0.87-0.18c-0.23-0.05-0.46-0.1-0.69-0.15l-0.01,0c-3.1-0.62-6.55-0.93-10.34-0.93h-3.49
			C158.75,108.56,162.2,108.87,165.31,109.49L165.31,109.49z"/>
		<path class="st1" d="M153.38,218.23c-0.48,0.03-0.97,0.05-1.48,0.06l0,0h-0.17l-14.04,0.02c-0.97,0.03-1.96,0.04-2.97,0.04h3.49
			c1.01,0,2.01-0.01,2.97-0.04l12.16-0.02C153.35,218.27,153.36,218.25,153.38,218.23z"/>
		<polygon class="st1" points="120.81,173.83 116.81,192.65 120.3,192.65 124.29,173.83 		"/>
		<path class="st3" d="M151.73,218.29h0.17l0,0c0.5,0,0.99-0.03,1.48-0.06c1.47-2.82,2.45-4.7,2.45-4.7
			c0.88-1.02,1.78-2.02,2.71-2.99c3.33-3.47,6.96-6.85,11.29-9l4.11-19.32c1.65-7.78,0.15-13.17-4.52-16.16
			c5.53-1.06,9.18-5.76,10.96-14.11L184.4,133c2.64-12.4-3.2-20.13-17.52-23.17l-0.87-0.18c-0.23-0.05-0.46-0.1-0.69-0.15l-0.01,0
			c-3.1-0.62-6.55-0.93-10.34-0.93h-51.71h-3.49l-23.3,109.8h3.49h30.42h3.49h20.86c1.01,0,2.01-0.01,2.97-0.04L151.73,218.29z
			 M129.1,134.25h1.97c0,0,0,0,0.01-0.01h3.49h2.2c2.1,0,3.79,0.1,5.05,0.3c0.59,0.09,1.08,0.2,1.49,0.34
			c1.28,0.43,1.92,1.49,1.92,3.19c0,0.64-0.08,1.35-0.24,2.15c-0.16,0.8-0.35,1.79-0.56,2.95c-0.53,2.55-1.12,4.47-1.76,5.75
			c-0.48,0.95-1.17,1.65-2.09,2.1c-0.31,0.16-0.65,0.28-1.02,0.37c-1.44,0.37-3.59,0.56-6.46,0.56h-4.18h-3.49L129.1,134.25z
			 M136.52,180.28c-0.16,0.91-0.34,1.95-0.56,3.11c-0.53,2.77-1.14,4.82-1.84,6.15c-0.69,1.33-1.75,2.18-3.19,2.55
			c-0.41,0.11-0.89,0.2-1.42,0.27c-1.32,0.19-3,0.29-5.04,0.29h-4.18h-3.49l3.99-18.82h3.49h1.11c0,0,0.01,0,0.01-0.01h3.05
			c0.15,0,0.29,0,0.43,0c1.85,0.01,3.35,0.12,4.49,0.32c0.62,0.11,1.14,0.24,1.54,0.4c1.22,0.48,1.84,1.63,1.84,3.43
			C136.77,178.61,136.68,179.38,136.52,180.28z"/>
		<path class="st2" d="M179.22,253.84c3.33-9.48,0.34-19.17-6.67-21.63c-1.31-0.46-2.68-0.64-4.04-0.55
			c-5.93,0.36-11.97,5.56-14.67,13.27c-3.33,9.48-0.34,19.16,6.67,21.63c1.53,0.54,3.13,0.69,4.73,0.49
			C170.94,266.34,176.62,261.24,179.22,253.84z M168.89,263c-2.34-3.35-3.05-8.48-1.48-13.63c1.57-5.15,5.01-9.02,8.82-10.49
			c2.34,3.35,3.05,8.48,1.48,13.63C176.14,257.66,172.7,261.53,168.89,263z"/>
		<path class="st2" d="M202.81,190.53c-0.09-0.99-0.3-2.01-0.66-3.07c-0.11-0.33-0.2-0.66-0.28-0.99c-0.8,1.38-1.62,2.73-2.44,4.06
			c-0.97,1.57-1.95,3.1-2.93,4.59c-0.05,0.08-0.11,0.16-0.16,0.24c-3.1,4.69-6.2,8.97-9.06,12.7c0,0.01-0.01,0.01-0.01,0.02
			c0,0,0,0,0,0c0-0.01,0.01-0.01,0.01-0.02c-0.6,2.96-1.8,5.86-3.99,8.19c-2.51,2.66-3.94,5.61-4.73,8.38c0,0,0,0,0,0
			c2.32,1.52,4.59,3.84,4.24,5.09c0.65-1.77,1.35-3.56,2.1-5.35c0,0,0,0,0.01,0.01c0.24-0.57,0.48-1.13,0.72-1.7
			c0.35-0.8,0.7-1.61,1.06-2.41c2.05-4.54,4.29-9,6.48-13.1c0,0,0,0,0,0c-0.74,0.18-1.47,0.32-2.17,0.41
			c-0.34,0.04-0.68,0.07-1,0.09c0,0,0.05-0.02,0.15-0.07c0.06-0.03,0.13-0.06,0.22-0.11c0.01-0.01,0.03-0.01,0.04-0.02
			c0.05-0.02,0.1-0.05,0.16-0.08c0.05-0.02,0.1-0.05,0.15-0.07c0.07-0.03,0.14-0.07,0.22-0.11c0.14-0.07,0.28-0.15,0.45-0.24
			c0.09-0.05,0.18-0.1,0.27-0.15c0.05-0.02,0.09-0.05,0.14-0.08c0.1-0.06,0.2-0.12,0.31-0.18c0.09-0.05,0.19-0.11,0.29-0.17
			c0.49-0.29,1.02-0.63,1.59-1.01c0,0,0,0,0,0c0.01-0.01,0.02-0.01,0.02-0.02c0.07-0.05,0.14-0.1,0.22-0.15
			c0-0.01,0.01-0.02,0.01-0.02c0.01,0,0.01-0.01,0.02-0.01c1.13-2.07,2.23-4.02,3.27-5.83C199.64,195.69,201.5,192.64,202.81,190.53
			C202.82,190.53,202.82,190.53,202.81,190.53c0.01-0.01,0.01-0.01,0.01-0.01C202.82,190.52,202.82,190.52,202.81,190.53z"/>
		<path class="st2" d="M208.61,171.41c0.97,0.33,1.97,0.45,2.98,0.38c4.37-0.31,8.82-4.22,10.79-9.96
			c2.43-7.07,0.21-14.25-4.97-16.03c-1.13-0.39-2.31-0.49-3.49-0.33c-4.21,0.56-8.39,4.39-10.29,9.91
			C201.2,162.45,203.43,169.63,208.61,171.41z M206.12,155.61c1.92-5.58,6.79-8.96,10.88-7.56c0.21,0.07,0.42,0.16,0.62,0.26
			c-2.43,1.22-4.61,3.76-5.74,7.06c-1.82,5.29-0.34,10.65,3.3,12.39c-1.67,0.84-3.47,1.06-5.13,0.49
			C205.96,166.85,204.2,161.19,206.12,155.61z"/>
		<path class="st1" d="M217.41,145.81c5.18,1.78,7.41,8.96,4.97,16.03c-1.98,5.74-6.42,9.65-10.79,9.96
			c4.38-0.3,8.83-4.21,10.8-9.96c2.43-7.07,0.21-14.25-4.97-16.03c-1.13-0.39-2.32-0.49-3.5-0.33
			C215.1,145.32,216.28,145.42,217.41,145.81z"/>
		<path class="st1" d="M261.67,160.63c-0.99,0.91-2.46,1.43-4.3,1.58c1.84-0.15,3.3-0.67,4.29-1.57L261.67,160.63z"/>
		<path class="st1" d="M246.28,186.01c4.01-2.82,8.37-7.14,9.22-12.87c0.22-1.47,0.59-2.83,1.06-4.08l-0.38,0.63L246.28,186.01z"/>
		<path class="st1" d="M194.22,205.22c-0.07,0.05-0.14,0.1-0.22,0.15c-0.01,0-0.02,0.01-0.02,0.02c0,0,0,0,0,0
			c-0.57,0.38-1.1,0.72-1.59,1.01c-0.1,0.06-0.2,0.12-0.29,0.17c-0.11,0.06-0.21,0.12-0.31,0.18c-0.05,0.03-0.09,0.05-0.14,0.08
			c-0.09,0.05-0.18,0.1-0.27,0.15c-0.16,0.09-0.31,0.17-0.45,0.24c-0.08,0.04-0.15,0.08-0.22,0.11c-0.05,0.03-0.1,0.05-0.15,0.07
			c-0.06,0.03-0.11,0.06-0.16,0.08c-0.01,0.01-0.03,0.01-0.04,0.02c-0.09,0.05-0.16,0.08-0.22,0.11c-0.1,0.05-0.15,0.07-0.15,0.07
			c0.32-0.01,0.66-0.04,1-0.09c0.7-0.09,1.43-0.23,2.17-0.41c0,0,0,0,0,0c0,0,0,0,0,0C193.53,206.52,193.88,205.86,194.22,205.22
			c0.02-0.01,0.02-0.02,0.03-0.04c-0.01,0-0.01,0.01-0.02,0.01C194.23,205.21,194.22,205.21,194.22,205.22z"/>
		<path class="st1" d="M169.94,270.94c5.2-2.29,9.99-7.33,12.67-14.08c4.11-10.37,1.86-21.19-4.94-25.57
			c-0.17-0.11-0.35-0.22-0.53-0.32c0.02,0.02,0.05,0.03,0.07,0.05c0.15,0.09,0.3,0.18,0.45,0.27c6.79,4.38,9.05,15.2,4.94,25.57
			C179.91,263.61,175.13,268.65,169.94,270.94l0.06,0.16c0.01,0.01,0.01,0.01,0.02,0.02L169.94,270.94z"/>
		<path class="st1" d="M172.56,232.21c-1.32-0.46-2.68-0.64-4.05-0.55C169.87,231.58,171.24,231.75,172.56,232.21
			c7,2.46,9.99,12.14,6.66,21.63c-2.6,7.41-8.28,12.5-13.99,13.2c5.71-0.7,11.4-5.79,14-13.2
			C182.56,244.35,179.57,234.67,172.56,232.21z"/>
		<path class="st1" d="M148.6,248.67c-2.16-0.95-2.45-3.53-2.45-3.53l14.65-28.16c0,0,0,0-0.01-0.01l-14.66,28.16
			c0,0,0.29,2.58,2.45,3.53c0,0,0.1,0.05,0.27,0.14c0.17,0.09,0.42,0.21,0.73,0.34c0,0,0,0,0,0
			C148.98,248.88,148.6,248.68,148.6,248.67L148.6,248.67z"/>
		<path class="st1" d="M167.18,268.24c-0.07,0.02-0.14,0.03-0.22,0.05c-0.36,0.08-0.72,0.14-1.08,0.19
			c-1.82,0.25-3.63,0.11-5.36-0.46c-0.21-0.07-0.42-0.14-0.63-0.23c-0.11-0.04-0.22-0.09-0.33-0.14c-0.24-0.1-0.46-0.21-0.69-0.33
			c-0.44-0.23-0.86-0.48-1.26-0.76c-0.41-0.28-0.8-0.59-1.17-0.93c-0.13-0.12-0.26-0.24-0.39-0.37c-0.59-0.58-1.13-1.22-1.61-1.92
			c-1.05-1.53-1.84-3.33-2.34-5.31c-0.17-0.66-0.3-1.35-0.4-2.05c-0.56-3.94-0.06-8.4,1.68-12.77c2.2-5.55,5.95-9.85,10.14-12.21
			c-0.01,0-0.02,0.01-0.03,0.01c-4.18,2.36-7.92,6.65-10.12,12.2c-1.73,4.37-2.24,8.83-1.68,12.77c-4.98,8.23-1.66,20.47-1.66,20.47
			s0-0.02,0-0.04c0.01,0.03,0.01,0.04,0.01,0.04s-0.14-4.76,5.99-11.19c0.13,0.12,0.26,0.25,0.39,0.36
			c0.37,0.34,0.76,0.64,1.17,0.93c-0.22,1.32-0.41,2.84-0.54,4.61c-0.89,11.81-5.85,15.27-6.11,15.44c0,0,0.01,0,0.02-0.01
			c0,0-0.01,0.01-0.01,0.01c0.41-0.14,13.69-4.87,15.6-14.75c0.26-1.37,0.67-2.63,1.17-3.79c-0.05,0.01-0.1,0.03-0.15,0.04
			C167.45,268.17,167.31,268.21,167.18,268.24z M150.85,269.28c0,0-0.36-5.47,1.24-11.23c0.5,1.98,1.28,3.78,2.34,5.31
			C151.29,266.73,150.85,269.28,150.85,269.28z M160.96,276.56c0.01-0.01,0.02-0.03,0.03-0.04c0,0,0,0,0,0
			C160.98,276.54,160.97,276.55,160.96,276.56z M161,276.52c0.01-0.01,0.01-0.02,0.02-0.03c0,0,0,0,0,0
			C161.02,276.5,161.01,276.51,161,276.52z M161.09,276.41c0-0.01,0.01-0.01,0.01-0.02c0.01-0.01,0.01-0.01,0.02-0.02
			C161.11,276.39,161.1,276.4,161.09,276.41z M161.13,276.36c0.01-0.02,0.03-0.03,0.04-0.05c0,0,0,0,0,0
			C161.16,276.33,161.14,276.34,161.13,276.36z M161.56,275.82c0.01-0.02,0.02-0.03,0.04-0.05c0,0,0,0,0,0
			C161.59,275.79,161.58,275.81,161.56,275.82z M165.88,268.48c-1.68,4.31-4.58,7.72-5.45,8.69c-0.16,0.18-0.26,0.29-0.26,0.29
			s1.77-3.05,0.37-9.39c0-0.02-0.01-0.03-0.01-0.05C162.25,268.6,164.06,268.73,165.88,268.48z"/>
		<path class="st1" d="M174.34,223.39c0.05-0.04,0.1-0.08,0.16-0.11C174.45,223.31,174.39,223.34,174.34,223.39
			C174.35,223.39,174.34,223.39,174.34,223.39z"/>
		<path class="st1" d="M182.8,229.73c-0.01,0.02-0.01,0.04-0.01,0.06c0.65-1.79,1.36-3.6,2.12-5.4c0,0,0,0-0.01-0.01
			C184.15,226.17,183.45,227.96,182.8,229.73z"/>
		<path class="st1" d="M188.54,231.3c0.01,0.18,0.02,0.36,0.03,0.54c0.01,0.26,0.03,0.52,0.05,0.77c0.03-0.02,0.05-0.05,0.08-0.07
			c4.69-4.38,8.86-6.92,8.86-6.92s-0.1,0.1-0.27,0.31c-1.03,1.24-4.7,6.37-5.21,17.25c0,0,0,0,0,0.01c0.45,0.62,0.92,1.19,1.42,1.7
			c0.28,0.29,0.57,0.57,0.87,0.83c1.08,0.94,2.23,1.66,3.4,2.23h0c0.04-1.01,0.06-2.06,0.07-3.17c0.16-21.87,9.01-28.58,9.15-28.68
			c0,0-0.01,0-0.02,0.01c0,0,0,0,0,0c-0.32,0.14-10.69,4.6-18.37,12.83c0,0,0,0.01,0,0.01C188.47,230.49,188.54,231.3,188.54,231.3z
			"/>
		<path class="st1" d="M183.29,216.25c2.2-2.33,3.4-5.23,3.99-8.19c0,0-0.01,0.01-0.01,0.02c0,0,0,0,0,0
			c-0.87,1.13-1.71,2.21-2.53,3.23c-3.07,3.85-5.73,6.93-7.59,9.02c0,0,0,0-0.01,0.01c-0.04,0.49-0.07,0.99-0.1,1.51
			c-0.01,0.3-0.02,0.6-0.03,0.9c-0.01,0.34-0.02,0.67-0.03,0.99c0,0,0,0,0,0c0.5,0.24,1.03,0.55,1.56,0.89c0,0,0,0,0,0
			C179.35,221.86,180.79,218.91,183.29,216.25z"/>
		<path class="st1" d="M178.28,280.79c-3.97-1.91-6.72-6.56-7.81-8.66h0l0-0.01c-0.29-0.57-0.46-0.95-0.5-1.04
			c0-0.01-0.01-0.01-0.02-0.02c0.02,0.05,0.2,0.44,0.51,1.06l0,0c0.54,1.05,1.5,2.74,2.82,4.41c1.32,1.66,3,3.3,4.98,4.26
			c1.63,0.78,3.31,0.96,4.85,0.84C181.58,281.75,179.91,281.57,178.28,280.79z"/>
		<path class="st1" d="M182.01,208.21c0,0-0.14,0.06-0.37,0.16c-0.65,0.6-2.31,2.42-3.45,6.26c-0.08,0.07-0.16,0.14-0.24,0.21
			c-0.74,0.63-1.48,1.22-2.22,1.77c0,0-2.6,2.23-6.06,3.01c3.46-0.78,6.06-3.01,6.06-3.01c0.74-0.54,1.49-1.14,2.22-1.77
			c0.08-0.07,0.16-0.14,0.24-0.21c0.05-0.05,0.1-0.09,0.16-0.14C179.8,209.81,182.01,208.21,182.01,208.21z"/>
		<path class="st1" d="M167.64,219.87c0.45-0.01,0.89-0.05,1.31-0.12c1.18-2.96,3.42-5.37,5.7-7.22c0.24-0.19,0.48-0.39,0.72-0.57
			c1.22-0.92,2.42-1.68,3.45-2.27c0.24-0.14,0.47-0.26,0.69-0.38c5.66-4.47,6.1-8.32,6.1-8.32s0.31,2.53,0.02,5.82
			c0.21-0.26,0.42-0.51,0.63-0.77c0.51-0.63,1-1.27,1.5-1.91c0.28-6.07-1.33-11.42-1.33-11.42s0,0.01,0,0.04
			c-0.01-0.02-0.01-0.04-0.01-0.04s0.39,6.81-9.9,15.48c-6.1,5.14-8.1,8.49-8.72,10.37c-0.19,0.57-0.25,1.01-0.26,1.32
			c0,0,0.01,0,0.01,0C167.58,219.88,167.61,219.87,167.64,219.87z M169.96,215.74c0,0,0.01-0.01,0.01-0.01
			c-0.02,0.02-0.04,0.03-0.06,0.05C169.93,215.76,169.94,215.75,169.96,215.74z M168.9,216.72c0.01-0.01,0.02-0.02,0.04-0.03
			C168.92,216.7,168.91,216.71,168.9,216.72L168.9,216.72z M167.81,218.56C167.81,218.56,167.81,218.56,167.81,218.56
			C167.81,218.56,167.81,218.56,167.81,218.56c-0.04,0.13-0.07,0.24-0.1,0.35C167.73,218.8,167.77,218.68,167.81,218.56z"/>
		<path class="st1" d="M163.04,218.73c1.08-2.07,2.49-3.63,2.49-3.63s-0.95,1.66,0,4.59c0,0,0,0,0.01,0
			c0.54,0.11,1.07,0.17,1.6,0.19c0.08,0,0.15,0,0.23,0h0.06c-0.03-0.11-0.07-0.24-0.1-0.38c-0.17-0.68-0.34-1.68-0.34-2.88
			c0-1.65,0.34-3.66,1.49-5.67c0,0-0.01,0-0.01,0.01c0,0,0-0.01,0-0.01c0,0-3.67,2.05-7.41,6.29c0,0,0,0,0.01,0.01
			C161.71,217.86,162.37,218.35,163.04,218.73z"/>
		<path class="st1" d="M160.96,276.56c0.01-0.01,0.02-0.03,0.04-0.04c0,0,0,0,0,0C160.98,276.54,160.97,276.55,160.96,276.56z"/>
		<path class="st4" d="M160.96,276.56c0.01-0.01,0.02-0.03,0.04-0.04c0,0,0,0,0,0C160.98,276.54,160.97,276.55,160.96,276.56z"/>
		<path class="st1" d="M161,276.52c0.01-0.01,0.02-0.02,0.02-0.03c0,0,0,0,0,0C161.01,276.5,161,276.51,161,276.52z"/>
		<path class="st4" d="M161,276.52c0.01-0.01,0.02-0.02,0.02-0.03c0,0,0,0,0,0C161.01,276.5,161,276.51,161,276.52z"/>
		<path class="st1" d="M161.09,276.41c0.01-0.01,0.02-0.03,0.03-0.04c-0.01,0.01-0.01,0.01-0.02,0.02
			C161.1,276.4,161.09,276.4,161.09,276.41z"/>
		<path class="st4" d="M161.09,276.41c0.01-0.01,0.02-0.03,0.03-0.04c-0.01,0.01-0.01,0.01-0.02,0.02
			C161.1,276.4,161.09,276.4,161.09,276.41z"/>
		<path class="st1" d="M161.13,276.36c0.01-0.02,0.03-0.03,0.04-0.05c0,0,0,0,0,0C161.16,276.33,161.14,276.34,161.13,276.36z"/>
		<path class="st4" d="M161.13,276.36c0.01-0.02,0.03-0.03,0.04-0.05c0,0,0,0,0,0C161.16,276.33,161.14,276.34,161.13,276.36z"/>
		<path class="st1" d="M161.56,275.82c0.01-0.02,0.03-0.03,0.04-0.05c0,0,0,0,0,0C161.59,275.79,161.57,275.81,161.56,275.82z"/>
		<path class="st4" d="M161.56,275.82c0.01-0.02,0.03-0.03,0.04-0.05c0,0,0,0,0,0C161.59,275.79,161.57,275.81,161.56,275.82z"/>
		<path class="st1" d="M167.81,218.56C167.81,218.56,167.81,218.56,167.81,218.56c-0.04,0.13-0.08,0.25-0.11,0.36
			C167.73,218.8,167.77,218.68,167.81,218.56C167.81,218.56,167.81,218.56,167.81,218.56z"/>
		<path class="st4" d="M167.81,218.56C167.81,218.56,167.81,218.56,167.81,218.56c-0.04,0.13-0.08,0.25-0.11,0.36
			C167.73,218.8,167.77,218.68,167.81,218.56C167.81,218.56,167.81,218.56,167.81,218.56z"/>
		<path class="st1" d="M169.96,215.74c-0.01,0.01-0.03,0.03-0.04,0.04c0.02-0.02,0.04-0.03,0.06-0.05
			C169.97,215.73,169.96,215.73,169.96,215.74z"/>
		<path class="st4" d="M169.96,215.74c-0.01,0.01-0.03,0.03-0.04,0.04c0.02-0.02,0.04-0.03,0.06-0.05
			C169.97,215.73,169.96,215.73,169.96,215.74z"/>
		<path class="st1" d="M168.9,216.72L168.9,216.72c0.01-0.01,0.02-0.02,0.04-0.03C168.92,216.7,168.91,216.71,168.9,216.72z"/>
		<path class="st4" d="M168.9,216.72L168.9,216.72c0.01-0.01,0.02-0.02,0.04-0.03C168.92,216.7,168.91,216.71,168.9,216.72z"/>
		<path class="st3" d="M176.23,238.87c-3.81,1.47-7.25,5.34-8.82,10.49c-1.57,5.15-0.87,10.28,1.48,13.63
			c3.81-1.47,7.25-5.34,8.82-10.49C179.28,247.35,178.58,242.22,176.23,238.87z"/>
		
			<ellipse transform="matrix(0.5509 -0.8346 0.8346 0.5509 0.5584 259.6917)" class="st3" cx="241.58" cy="129.33" rx="11.49" ry="32.98"/>
		<path class="st3" d="M232.52,143.75c15.2,10.04,30.36,13.88,33.86,8.58c0.18-0.27,0.32-0.56,0.43-0.87
			c-3.92,4.79-18.74,0.9-33.61-8.91c-14.42-9.52-23.7-21.2-21.63-26.89c-0.09,0.11-0.17,0.22-0.25,0.33
			C207.83,121.29,217.32,133.72,232.52,143.75z"/>
		<path class="st3" d="M229.99,148.22c15.2,10.04,30.36,13.88,33.86,8.58c0.18-0.27,0.32-0.56,0.43-0.87
			c-3.92,4.79-18.74,0.9-33.61-8.91c-14.42-9.52-23.7-21.2-21.63-26.89c-0.09,0.11-0.17,0.22-0.25,0.33
			C205.3,125.75,214.79,138.18,229.99,148.22z"/>
		<path class="st3" d="M210.05,168.26c1.67,0.57,3.46,0.35,5.13-0.49c-3.64-1.74-5.12-7.1-3.3-12.39c1.14-3.31,3.31-5.84,5.74-7.06
			c-0.2-0.1-0.41-0.18-0.62-0.26c-4.09-1.41-8.96,1.98-10.88,7.56C204.2,161.19,205.96,166.85,210.05,168.26z"/>
		<path class="st3" d="M197.77,247.94L197.77,247.94c-1.17-0.56-2.32-1.29-3.4-2.23c-0.3-0.26-0.59-0.53-0.87-0.83
			c-0.5-0.51-0.98-1.08-1.42-1.7c0,0,0,0,0-0.01c0,0,0,0.01,0,0.01c-0.24-0.33-0.47-0.68-0.69-1.05c-1.01-1.68-1.82-3.72-2.32-6.19
			c-0.1-0.49-0.19-1.01-0.26-1.54c-0.08-0.58-0.14-1.18-0.19-1.8c0,0,0,0,0,0c-0.02-0.25-0.04-0.51-0.05-0.77
			c-0.01-0.18-0.02-0.36-0.03-0.54c0,0-0.07-0.8,0.06-2.37c0,0,0-0.01,0-0.01c0.15-1.78,0.56-4.54,1.63-8.23
			c0.53-1.84,1.23-3.9,2.13-6.19c0.98-2.48,2.21-5.21,3.75-8.2c0,0,0,0,0,0c0.41-0.79,0.83-1.6,1.28-2.42
			c0.5-0.92,1.03-1.86,1.59-2.82c0.42-0.72,0.85-1.45,1.3-2.19c0.43-0.71,0.88-1.44,1.35-2.17c0.15-0.24,0.31-0.48,0.46-0.73
			c0.64-1,1.31-2.02,2.02-3.05c0.28-0.42,0.57-0.84,0.87-1.26c-0.37-0.45-0.71-0.91-1.02-1.39c-0.17-0.26-0.32-0.53-0.47-0.8
			c-0.21,0.33-0.43,0.69-0.68,1.08c0,0,0,0,0,0c-1.32,2.11-3.19,5.16-5.3,8.83c-1.04,1.81-2.15,3.76-3.27,5.83
			c-0.01,0.01-0.01,0.02-0.02,0.04c-0.35,0.64-0.7,1.3-1.06,1.96c0,0,0,0,0,0c-2.19,4.1-4.43,8.55-6.48,13.1
			c-0.36,0.8-0.72,1.6-1.06,2.41c-0.24,0.57-0.48,1.13-0.72,1.7c-0.75,1.81-1.46,3.61-2.12,5.4c0.01-0.02,0.01-0.04,0.01-0.06
			c0.36-1.25-1.92-3.57-4.24-5.09c-0.53-0.35-1.06-0.65-1.56-0.89c0,0,0,0,0,0c0,0,0,0,0,0c-0.88-0.42-1.68-0.65-2.21-0.56
			c-0.09,0.02-0.17,0.04-0.24,0.07c-0.01,0.01-0.02,0.02-0.03,0.02c-0.06,0.03-0.12,0.06-0.16,0.11c0,0,0,0,0.01-0.01
			c0,0-0.01,0-0.01,0.01c0.17-0.18,1.19-1.25,2.82-3.06c0,0,0,0,0,0c0,0,0,0,0.01-0.01c1.86-2.09,4.52-5.16,7.59-9.02
			c0.82-1.02,1.66-2.1,2.53-3.23c0-0.01,0.01-0.01,0.01-0.02c2.86-3.73,5.97-8.01,9.06-12.7c0.05-0.08,0.11-0.16,0.16-0.24
			c0.98-1.49,1.96-3.02,2.93-4.59c0.82-1.33,1.63-2.68,2.44-4.06c0,0,0-0.01,0.01-0.01c0.09-0.16,0.19-0.32,0.28-0.48
			c-0.21-0.58-0.45-1.14-0.7-1.68c-0.08-0.18-0.17-0.35-0.25-0.53c0,0,0,0,0,0c0,0,0,0,0,0c-0.07-0.14-0.14-0.29-0.22-0.43
			c-0.12,0.22-0.25,0.46-0.39,0.72c-0.15,0.28-0.32,0.58-0.49,0.9c-0.33,0.6-0.7,1.26-1.1,1.97c0,0,0,0,0,0
			c-0.86,1.51-1.88,3.27-3.05,5.17c-0.12,0.2-0.24,0.39-0.37,0.59c-0.75,1.22-1.56,2.48-2.41,3.78c-1.64,2.5-3.46,5.11-5.4,7.64
			c-0.49,0.64-0.99,1.28-1.5,1.91c-0.21,0.26-0.42,0.52-0.63,0.77c-0.01,0.07-0.01,0.14-0.02,0.21c-2.34,2.84-4.81,5.49-7.34,7.68
			c0.02-0.08,0.05-0.14,0.07-0.22c-0.05,0.05-0.1,0.09-0.16,0.14c-0.08,0.07-0.16,0.14-0.24,0.21c-0.74,0.63-1.48,1.22-2.22,1.77
			c0,0-2.61,2.23-6.06,3.01c-0.19,0.04-0.38,0.08-0.57,0.11c-0.01,0.04-0.03,0.07-0.05,0.1c-0.46,0.07-0.93,0.12-1.41,0.13
			c0-0.02,0-0.06,0.01-0.08c-0.03,0-0.06,0-0.09,0.01c0,0-0.01,0-0.01,0c-0.04,0-0.08,0-0.12,0c-0.02,0-0.04,0-0.06,0
			c-0.08,0-0.15,0-0.23,0c-0.53-0.01-1.06-0.07-1.6-0.19c0,0,0,0-0.01,0c0,0,0,0,0,0c-0.83-0.18-1.67-0.48-2.5-0.96c0,0,0,0,0,0
			c-0.67-0.38-1.32-0.87-1.97-1.49c0,0,0,0-0.01-0.01c-0.09-0.08-0.17-0.16-0.25-0.25l0,0.01l-14.65,28.16c0,0,0.29,2.58,2.45,3.53
			l0,0c0,0,0.38,0.2,0.99,0.48c0,0,0.01,0,0.01,0c0.31-1.6,0.78-3.21,1.42-4.81c2.61-6.57,7.37-11.38,12.47-13.3
			c0.01,0,0.02-0.01,0.03-0.01c-4.19,2.36-7.93,6.65-10.14,12.21c-1.73,4.37-2.24,8.83-1.68,12.77c0.1,0.7,0.23,1.38,0.4,2.05
			c0.5,1.98,1.28,3.78,2.34,5.31c0.48,0.7,1.02,1.34,1.61,1.92c0.13,0.13,0.26,0.25,0.39,0.37c0.37,0.33,0.76,0.64,1.17,0.93
			c0.4,0.28,0.82,0.53,1.26,0.76c0.23,0.12,0.46,0.23,0.69,0.33c0.11,0.05,0.22,0.09,0.33,0.14c0.21,0.08,0.42,0.16,0.63,0.23
			c1.73,0.57,3.54,0.71,5.36,0.46c0.36-0.05,0.72-0.11,1.08-0.19c0.07-0.02,0.14-0.03,0.22-0.05c0.14-0.03,0.27-0.07,0.41-0.1
			c0.05-0.01,0.1-0.03,0.15-0.04c0,0,0,0,0,0c5.57-1.56,10.92-6.61,13.74-13.72c3.64-9.16,1.87-18.71-3.81-23.03
			c-0.15-0.11-0.3-0.22-0.46-0.33c-0.02-0.02-0.05-0.03-0.07-0.05c0.18,0.1,0.36,0.21,0.53,0.32c6.79,4.37,9.05,15.2,4.94,25.57
			c-2.68,6.76-7.46,11.8-12.67,14.08l0.08,0.18c-0.01,0-0.01-0.01-0.02-0.02c-0.01-0.01-0.03-0.02-0.04-0.04c0,0,0,0.01,0.01,0.02
			c0.04,0.09,0.21,0.47,0.5,1.04l0,0.01h0c1.08,2.1,3.83,6.76,7.81,8.66c1.63,0.78,3.3,0.96,4.84,0.84c3.39-0.27,6.1-2,6.1-2
			l4.02-6.23l14.41-23.63C205.87,249.87,201.74,249.86,197.77,247.94z M179.23,253.84c-2.6,7.41-8.29,12.51-14,13.2
			c-1.6,0.2-3.19,0.05-4.73-0.49c-7.01-2.46-10-12.14-6.67-21.63c2.7-7.7,8.74-12.9,14.67-13.27c1.37-0.08,2.74,0.09,4.05,0.55
			C179.57,234.67,182.56,244.35,179.23,253.84z"/>
		<path class="st3" d="M202.42,132.6l-7.6,15.52l-2.43,4.97l-4.97,10.14c0.31,0.09,0.65,0.2,1.04,0.33c0.01,0,0.02,0.01,0.03,0.01
			c0.27,0.09,0.55,0.19,0.85,0.3c0.06,0.02,0.13,0.05,0.19,0.07c1.38,0.51,3.04,1.23,4.79,2.21c0.27,0.15,0.55,0.31,0.82,0.48
			c0.7,0.42,1.41,0.88,2.11,1.38c0.17,0.12,0.33,0.24,0.5,0.36c1.21,0.91,2.41,1.95,3.53,3.15c0.15,0.17,0.31,0.33,0.46,0.51
			c0.15,0.17,0.29,0.33,0.44,0.51c0.29,0.35,0.58,0.71,0.85,1.09c0.18,0.25,0.36,0.5,0.54,0.76c1.19,1.76,2.2,3.77,2.89,6.07
			c0.59,1.96,1.69,3.68,3.13,5.17c0.06,0.06,0.12,0.12,0.17,0.18c0.43,0.43,0.88,0.84,1.37,1.24c0.27,0.22,0.55,0.44,0.83,0.65
			c0.21,0.15,0.42,0.3,0.63,0.45c0.99,0.68,2.05,1.29,3.17,1.86c0.31,0.16,0.62,0.31,0.94,0.46c0.06,0.03,0.13,0.06,0.19,0.09
			c1.5,0.69,3.07,1.29,4.67,1.82c0.83,0.27,1.66,0.52,2.49,0.75c0.2,0.06,0.4,0.11,0.6,0.16c0.03,0.01,0.05,0.01,0.08,0.02
			c0.21,0.06,0.43,0.12,0.64,0.17c2.62,0.67,5.19,1.16,7.48,1.51c0.81,0.13,1.59,0.23,2.32,0.33c0.09,0.01,0.19,0.02,0.28,0.04
			c0.07,0.01,0.14,0.02,0.21,0.03c1.34,0.16,2.51,0.28,3.44,0.35c0.46,0.04,0.87,0.07,1.21,0.09c0,0,0.01,0,0.01,0l0.14-0.24
			l0.43-0.71l0.04-0.06l5.08-8.37l0.25-0.41l9.9-16.32l0.38-0.63l5.11-8.43c-0.01,0.01-0.01,0.01-0.02,0.02
			c-0.99,0.9-2.45,1.42-4.29,1.57c-6.59,0.55-17.97-3.54-29.37-11.07c-13.16-8.69-22.1-19.14-22.24-25.36l-0.01,0.02l-3.14,6.42
			L202.42,132.6z M203.64,155.38c1.9-5.52,6.08-9.35,10.29-9.91c1.18-0.16,2.36-0.06,3.5,0.33c5.18,1.78,7.41,8.96,4.97,16.03
			c-1.98,5.75-6.43,9.66-10.8,9.96c-1.01,0.07-2.01-0.05-2.98-0.38C203.43,169.63,201.2,162.45,203.64,155.38z"/>
		<path class="st1" d="M185.62,200.99c0,0-0.44,3.84-6.1,8.32c1.42-0.77,2.4-1.17,2.4-1.17s-0.11,0.08-0.28,0.24
			c0.23-0.1,0.37-0.16,0.37-0.16s-2.21,1.59-3.66,6.27c1.2-1.05,2.38-2.2,3.55-3.42c0.61-0.64,1.22-1.3,1.81-1.98
			c0.01-0.01,0.01-0.02,0.02-0.02c0.61-0.69,1.21-1.39,1.8-2.11v0c0.04-0.04,0.07-0.09,0.11-0.13
			C185.93,203.52,185.62,200.99,185.62,200.99z"/>
		<path class="st5" d="M185.62,200.99c0,0-0.44,3.84-6.1,8.32c1.42-0.77,2.4-1.17,2.4-1.17s-0.11,0.08-0.28,0.24
			c0.23-0.1,0.37-0.16,0.37-0.16s-2.21,1.59-3.66,6.27c1.2-1.05,2.38-2.2,3.55-3.42c0.61-0.64,1.22-1.3,1.81-1.98
			c0.01-0.01,0.01-0.02,0.02-0.02c0.61-0.69,1.21-1.39,1.8-2.11v0c0.04-0.04,0.07-0.09,0.11-0.13
			C185.93,203.52,185.62,200.99,185.62,200.99z"/>
		<path class="st5" d="M183.73,209.06c-0.01,0.01-0.01,0.02-0.02,0.02c-0.6,0.68-1.2,1.34-1.81,1.98c-1.16,1.22-2.35,2.37-3.55,3.42
			c-0.02,0.07-0.05,0.14-0.07,0.22c2.53-2.2,5-4.85,7.34-7.68c0.01-0.07,0.01-0.14,0.02-0.21c-0.04,0.04-0.07,0.09-0.11,0.13
			C184.94,207.66,184.34,208.37,183.73,209.06z"/>
		<path class="st6" d="M165.53,215.1c0,0-1.42,1.56-2.49,3.63c0,0,0,0,0,0c0.83,0.48,1.67,0.78,2.5,0.96c0,0,0,0,0,0
			C164.58,216.76,165.53,215.1,165.53,215.1z"/>
		<path class="st6" d="M150.85,269.28c0,0,0.44-2.55,3.58-5.92c-1.05-1.53-1.84-3.33-2.34-5.31
			C150.49,263.81,150.85,269.28,150.85,269.28z"/>
		<path class="st6" d="M160.16,277.46c0,0,0.1-0.11,0.26-0.29c0.87-0.97,3.77-4.38,5.45-8.69c-1.82,0.25-3.63,0.11-5.36-0.46
			c0,0.02,0.01,0.03,0.01,0.05C161.94,274.42,160.16,277.46,160.16,277.46z"/>
		<path class="st6" d="M187.16,176.81c0.73-2.05,1.73-4.05,2.89-5.89c0.92-1.46,1.97-2.9,3.3-4.02c0.31-0.26,0.64-0.52,0.98-0.77
			c-1.75-0.98-3.42-1.7-4.79-2.21C188.08,166.86,186.95,171.03,187.16,176.81z"/>
		<path class="st6" d="M205.62,181.45c1.99,8.7-1.69,16.87-1.69,16.87c0.07-0.05,0.13-0.11,0.19-0.17
			c3.9-3.33,6.96-10.99,6.96-10.99s0.02-0.05,0.06-0.13c-0.48-0.39-0.94-0.81-1.37-1.24c-0.06-0.06-0.12-0.12-0.17-0.18
			c-1.44-1.5-2.54-3.21-3.13-5.17c-0.7-2.3-1.7-4.31-2.89-6.07c-0.18-0.26-0.35-0.51-0.54-0.76c-0.61,8.74-5.11,11.58-5.11,11.58
			s1.06-0.38,2.65-1.13c0.14-0.26,0.27-0.5,0.39-0.73c0,0,0,0,0,0c0.07,0.14,0.15,0.29,0.22,0.43c0,0,0,0,0,0
			c1.28-0.62,2.82-1.44,4.4-2.44C205.61,181.37,205.61,181.41,205.62,181.45z"/>
		<path class="st1" d="M200.09,184.97c0.18-0.32,0.34-0.62,0.49-0.9c0.14-0.26,0.27-0.5,0.39-0.72c0,0,0,0,0,0
			c-0.12,0.22-0.25,0.47-0.39,0.73c-1.59,0.74-2.65,1.13-2.65,1.13s4.5-2.84,5.11-11.58c0.18,0.25,0.36,0.5,0.54,0.76
			c1.19,1.76,2.2,3.77,2.89,6.07c0.59,1.96,1.69,3.68,3.13,5.17c0.06,0.06,0.12,0.12,0.17,0.18c0.43,0.43,0.88,0.84,1.37,1.24
			c-0.04,0.09-0.06,0.13-0.06,0.13s-3.05,7.66-6.96,10.99c-0.06,0.06-0.13,0.11-0.19,0.17c0,0,3.67-8.18,1.69-16.87
			c-0.01-0.04-0.02-0.08-0.03-0.12c-1.57,1-3.11,1.82-4.4,2.44c0,0,0,0,0,0c0.09,0.17,0.17,0.35,0.25,0.53
			c0.25,0.54,0.49,1.1,0.7,1.68c-0.09,0.16-0.19,0.32-0.28,0.48c0,0,0,0.01-0.01,0.01c0.08,0.33,0.17,0.66,0.28,0.99
			c0.35,1.06,0.56,2.08,0.66,3.07c0,0,0-0.01,0.01-0.01c0,0,0,0.01,0,0.01c0.25-0.39,0.47-0.75,0.68-1.08
			c0.15,0.27,0.3,0.54,0.47,0.8c0.31,0.48,0.65,0.95,1.02,1.39c-0.29,0.42-0.58,0.85-0.87,1.26c-0.7,1.04-1.38,2.06-2.02,3.05
			c-0.16,0.25-0.31,0.49-0.46,0.73c-0.47,0.73-0.92,1.46-1.35,2.17c-0.45,0.74-0.89,1.47-1.3,2.19c-0.56,0.96-1.09,1.9-1.59,2.82
			c-0.45,0.83-0.88,1.63-1.28,2.42c0,0,0,0,0,0c0,0,0,0,0,0c2.71-0.94,4.91-2.01,4.91-2.01s10.73-4.73,11.57-16.15
			c0.99,0.67,2.05,1.29,3.16,1.85c-1.62,5.63-1.37,9.98-1.37,9.98c0-0.01,0.01-0.01,0.01-0.02c0,0.01,0,0.02,0,0.02
			c2.52-4.8,7.3-5.96,7.83-6.08c-0.41,0.13-4,1.6-5.77,14.71c-1.85,13.73-7.93,17.29-8.09,17.39c0,0,0.01,0,0.02-0.01
			c0,0-0.01,0-0.01,0.01c0.25-0.07,16.09-4.59,18.98-15.94c2.08-8.19,8.36-12.53,11.75-14.34c0.46,0.04,0.87,0.07,1.21,0.09l0,0
			c-0.34-0.02-0.74-0.05-1.21-0.09c-0.93-0.08-2.1-0.19-3.44-0.35c-0.07-0.01-0.14-0.02-0.21-0.03c-0.09-0.01-0.19-0.02-0.28-0.04
			c-0.73-0.09-1.51-0.2-2.32-0.33c-2.29-0.35-4.86-0.84-7.48-1.51c-0.21-0.05-0.43-0.11-0.64-0.17c-0.03-0.01-0.05-0.01-0.08-0.02
			c-0.2-0.05-0.4-0.11-0.6-0.16c-0.83-0.23-1.66-0.48-2.49-0.75c-1.6-0.52-3.18-1.13-4.67-1.82c-0.06-0.03-0.13-0.06-0.19-0.09
			c-0.32-0.15-0.63-0.3-0.94-0.46c-1.12-0.56-2.18-1.18-3.17-1.86c-0.22-0.15-0.43-0.3-0.63-0.45c-0.28-0.21-0.56-0.42-0.83-0.65
			c-0.48-0.39-0.94-0.81-1.37-1.24c-0.06-0.06-0.12-0.12-0.17-0.18c-1.44-1.5-2.54-3.21-3.13-5.17c-0.7-2.3-1.7-4.31-2.89-6.07
			c-0.18-0.26-0.35-0.51-0.54-0.76c-0.28-0.37-0.56-0.74-0.85-1.09c-0.14-0.17-0.29-0.34-0.44-0.51c-0.15-0.17-0.3-0.34-0.46-0.51
			c-1.12-1.2-2.32-2.24-3.53-3.15c-0.17-0.12-0.33-0.24-0.5-0.36c-0.71-0.5-1.41-0.97-2.11-1.38c-0.28-0.17-0.55-0.32-0.82-0.48
			c-1.75-0.98-3.42-1.7-4.79-2.21c-0.07-0.02-0.13-0.05-0.19-0.07c-0.3-0.11-0.58-0.21-0.85-0.3c-0.01,0-0.02-0.01-0.03-0.01
			c-0.38-0.13-0.73-0.24-1.04-0.33l4.97-10.14l2.43-4.97l7.6-15.52l0.19-0.39l3.14-6.42c0-0.01,0-0.01,0-0.02l-3.15,6.43
			c-0.76-1.46-1.65-2.58-2.61-3.29l0,0.01c0,0-0.01-0.01-0.01-0.01l0.12,0.72c0.02,0.62-0.07,1.71-0.57,3.53
			c-0.57,3.26-1.85,8.32-4.73,14.95l-2.43,4.97l-4.97,10.14c0.31,0.09,0.65,0.2,1.04,0.33c0.01,0,0.02,0.01,0.03,0.01
			c-2.73,4.33-5.82,12.53-3.1,25.67c0-0.01,0-0.02,0-0.03c0,0.01,0,0.02,0,0.03c0.57-3.18,1.55-6.36,2.78-9.34
			c0.98-2.37,2.17-4.73,3.84-6.69c1.54-1.82,3.44-3.47,5.25-5.2c0.16,0.12,0.33,0.24,0.5,0.36c1.21,0.91,2.41,1.95,3.53,3.15
			c0.15,0.17,0.31,0.34,0.46,0.51c-0.35,0.87-0.7,1.82-1.05,2.86c-4.04,11.92-10.3,13.8-10.3,13.8s0,0,0.01,0l0,0
			c0,0,4.03-0.24,8.58-1.74c0,0,0,0,0,0C199.4,186.23,199.77,185.56,200.09,184.97z M224.15,193.17c0.19,0.05,0.38,0.1,0.57,0.15
			c0.01-0.01,0.01-0.03,0.02-0.05c0.21,0.06,0.43,0.12,0.64,0.17c2.62,0.67,5.19,1.16,7.48,1.51c0.81,0.13,1.59,0.23,2.32,0.33
			c-0.77,0.53-1.64,1.08-2.61,1.66c-0.82,0.49-1.57,0.98-2.27,1.47c-2.99,2.09-4.87,4.1-6.04,5.76c-0.19,0.27-0.37,0.53-0.52,0.79
			c-0.95,1.52-1.28,2.66-1.39,3.16c0.02,0.24,0.04,0.36,0.04,0.36s0.15-1.37,1.44-3.45c0.11,0.56,0.2,0.89,0.2,0.89
			s-0.02-0.62,0.32-1.68c1.18-1.66,3.06-3.68,6.04-5.76c-1.97,9.21-11.13,16.47-11.13,16.47c1.38-1.77,1.84-4.45,2.06-6.6
			c0.31-2.97-0.11-5.76-0.45-8.7C220.62,197.23,222.03,194.53,224.15,193.17z M216.99,190.6c1.5,0.69,3.07,1.29,4.67,1.82
			c-0.1,0.04-0.2,0.09-0.3,0.14c-0.89,0.15-3.73,0.85-5.54,3.62C215.83,196.18,215.92,193.79,216.99,190.6z M193.35,166.91
			c-1.33,1.12-2.38,2.55-3.3,4.02c-1.15,1.84-2.16,3.84-2.89,5.89c-0.22-5.78,0.92-9.95,2.37-12.88c1.38,0.51,3.04,1.23,4.79,2.21
			C193.99,166.39,193.66,166.65,193.35,166.91z"/>
		<path class="st6" d="M222.31,208.41c0,0,0.01-0.1,0.05-0.29c0.11-0.5,0.44-1.64,1.39-3.16c0.16-0.25,0.33-0.51,0.52-0.79
			c1.18-1.66,3.06-3.68,6.04-5.76c0.69-0.49,1.45-0.98,2.27-1.47c0.97-0.58,1.83-1.13,2.61-1.66c-0.73-0.09-1.51-0.2-2.32-0.33
			c-2.29-0.35-4.86-0.84-7.48-1.51c-0.21-0.05-0.43-0.11-0.64-0.17c-0.01,0.01-0.01,0.03-0.02,0.05c-0.21,0.38-0.41,0.78-0.59,1.18
			C221.3,200.72,222.31,208.41,222.31,208.41z"/>
		<path class="st1" d="M220.89,199.66c0.33,2.93,0.75,5.73,0.45,8.7c-0.22,2.15-0.68,4.83-2.06,6.6c0,0,9.16-7.26,11.13-16.47
			c-2.99,2.09-4.87,4.1-6.04,5.76c-0.34,1.06-0.32,1.68-0.32,1.68s-0.09-0.33-0.2-0.89c-1.29,2.08-1.44,3.45-1.44,3.45
			s-0.02-0.13-0.04-0.36c-0.04,0.19-0.05,0.29-0.05,0.29s-1.01-7.69,1.81-13.91c0.18-0.4,0.38-0.79,0.59-1.18
			c-0.19-0.05-0.38-0.1-0.57-0.15C222.03,194.53,220.62,197.23,220.89,199.66z"/>
		<path class="st5" d="M220.89,199.66c0.33,2.93,0.75,5.73,0.45,8.7c-0.22,2.15-0.68,4.83-2.06,6.6c0,0,9.16-7.26,11.13-16.47
			c-2.99,2.09-4.87,4.1-6.04,5.76c-0.34,1.06-0.32,1.68-0.32,1.68s-0.09-0.33-0.2-0.89c-1.29,2.08-1.44,3.45-1.44,3.45
			s-0.02-0.13-0.04-0.36c-0.04,0.19-0.05,0.29-0.05,0.29s-1.01-7.69,1.81-13.91c0.18-0.4,0.38-0.79,0.59-1.18
			c-0.19-0.05-0.38-0.1-0.57-0.15C222.03,194.53,220.62,197.23,220.89,199.66z"/>
		<path class="st1" d="M221.36,192.56c0.1-0.05,0.2-0.1,0.3-0.14c-1.6-0.52-3.18-1.13-4.67-1.82c-1.07,3.19-1.16,5.57-1.16,5.57
			C217.64,193.41,220.48,192.71,221.36,192.56z"/>
		<path class="st5" d="M221.36,192.56c0.1-0.05,0.2-0.1,0.3-0.14c-1.6-0.52-3.18-1.13-4.67-1.82c-1.07,3.19-1.16,5.57-1.16,5.57
			C217.64,193.41,220.48,192.71,221.36,192.56z"/>
		<path class="st6" d="M197.55,225.62c0,0-4.16,2.54-8.86,6.92c-0.03,0.02-0.05,0.05-0.08,0.07c0,0,0,0,0,0
			c0.05,0.62,0.11,1.22,0.19,1.8c0.07,0.53,0.16,1.04,0.26,1.54c0.5,2.47,1.31,4.51,2.32,6.19c0.22,0.37,0.45,0.72,0.69,1.05
			c0,0,0-0.01,0-0.01c0.51-10.88,4.17-16.02,5.21-17.25C197.45,225.72,197.55,225.62,197.55,225.62z"/>
		<path class="st6" d="M177.06,221.84c0.02-0.52,0.06-1.03,0.1-1.51c0,0,0,0,0,0c-1.62,1.82-2.64,2.89-2.82,3.06
			c0,0,0.01,0,0.01-0.01c0.05-0.04,0.1-0.07,0.16-0.1c0.01-0.01,0.02-0.02,0.03-0.02c0.07-0.03,0.15-0.06,0.24-0.07
			c0.54-0.09,1.33,0.13,2.21,0.56c0,0,0,0,0,0c0.01-0.32,0.02-0.65,0.03-0.99C177.03,222.44,177.04,222.14,177.06,221.84z"/>
		<path class="st6" d="M177.94,214.84c0.08-0.07,0.16-0.14,0.24-0.21c1.14-3.83,2.8-5.66,3.45-6.26c0.17-0.16,0.28-0.24,0.28-0.24
			s-0.97,0.4-2.4,1.17c-0.22,0.12-0.45,0.25-0.69,0.38c-1.03,0.59-2.24,1.35-3.45,2.27c-0.24,0.18-0.48,0.37-0.72,0.57
			c-2.29,1.85-4.52,4.26-5.7,7.22c0,0,0,0,0,0c0.05-0.01,0.09-0.02,0.14-0.03c0.19-0.03,0.38-0.07,0.57-0.11
			c3.45-0.78,6.06-3.01,6.06-3.01C176.47,216.06,177.21,215.47,177.94,214.84z"/>
	</g>
</g>
<g id="Capa_2">
</g>
</svg>
