<?xml version="1.0" encoding="utf-8"?>
<!-- Generator: Adobe Illustrator 26.1.0, SVG Export Plug-In . SVG Version: 6.00 Build 0)  -->
<svg version="1.1" xmlns="http://www.w3.org/2000/svg" xmlns:xlink="http://www.w3.org/1999/xlink" x="0px" y="0px"
	 viewBox="0 0 400 400" style="enable-background:new 0 0 400 400;" xml:space="preserve">
<style type="text/css">
	.st0{display:none;}
	.st1{display:inline;fill:none;}
	.st2{display:inline;}
	.st3{display:inline;fill:#C6838D;}
	.st4{fill:none;}
	.st5{fill:#FFAA00;}
</style>
<g id="Capa_3">
	<g class="st0">
		<path class="st1" d="M173.9,237.88c-7.7-6.02-16.54-8.6-26.29-7.59c-7.72,0.79-14.69,3.56-20.63,8.64
			c-5,4.28-8.31,9.71-10.48,15.87c-0.28,0.8-0.12,1.56,0.44,2.24c4.23,5.13,8.46,10.27,12.66,15.43c0.84,1.03,1.63,2.12,2.32,3.26
			c1.1,1.82,0.92,3.69-0.03,5.52c-0.7,1.34-2.54,1.63-3.47,0.35c-0.12-0.17-0.26-0.33-0.37-0.5c-4.08-5.77-8.15-11.55-12.23-17.32
			c-0.18-0.25-0.39-0.48-0.64-0.79c-0.08,0.21-0.12,0.29-0.13,0.37c-0.31,2.43-0.38,4.86-0.04,7.28
			c1.4,10.11,6.37,18.13,14.56,24.07c7.56,5.48,16.1,7.77,25.4,6.78c10.45-1.12,18.98-5.86,25.4-14.17
			c5.52-7.13,7.92-15.29,7.17-24.28C186.67,252.69,182.05,244.26,173.9,237.88z"/>
		<path class="st1" d="M220.23,237.65c2.29-2.71,5.17-4.59,8.33-6.02v0c3.38-1.67,6.7-2.77,9.81-3.5c1.01-0.41,2.27-0.86,3.87-1.36
			c0,0-23.19-14.98-42.24-16.4c-19.06,1.42-42.24,16.4-42.24,16.4c1.66,0.51,2.95,0.98,3.97,1.39c3.08,0.73,6.36,1.83,9.71,3.48v0
			c3.17,1.44,6.04,3.31,8.33,6.02c1.63,1.93,3.12,3.97,4.64,5.98c1.8,2.4,3.57,4.82,5.34,7.24c0.66,0.91,1.52,1.31,2.57,1.31
			c0.7-0.13,3.66-0.63,7.68-0.63l0,0c0,0,0,0,0,0s0,0,0,0l0,0c3.82,0,6.67,0.45,7.55,0.61c1.11,0.03,2.01-0.36,2.7-1.3
			c1.77-2.42,3.54-4.85,5.34-7.24C217.1,241.62,218.6,239.58,220.23,237.65z"/>
		<path class="st1" d="M284.83,262.98c-0.25,0.31-0.46,0.54-0.64,0.79c-4.08,5.77-8.15,11.55-12.23,17.32
			c-0.12,0.17-0.25,0.33-0.37,0.5c-0.93,1.28-2.77,0.98-3.47-0.35c-0.96-1.83-1.14-3.7-0.03-5.52c0.69-1.14,1.48-2.22,2.32-3.26
			c4.2-5.16,8.43-10.29,12.66-15.43c0.57-0.69,0.72-1.44,0.44-2.24c-2.17-6.16-5.49-11.59-10.48-15.87
			c-5.94-5.08-12.91-7.84-20.63-8.64c-9.75-1.01-18.59,1.57-26.29,7.59c-8.16,6.37-12.78,14.81-13.64,25.17
			c-0.75,8.99,1.65,17.15,7.17,24.28c6.43,8.31,14.96,13.05,25.4,14.17c9.3,0.99,17.85-1.3,25.4-6.78
			c8.2-5.94,13.16-13.96,14.56-24.07c0.34-2.42,0.27-4.85-0.04-7.28C284.95,263.27,284.91,263.2,284.83,262.98z"/>
		<path class="st2" d="M297.93,259.67c-3.65-2.2-6.5-5.25-9.15-8.52c-2.14-2.63-4.16-5.35-6.39-7.9
			c-4.92-5.62-10.67-10.02-17.39-12.94h0.01c-0.01,0-0.02,0-0.03-0.01c-1.66-0.72-3.38-1.35-5.16-1.89
			c-0.85-0.26-1.7-0.55-2.57-0.74c-0.11-0.03-0.23-0.05-0.34-0.08v0c0,0-0.08-0.02-0.22-0.05c-0.37-0.08-0.75-0.15-1.12-0.22
			c-25.16-9.64-38.59-28.94-38.59-28.94h-0.05c-0.01-0.34,0.16-0.68,0.48-1.08c0.54-0.67,1.05-1.37,1.6-2.03
			c1.59-1.96,3.2-3.91,4.79-5.87c2.9-3.54,5.79-7.09,8.68-10.63c2.29-2.82,4.55-5.64,6.83-8.46c2.59-3.22,5.18-6.43,7.78-9.64
			c2.37-2.93,4.76-5.86,7.14-8.78c2.8-3.43,5.6-6.86,8.4-10.29c2.38-2.92,4.77-5.84,7.15-8.77c3.05-3.76,6.09-7.53,9.14-11.29
			c2.68-3.3,5.36-6.6,8.03-9.9c2.79-3.44,5.58-6.87,8.35-10.32c0.76-0.95,1.54-1.9,2.16-2.94c0.31-0.53,0.45-1.09,0.44-1.65
			c-0.02-0.79-0.35-1.56-0.95-2.19l-2.36-2.36c-1.62,1.53-3.24,3.06-4.87,4.59c-1.94,1.8-3.87,3.61-5.79,5.42
			c-4.92,4.62-9.82,9.26-14.73,13.89c-5.84,5.5-11.68,11.01-17.52,16.51c-6.62,6.23-13.25,12.46-19.87,18.7
			c-3.7,3.48-7.39,6.98-11.09,10.46c-5.71,5.38-11.42,10.77-17.13,16.15c-0.78,0.74-1.57,1.46-2.37,2.17
			c-0.94,0.82-1.43,0.83-2.44,0.08c-0.28-0.21-0.54-0.46-0.81-0.69c-0.08-0.07-0.14-0.13-0.21-0.18c-0.27-0.25-0.54-0.49-0.81-0.74
			c-0.09,0.07-0.19,0.16-0.33,0.29c-2.46,2.25-4.94,4.46-7.35,6.76c-0.81,0.77-1.58,0.79-2.51,0.41c-0.47-0.19-0.69-0.53-0.66-1.04
			c0.04-0.77,0.29-1.43,0.88-1.97c2.29-2.12,4.57-4.26,6.84-6.39c0.17-0.16,0.34-0.32,0.52-0.51c-0.86-0.81-1.73-1.63-2.59-2.44
			c-0.22,0.19-0.41,0.35-0.59,0.51c-2.16,1.95-4.32,3.91-6.48,5.86c-0.39,0.36-0.79,0.73-1.24,1c-0.77,0.47-1.62,0.18-1.94-0.59
			c-0.31-0.74,0.05-2.26,0.66-2.81c1.69-1.54,3.39-3.07,5.07-4.63c0.65-0.6,1.26-1.23,1.88-1.84c-0.86-0.81-1.71-1.62-2.57-2.42
			c-0.02,0.01-0.03,0.03-0.05,0.04c-2.22,2.02-4.45,4.03-6.66,6.06c-0.54,0.49-1.11,0.9-1.86,0.97c-0.81,0.09-1.3-0.23-1.57-1
			c-0.18-0.54-0.17-1.07,0.17-1.53c0.3-0.4,0.65-0.77,1.02-1.11c2.05-1.89,4.12-3.76,6.19-5.65c0.06-0.06,0.12-0.13,0.18-0.22
			c-0.87-0.82-1.74-1.64-2.62-2.47c-0.11,0.1-0.22,0.19-0.32,0.28c-2.06,1.89-4.11,3.79-6.18,5.66c-0.33,0.3-0.69,0.58-1.08,0.76
			c-0.66,0.29-1.28,0.13-1.81-0.37c-0.53-0.49-0.57-1.11-0.32-1.72c0.15-0.37,0.42-0.72,0.7-1.01c0.69-0.69,1.43-1.34,2.14-2.01
			c1.35-1.26,2.7-2.51,4.03-3.78c0.1-0.09,0.17-0.17,0.23-0.25c-0.86-0.81-1.72-1.62-2.58-2.43c0,0-0.01,0.01-0.01,0.01
			c-1.99,1.78-3.98,3.57-5.98,5.36c-0.31,0.27-0.62,0.56-0.96,0.78c-0.81,0.52-1.49,0.45-2.09-0.18c-0.63-0.65-0.72-1.43-0.19-2.18
			c0.22-0.31,0.49-0.59,0.78-0.85c1.92-1.78,3.85-3.54,5.77-5.31c0.03-0.03,0.06-0.06,0.08-0.09c-0.88-0.83-1.75-1.65-2.63-2.48
			c-0.1,0.09-0.19,0.17-0.27,0.25c-1.78,1.62-3.54,3.27-5.35,4.85c-0.45,0.39-1.05,0.67-1.62,0.87c-0.61,0.22-1.18-0.02-1.59-0.52
			c-0.42-0.52-0.46-1.1-0.1-1.66c0.26-0.39,0.54-0.78,0.88-1.1c1.38-1.31,2.78-2.59,4.17-3.9c0.42-0.39,0.82-0.8,1.27-1.25
			c-0.05-0.05-0.11-0.1-0.16-0.15c-0.8-0.76-1.6-1.51-2.41-2.27c-0.06,0.05-0.12,0.1-0.18,0.15c-1.8,1.6-3.58,3.22-5.38,4.82
			c-0.2,0.18-0.41,0.34-0.63,0.48c-0.91,0.55-1.82,0.31-2.36-0.6c-0.47-0.79-0.26-1.66,0.61-2.45c1.3-1.18,2.62-2.34,3.91-3.52
			c0.46-0.42,0.9-0.87,1.39-1.36c-0.87-0.82-1.74-1.64-2.61-2.46c-0.75,0.69-1.5,1.38-2.25,2.07c-1.03,0.94-2.05,1.89-3.1,2.82
			c-0.81,0.71-1.56,0.77-2.26,0.25c-0.92-0.7-1.06-1.69-0.26-2.53c0.8-0.83,1.69-1.58,2.53-2.38c0.9-0.87,1.79-1.75,2.72-2.68
			c-0.86-0.81-1.72-1.61-2.57-2.42c-0.08,0.07-0.16,0.14-0.24,0.21c-1.43,1.3-2.84,2.62-4.28,3.91c-0.37,0.33-0.8,0.63-1.25,0.83
			c-0.67,0.29-1.37,0.04-1.83-0.53c-0.48-0.61-0.53-1.26-0.1-1.9c0.18-0.27,0.41-0.51,0.65-0.73c0.81-0.75,1.63-1.47,2.43-2.23
			c0.67-0.64,1.33-1.3,2.03-1.99c-0.86-0.81-1.72-1.62-2.59-2.43c-0.01,0.01-0.03,0.02-0.04,0.03c-1.42,1.26-2.86,2.51-4.27,3.79
			c-0.57,0.51-1.24,0.7-1.97,0.62c-1.03-0.12-1.58-0.96-1.21-1.93c0.15-0.4,0.44-0.78,0.75-1.08c1.16-1.11,2.35-2.18,3.53-3.27
			c0.2-0.19,0.41-0.39,0.62-0.61c-0.87-0.82-1.75-1.65-2.62-2.47c-0.02,0.02-0.05,0.04-0.07,0.06c-1.27,1.17-2.53,2.34-3.81,3.49
			c-0.3,0.27-0.66,0.51-1.04,0.67c-0.72,0.31-1.37,0.12-1.84-0.46c-0.52-0.64-0.58-1.41-0.13-2.06c0.17-0.24,0.38-0.45,0.6-0.66
			c1.19-1.12,2.38-2.24,3.57-3.36c0.04-0.04,0.09-0.08,0.13-0.13c-0.87-0.82-1.74-1.64-2.61-2.45c-0.17,0.09-0.34,0.22-0.53,0.38
			c-0.96,0.85-1.87,1.75-2.84,2.58c-0.42,0.35-0.92,0.64-1.44,0.84c-0.59,0.23-1.19,0.1-1.64-0.38c-0.45-0.48-0.51-1.09-0.24-1.67
			c0.22-0.47,0.52-0.94,0.9-1.3c1-0.98,2.05-1.89,3.08-2.83c0.03-0.03,0.06-0.06,0.09-0.08c-0.86-0.81-1.73-1.63-2.59-2.44
			c-1,0.9-1.99,1.81-2.99,2.71c-0.26,0.24-0.54,0.48-0.84,0.66c-0.79,0.47-1.58,0.34-2.17-0.32c-0.57-0.64-0.6-1.39-0.08-2.12
			c0.19-0.26,0.43-0.49,0.67-0.72c0.9-0.86,1.82-1.71,2.72-2.58c0.03-0.03,0.05-0.06,0.08-0.09c-0.37-0.35-0.75-0.7-1.12-1.05
			c-0.5-0.47-1-0.94-1.49-1.41c-0.21,0.19-0.42,0.37-0.62,0.55c-0.89,0.79-1.76,1.6-2.67,2.36c-0.65,0.54-1.32,0.55-1.89,0.14
			c-0.72-0.52-0.98-1.23-0.67-2.03c0.15-0.37,0.4-0.74,0.68-1.02c0.65-0.65,1.36-1.24,2.04-1.86c0.19-0.18,0.38-0.37,0.57-0.55
			c-0.87-0.82-1.74-1.64-2.61-2.46c-0.15,0.12-0.3,0.25-0.44,0.37c-0.65,0.57-1.26,1.18-1.93,1.72c-0.39,0.3-0.85,0.57-1.32,0.69
			c-1.19,0.3-2.15-0.64-1.88-1.85c0.09-0.41,0.35-0.82,0.63-1.14c0.41-0.47,0.91-0.85,1.36-1.29c0.32-0.31,0.64-0.63,0.97-0.96
			c-0.96-0.91-1.92-1.81-2.88-2.72c-0.15,0.18-0.29,0.36-0.44,0.53c-0.61,0.69-1.2,1.4-1.9,2c-0.69,0.6-1.62,0.43-2.22-0.27
			c-0.67-0.77-0.67-1.61,0.02-2.3c0.25-0.25,0.54-0.46,0.81-0.69c0.51-0.43,1.02-0.87,1.54-1.32c-0.13-0.12-0.26-0.25-0.39-0.37
			c-0.79-0.75-1.59-1.48-2.38-2.23c-0.68,0.59-1.33,1.19-2.03,1.76c-0.88,0.72-1.74,0.65-2.44-0.14c-0.65-0.74-0.62-1.59,0.16-2.38
			c0.56-0.57,1.17-1.08,1.77-1.62c-0.29-0.27-0.58-0.54-0.87-0.81c-0.66-0.62-1.31-1.24-1.97-1.86c-0.25,0.31-0.49,0.62-0.74,0.91
			c-0.27,0.31-0.59,0.6-0.93,0.82c-0.85,0.53-1.75,0.28-2.39-0.61c-0.5-0.7-0.36-1.5,0.4-2.12c0.27-0.22,0.59-0.4,0.89-0.58
			c0.21-0.13,0.43-0.25,0.67-0.39c-0.26-0.24-0.52-0.49-0.78-0.73c-0.02,0.01-0.04,0.02-0.06,0.02l-2.31,2.31
			c-0.21,0.22-0.38,0.45-0.52,0.7c-0.27,0.47-0.42,0.97-0.43,1.49c-0.01,0.55,0.13,1.11,0.44,1.65c0.62,1.04,1.4,1.99,2.16,2.94
			c2.77,3.45,5.56,6.88,8.35,10.32c2.67,3.3,5.35,6.6,8.03,9.9c3.05,3.76,6.09,7.53,9.14,11.29c2.38,2.93,4.77,5.85,7.15,8.77
			c2.8,3.43,5.6,6.86,8.4,10.29c2.38,2.93,4.76,5.85,7.14,8.78c2.6,3.21,5.19,6.43,7.78,9.64c2.28,2.82,4.54,5.65,6.83,8.46
			c2.88,3.55,5.78,7.09,8.68,10.63c1.6,1.96,3.2,3.91,4.79,5.87c0.54,0.66,1.05,1.36,1.6,2.03c0.07,0.08,0.12,0.16,0.18,0.24
			c0.09,0.13,0.15,0.25,0.2,0.37c0.03,0.12,0.06,0.24,0.06,0.35h0c0,0-13.46,19.33-38.66,28.97c-0.35,0.06-0.7,0.13-1.05,0.2
			c-0.14,0.03-0.22,0.05-0.22,0.05v0c-0.11,0.03-0.23,0.05-0.34,0.08c-0.87,0.19-1.71,0.49-2.57,0.74
			c-1.75,0.52-3.44,1.14-5.08,1.85c-0.04,0.01-0.07,0.02-0.11,0.03h0.05c-6.73,2.91-12.49,7.32-17.42,12.95
			c-2.23,2.55-4.25,5.27-6.39,7.9c-2.65,3.27-5.5,6.32-9.15,8.52c-0.8,0.48-1.16,1.27-1.05,2.2c0.34,2.74,0.68,5.49,1.09,8.22
			c0.26,1.8,1.12,2.66,2.94,2.98c2.16,0.39,3.74,1.56,4.91,3.38c2.51,3.92,4.99,7.88,7.57,11.76c1.26,1.9,2.61,3.77,4.13,5.47
			c4.15,4.65,9.29,7.92,15.07,10.2c5.77,2.27,11.78,2.96,17.94,2.39c5.55-0.52,10.9-1.77,15.92-4.25c3.4-1.68,6.4-3.9,8.85-6.79
			c2.65-3.13,5.05-6.46,7.24-9.93c3.44-5.46,6.11-11.27,7.82-17.51c0.21-0.77,0.48-1.53,0.81-2.26c0.37-0.83,0.92-1.44,1.63-1.85
			c0.04-0.02,0.09-0.05,0.13-0.07c0.04-0.02,0.08-0.04,0.13-0.06c0.18-0.08,0.37-0.16,0.56-0.22c0.04-0.01,0.07-0.03,0.11-0.04
			c0.03-0.01,0.06-0.02,0.09-0.03c0.16-0.04,0.32-0.08,0.49-0.1c0.32-0.05,0.65-0.11,0.97-0.13c1.55-0.1,2.93,0.15,4.07,0.89
			c0.51,0.39,0.92,0.92,1.22,1.58c0.33,0.72,0.6,1.49,0.81,2.26c1.71,6.24,4.38,12.04,7.82,17.51c2.19,3.48,4.58,6.8,7.24,9.93
			c2.46,2.9,5.46,5.12,8.85,6.79c5.02,2.48,10.37,3.73,15.92,4.25c6.16,0.58,12.17-0.12,17.94-2.39c5.77-2.27,10.91-5.54,15.07-10.2
			c1.52-1.7,2.87-3.57,4.13-5.47c2.58-3.88,5.06-7.83,7.57-11.76c1.16-1.82,2.75-2.99,4.91-3.37c1.81-0.32,2.67-1.18,2.94-2.98
			c0.4-2.73,0.75-5.48,1.09-8.22C299.09,260.94,298.73,260.15,297.93,259.67z M180.37,287.33c-6.43,8.31-14.96,13.05-25.4,14.17
			c-9.3,0.99-17.85-1.3-25.4-6.78c-8.2-5.94-13.16-13.96-14.56-24.07c-0.34-2.42-0.27-4.85,0.04-7.28c0.01-0.08,0.05-0.15,0.13-0.37
			c0.25,0.31,0.46,0.54,0.64,0.79c4.08,5.77,8.15,11.55,12.23,17.32c0.12,0.17,0.25,0.33,0.37,0.5c0.93,1.28,2.77,0.98,3.47-0.35
			c0.96-1.83,1.14-3.7,0.03-5.52c-0.69-1.14-1.48-2.22-2.32-3.26c-4.2-5.16-8.43-10.29-12.66-15.43c-0.57-0.69-0.72-1.44-0.44-2.24
			c2.17-6.16,5.49-11.59,10.48-15.87c5.94-5.08,12.91-7.84,20.63-8.64c9.75-1.01,18.59,1.57,26.29,7.59
			c8.16,6.37,12.78,14.81,13.64,25.17C188.29,272.04,185.89,280.2,180.37,287.33z M207.55,252.18c-0.88-0.16-3.74-0.61-7.55-0.61
			l0,0c0,0,0,0,0,0s0,0,0,0l0,0c-4.01,0-6.97,0.5-7.68,0.63c-1.05,0-1.91-0.4-2.57-1.31c-1.77-2.42-3.54-4.85-5.34-7.24
			c-1.52-2.02-3.01-4.05-4.64-5.98c-2.29-2.71-5.17-4.59-8.33-6.02v0c-3.35-1.65-6.63-2.75-9.71-3.48
			c-1.02-0.42-2.32-0.88-3.97-1.39c0,0,23.19-14.98,42.24-16.4c19.06,1.42,42.24,16.4,42.24,16.4c-1.6,0.5-2.87,0.95-3.87,1.36
			c-3.11,0.73-6.43,1.84-9.81,3.5v0c-3.17,1.44-6.04,3.31-8.33,6.02c-1.63,1.93-3.12,3.97-4.64,5.98c-1.8,2.4-3.57,4.82-5.34,7.24
			C209.56,251.82,208.66,252.21,207.55,252.18z M285,270.63c-1.4,10.11-6.37,18.13-14.56,24.07c-7.56,5.48-16.1,7.77-25.4,6.78
			c-10.45-1.12-18.98-5.86-25.4-14.17c-5.52-7.13-7.92-15.29-7.17-24.28c0.86-10.36,5.48-18.8,13.64-25.17
			c7.7-6.02,16.54-8.6,26.29-7.59c7.72,0.79,14.69,3.56,20.63,8.64c5,4.28,8.31,9.71,10.48,15.87c0.28,0.8,0.12,1.56-0.44,2.24
			c-4.23,5.13-8.46,10.27-12.66,15.43c-0.84,1.03-1.63,2.12-2.32,3.26c-1.1,1.82-0.92,3.69,0.03,5.52c0.7,1.34,2.54,1.63,3.47,0.35
			c0.12-0.17,0.26-0.33,0.37-0.5c4.08-5.77,8.15-11.55,12.23-17.32c0.18-0.25,0.39-0.48,0.64-0.79c0.08,0.21,0.12,0.29,0.13,0.37
			C285.27,265.78,285.34,268.21,285,270.63z"/>
	</g>
	<g class="st0">
		<path class="st3" d="M269.59,234.19c-0.03,38.07-31.01,69.02-69.08,69.02c-38.07,0-69.03-30.96-69.08-69.01v-0.16l-0.01-39.13
			l-0.05-104.36v-2.41H121v2.41l0.07,139.5l0.14,8.67c0,0.01,0.2,2.66,0.2,2.66l0.11,1.2c0,0.01,0,0.02,0,0.02l0.01,0.03
			c2.12,19.91,11.64,37.66,25.73,50.43c14.09,12.76,32.78,20.55,53.25,20.55c43.81,0,79.45-35.63,79.48-79.43H269.59z"/>
		<path class="st3" d="M200.51,282.33c-23.94,0-44.47-17.78-47.92-41.42h-10.56c3.53,29.6,28.62,51.89,58.48,51.89
			c32.49,0,58.92-26.43,58.92-58.92c0-24.16-14.51-45.61-36.97-54.66c-6.96-2.81-14.31-4.24-21.82-4.25h-0.25
			c-20.99-0.07-38.06-17.19-38.06-38.18c0-21.05,17.13-38.18,38.18-38.18c20.89,0,37.95,16.92,38.17,37.78h10.47
			c-0.22-26.63-21.97-48.24-48.64-48.24c-26.82,0-48.65,21.82-48.65,48.65c0,18.39,10.22,35.01,26.66,43.38
			c6.83,3.48,14.19,5.25,21.86,5.27h0.25c26.65,0.06,48.33,21.8,48.33,48.45C248.95,260.59,227.22,282.33,200.51,282.33z"/>
	</g>
	<g>
		<path class="st4" d="M136.9,172.41h-2.88v16.11h2.17c4.94,0,5.78-2.7,5.78-7.38v-2.36C141.98,175.29,141.3,172.41,136.9,172.41z"
			/>
		<path class="st4" d="M231.57,163.66c0,0-0.02-0.01-0.06-0.03C231.55,163.65,231.57,163.66,231.57,163.66z"/>
		<path class="st4" d="M288.68,210.51c0.22,0.48,0.67,0.61,1.18,0.39c0.19-0.08,0.38-0.19,0.54-0.32c0.34-0.29,0.69-0.58,0.97-0.91
			c1.02-1.2,1.98-2.44,3.01-3.64c1.39-1.62,2.51-3.41,3.52-5.25c1.58-2.89,2.84-5.9,3.43-9.12c0.14-0.78,0.02-1.53-0.35-2.24
			c-0.47-0.91-1.4-1.25-2.38-0.83c-0.48,0.21-0.95,0.5-1.34,0.84c-0.61,0.53-1.18,1.11-1.7,1.72c-1.3,1.53-2.37,3.2-3.36,4.92
			c-0.34,0.59-0.67,1.2-0.94,1.82c-0.8,1.91-1.51,3.86-2.07,5.84c-0.44,1.56-0.82,3.13-0.87,4.75c0.02,0.32,0,0.65,0.06,0.96
			C288.44,209.81,288.52,210.18,288.68,210.51z"/>
		<path class="st4" d="M166.6,172.35c-2.85,0-4.39,1.91-4.39,5.97v24.15c0,3.99,1.54,5.86,4.4,5.86c3.08,0,4.46-1.75,4.46-5.97
			v-5.32c-1.73-5.33-0.07-7.98-0.07-7.98s0,0.19,0.07,0.5v-11.29C171.07,174.45,169.82,172.35,166.6,172.35z"/>
		<path class="st4" d="M183.1,203.69c-1.34-0.08-2.71-0.23-4.02-0.47c-0.13,2.09-0.52,3.89-1.16,5.41
			C179.55,207.29,181.28,205.67,183.1,203.69z"/>
		<path class="st4" d="M210.24,176.55c-0.03-0.01-0.07-0.02-0.1-0.04c-4.48,6.99-8.96,13.97-13.47,21.01
			c3.16-0.11,5.67-0.48,7.19-0.76c0.96-2.93,1.93-5.87,2.89-8.8c1.19-3.65,2.43-7.28,3.39-10.99
			C210.18,176.83,210.21,176.69,210.24,176.55z"/>
		<polygon points="80.45,192.38 91.74,192.38 91.74,185.57 80.45,185.57 80.45,173.17 92.36,173.17 92.36,166.3 72.53,166.3 
			72.53,214.31 92.46,214.31 93.46,207.5 80.45,207.5 		"/>
		<polygon points="122.57,166.3 114.29,166.3 109.6,182.19 109.53,182.19 104.8,166.3 96.04,166.3 104.72,189.89 95.63,214.31 
			103.83,214.31 109.25,196.95 109.32,196.95 114.39,214.31 123.16,214.31 113.93,188.79 		"/>
		<path d="M137.53,166.3h-11.42v48.01h7.92v-19.74h3.06c9.73,0,12.76-5.26,12.76-13.19v-2.83
			C149.84,170.07,145.69,166.3,137.53,166.3z M141.98,181.14c0,4.69-0.85,7.38-5.78,7.38h-2.17v-16.11h2.88
			c4.4,0,5.08,2.88,5.08,6.37V181.14z"/>
		<path d="M160.27,213.15c0.37,0.22,0.76,0.42,1.18,0.59c1.17,0.48,2.51,0.72,4.04,0.59c2.99-0.13,7.19-1.4,12.43-5.7
			c0.64-1.52,1.02-3.32,1.16-5.41c-3.32-0.62-6.25-1.87-7.28-4.27c-0.29-0.67-0.53-1.31-0.73-1.92v5.32c0,4.22-1.38,5.97-4.46,5.97
			c-2.86,0-4.4-1.87-4.4-5.86v-24.15c0-4.06,1.53-5.97,4.39-5.97c3.21,0,4.46,2.11,4.46,5.92v11.29c0.26,1.3,1.56,4.82,8.07,6.7
			v-17.21c0-9.24-4.59-13.44-12.38-13.44c-7.66,0-12.61,4.19-12.61,13.39v22.6c0,1.13,0.06,2.18,0.18,3.16
			c0,0.01,0.34,1.11,0.97,2.53C156.11,208.99,157.69,211.62,160.27,213.15z"/>
		<path class="st5" d="M325.89,211.35c-0.02-0.15-0.04-0.29-0.06-0.44c-0.25-2.94-1.4-4.25-1.4-4.25s0,0.61-0.23,1.44
			c-0.58,1.49-2.47,3.85-8.49,5.71c-0.92,0.26-1.84,0.49-2.78,0.7c-1.01,0.23-2.01,0.45-3.02,0.66c0,0,0,0,0,0
			c-0.92,0.16-1.72,0.33-2.41,0.49c-6.14,1.22-12.33,2.19-18.56,2.97c-3.41,0.43-6.84,0.8-10.27,1.13
			c-2.97,0.29-5.95,0.53-8.93,0.73c-3.9,0.25-7.8,0.47-11.7,0.64c-3.69,0.16-7.38,0.28-11.08,0.35c-6.04,0.12-12.08,0.14-18.12-0.16
			c-3.69-0.18-7.37-0.4-11.03-0.93c-2.16-0.32-4.28-0.78-6.34-1.48c-1.1-0.37-2.13-0.87-3.01-1.62c-0.63-0.54-0.92-1.19-0.94-1.99
			c-0.07-2.28,0.26-4.53,0.66-6.77c0.61-3.44,1.48-6.82,2.47-10.17c2.31-7.87,5.35-15.49,8.98-22.9c1.36-2.78,2.78-5.53,4.56-8.09
			c0.71-1.03,1.48-2.03,2.28-3c0.89-0.99,1.95-1.26,2.88-1.25c1.11,0.08,1.85,0.37,2.11,0.48l0.1,0.05c0,0-0.02-0.01-0.06-0.03
			c0.04,0.02,0.06,0.03,0.06,0.03s-0.47-0.78-1.8-1.71c-0.12-0.09-0.25-0.18-0.39-0.26c-1.46-0.92-3.78-1.92-7.34-2.41
			c-4.17-0.58-8.12,3.75-10.83,7.76c-1.9,2.16-3.66,4.43-5.37,6.72c-4.41,5.92-8.79,11.85-13.19,17.77
			c-1.14,1.53-2.3,3.04-3.45,4.55c0,0-0.4,0.52-1.08,1.35c-3.75-0.08-6.68-0.54-8.97-1.2c-6.5-1.87-7.81-5.4-8.07-6.7
			c-0.06-0.31-0.07-0.5-0.07-0.5s-1.67,2.65,0.07,7.98c0.2,0.61,0.44,1.24,0.73,1.92c1.04,2.39,3.96,3.64,7.28,4.27
			c1.31,0.25,2.68,0.39,4.02,0.47c-1.83,1.98-3.55,3.6-5.18,4.94c-5.24,4.3-9.44,5.57-12.43,5.7c-1.53,0.13-2.87-0.12-4.04-0.59
			c-0.41-0.17-0.81-0.36-1.18-0.59c-2.58-1.53-4.16-4.15-4.97-5.86c-0.63-1.42-0.97-2.52-0.97-2.53c0,0,0,0,0,0s-0.1,0.95,0.02,2.38
			c0.04,0.51,0.11,1.07,0.23,1.67c0.05,0.29,0.12,0.61,0.21,0.95c0.92,3.71,3.5,8.33,10.51,9.6c0.21,0.04,0.43,0.08,0.65,0.11
			c0,0,0,0,0,0c0,0,0,0,0,0c0.01,0,0.01,0,0.02,0c12.92,1.87,22.96-9.75,22.96-9.75l0,0c1.61-1.75,3.14-3.82,4.52-6.26
			c2.62-0.07,5.58-0.22,8.01-0.56c-0.56,1.53-1.12,3.06-1.69,4.58c-0.99,2.61-1.72,5.28-2.09,8.03c-0.15,1.15-0.15,2.3,0.09,3.44
			c0.62,2.91,2.2,5.29,4.57,7.23c1.97,1.61,4.23,2.8,6.6,3.79c2.9,1.21,5.92,2.08,8.98,2.86c6.08,1.54,12.28,2.47,18.53,3.12
			c2.9,0.3,5.81,0.55,8.72,0.76c2.91,0.21,5.83,0.38,8.75,0.5c3.25,0.13,6.5,0.21,9.75,0.28c6.55,0.14,13.1,0.12,19.65-0.13
			c2.69-0.1,5.38-0.21,8.07-0.37c2.59-0.16,5.17-0.33,7.75-0.59c2.97-0.3,5.93-0.66,8.88-1.08c3.39-0.48,6.72-1.23,10.01-2.17
			c2.42-0.69,4.23-2.05,5.43-4.12c0.25-0.43,0.48-0.87,0.69-1.32c0.77-1.66,1.12-3.42,1.36-5.21c0.29-2.16,0.44-4.33,0.44-6.51
			c0-0.24,0.04-0.49,0.07-0.73v-2.12C325.97,212.54,325.96,211.94,325.89,211.35z M203.87,196.76c-1.53,0.29-4.03,0.65-7.19,0.76
			c4.51-7.04,8.99-14.02,13.47-21.01c0.03,0.01,0.07,0.02,0.1,0.04c-0.03,0.14-0.06,0.28-0.1,0.42c-0.96,3.71-2.2,7.35-3.39,10.99
			C205.79,190.9,204.83,193.83,203.87,196.76z"/>
		<path class="st5" d="M227.61,173.22c-4.05,7.44-7.41,15.13-9.86,23.17c-1.05,3.47-2.02,6.95-2.17,10.59
			c-0.05,1.29-0.02,2.58,0.26,3.85c0.22,0.99,0.64,1.9,1.34,2.68c0.89,0.99,2.02,1.37,3.38,1.14c0.82-0.14,1.57-0.43,2.29-0.81
			c0.83-0.45,1.56-1.02,2.26-1.62c1.68-1.43,3.2-2.99,4.66-4.62c0.11-0.12,0.23-0.24,0.43-0.44c0.04,0.28,0.08,0.43,0.09,0.59
			c0.08,0.7,0.11,1.41,0.23,2.1c0.2,1.18,0.66,2.27,1.49,3.21c0.72,0.82,1.63,1.32,2.76,1.44c0.19,0.02,0.38,0.03,0.57,0.03
			c0.5,0.01,1-0.05,1.49-0.15c1.36-0.3,2.51-0.96,3.57-1.78c1.25-0.96,2.29-2.11,3.24-3.33c0.05-0.07,0.1-0.13,0.16-0.19
			c0,0,0,0,0,0c0.09-0.09,0.21-0.15,0.39-0.13c0.22,1.31,0.76,2.51,1.51,3.62c0.8,1.2,1.91,2.06,3.38,2.47
			c1.32,0.37,2.68,0.48,4.04,0.29c1.81-0.25,3.56-0.69,5.26-1.32c3.33-1.25,6.19-3.13,8.64-5.57c0.08-0.08,0.19-0.12,0.35-0.23
			c0.07,0.5,0.13,0.9,0.19,1.31c0.06,0.37,0.14,0.73,0.24,1.09c0.02,0.07,0.04,0.13,0.06,0.2c0.02,0.05,0.03,0.1,0.05,0.14
			c0.04,0.1,0.07,0.21,0.11,0.31c0.01,0.03,0.03,0.07,0.04,0.1c0.04,0.1,0.08,0.2,0.13,0.3c0.02,0.05,0.05,0.1,0.08,0.16
			c0.04,0.07,0.07,0.14,0.11,0.21c0.05,0.08,0.1,0.17,0.15,0.25c0.02,0.03,0.04,0.06,0.06,0.1c0.12,0.18,0.24,0.36,0.38,0.54
			c0.76,0.94,1.76,1.51,3.03,1.61c0.04,0,0.08,0,0.12,0.01c0.01,0,0.03,0,0.04,0c0.07,0,0.15,0.01,0.22,0.01c0.04,0,0.07,0,0.11,0
			c0.11,0,0.22,0,0.32-0.01c0.04,0,0.07,0,0.11-0.01c0.07,0,0.13-0.01,0.2-0.02c0.02,0,0.05,0,0.07-0.01
			c0.23-0.02,0.45-0.06,0.68-0.11c0.02,0,0.04-0.01,0.05-0.01c0,0,0.01,0,0.01,0c0.14-0.03,0.29-0.07,0.43-0.11
			c0.08-0.02,0.16-0.05,0.24-0.08c0.02-0.01,0.03-0.01,0.05-0.01c0.01,0,0.01-0.01,0.02-0.01c1.04-0.35,1.96-0.91,2.82-1.57
			c1.08-0.84,2.01-1.81,2.85-2.85c0.12-0.14,0.23-0.28,0.35-0.42c0.12-0.14,0.24-0.28,0.37-0.43c0.23,0.21,0.24,0.43,0.26,0.66
			c0.17,1.4,0.69,2.68,1.69,3.75c0.7,0.76,1.58,1.23,2.66,1.36c0.94,0.11,1.84-0.07,2.67-0.48c0.65-0.32,1.27-0.7,1.84-1.14
			c2.76-2.11,4.99-4.65,6.96-7.41c0.1-0.14,0.17-0.3,0.44-0.29c0.01,0.15,0.02,0.3,0.02,0.44c-0.01,0.92-0.05,1.84-0.02,2.76
			c0.05,1.38,0.37,2.71,1.1,3.92c1.03,1.72,2.72,2.41,4.78,1.98c1.24-0.26,2.34-0.8,3.34-1.51c1.14-0.81,2.14-1.77,3.11-2.75
			c2.01-2.03,3.76-4.26,5.45-6.53c1.71-2.29,3.37-4.61,4.72-7.11c0.19-0.36,0.38-0.72,0.57-1.07c0.13-0.23,0.08-0.42-0.13-0.57
			c-0.12-0.08-0.25-0.15-0.38-0.2c-0.6-0.22-1.4-0.01-1.75,0.64c-1.06,1.98-2.25,3.88-3.55,5.73c-2.04,2.93-4.34,5.66-6.92,8.19
			c-0.87,0.86-1.8,1.66-2.92,2.24c-0.26,0.13-0.53,0.25-0.81,0.32c-0.7,0.17-1.18-0.08-1.41-0.73c-0.04-0.12-0.07-0.24-0.09-0.36
			c-0.18-1.04-0.02-2.05,0.27-3.05c0.8-2.8,1.87-5.52,3.12-8.18c1.34-2.85,2.9-5.6,4.63-8.27c0.79-1.22,1.73-2.31,3.02-3.11
			c0.67-0.42,0.65-0.63-0.04-1.01c-1.93-1.07-3.99-1.85-6.22-2.2c-1.44-0.23-2.04,0.03-2.72,1.25c-0.43,0.77-0.85,1.56-1.27,2.34
			c-0.06,0.11-0.14,0.22-0.24,0.38c-0.1-0.29-0.17-0.51-0.24-0.73c-0.38-1.1-0.85-2.16-1.57-3.11c-0.57-0.76-1.26-1.38-2.19-1.73
			c-1.32-0.51-2.69-0.65-4.1-0.44c-1.39,0.21-2.62,0.78-3.74,1.56c-1.79,1.23-3.17,2.8-4.32,4.55c-2.05,3.13-3.42,6.52-4.37,10.06
			c-0.34,1.26-0.63,2.54-0.99,3.79c-0.28,0.97-0.67,1.89-1.19,2.73c-0.5,0.62-1,1.25-1.51,1.86c-0.02,0.03-0.05,0.05-0.07,0.08
			c-0.01,0.01-0.01,0.01-0.02,0.02c-0.17,0.16-0.31,0.36-0.47,0.53c-0.76,0.79-1.5,1.59-2.28,2.36c-0.14,0.13-0.29,0.25-0.44,0.38
			c-0.16,0.14-0.33,0.27-0.51,0.39c-0.3,0.2-0.62,0.37-0.96,0.51c-0.03,0.01-0.07,0.03-0.1,0.04c-0.01,0-0.03,0.01-0.04,0.01
			c-0.57,0.18-1.05,0.09-1.33-0.24c-0.01-0.01-0.01-0.02-0.02-0.03c-0.01-0.01-0.01-0.02-0.02-0.03c-0.1-0.14-0.17-0.33-0.21-0.55
			c-0.05-0.29-0.08-0.58-0.09-0.88c0-0.06,0-0.12,0-0.18c0-0.05,0-0.09,0-0.14c0-0.11,0.01-0.22,0.02-0.33
			c0.02-0.21,0.04-0.41,0.07-0.62c0.14-0.91,0.33-1.82,0.57-2.71c0.12-0.46,0.25-0.91,0.39-1.37c0,0,0,0-0.01,0
			c1.04-3.53,2.43-6.95,4.01-10.31c0.99-2.11,2.14-4.14,3.49-6.07c0.73-0.98,1.51-1.65,1.93-1.96c0.01-0.01,0.02-0.01,0.03-0.02
			c0.11-0.07,0.2-0.14,0.27-0.2c0,0,0,0,0,0l0,0c0.3-0.25,0.3-0.45,0-0.68c0,0,0,0,0,0c-0.09-0.07-0.2-0.14-0.33-0.21
			c-0.01-0.01-0.03-0.01-0.04-0.02c-3.32-1.98-6.63-2.05-6.63-2.05c-0.98-0.13-1.72,0.27-2.2,1.08c-0.09,0.15-0.17,0.3-0.24,0.45
			c-0.57,1.21-1.16,2.4-1.69,3.63c-1.52,3.53-2.66,7.16-3.53,10.85c0,0,0,0,0,0c-0.03,0.14-0.07,0.29-0.1,0.43
			c-0.25,1.08-0.48,2.17-0.68,3.27c-0.04,0.23-0.11,0.44-0.21,0.64c0,0.07,0,0.14,0,0.21c-0.13,0.31-0.31,0.6-0.54,0.88
			c-2.43,2.85-5.45,4.99-8.95,6.57c-0.69,0.31-1.42,0.56-2.16,0.77c-0.56,0.16-1.15,0.27-1.74,0.28c-1.29,0.03-2.24-0.54-2.75-1.65
			c-0.18-0.39-0.29-0.81-0.38-1.23c-0.21-1.06-0.06-2.11,0.14-3.15c0.57-3.05,1.56-5.98,2.93-8.8c0.99-2.03,2.11-3.99,3.45-5.83
			c0.7-0.96,1.51-1.82,2.51-2.52c0.4-0.28,0.83-0.49,1.32-0.58c0.1-0.02,0.2,0,0.36,0c-0.22,0.41-0.42,0.76-0.61,1.11
			c-0.43,0.83-0.88,1.65-1.29,2.48c-0.36,0.73-0.57,1.5-0.58,2.31c-0.03,1.97,0.92,3.44,2.63,4.52c0.48,0.3,1,0.08,1.13-0.45
			c0.04-0.15,0.02-0.31,0.04-0.46c0.04-0.36,0.07-0.73,0.14-1.09c0.2-0.98,0.68-1.85,1.32-2.65c0.85-1.07,1.72-2.13,2.58-3.2
			c0.2-0.24,0.39-0.5,0.56-0.75c0.48-0.7,0.49-1.41,0.01-2.12c-0.2-0.3-0.42-0.59-0.65-0.86c-1.82-2.11-4.19-3.46-6.91-4.3
			c-1.22-0.37-2.46-0.34-3.68,0.07c-0.86,0.29-1.62,0.74-2.34,1.25c-1.93,1.35-3.38,3.07-4.57,5.01c-2.83,4.62-4.63,9.57-5.38,14.84
			c-0.05,0.33-0.16,0.62-0.38,0.88c-0.64,0.78-1.26,1.57-1.9,2.35c-1,1.2-2.06,2.35-3.27,3.37c-0.48,0.4-0.99,0.76-1.61,0.96
			c-0.21,0.07-0.4,0.1-0.58,0.09c-0.54-0.01-0.92-0.34-1.02-0.95c-0.08-0.5-0.11-1.01-0.06-1.51c0.13-1.42,0.48-2.81,0.88-4.19
			c1.06-3.71,2.5-7.3,4.15-10.81c0.99-2.11,2.14-4.14,3.49-6.07c0.73-0.98,1.51-1.65,1.93-1.96c0.01-0.01,0.02-0.01,0.03-0.02
			c0.08-0.05,0.14-0.1,0.2-0.14c0.01-0.01,0.03-0.02,0.04-0.03c0.01-0.01,0.03-0.02,0.04-0.03c0,0,0,0,0,0l0,0
			c0.01-0.01,0.01-0.01,0.02-0.02c0.02-0.01,0.03-0.03,0.05-0.04c0.01-0.01,0.03-0.03,0.04-0.04c0.02-0.02,0.04-0.05,0.06-0.07
			c0.01-0.01,0.01-0.03,0.02-0.04c0.01-0.01,0.01-0.03,0.02-0.04c0.01-0.01,0.01-0.03,0.01-0.04c0-0.01,0-0.02,0.01-0.03
			c0-0.01,0-0.03,0-0.04c0-0.01,0-0.01,0-0.02c0-0.03-0.01-0.06-0.03-0.09c0-0.01-0.01-0.01-0.01-0.02
			c-0.01-0.02-0.02-0.03-0.04-0.05c0-0.01-0.01-0.01-0.01-0.02c-0.03-0.04-0.07-0.08-0.13-0.12c0,0,0,0,0,0
			c-0.02-0.02-0.05-0.03-0.07-0.05c-0.01-0.01-0.02-0.02-0.03-0.02c-0.03-0.02-0.06-0.04-0.1-0.06c-0.01,0-0.02-0.01-0.02-0.01
			c-0.04-0.02-0.07-0.04-0.11-0.06c-0.01-0.01-0.03-0.01-0.04-0.02c-3.32-1.98-6.63-2.05-6.63-2.05c-0.12-0.02-0.24-0.02-0.36-0.02
			c-0.81,0-1.42,0.4-1.84,1.11c-0.09,0.15-0.17,0.3-0.24,0.45c-0.57,1.21-1.16,2.4-1.69,3.63c-2.02,4.7-3.37,9.57-4.31,14.55
			c0,0.02-0.01,0.05-0.02,0.07c-0.01,0.07-0.03,0.13-0.05,0.2c-0.01,0.04-0.02,0.07-0.04,0.11c-0.03,0.08-0.06,0.16-0.09,0.24
			c-0.09,0.19-0.21,0.37-0.36,0.54c-0.83,0.93-1.63,1.88-2.48,2.8c-1.16,1.26-2.37,2.46-3.7,3.57c-0.51,0.43-1.07,0.82-1.71,1.07
			c-0.6,0.23-0.96,0.1-1.26-0.43c-0.28-0.49-0.34-1.02-0.32-1.56c0.06-1.32,0.28-2.63,0.72-3.89c0.7-1.98,1.42-3.95,2.2-5.9
			c3.59-8.88,8.07-17.34,13.59-25.32c0.09-0.13,0.18-0.26,0.28-0.39c0.17-0.22,0.36-0.48,0.57-0.79c0.55-0.76,1.13-1.5,1.76-2.2
			c1.45-1.47,2.65-1.82,3.49-1.82c0.83,0.12,1.29,0.37,1.29,0.37s-0.54-0.91-2.2-1.82c-1.22-0.75-3.02-1.66-4.91-1.86
			c-3.33-0.36-4.77-0.16-6.28,1.9C229.91,169.53,228.65,171.31,227.61,173.22z M289.19,203.74c0.56-1.99,1.27-3.93,2.07-5.84
			c0.26-0.63,0.6-1.23,0.94-1.82c0.98-1.72,2.05-3.39,3.36-4.92c0.52-0.61,1.09-1.19,1.7-1.72c0.39-0.34,0.86-0.63,1.34-0.84
			c0.98-0.43,1.92-0.09,2.38,0.83c0.36,0.71,0.49,1.46,0.35,2.24c-0.59,3.22-1.85,6.22-3.43,9.12c-1.01,1.85-2.13,3.63-3.52,5.25
			c-1.03,1.2-1.99,2.44-3.01,3.64c-0.28,0.33-0.63,0.62-0.97,0.91c-0.15,0.13-0.34,0.24-0.54,0.32c-0.51,0.22-0.96,0.09-1.18-0.39
			c-0.15-0.33-0.24-0.7-0.31-1.06c-0.06-0.32-0.04-0.64-0.06-0.96C288.37,206.86,288.75,205.29,289.19,203.74z"/>
		<path class="st5" d="M243.11,171.83c-0.21,0.2-0.41,0.43-0.59,0.68c-0.08,0.11-0.15,0.22-0.22,0.32c-0.59,0.82-1.08,1.68-1.46,2.6
			c-0.29,0.67-0.54,1.36-0.72,2.08c-0.04,0.17-0.07,0.32-0.09,0.46c-0.02,0.11-0.01,0.22,0,0.33c0,0.02,0,0.04,0.01,0.06
			c0,0.01,0.01,0.03,0.01,0.04c0.08,0.36,0.33,0.63,0.81,0.92c0.03,0.02,0.06,0.03,0.08,0.05c0.23,0.15,0.47,0.29,0.71,0.41
			c0.42,0.21,0.84,0.39,1.28,0.54c1.04,0.39,2.15,0.59,3.25,0.77c0.09,0.01,0.17,0.02,0.26,0.03c0.1,0.01,0.19,0.03,0.29,0.04
			c0.15,0.02,0.35-0.06,0.49-0.15c0.08-0.05,0.15-0.12,0.22-0.2c0.11-0.09,0.21-0.21,0.3-0.35c0.18-0.29,0.39-0.57,0.58-0.85
			c0.66-1.03,1.32-2.06,1.98-3.09c0.11-0.18,0.23-0.35,0.34-0.53c0.15-0.21,0.31-0.41,0.49-0.59c0.25-0.23,0.53-0.43,0.87-0.57
			c0.26-0.11,0.37-0.23,0.33-0.42c0.02-0.11-0.02-0.22-0.12-0.37c-0.04-0.06-0.09-0.13-0.15-0.18c-0.03-0.03-0.05-0.06-0.08-0.08
			c-0.11-0.16-0.23-0.3-0.37-0.43c-0.37-0.33-0.76-0.64-1.16-0.92c-0.72-0.53-1.52-0.97-2.4-1.3c-0.43-0.16-0.88-0.29-1.38-0.34
			c-0.26-0.04-0.53-0.07-0.81-0.06c-0.15,0-0.3,0-0.44,0c-0.08,0-0.16,0.02-0.24,0.04C244.32,170.88,243.66,171.28,243.11,171.83z"
			/>
		<path class="st5" d="M277.95,179.32c0.56,0.34,1.16,0.63,1.78,0.88c1.13,0.47,2.34,0.69,3.55,0.89c0.67,0.11,1.19-0.07,1.54-0.64
			c0.18-0.29,0.39-0.57,0.58-0.85c0.73-1.13,1.45-2.26,2.17-3.39c0.36-0.56,0.78-1.06,1.41-1.38c0.07-0.04,0.14-0.08,0.2-0.13
			c0.29-0.23,0.32-0.38,0.12-0.67c-0.04-0.06-0.09-0.13-0.15-0.18c-1.12-1.19-2.42-2.15-4.02-2.73c-0.61-0.22-1.24-0.4-2.05-0.36
			c-1.41-0.03-2.6,0.57-3.47,1.78c-1.11,1.54-1.95,3.19-2.41,5C276.98,178.4,277.13,178.83,277.95,179.32z"/>
	</g>
</g>
<g id="Capa_2">
</g>
</svg>
