<?xml version="1.0" encoding="utf-8"?>
<!-- Generator: Adobe Illustrator 26.1.0, SVG Export Plug-In . SVG Version: 6.00 Build 0)  -->
<svg version="1.1" xmlns="http://www.w3.org/2000/svg" xmlns:xlink="http://www.w3.org/1999/xlink" x="0px" y="0px"
	 viewBox="0 0 400 400" style="enable-background:new 0 0 400 400;" xml:space="preserve">
<style type="text/css">
	.st0{display:none;}
	.st1{display:inline;fill:none;}
	.st2{display:inline;}
	.st3{display:inline;fill:#C6838D;}
</style>
<g id="Capa_3">
	<g class="st0">
		<path class="st1" d="M173.9,237.88c-7.7-6.02-16.54-8.6-26.29-7.59c-7.72,0.79-14.69,3.56-20.63,8.64
			c-5,4.28-8.31,9.71-10.48,15.87c-0.28,0.8-0.12,1.56,0.44,2.24c4.23,5.13,8.46,10.27,12.66,15.43c0.84,1.03,1.63,2.12,2.32,3.26
			c1.1,1.82,0.92,3.69-0.03,5.52c-0.7,1.34-2.54,1.63-3.47,0.35c-0.12-0.17-0.26-0.33-0.37-0.5c-4.08-5.77-8.15-11.55-12.23-17.32
			c-0.18-0.25-0.39-0.48-0.64-0.79c-0.08,0.21-0.12,0.29-0.13,0.37c-0.31,2.43-0.38,4.86-0.04,7.28
			c1.4,10.11,6.37,18.13,14.56,24.07c7.56,5.48,16.1,7.77,25.4,6.78c10.45-1.12,18.98-5.86,25.4-14.17
			c5.52-7.13,7.92-15.29,7.17-24.28C186.67,252.69,182.05,244.26,173.9,237.88z"/>
		<path class="st1" d="M220.23,237.65c2.29-2.71,5.17-4.59,8.33-6.02v0c3.38-1.67,6.7-2.77,9.81-3.5c1.01-0.41,2.27-0.86,3.87-1.36
			c0,0-23.19-14.98-42.24-16.4c-19.06,1.42-42.24,16.4-42.24,16.4c1.66,0.51,2.95,0.98,3.97,1.39c3.08,0.73,6.36,1.83,9.71,3.48v0
			c3.17,1.44,6.04,3.31,8.33,6.02c1.63,1.93,3.12,3.97,4.64,5.98c1.8,2.4,3.57,4.82,5.34,7.24c0.66,0.91,1.52,1.31,2.57,1.31
			c0.7-0.13,3.66-0.63,7.68-0.63l0,0c0,0,0,0,0,0s0,0,0,0l0,0c3.82,0,6.67,0.45,7.55,0.61c1.11,0.03,2.01-0.36,2.7-1.3
			c1.77-2.42,3.54-4.85,5.34-7.24C217.1,241.62,218.6,239.58,220.23,237.65z"/>
		<path class="st1" d="M284.83,262.98c-0.25,0.31-0.46,0.54-0.64,0.79c-4.08,5.77-8.15,11.55-12.23,17.32
			c-0.12,0.17-0.25,0.33-0.37,0.5c-0.93,1.28-2.77,0.98-3.47-0.35c-0.96-1.83-1.14-3.7-0.03-5.52c0.69-1.14,1.48-2.22,2.32-3.26
			c4.2-5.16,8.43-10.29,12.66-15.43c0.57-0.69,0.72-1.44,0.44-2.24c-2.17-6.16-5.49-11.59-10.48-15.87
			c-5.94-5.08-12.91-7.84-20.63-8.64c-9.75-1.01-18.59,1.57-26.29,7.59c-8.16,6.37-12.78,14.81-13.64,25.17
			c-0.75,8.99,1.65,17.15,7.17,24.28c6.43,8.31,14.96,13.05,25.4,14.17c9.3,0.99,17.85-1.3,25.4-6.78
			c8.2-5.94,13.16-13.96,14.56-24.07c0.34-2.42,0.27-4.85-0.04-7.28C284.95,263.27,284.91,263.2,284.83,262.98z"/>
		<path class="st2" d="M297.93,259.67c-3.65-2.2-6.5-5.25-9.15-8.52c-2.14-2.63-4.16-5.35-6.39-7.9
			c-4.92-5.62-10.67-10.02-17.39-12.94h0.01c-0.01,0-0.02,0-0.03-0.01c-1.66-0.72-3.38-1.35-5.16-1.89
			c-0.85-0.26-1.7-0.55-2.57-0.74c-0.11-0.03-0.23-0.05-0.34-0.08v0c0,0-0.08-0.02-0.22-0.05c-0.37-0.08-0.75-0.15-1.12-0.22
			c-25.16-9.64-38.59-28.94-38.59-28.94h-0.05c-0.01-0.34,0.16-0.68,0.48-1.08c0.54-0.67,1.05-1.37,1.6-2.03
			c1.59-1.96,3.2-3.91,4.79-5.87c2.9-3.54,5.79-7.09,8.68-10.63c2.29-2.82,4.55-5.64,6.83-8.46c2.59-3.22,5.18-6.43,7.78-9.64
			c2.37-2.93,4.76-5.86,7.14-8.78c2.8-3.43,5.6-6.86,8.4-10.29c2.38-2.92,4.77-5.84,7.15-8.77c3.05-3.76,6.09-7.53,9.14-11.29
			c2.68-3.3,5.36-6.6,8.03-9.9c2.79-3.44,5.58-6.87,8.35-10.32c0.76-0.95,1.54-1.9,2.16-2.94c0.31-0.53,0.45-1.09,0.44-1.65
			c-0.02-0.79-0.35-1.56-0.95-2.19l-2.36-2.36c-1.62,1.53-3.24,3.06-4.87,4.59c-1.94,1.8-3.87,3.61-5.79,5.42
			c-4.92,4.62-9.82,9.26-14.73,13.89c-5.84,5.5-11.68,11.01-17.52,16.51c-6.62,6.23-13.25,12.46-19.87,18.7
			c-3.7,3.48-7.39,6.98-11.09,10.46c-5.71,5.38-11.42,10.77-17.13,16.15c-0.78,0.74-1.57,1.46-2.37,2.17
			c-0.94,0.82-1.43,0.83-2.44,0.08c-0.28-0.21-0.54-0.46-0.81-0.69c-0.08-0.07-0.14-0.13-0.21-0.18c-0.27-0.25-0.54-0.49-0.81-0.74
			c-0.09,0.07-0.19,0.16-0.33,0.29c-2.46,2.25-4.94,4.46-7.35,6.76c-0.81,0.77-1.58,0.79-2.51,0.41c-0.47-0.19-0.69-0.53-0.66-1.04
			c0.04-0.77,0.29-1.43,0.88-1.97c2.29-2.12,4.57-4.26,6.84-6.39c0.17-0.16,0.34-0.32,0.52-0.51c-0.86-0.81-1.73-1.63-2.59-2.44
			c-0.22,0.19-0.41,0.35-0.59,0.51c-2.16,1.95-4.32,3.91-6.48,5.86c-0.39,0.36-0.79,0.73-1.24,1c-0.77,0.47-1.62,0.18-1.94-0.59
			c-0.31-0.74,0.05-2.26,0.66-2.81c1.69-1.54,3.39-3.07,5.07-4.63c0.65-0.6,1.26-1.23,1.88-1.84c-0.86-0.81-1.71-1.62-2.57-2.42
			c-0.02,0.01-0.03,0.03-0.05,0.04c-2.22,2.02-4.45,4.03-6.66,6.06c-0.54,0.49-1.11,0.9-1.86,0.97c-0.81,0.09-1.3-0.23-1.57-1
			c-0.18-0.54-0.17-1.07,0.17-1.53c0.3-0.4,0.65-0.77,1.02-1.11c2.05-1.89,4.12-3.76,6.19-5.65c0.06-0.06,0.12-0.13,0.18-0.22
			c-0.87-0.82-1.74-1.64-2.62-2.47c-0.11,0.1-0.22,0.19-0.32,0.28c-2.06,1.89-4.11,3.79-6.18,5.66c-0.33,0.3-0.69,0.58-1.08,0.76
			c-0.66,0.29-1.28,0.13-1.81-0.37c-0.53-0.49-0.57-1.11-0.32-1.72c0.15-0.37,0.42-0.72,0.7-1.01c0.69-0.69,1.43-1.34,2.14-2.01
			c1.35-1.26,2.7-2.51,4.03-3.78c0.1-0.09,0.17-0.17,0.23-0.25c-0.86-0.81-1.72-1.62-2.58-2.43c0,0-0.01,0.01-0.01,0.01
			c-1.99,1.78-3.98,3.57-5.98,5.36c-0.31,0.27-0.62,0.56-0.96,0.78c-0.81,0.52-1.49,0.45-2.09-0.18c-0.63-0.65-0.72-1.43-0.19-2.18
			c0.22-0.31,0.49-0.59,0.78-0.85c1.92-1.78,3.85-3.54,5.77-5.31c0.03-0.03,0.06-0.06,0.08-0.09c-0.88-0.83-1.75-1.65-2.63-2.48
			c-0.1,0.09-0.19,0.17-0.27,0.25c-1.78,1.62-3.54,3.27-5.35,4.85c-0.45,0.39-1.05,0.67-1.62,0.87c-0.61,0.22-1.18-0.02-1.59-0.52
			c-0.42-0.52-0.46-1.1-0.1-1.66c0.26-0.39,0.54-0.78,0.88-1.1c1.38-1.31,2.78-2.59,4.17-3.9c0.42-0.39,0.82-0.8,1.27-1.25
			c-0.05-0.05-0.11-0.1-0.16-0.15c-0.8-0.76-1.6-1.51-2.41-2.27c-0.06,0.05-0.12,0.1-0.18,0.15c-1.8,1.6-3.58,3.22-5.38,4.82
			c-0.2,0.18-0.41,0.34-0.63,0.48c-0.91,0.55-1.82,0.31-2.36-0.6c-0.47-0.79-0.26-1.66,0.61-2.45c1.3-1.18,2.62-2.34,3.91-3.52
			c0.46-0.42,0.9-0.87,1.39-1.36c-0.87-0.82-1.74-1.64-2.61-2.46c-0.75,0.69-1.5,1.38-2.25,2.07c-1.03,0.94-2.05,1.89-3.1,2.82
			c-0.81,0.71-1.56,0.77-2.26,0.25c-0.92-0.7-1.06-1.69-0.26-2.53c0.8-0.83,1.69-1.58,2.53-2.38c0.9-0.87,1.79-1.75,2.72-2.68
			c-0.86-0.81-1.72-1.61-2.57-2.42c-0.08,0.07-0.16,0.14-0.24,0.21c-1.43,1.3-2.84,2.62-4.28,3.91c-0.37,0.33-0.8,0.63-1.25,0.83
			c-0.67,0.29-1.37,0.04-1.83-0.53c-0.48-0.61-0.53-1.26-0.1-1.9c0.18-0.27,0.41-0.51,0.65-0.73c0.81-0.75,1.63-1.47,2.43-2.23
			c0.67-0.64,1.33-1.3,2.03-1.99c-0.86-0.81-1.72-1.62-2.59-2.43c-0.01,0.01-0.03,0.02-0.04,0.03c-1.42,1.26-2.86,2.51-4.27,3.79
			c-0.57,0.51-1.24,0.7-1.97,0.62c-1.03-0.12-1.58-0.96-1.21-1.93c0.15-0.4,0.44-0.78,0.75-1.08c1.16-1.11,2.35-2.18,3.53-3.27
			c0.2-0.19,0.41-0.39,0.62-0.61c-0.87-0.82-1.75-1.65-2.62-2.47c-0.02,0.02-0.05,0.04-0.07,0.06c-1.27,1.17-2.53,2.34-3.81,3.49
			c-0.3,0.27-0.66,0.51-1.04,0.67c-0.72,0.31-1.37,0.12-1.84-0.46c-0.52-0.64-0.58-1.41-0.13-2.06c0.17-0.24,0.38-0.45,0.6-0.66
			c1.19-1.12,2.38-2.24,3.57-3.36c0.04-0.04,0.09-0.08,0.13-0.13c-0.87-0.82-1.74-1.64-2.61-2.45c-0.17,0.09-0.34,0.22-0.53,0.38
			c-0.96,0.85-1.87,1.75-2.84,2.58c-0.42,0.35-0.92,0.64-1.44,0.84c-0.59,0.23-1.19,0.1-1.64-0.38c-0.45-0.48-0.51-1.09-0.24-1.67
			c0.22-0.47,0.52-0.94,0.9-1.3c1-0.98,2.05-1.89,3.08-2.83c0.03-0.03,0.06-0.06,0.09-0.08c-0.86-0.81-1.73-1.63-2.59-2.44
			c-1,0.9-1.99,1.81-2.99,2.71c-0.26,0.24-0.54,0.48-0.84,0.66c-0.79,0.47-1.58,0.34-2.17-0.32c-0.57-0.64-0.6-1.39-0.08-2.12
			c0.19-0.26,0.43-0.49,0.67-0.72c0.9-0.86,1.82-1.71,2.72-2.58c0.03-0.03,0.05-0.06,0.08-0.09c-0.37-0.35-0.75-0.7-1.12-1.05
			c-0.5-0.47-1-0.94-1.49-1.41c-0.21,0.19-0.42,0.37-0.62,0.55c-0.89,0.79-1.76,1.6-2.67,2.36c-0.65,0.54-1.32,0.55-1.89,0.14
			c-0.72-0.52-0.98-1.23-0.67-2.03c0.15-0.37,0.4-0.74,0.68-1.02c0.65-0.65,1.36-1.24,2.04-1.86c0.19-0.18,0.38-0.37,0.57-0.55
			c-0.87-0.82-1.74-1.64-2.61-2.46c-0.15,0.12-0.3,0.25-0.44,0.37c-0.65,0.57-1.26,1.18-1.93,1.72c-0.39,0.3-0.85,0.57-1.32,0.69
			c-1.19,0.3-2.15-0.64-1.88-1.85c0.09-0.41,0.35-0.82,0.63-1.14c0.41-0.47,0.91-0.85,1.36-1.29c0.32-0.31,0.64-0.63,0.97-0.96
			c-0.96-0.91-1.92-1.81-2.88-2.72c-0.15,0.18-0.29,0.36-0.44,0.53c-0.61,0.69-1.2,1.4-1.9,2c-0.69,0.6-1.62,0.43-2.22-0.27
			c-0.67-0.77-0.67-1.61,0.02-2.3c0.25-0.25,0.54-0.46,0.81-0.69c0.51-0.43,1.02-0.87,1.54-1.32c-0.13-0.12-0.26-0.25-0.39-0.37
			c-0.79-0.75-1.59-1.48-2.38-2.23c-0.68,0.59-1.33,1.19-2.03,1.76c-0.88,0.72-1.74,0.65-2.44-0.14c-0.65-0.74-0.62-1.59,0.16-2.38
			c0.56-0.57,1.17-1.08,1.77-1.62c-0.29-0.27-0.58-0.54-0.87-0.81c-0.66-0.62-1.31-1.24-1.97-1.86c-0.25,0.31-0.49,0.62-0.74,0.91
			c-0.27,0.31-0.59,0.6-0.93,0.82c-0.85,0.53-1.75,0.28-2.39-0.61c-0.5-0.7-0.36-1.5,0.4-2.12c0.27-0.22,0.59-0.4,0.89-0.58
			c0.21-0.13,0.43-0.25,0.67-0.39c-0.26-0.24-0.52-0.49-0.78-0.73c-0.02,0.01-0.04,0.02-0.06,0.02l-2.31,2.31
			c-0.21,0.22-0.38,0.45-0.52,0.7c-0.27,0.47-0.42,0.97-0.43,1.49c-0.01,0.55,0.13,1.11,0.44,1.65c0.62,1.04,1.4,1.99,2.16,2.94
			c2.77,3.45,5.56,6.88,8.35,10.32c2.67,3.3,5.35,6.6,8.03,9.9c3.05,3.76,6.09,7.53,9.14,11.29c2.38,2.93,4.77,5.85,7.15,8.77
			c2.8,3.43,5.6,6.86,8.4,10.29c2.38,2.93,4.76,5.85,7.14,8.78c2.6,3.21,5.19,6.43,7.78,9.64c2.28,2.82,4.54,5.65,6.83,8.46
			c2.88,3.55,5.78,7.09,8.68,10.63c1.6,1.96,3.2,3.91,4.79,5.87c0.54,0.66,1.05,1.36,1.6,2.03c0.07,0.08,0.12,0.16,0.18,0.24
			c0.09,0.13,0.15,0.25,0.2,0.37c0.03,0.12,0.06,0.24,0.06,0.35h0c0,0-13.46,19.33-38.66,28.97c-0.35,0.06-0.7,0.13-1.05,0.2
			c-0.14,0.03-0.22,0.05-0.22,0.05v0c-0.11,0.03-0.23,0.05-0.34,0.08c-0.87,0.19-1.71,0.49-2.57,0.74
			c-1.75,0.52-3.44,1.14-5.08,1.85c-0.04,0.01-0.07,0.02-0.11,0.03h0.05c-6.73,2.91-12.49,7.32-17.42,12.95
			c-2.23,2.55-4.25,5.27-6.39,7.9c-2.65,3.27-5.5,6.32-9.15,8.52c-0.8,0.48-1.16,1.27-1.05,2.2c0.34,2.74,0.68,5.49,1.09,8.22
			c0.26,1.8,1.12,2.66,2.94,2.98c2.16,0.39,3.74,1.56,4.91,3.38c2.51,3.92,4.99,7.88,7.57,11.76c1.26,1.9,2.61,3.77,4.13,5.47
			c4.15,4.65,9.29,7.92,15.07,10.2c5.77,2.27,11.78,2.96,17.94,2.39c5.55-0.52,10.9-1.77,15.92-4.25c3.4-1.68,6.4-3.9,8.85-6.79
			c2.65-3.13,5.05-6.46,7.24-9.93c3.44-5.46,6.11-11.27,7.82-17.51c0.21-0.77,0.48-1.53,0.81-2.26c0.37-0.83,0.92-1.44,1.63-1.85
			c0.04-0.02,0.09-0.05,0.13-0.07c0.04-0.02,0.08-0.04,0.13-0.06c0.18-0.08,0.37-0.16,0.56-0.22c0.04-0.01,0.07-0.03,0.11-0.04
			c0.03-0.01,0.06-0.02,0.09-0.03c0.16-0.04,0.32-0.08,0.49-0.1c0.32-0.05,0.65-0.11,0.97-0.13c1.55-0.1,2.93,0.15,4.07,0.89
			c0.51,0.39,0.92,0.92,1.22,1.58c0.33,0.72,0.6,1.49,0.81,2.26c1.71,6.24,4.38,12.04,7.82,17.51c2.19,3.48,4.58,6.8,7.24,9.93
			c2.46,2.9,5.46,5.12,8.85,6.79c5.02,2.48,10.37,3.73,15.92,4.25c6.16,0.58,12.17-0.12,17.94-2.39c5.77-2.27,10.91-5.54,15.07-10.2
			c1.52-1.7,2.87-3.57,4.13-5.47c2.58-3.88,5.06-7.83,7.57-11.76c1.16-1.82,2.75-2.99,4.91-3.37c1.81-0.32,2.67-1.18,2.94-2.98
			c0.4-2.73,0.75-5.48,1.09-8.22C299.09,260.94,298.73,260.15,297.93,259.67z M180.37,287.33c-6.43,8.31-14.96,13.05-25.4,14.17
			c-9.3,0.99-17.85-1.3-25.4-6.78c-8.2-5.94-13.16-13.96-14.56-24.07c-0.34-2.42-0.27-4.85,0.04-7.28c0.01-0.08,0.05-0.15,0.13-0.37
			c0.25,0.31,0.46,0.54,0.64,0.79c4.08,5.77,8.15,11.55,12.23,17.32c0.12,0.17,0.25,0.33,0.37,0.5c0.93,1.28,2.77,0.98,3.47-0.35
			c0.96-1.83,1.14-3.7,0.03-5.52c-0.69-1.14-1.48-2.22-2.32-3.26c-4.2-5.16-8.43-10.29-12.66-15.43c-0.57-0.69-0.72-1.44-0.44-2.24
			c2.17-6.16,5.49-11.59,10.48-15.87c5.94-5.08,12.91-7.84,20.63-8.64c9.75-1.01,18.59,1.57,26.29,7.59
			c8.16,6.37,12.78,14.81,13.64,25.17C188.29,272.04,185.89,280.2,180.37,287.33z M207.55,252.18c-0.88-0.16-3.74-0.61-7.55-0.61
			l0,0c0,0,0,0,0,0s0,0,0,0l0,0c-4.01,0-6.97,0.5-7.68,0.63c-1.05,0-1.91-0.4-2.57-1.31c-1.77-2.42-3.54-4.85-5.34-7.24
			c-1.52-2.02-3.01-4.05-4.64-5.98c-2.29-2.71-5.17-4.59-8.33-6.02v0c-3.35-1.65-6.63-2.75-9.71-3.48
			c-1.02-0.42-2.32-0.88-3.97-1.39c0,0,23.19-14.98,42.24-16.4c19.06,1.42,42.24,16.4,42.24,16.4c-1.6,0.5-2.87,0.95-3.87,1.36
			c-3.11,0.73-6.43,1.84-9.81,3.5v0c-3.17,1.44-6.04,3.31-8.33,6.02c-1.63,1.93-3.12,3.97-4.64,5.98c-1.8,2.4-3.57,4.82-5.34,7.24
			C209.56,251.82,208.66,252.21,207.55,252.18z M285,270.63c-1.4,10.11-6.37,18.13-14.56,24.07c-7.56,5.48-16.1,7.77-25.4,6.78
			c-10.45-1.12-18.98-5.86-25.4-14.17c-5.52-7.13-7.92-15.29-7.17-24.28c0.86-10.36,5.48-18.8,13.64-25.17
			c7.7-6.02,16.54-8.6,26.29-7.59c7.72,0.79,14.69,3.56,20.63,8.64c5,4.28,8.31,9.71,10.48,15.87c0.28,0.8,0.12,1.56-0.44,2.24
			c-4.23,5.13-8.46,10.27-12.66,15.43c-0.84,1.03-1.63,2.12-2.32,3.26c-1.1,1.82-0.92,3.69,0.03,5.52c0.7,1.34,2.54,1.63,3.47,0.35
			c0.12-0.17,0.26-0.33,0.37-0.5c4.08-5.77,8.15-11.55,12.23-17.32c0.18-0.25,0.39-0.48,0.64-0.79c0.08,0.21,0.12,0.29,0.13,0.37
			C285.27,265.78,285.34,268.21,285,270.63z"/>
	</g>
	<g class="st0">
		<path class="st3" d="M269.59,234.19c-0.03,38.07-31.01,69.02-69.08,69.02c-38.07,0-69.03-30.96-69.08-69.01v-0.16l-0.01-39.13
			l-0.05-104.36v-2.41H121v2.41l0.07,139.5l0.14,8.67c0,0.01,0.2,2.66,0.2,2.66l0.11,1.2c0,0.01,0,0.02,0,0.02l0.01,0.03
			c2.12,19.91,11.64,37.66,25.73,50.43c14.09,12.76,32.78,20.55,53.25,20.55c43.81,0,79.45-35.63,79.48-79.43H269.59z"/>
		<path class="st3" d="M200.51,282.33c-23.94,0-44.47-17.78-47.92-41.42h-10.56c3.53,29.6,28.62,51.89,58.48,51.89
			c32.49,0,58.92-26.43,58.92-58.92c0-24.16-14.51-45.61-36.97-54.66c-6.96-2.81-14.31-4.24-21.82-4.25h-0.25
			c-20.99-0.07-38.06-17.19-38.06-38.18c0-21.05,17.13-38.18,38.18-38.18c20.89,0,37.95,16.92,38.17,37.78h10.47
			c-0.22-26.63-21.97-48.24-48.64-48.24c-26.82,0-48.65,21.82-48.65,48.65c0,18.39,10.22,35.01,26.66,43.38
			c6.83,3.48,14.19,5.25,21.86,5.27h0.25c26.65,0.06,48.33,21.8,48.33,48.45C248.95,260.59,227.22,282.33,200.51,282.33z"/>
	</g>
	<g>
		<path d="M165.25,84.56c0.13,0.47,0.37,0.93,0.38,1.4c0.04,2.9,0.02,5.79,0.01,8.69c0,0.68,0.08,1.4-0.93,1.5
			c-1.67,0.16-1.98,0.01-2.26-1.19c-0.27-1.15-0.51-2.3-0.84-3.43c-0.59-2.03-1.2-2.46-3.29-2.46c-0.28,0-0.57,0-0.99,0
			c0,5.55,0,11.07,0,16.65c-2.61,0-5.09,0-7.67,0c0-5.53,0-11.02,0-16.49c-2.46-0.54-3.73,0.16-4.38,2.43
			c-0.34,1.2-0.58,2.43-0.8,3.66c-0.24,1.35-1.27,0.71-1.97,0.8c-0.72,0.1-1.13-0.3-1.12-1.08c0.01-3.11-0.01-6.22,0.03-9.33
			c0-0.38,0.29-0.77,0.45-1.15c0.57,0,1.14,0,1.72,0c1.83,0.22,3.66,0.57,5.49,0.62c3.56,0.1,7.13,0.09,10.69,0
			c1.4-0.04,2.8-0.41,4.2-0.62C164.39,84.56,164.82,84.56,165.25,84.56z"/>
		<path d="M161.95,270.13c0.93-0.32,1.78-0.53,2.56-0.89c0.91-0.42,1.74-0.61,2.62,0.19c-3.13,4.48-7.91,3.67-12.66,3.9
			c0.81,0.61,1.45,1.09,2.05,1.55c-1.8,3.45-4.24,5.7-7.44,7.12c-0.4,0.18-0.99,0.04-1.45-0.08c-0.89-0.24-1.75-0.58-2.68-0.9
			c0.8-3.2,1.57-6.3,4.17-8.55c0.92-0.8,0.92-1.47,0.19-2.44c-0.32-0.43-0.7-0.81-1.09-1.18c-5.51-5.22-3.56-13.89,1.97-17.07
			c3.22-1.85,5.22-4.48,6.68-7.79c8.53-19.31,17.87-38.22,28.63-56.38c4.03-6.81,8.86-13.14,13.39-19.65
			c3.42-4.92,6.61-9.96,8.04-15.85c0.56-2.3,1.85-3.68,3.92-4.71c4.47-2.24,8.87-4.6,13.24-7.02c2.1-1.17,4.04-1.17,6.19-0.13
			c7.96,3.87,15.96,7.64,23.95,11.45c2.59,1.23,2.66,2.01,0.36,3.77c-0.59,0.46-1.21,0.89-1.84,1.29c-2.18,1.4-2.68,2.69-2.26,5.26
			c0.32,1.92,0.47,3.87,0.7,5.81c-0.1,0.06-0.21,0.12-0.31,0.18c-0.39-0.19-0.79-0.37-1.18-0.57c-1.59-0.81-3.17-1.63-4.78-2.41
			c-0.28-0.14-0.67-0.05-1.01-0.06c0.17,0.26,0.28,0.59,0.52,0.77c0.94,0.71,1.95,1.33,2.88,2.05c2.7,2.1,3,3.65,1.12,6.5
			c-5.53,8.37-11,16.79-16.7,25.05c-9.83,14.23-20.08,28.15-30.9,41.66c-7,8.75-14.49,17.04-22.57,24.81
			c-2.63,2.53-5.65,3.36-9.15,2.18c-1.22-0.41-2.41-0.89-3.65-1.24C163.22,266.12,161.58,267.55,161.95,270.13z M248.06,162.78
			c0.97-2.15,0.59-3.75-1.11-5.06c-0.45-0.35-0.94-0.66-1.45-0.9c-6-2.8-12-5.6-18.03-8.35c-2.37-1.08-4.91-1.46-7.39-0.58
			c-3.35,1.19-6.62,2.61-9.9,3.96c-0.74,0.3-0.99,0.94-0.95,1.76c0.02,0.43-0.07,0.93-0.29,1.28c-3.05,4.74-6.07,9.5-9.23,14.16
			c-6.3,9.26-12.96,18.29-18.32,28.16c-8.09,14.9-15.27,30.26-22.38,45.65c-1.28,2.78-2.5,5.59-3.66,8.42
			c-0.67,1.64-0.56,3.3,0.4,5.11c0.8-1.15,1.59-2.09,2.15-3.14c2.07-3.94,4.11-7.89,6.07-11.89c13.68-27.9,29.46-54.51,48.5-79.12
			c2.25-2.91,4.54-5.79,6.88-8.62c0.47-0.57,1.29-1.2,1.97-1.21c3.27-0.07,6.42,0.54,9.4,2.05c5.05,2.55,10.16,5,15.26,7.48
			C246.62,162.23,247.32,162.48,248.06,162.78z M243.36,173.93c-0.03-1.18-0.78-1.64-1.55-2.01c-4.9-2.37-9.82-4.7-14.72-7.08
			c-0.67-0.33-1.31-0.34-1.73,0.2c-1.15,1.47-2.3,2.97-3.29,4.55c-0.78,1.23-0.54,1.99,0.76,2.6c5.14,2.44,10.32,4.81,15.47,7.21
			c0.79,0.37,1.53,0.26,2.01-0.43c1-1.42,1.92-2.91,2.85-4.38C243.3,174.37,243.32,174.07,243.36,173.93z M210.66,175.97
			c-0.07-0.14-0.13-0.27-0.2-0.41c-0.3,0.16-0.69,0.25-0.87,0.5c-1.77,2.38-3.53,4.76-5.25,7.18
			c-9.73,13.72-18.51,28.04-26.94,42.58c-2.72,4.68-5.41,9.38-8.14,14.13c0.31,0.21,0.56,0.38,0.89,0.61
			C183.67,218.99,197.17,197.48,210.66,175.97z M156.48,262.64c-0.03-0.39-0.01-0.58-0.07-0.74c-1.02-2.42-2.01-4.86-3.11-7.24
			c-0.36-0.79-1.41-0.91-2.12-0.37c-2.64,2-4.29,4.41-3.55,7.96c0.47,2.26,1.23,4.31,3.03,5.84c0.92,0.78,1.53,0.78,2.26-0.15
			c1.08-1.37,2.11-2.78,3.11-4.21C156.3,263.37,156.38,262.89,156.48,262.64z"/>
		<path d="M253.88,239.92c-0.38,0.65-0.64,1.4-1.15,1.92c-3.84,3.9-7.72,7.75-11.58,11.63c-0.5,0.5-0.92,1.07-1.46,1.69
			c0.6,0.51,1.11,0.95,1.62,1.38c0.09,0.12,0.18,0.24,0.27,0.36c0.22-0.37,0.37-0.8,0.66-1.1c3.98-4.06,7.96-8.12,12-12.12
			c0.56-0.56,1.4-0.82,2.26-1.3c0.2,1.19-0.06,1.88-0.69,2.51c-3.67,3.66-7.32,7.35-10.97,11.03c-0.65,0.66-1.28,1.34-1.95,2.03
			c0.55,0.61,1.05,1.16,1.74,1.92c0.34-0.44,0.58-0.84,0.9-1.17c3.83-3.91,7.65-7.82,11.53-11.68c0.62-0.62,1.5-0.99,2.46-1.61
			c0.03,1.28-0.19,2.07-0.91,2.78c-4.01,3.98-7.98,8-11.97,11.99c-0.25,0.25-0.57,0.43-1,0.75c0.74,0.55,1.26,0.94,2.06,1.53
			c0.92-1.02,1.79-2.07,2.74-3.02c3.13-3.14,6.3-6.24,9.46-9.35c0.73-0.72,1.47-1.48,2.67-1.36c0.23,0.92-0.01,1.63-0.7,2.3
			c-4.11,4.03-8.18,8.1-12.28,12.14c-0.25,0.25-0.6,0.39-0.98,0.63c0.79,0.75,1.33,1.26,1.88,1.78c2.17-2.15,4.3-4.26,6.42-6.38
			c2.32-2.33,4.61-4.69,6.92-7.03c0.49-0.5,1-0.97,1.76-0.44c0.71,0.49,0.76,1.08,0.15,1.68c-4.03,3.95-8.06,7.91-12.1,11.85
			c-0.55,0.54-1.23,0.95-1.93,1.48c0.59,0.65,1.18,1.29,1.85,2.02c1.07-1.07,2.11-2.1,3.13-3.14c3.29-3.34,6.57-6.68,9.85-10.02
			c0.2-0.2,0.4-0.41,0.61-0.6c0.93-0.79,1.4-0.64,2,0.4c0.6,1.04,0.45,1.77-0.35,2.71c-5.15,6.08-10.23,12.23-15.33,18.35
			c-2.36,2.84-6.74,3.48-9.69,1.24c-13.78-10.46-27.81-20.58-40.65-32.22c-0.58-0.53-1.18-1.03-1.85-1.6
			c1.96-2.54,3.91-5.04,5.84-7.54c1.66-2.15,3.27-4.33,4.98-6.43c0.42-0.51,1.14-0.78,1.74-1.14c0.71-0.42,1.57-0.68,2.14-1.24
			c3.78-3.8,7.47-7.69,11.26-11.48c0.45-0.46,1.3-0.52,1.97-0.76c0.11,0.13,0.23,0.25,0.34,0.38c-0.34,0.61-0.57,1.32-1.03,1.8
			c-3.68,3.76-7.4,7.46-11.1,11.2c-0.7,0.7-1.33,1.47-2.03,2.25c0.64,0.5,1.16,0.91,1.98,1.54c0.23-0.37,0.39-0.75,0.66-1.02
			c4.06-4.13,8.13-8.25,12.24-12.33c0.45-0.45,1.25-0.54,1.95-0.82c0.25,1.05-0.08,1.69-0.67,2.28c-4.33,4.31-8.64,8.64-13.06,13.05
			c0.48,0.54,1.07,1.18,1.71,1.89c0.98-1.03,1.87-1.99,2.79-2.93c3.38-3.45,6.75-6.9,10.17-10.31c0.46-0.46,1.16-0.69,1.85-1.09
			c0.33,1.12,0.19,1.8-0.47,2.47c-4.04,4.05-8.06,8.12-12.08,12.19c-0.3,0.3-0.58,0.61-0.92,0.97c0.62,0.56,1.17,1.06,2.09,1.89
			c0.18-0.36,0.3-0.77,0.56-1.05c3.92-4.06,7.85-8.13,11.83-12.13c0.55-0.55,1.39-0.8,2.24-1.27c0.21,1.25-0.09,1.97-0.75,2.62
			c-3.86,3.82-7.71,7.66-11.56,11.49c-1.55,1.54-1.55,1.61,0.37,3.01c0.8-0.82,1.6-1.67,2.43-2.5c3.42-3.46,6.85-6.9,10.26-10.37
			c0.71-0.72,1.46-1.11,2.51-0.82c0.22,0.84-0.24,1.4-0.78,1.94c-3.72,3.71-7.43,7.44-11.16,11.14c-0.63,0.63-1.38,1.14-2.11,1.74
			c0.71,0.8,1.17,1.33,1.66,1.88c2.26-2.24,4.47-4.41,6.66-6.6c2.05-2.05,4.04-4.15,6.14-6.14c0.59-0.56,1.48-0.81,2.42-1.29
			c0.1,1.29-0.29,1.97-0.94,2.6c-4.04,3.9-8.06,7.81-12.1,11.71c-0.28,0.27-0.64,0.46-1,0.71c0.76,0.83,1.34,1.46,2.25,2.44
			c0.23-0.42,0.35-0.83,0.61-1.11c3.97-4.07,7.95-8.13,11.97-12.14c0.53-0.52,1.34-0.75,2.13-1.18c0.23,1.24-0.06,1.96-0.72,2.62
			c-4.03,3.96-8.04,7.93-12.07,11.89c-0.28,0.27-0.62,0.48-0.96,0.75c0.65,0.75,1.16,1.34,1.6,1.83c2.6-2.53,5.16-5.01,7.71-7.51
			c1.78-1.75,3.5-3.58,5.32-5.29c0.58-0.55,1.43-0.81,2.32-1.3c0.12,1.22-0.19,1.93-0.84,2.57c-4.13,4.06-8.23,8.15-12.35,12.22
			c-0.25,0.25-0.55,0.45-0.96,0.78c0.79,0.44,1.36,0.86,2.01,1.08c0.27,0.09,0.79-0.14,1.03-0.38c3.34-3.39,6.64-6.81,9.96-10.21
			c0.57-0.59,1.09-1.26,1.75-1.73c0.71-0.51,1.56-0.84,2.35-1.24C253.58,239.61,253.73,239.77,253.88,239.92z"/>
		<path d="M165.78,180.69c3.34-3.43,6.65-6.84,9.98-10.23c0.85-0.87,1.67-1.78,2.62-2.53c0.65-0.51,1.49-0.79,2.24-1.17
			c0.12,0.13,0.24,0.27,0.36,0.4c-0.4,0.67-0.68,1.45-1.21,1.99c-3.71,3.78-7.47,7.5-11.2,11.24c-0.55,0.55-1.05,1.14-1.63,1.76
			c0.46,0.5,0.85,0.91,1.27,1.37c0.25-0.21,0.48-0.37,0.67-0.56c4.15-4.04,8.31-8.06,12.43-12.14c0.76-0.75,1.54-0.92,2.78-0.71
			c-0.39,0.71-0.61,1.41-1.06,1.87c-4,4.04-8.04,8.03-12.08,12.04c-0.33,0.33-0.69,0.62-1.11,0.99c0.63,0.69,1.17,1.28,2.03,2.23
			c0.26-0.44,0.41-0.87,0.7-1.17c3.91-4.03,7.81-8.06,11.77-12.04c0.56-0.56,1.39-0.85,2.21-1.33c0.31,1.2,0.07,1.92-0.6,2.59
			c-4.07,4.07-8.12,8.16-12.18,12.24c-0.25,0.25-0.49,0.51-0.82,0.86c0.65,0.5,1.26,0.97,2.06,1.59c0.22-0.32,0.39-0.65,0.64-0.9
			c4.02-4.12,8.04-8.24,12.09-12.32c0.46-0.46,1.11-0.72,1.82-0.89c-3.33,6.16-9.05,10.19-13.48,15.43c0.58,0.7,1.13,1.35,1.67,2.01
			c0.69,0.82,0.84,1.75,0.35,2.7c-2.78,5.39-5.57,10.77-8.43,16.28c-2.1-2.36-4.14-4.59-6.11-6.88c-10.64-12.3-21-24.83-30.45-38.08
			c-2.53-3.55-2.17-5.87,0.72-9.12c5.79-6.51,13.1-10.88,20.55-15.07c0.61-0.34,1.4-0.35,2.1-0.51c0.09,0.12,0.18,0.23,0.28,0.35
			c-0.47,0.72-0.83,1.54-1.41,2.13c-3.68,3.75-7.41,7.45-11.12,11.17c-0.5,0.5-0.98,1.04-1.54,1.64c0.52,0.59,1,1.13,1.4,1.59
			c1.63-1.56,3.23-3.03,4.77-4.56c2.79-2.77,5.51-5.61,8.33-8.35c0.53-0.51,1.34-0.74,2.02-1.09c0.14,0.14,0.28,0.28,0.42,0.42
			c-0.38,0.71-0.61,1.55-1.15,2.1c-4.21,4.28-8.47,8.51-12.83,12.86c0.54,0.58,1.05,1.14,1.67,1.81c0.57-0.59,1.1-1.14,1.64-1.69
			c3.68-3.7,7.34-7.42,11.06-11.08c0.6-0.59,1.44-0.93,2.32-1.47c0.18,1.26-0.12,2.02-0.81,2.69c-4.05,3.99-8.08,7.99-12.13,11.99
			c-0.25,0.25-0.54,0.45-0.9,0.73c0.71,0.68,1.27,1.21,2.15,2.04c0.24-0.39,0.4-0.81,0.69-1.1c3.98-4.06,7.96-8.12,11.98-12.13
			c0.51-0.5,1.28-0.74,2.02-1.15c0.26,1.2-0.04,1.91-0.7,2.57c-4.05,4.04-8.07,8.11-12.1,12.17c-0.3,0.3-0.58,0.62-0.92,1
			c0.62,0.43,1.17,0.82,1.75,1.22c0.24-0.21,0.46-0.38,0.66-0.57c4.04-4.05,8.09-8.09,12.11-12.16c0.69-0.7,1.43-1.02,2.46-0.87
			c0.2,0.83-0.13,1.47-0.72,2.06c-4.07,4.02-8.12,8.06-12.19,12.08c-0.28,0.27-0.61,0.49-1.01,0.79c0.62,0.71,1.1,1.26,1.71,1.96
			c0.68-0.74,1.29-1.43,1.94-2.08c3.55-3.58,7.12-7.13,10.67-10.71c0.71-0.72,1.46-1.24,2.85-1c-0.42,0.76-0.67,1.55-1.18,2.08
			c-4.05,4.14-8.16,8.22-12.25,12.32c-0.2,0.2-0.38,0.41-0.65,0.71c0.54,0.51,1.05,1,1.74,1.65c2.9-2.96,5.76-5.91,8.64-8.83
			c1.35-1.38,2.69-2.78,4.13-4.06c0.58-0.52,1.41-0.75,2.13-1.12c0.14,0.14,0.28,0.29,0.42,0.43c-0.38,0.7-0.64,1.52-1.18,2.08
			c-3.41,3.51-6.89,6.96-10.34,10.44c-0.8,0.81-1.54,1.68-2.37,2.58c0.47,0.48,0.88,0.9,1.39,1.41c0.37-0.35,0.68-0.62,0.98-0.91
			c4-3.94,7.98-7.89,12.01-11.8c0.58-0.56,1.38-0.89,2.24-1.42c0.15,1.25-0.06,2.01-0.77,2.71c-3.87,3.82-7.7,7.67-11.55,11.51
			C163.87,179.12,163.95,179.67,165.78,180.69z"/>
		<path d="M204.33,108.03c0.2,2.63,0.26,5.21,0.64,7.74c0.39,2.56,1.01,5.09,1.69,7.59c0.35,1.29,1.31,2.19,2.69,2.52
			c1.72,0.41,3.09-0.37,3.52-2.08c0.12-0.48,0.21-0.98,0.21-1.48c0.02-2.68,0-5.36,0.01-8.04c0-1.61-0.6-2.8-2.17-3.47
			c-1.05-0.44-1.17-1.03-0.78-2.8c3.29,0,6.6,0,10.04,0c0.04,0.33,0.11,0.7,0.11,1.07c-0.08,4.43-0.19,8.85-0.23,13.28
			c0,0.52,0.27,1.1,0.55,1.56c0.71,1.17,0.43,2.81-0.78,3.44c-4.07,2.12-8.34,2.9-12.84,1.7c-3.21-0.85-5.53-2.88-7.2-5.7
			c-1.94-3.3-2.75-6.94-3.19-10.68c-0.18-1.52-0.26-3.05-0.39-4.66C198.96,108.03,201.62,108.03,204.33,108.03z"/>
		<path d="M224.53,108.01c2.85,0,5.48,0,8.28,0c0,0.37-0.02,0.74,0,1.12c0.29,3.88,0.49,7.76,0.92,11.62
			c0.14,1.26,0.73,2.56,1.41,3.65c1.28,2.08,3.56,2.15,4.89,0.12c0.71-1.09,1.19-2.47,1.35-3.77c0.47-3.93,0.73-7.89,1.08-11.84
			c0.02-0.28,0.04-0.56,0.07-0.9c2.76,0,5.49,0,8.28,0c-0.3,4.75-0.84,9.39-2.79,13.72c-0.62,1.39-1.44,2.72-2.35,3.94
			c-4.38,5.89-12.55,4.67-16.14-0.23c-2.39-3.26-3.49-7.01-4.16-10.9C224.98,112.41,224.8,110.24,224.53,108.01z"/>
		<path d="M250.87,105.74c-2.82,0-5.42,0-8.09,0c-0.09-2-0.07-4-0.31-5.97c-0.31-2.62-0.81-5.21-1.27-7.81
			c-0.09-0.52-0.31-1.02-0.53-1.51c-0.53-1.2-1.38-2.01-2.76-2.03c-1.35-0.02-2.47,0.63-2.88,1.85c-0.61,1.77-1.09,3.62-1.31,5.48
			c-0.39,3.29-0.54,6.61-0.79,9.98c-2.7,0-5.4,0-8.3,0c0.23-1.78,0.41-3.54,0.7-5.27c0.58-3.54,1.55-6.97,3.38-10.09
			c1.58-2.69,3.72-4.73,6.89-5.35c4.25-0.84,7.66,0.62,10.27,4.01c2.3,2.99,3.43,6.48,4.09,10.13
			C250.35,101.28,250.56,103.45,250.87,105.74z"/>
		<path d="M191.42,108.04c-0.21,4.41-0.05,8.84-0.72,13.14c-0.85,5.49-5.2,8.58-10.84,8.42c-5.07-0.14-9.24-3.82-10.11-8.98
			c-0.15-0.88-0.23-1.77-0.24-2.66c-0.03-3.28-0.01-6.57-0.01-9.93c2.5,0,4.95,0,7.54,0c0,0.4-0.01,0.82,0,1.23
			c0.07,3.75-0.03,7.51,0.25,11.24c0.25,3.4,2.72,5.06,5.68,4.2c1.26-0.37,2.19-1.18,2.59-2.36c0.44-1.3,0.83-2.68,0.88-4.04
			c0.12-3.39,0.04-6.78,0.04-10.25C188.08,108.04,189.56,108.04,191.42,108.04z"/>
		<path d="M230.44,313.18c0.25-0.56,0.51-1.12,0.74-1.69c0.2-0.52,0.51-1.05,0.52-1.57c0.04-6.47,0.04-12.94-0.01-19.41
			c0-0.6-0.5-1.19-0.7-1.8c-0.16-0.48-0.29-0.99-0.27-1.49c0.01-0.12,0.65-0.3,1-0.31c1.6-0.03,3.2-0.01,4.84-0.01
			c0.25,0.81,0.26,1.43-0.39,2c-0.29,0.25-0.51,0.74-0.51,1.12c-0.04,2.64-0.02,5.28-0.02,8.01c1.3,0,2.53,0,3.95,0
			c0-0.68,0-1.38,0-2.08c0-1.79,0.06-3.58-0.03-5.36c-0.04-0.64-0.48-1.26-0.69-1.9c-0.15-0.45-0.36-0.94-0.3-1.38
			c0.02-0.18,0.67-0.38,1.04-0.4c1.32-0.05,2.65-0.04,3.97,0c0.35,0.01,0.94,0.16,0.98,0.34c0.09,0.41,0.06,1.06-0.2,1.28
			c-0.8,0.68-0.81,1.52-0.81,2.43c0.01,6.29-0.01,12.58,0.04,18.88c0,0.6,0.44,1.2,0.65,1.81c0.16,0.48,0.34,0.98,0.33,1.47
			c0,0.12-0.7,0.31-1.08,0.32c-1.29,0.04-2.57,0.04-3.86,0c-0.35-0.01-0.98-0.14-1-0.28c-0.06-0.45-0.07-1.13,0.21-1.38
			c0.75-0.67,0.78-1.47,0.78-2.34c-0.01-2.93,0-5.85,0-8.86c-1.33,0-2.56,0-3.88,0c-0.03,0.26-0.08,0.53-0.08,0.8
			c-0.01,2.82-0.04,5.65,0.03,8.47c0.02,0.61,0.48,1.2,0.68,1.81c0.16,0.48,0.29,0.99,0.28,1.48c0,0.1-0.65,0.28-1,0.29
			c-1.6,0.03-3.21,0.01-4.81,0.01C230.69,313.36,230.56,313.27,230.44,313.18z"/>
		<path d="M202.37,301.05c0,3.15-0.02,6.18,0.02,9.22c0.01,0.42,0.34,0.83,0.51,1.24c0.24,0.56,0.47,1.12,0.79,1.87
			c-2.31,0-4.26,0-6.57,0c0.31-0.74,0.55-1.3,0.78-1.87c0.2-0.52,0.53-1.04,0.54-1.56c0.04-6.5,0.04-13-0.01-19.51
			c0-0.57-0.47-1.13-0.67-1.71c-0.16-0.48-0.34-0.99-0.31-1.47c0.01-0.15,0.69-0.36,1.06-0.35c1.96,0.02,3.93,0,5.88,0.2
			c2.99,0.31,5.06,2.25,5.47,4.9c0.57,3.7-0.65,6.38-3.53,7.74c-0.29,0.14-0.57,0.27-1.03,0.5c2.47,1.05,3.04,3.16,3.49,5.36
			c0.28,1.36,0.54,2.73,0.94,4.06c0.22,0.72,0.74,1.33,1.05,2.03c0.19,0.43,0.31,0.93,0.27,1.38c-0.02,0.16-0.61,0.33-0.95,0.36
			c-0.6,0.06-1.22-0.06-1.82,0.03c-1.2,0.19-1.6-0.4-1.84-1.48c-0.66-2.96-1.41-5.89-2.17-8.83
			C204.03,302.22,203.8,301.18,202.37,301.05z M202.43,289.04c0,3.34,0,6.61,0,9.88c1.83,0,2.88-0.62,3.16-2.3
			c0.27-1.59,0.31-3.26,0.19-4.88C205.64,289.79,204.53,288.97,202.43,289.04z"/>
		<path d="M163.27,300.25c2.28,0.97,2.97,2.87,3.39,4.96c0.28,1.43,0.57,2.87,0.99,4.27c0.24,0.78,0.78,1.47,1.11,2.23
			c0.18,0.43,0.29,0.94,0.23,1.38c-0.02,0.16-0.63,0.33-0.97,0.34c-3.26,0.07-3.25,0.06-4.03-3.14c-0.59-2.42-1.16-4.85-1.8-7.27
			c-0.24-0.91-0.51-1.9-1.85-1.96c0,3.18-0.02,6.31,0.03,9.44c0.01,0.39,0.5,0.75,0.65,1.17c0.18,0.47,0.29,0.98,0.29,1.48
			c0,0.1-0.65,0.28-1,0.28c-1.6,0.03-3.2,0.01-4.85,0.01c-0.22-0.75-0.23-1.3,0.3-1.92c0.36-0.42,0.62-1.07,0.62-1.62
			c0.04-6.5,0.04-13,0-19.51c0-0.54-0.43-1.08-0.61-1.63c-0.17-0.51-0.34-1.03-0.36-1.55c0-0.1,0.71-0.33,1.09-0.32
			c2.03,0.04,4.09-0.03,6.09,0.24c2.98,0.39,4.88,2.34,5.24,5c0.5,3.75-0.71,6.29-3.66,7.67
			C163.91,299.92,163.66,300.05,163.27,300.25z M160.38,298.93c1.96-0.07,3-0.78,3.26-2.56c0.23-1.57,0.23-3.2,0.09-4.78
			c-0.16-1.83-1.38-2.66-3.35-2.53C160.38,292.33,160.38,295.6,160.38,298.93z"/>
		<path d="M169.69,313.24c0.27-0.62,0.54-1.18,0.77-1.75c0.2-0.51,0.52-1.04,0.53-1.57c0.04-6.51,0.04-13.01,0-19.52
			c0-0.54-0.42-1.08-0.61-1.63c-0.17-0.51-0.35-1.02-0.38-1.55c-0.01-0.09,0.71-0.32,1.09-0.32c1.96,0.01,3.94-0.07,5.89,0.14
			c2.9,0.31,4.88,2.22,5.4,4.88c0.58,3.01-0.7,5.93-3.22,7.34c-0.34,0.19-0.7,0.36-1.15,0.59c0.31,0.15,0.54,0.28,0.78,0.38
			c3.05,1.35,4.54,3.8,4.18,6.87c-0.39,3.41-2.24,5.64-5.62,6.08C174.96,313.49,172.51,313.24,169.69,313.24z M174.96,311.37
			c2.19-0.05,3.16-0.68,3.65-2.42c0.54-1.9,0.49-3.81-0.11-5.69c-0.53-1.65-1.75-2.4-3.55-2.28
			C174.96,304.42,174.96,307.86,174.96,311.37z M174.96,298.83c1.58,0.04,2.64-0.6,3.13-2c0.7-1.98,0.69-3.99-0.07-5.95
			c-0.55-1.43-1.42-1.89-3.07-1.8C174.96,292.3,174.96,295.53,174.96,298.83z"/>
		<path d="M133.99,299.86c0.32,0.15,0.57,0.27,0.82,0.39c3.04,1.36,4.52,3.8,4.15,6.89c-0.4,3.41-2.26,5.62-5.64,6.05
			c-2.38,0.31-4.83,0.06-7.33,0.06c-0.16-0.57-0.14-1.13,0.41-1.73c0.35-0.38,0.6-1,0.6-1.52c0.04-6.54,0.04-13.09-0.01-19.63
			c0-0.56-0.51-1.11-0.71-1.68c-0.16-0.47-0.29-0.99-0.27-1.48c0-0.12,0.65-0.3,1-0.3c1.96,0.01,3.94-0.08,5.89,0.13
			c2.98,0.32,4.98,2.24,5.48,4.92c0.57,3.07-0.75,5.96-3.35,7.37C134.72,299.49,134.4,299.65,133.99,299.86z M130.98,311.3
			c1.98,0.16,3.16-0.58,3.66-2.36c0.53-1.9,0.49-3.81-0.11-5.69c-0.53-1.65-1.77-2.41-3.55-2.26
			C130.98,304.43,130.98,307.87,130.98,311.3z M130.98,298.83c1.56,0.02,2.62-0.58,3.1-1.91c0.75-2.04,0.75-4.12-0.09-6.15
			c-0.56-1.36-1.42-1.8-3.02-1.68C130.98,292.31,130.98,295.54,130.98,298.83z"/>
		<path d="M204.44,105.74c-2.63,0-5.19,0-7.84,0c0.8-6.66,2.28-12.98,7.15-17.94c3.13-3.18,6.36-3.8,10.43-2.05
			c0.8,0.34,1.48,0.46,2.34,0.09c0.58-0.25,1.34-0.24,1.98-0.13c0.29,0.05,0.7,0.63,0.7,0.98c0.05,3.57,0.03,7.14,0.03,10.71
			c0,0.81-0.38,1.12-1.2,1.11c-1.78,0-1.74,0.02-2.17-1.67c-0.36-1.41-0.75-2.83-1.26-4.19c-0.31-0.82-0.77-1.62-1.32-2.31
			c-2.1-2.68-5.92-2.2-6.98,1.03c-0.75,2.27-1.03,4.72-1.34,7.12C204.67,100.86,204.61,103.25,204.44,105.74z"/>
		<path d="M260.35,300.25c-0.45,2.73-0.81,5.49-1.38,8.2c-0.21,1.01-0.77,2.01-1.36,2.88c-2.26,3.37-6.65,3.33-8.94-0.04
			c-1.17-1.72-1.69-3.69-1.98-5.71c-0.61-4.35-0.64-8.69,0.54-12.95c0.36-1.28,0.91-2.58,1.64-3.68c2.11-3.17,6.18-3.22,8.51-0.21
			c1.61,2.09,2.12,4.57,2.43,7.1c0.18,1.45,0.2,2.92,0.3,4.38C260.2,300.22,260.27,300.23,260.35,300.25z M250.5,300.23
			c0.11,0,0.23,0.01,0.34,0.01c0,2.53-0.08,5.07,0.04,7.6c0.05,1.04,0.4,2.11,0.84,3.06c0.22,0.48,0.96,1,1.45,0.99
			c0.5-0.01,1.12-0.56,1.44-1.04c0.33-0.51,0.47-1.2,0.52-1.83c0.24-2.67,0.48-5.33,0.59-8.01c0.14-3.39,0.22-6.79-0.58-10.13
			c-0.42-1.74-0.92-2.36-1.9-2.36c-1.05,0-1.78,0.81-1.96,2.53C250.96,294.1,250.76,297.17,250.5,300.23z"/>
		<path d="M149.65,107.98c2.6,0,5.03,0,7.63,0c0,0.39,0,0.76,0,1.14c0,4.46,0.02,8.92-0.01,13.39c-0.01,1.26,0.31,2.29,1.4,3.05
			c0.7,0.49,1.01,2.21,0.59,2.95c-0.12,0.21-0.43,0.43-0.66,0.43c-3.43,0.03-6.85,0.04-10.28-0.01c-0.25,0-0.68-0.43-0.71-0.7
			c-0.13-1.14-0.18-2.25,1.02-3.03c0.92-0.59,1.01-1.65,1.01-2.69c-0.01-4.43,0-8.85,0-13.28
			C149.65,108.85,149.65,108.46,149.65,107.98z"/>
		<path d="M195.7,292.52c-1.09,0.31-1.56,0.12-1.75-0.98c-0.43-2.45-1.5-2.97-4.61-2.43c0,3.12,0,6.25,0,9.37
			c1.42,0.34,1.79,0.14,2.24-1.18c0.08-0.24,0.07-0.57,0.23-0.7c0.3-0.25,0.7-0.5,1.06-0.52c0.18-0.01,0.56,0.48,0.57,0.75
			c0.05,1.86,0.05,3.72,0,5.57c-0.01,0.29-0.39,0.84-0.52,0.82c-0.42-0.07-0.82-0.32-1.18-0.58c-0.13-0.1-0.12-0.4-0.18-0.6
			c-0.41-1.29-0.7-1.48-2.19-1.4c0,3.54,0,7.09,0,10.81c1.06-0.05,2.14,0,3.16-0.2c0.46-0.09,0.95-0.63,1.18-1.09
			c0.39-0.79,0.63-1.67,0.86-2.52c0.18-0.66,0.6-0.82,1.2-0.78c0.73,0.05,0.59,0.58,0.59,1.03c0.01,1.81,0,3.63,0,5.49
			c-4.04,0-7.99,0-12.29,0c0.31-0.75,0.57-1.31,0.78-1.89c0.19-0.52,0.49-1.05,0.49-1.58c0.03-6.5,0.04-13.01-0.01-19.51
			c0-0.57-0.48-1.13-0.67-1.71c-0.16-0.48-0.29-0.99-0.27-1.49c0-0.12,0.65-0.3,1-0.3c3.14-0.04,6.29-0.06,9.43-0.03
			c0.29,0,0.82,0.38,0.83,0.6C195.73,289.14,195.7,290.81,195.7,292.52z"/>
		<path d="M177.05,105.71c-0.24,0.03-0.37,0.07-0.5,0.07c-2.28,0-4.57,0-6.98,0c-0.02-0.41-0.05-0.79-0.05-1.16
			c0-4.18-0.02-8.36,0.01-12.54c0.01-1.43-0.26-2.67-1.53-3.56c-0.57-0.4-0.9-2.31-0.51-2.88c0.16-0.24,0.59-0.41,0.89-0.41
			c3.29-0.03,6.57-0.01,9.86-0.02c0.69,0,0.93,0.29,0.96,0.97c0.05,1.12-0.06,2.09-1.12,2.81c-0.87,0.59-1.02,1.58-1.02,2.58
			c0.01,4.32,0,8.65,0,12.97C177.05,104.91,177.05,105.3,177.05,105.71z"/>
		<path d="M266.74,301.27c0,3.08-0.02,6.04,0.02,9c0.01,0.42,0.34,0.82,0.51,1.24c0.24,0.56,0.47,1.13,0.78,1.86
			c-2.28,0-4.2,0-6.18,0c-0.24-0.66-0.24-1.21,0.28-1.83c0.36-0.42,0.63-1.06,0.64-1.61c0.04-6.5,0.05-13,0-19.49
			c0-0.57-0.46-1.13-0.66-1.71c-0.16-0.48-0.35-0.98-0.32-1.47c0.01-0.15,0.69-0.37,1.06-0.36c1.82,0.01,3.65-0.05,5.45,0.15
			c4.34,0.48,6.83,3.78,6.24,8.1c-0.53,3.88-2.62,5.79-6.65,6.05C267.57,301.23,267.22,301.24,266.74,301.27z M266.79,299.19
			c2.26,0.04,3.32-0.58,3.52-2.41c0.19-1.72,0.19-3.49,0-5.2c-0.21-1.88-1.7-2.8-3.53-2.46
			C266.79,292.45,266.79,295.79,266.79,299.19z"/>
		<path d="M148.32,286.72c0.36,1.73,0.7,3.32,1.02,4.91c1.23,6.16,2.44,12.32,3.71,18.47c0.12,0.57,0.65,1.05,0.91,1.61
			c0.21,0.44,0.35,0.94,0.41,1.42c0.01,0.07-0.64,0.3-0.98,0.31c-1.74,0.03-3.49,0.01-5.23,0.01c-0.29-0.78-0.27-1.33,0.38-1.89
			c0.35-0.31,0.41-0.96,0.59-1.45c0.01-0.03-0.01-0.07-0.02-0.1c-0.25-1.07-0.5-2.14-0.75-3.21c-1.28-0.04-2.56-0.11-3.84-0.08
			c-0.24,0-0.58,0.36-0.67,0.62c-0.21,0.64-0.27,1.33-0.45,1.98c-0.25,0.93-0.2,1.69,0.62,2.4c0.31,0.27,0.33,0.95,0.33,1.44
			c0,0.1-0.64,0.28-1,0.29c-0.82,0.04-1.64,0.02-2.47,0.01c-1-0.01-1.6-0.94-0.91-1.57c1.31-1.17,1.31-2.73,1.61-4.19
			c1.17-5.62,2.27-11.26,3.39-16.9c0.07-0.38,0.11-0.8,0.01-1.16c-0.28-0.95-0.06-1.55,0.94-1.87
			C146.71,287.52,147.42,287.12,148.32,286.72z M147.96,304.43c-0.55-2.79-1.08-5.5-1.61-8.2c-0.07,0-0.13-0.01-0.2-0.01
			c-0.55,2.72-1.1,5.44-1.66,8.21C145.71,304.43,146.77,304.43,147.96,304.43z"/>
		<path d="M218.65,313.4c0-2.36-0.02-4.61,0.03-6.85c0-0.21,0.44-0.59,0.64-0.57c0.34,0.04,0.83,0.27,0.93,0.53
			c0.25,0.7,0.31,1.46,0.46,2.19c0.06,0.28,0.16,0.55,0.26,0.82c0.63,1.73,1.68,2.58,2.98,2.41c1.28-0.17,2.28-1.44,2.45-3.13
			c0.16-1.67-0.2-3.22-1.25-4.54c-1.07-1.34-2.2-2.63-3.35-3.9c-1.48-1.63-2.89-3.3-3.22-5.57c-0.35-2.37-0.13-4.65,1.55-6.55
			c1.33-1.51,2.98-1.86,4.86-1.18c0.53,0.19,1.14,0.24,1.71,0.19c1.15-0.09,1.3-0.01,1.3,1.18c0,1.61-0.01,3.22-0.02,4.83
			c0,0.1-0.05,0.2-0.08,0.3c-1.33,0.35-1.36,0.3-1.71-0.91c-0.28-0.99-0.62-1.97-1.04-2.9c-0.33-0.73-1.02-1.28-1.81-1.03
			c-0.63,0.2-1.32,0.73-1.65,1.31c-0.63,1.09-0.45,2.35,0.16,3.39c0.69,1.19,1.57,2.29,2.43,3.37c1.16,1.45,2.5,2.77,3.55,4.28
			c1.75,2.53,2.07,5.38,1.25,8.31c-1.04,3.7-4,5.17-7.64,4.06C220.62,313.2,219.69,313.4,218.65,313.4z"/>
		<path d="M191.22,105.75c-1.63,0-3.08,0-4.68,0c0-0.42,0-0.8,0-1.18c0-4.25-0.02-8.51,0.01-12.76c0.01-1.34-0.28-2.44-1.45-3.25
			c-0.65-0.45-0.95-2.37-0.51-2.97c0.15-0.21,0.53-0.36,0.81-0.36c2.36-0.03,4.72-0.04,7.08,0.02c0.3,0.01,0.79,0.48,0.83,0.79
			c0.16,1.11,0.09,2.17-1.04,2.92c-0.87,0.57-1.05,1.56-1.04,2.57c0.01,4.32,0,8.65,0,12.97
			C191.22,104.89,191.22,105.28,191.22,105.75z"/>
		<path d="M259.25,107.81c0-0.64,0-1.24,0-2.07c7.75,0.58,15.47,1.16,23.18,1.74c0,0.11-0.01,0.22-0.01,0.32
			C274.74,107.81,267.05,107.81,259.25,107.81z"/>
		<path d="M141.21,105.73c0,0.63,0,1.05,0,1.48c0,0.21-0.02,0.41-0.04,0.67c-7.76,0-15.45,0-23.15,0c-0.01-0.11-0.02-0.23-0.03-0.34
			C125.67,106.83,133.37,106.37,141.21,105.73z"/>
	</g>
</g>
<g id="Capa_2">
</g>
</svg>
