<?xml version="1.0" encoding="utf-8"?>
<!-- Generator: Adobe Illustrator 26.1.0, SVG Export Plug-In . SVG Version: 6.00 Build 0)  -->
<svg version="1.1" xmlns="http://www.w3.org/2000/svg" xmlns:xlink="http://www.w3.org/1999/xlink" x="0px" y="0px"
	 viewBox="0 0 400 400" style="enable-background:new 0 0 400 400;" xml:space="preserve">
<style type="text/css">
	.st0{display:none;}
	.st1{display:inline;fill:none;}
	.st2{display:inline;}
	.st3{fill-rule:evenodd;clip-rule:evenodd;}
	.st4{fill:none;}
</style>
<g id="Capa_3">
	<g class="st0">
		<path class="st1" d="M173.9,237.88c-7.7-6.02-16.54-8.6-26.29-7.59c-7.72,0.79-14.69,3.56-20.63,8.64
			c-5,4.28-8.31,9.71-10.48,15.87c-0.28,0.8-0.12,1.56,0.44,2.24c4.23,5.13,8.46,10.27,12.66,15.43c0.84,1.03,1.63,2.12,2.32,3.26
			c1.1,1.82,0.92,3.69-0.03,5.52c-0.7,1.34-2.54,1.63-3.47,0.35c-0.12-0.17-0.26-0.33-0.37-0.5c-4.08-5.77-8.15-11.55-12.23-17.32
			c-0.18-0.25-0.39-0.48-0.64-0.79c-0.08,0.21-0.12,0.29-0.13,0.37c-0.31,2.43-0.38,4.86-0.04,7.28
			c1.4,10.11,6.37,18.13,14.56,24.07c7.56,5.48,16.1,7.77,25.4,6.78c10.45-1.12,18.98-5.86,25.4-14.17
			c5.52-7.13,7.92-15.29,7.17-24.28C186.67,252.69,182.05,244.26,173.9,237.88z"/>
		<path class="st1" d="M220.23,237.65c2.29-2.71,5.17-4.59,8.33-6.02v0c3.38-1.67,6.7-2.77,9.81-3.5c1.01-0.41,2.27-0.86,3.87-1.36
			c0,0-23.19-14.98-42.24-16.4c-19.06,1.42-42.24,16.4-42.24,16.4c1.66,0.51,2.95,0.98,3.97,1.39c3.08,0.73,6.36,1.83,9.71,3.48v0
			c3.17,1.44,6.04,3.31,8.33,6.02c1.63,1.93,3.12,3.97,4.64,5.98c1.8,2.4,3.57,4.82,5.34,7.24c0.66,0.91,1.52,1.31,2.57,1.31
			c0.7-0.13,3.66-0.63,7.68-0.63l0,0c0,0,0,0,0,0s0,0,0,0l0,0c3.82,0,6.67,0.45,7.55,0.61c1.11,0.03,2.01-0.36,2.7-1.3
			c1.77-2.42,3.54-4.85,5.34-7.24C217.1,241.62,218.6,239.58,220.23,237.65z"/>
		<path class="st1" d="M284.83,262.98c-0.25,0.31-0.46,0.54-0.64,0.79c-4.08,5.77-8.15,11.55-12.23,17.32
			c-0.12,0.17-0.25,0.33-0.37,0.5c-0.93,1.28-2.77,0.98-3.47-0.35c-0.96-1.83-1.14-3.7-0.03-5.52c0.69-1.14,1.48-2.22,2.32-3.26
			c4.2-5.16,8.43-10.29,12.66-15.43c0.57-0.69,0.72-1.44,0.44-2.24c-2.17-6.16-5.49-11.59-10.48-15.87
			c-5.94-5.08-12.91-7.84-20.63-8.64c-9.75-1.01-18.59,1.57-26.29,7.59c-8.16,6.37-12.78,14.81-13.64,25.17
			c-0.75,8.99,1.65,17.15,7.17,24.28c6.43,8.31,14.96,13.05,25.4,14.17c9.3,0.99,17.85-1.3,25.4-6.78
			c8.2-5.94,13.16-13.96,14.56-24.07c0.34-2.42,0.27-4.85-0.04-7.28C284.95,263.27,284.91,263.2,284.83,262.98z"/>
		<path class="st2" d="M297.93,259.67c-3.65-2.2-6.5-5.25-9.15-8.52c-2.14-2.63-4.16-5.35-6.39-7.9
			c-4.92-5.62-10.67-10.02-17.39-12.94h0.01c-0.01,0-0.02,0-0.03-0.01c-1.66-0.72-3.38-1.35-5.16-1.89
			c-0.85-0.26-1.7-0.55-2.57-0.74c-0.11-0.03-0.23-0.05-0.34-0.08v0c0,0-0.08-0.02-0.22-0.05c-0.37-0.08-0.75-0.15-1.12-0.22
			c-25.16-9.64-38.59-28.94-38.59-28.94h-0.05c-0.01-0.34,0.16-0.68,0.48-1.08c0.54-0.67,1.05-1.37,1.6-2.03
			c1.59-1.96,3.2-3.91,4.79-5.87c2.9-3.54,5.79-7.09,8.68-10.63c2.29-2.82,4.55-5.64,6.83-8.46c2.59-3.22,5.18-6.43,7.78-9.64
			c2.37-2.93,4.76-5.86,7.14-8.78c2.8-3.43,5.6-6.86,8.4-10.29c2.38-2.92,4.77-5.84,7.15-8.77c3.05-3.76,6.09-7.53,9.14-11.29
			c2.68-3.3,5.36-6.6,8.03-9.9c2.79-3.44,5.58-6.87,8.35-10.32c0.76-0.95,1.54-1.9,2.16-2.94c0.31-0.53,0.45-1.09,0.44-1.65
			c-0.02-0.79-0.35-1.56-0.95-2.19l-2.36-2.36c-1.62,1.53-3.24,3.06-4.87,4.59c-1.94,1.8-3.87,3.61-5.79,5.42
			c-4.92,4.62-9.82,9.26-14.73,13.89c-5.84,5.5-11.68,11.01-17.52,16.51c-6.62,6.23-13.25,12.46-19.87,18.7
			c-3.7,3.48-7.39,6.98-11.09,10.46c-5.71,5.38-11.42,10.77-17.13,16.15c-0.78,0.74-1.57,1.46-2.37,2.17
			c-0.94,0.82-1.43,0.83-2.44,0.08c-0.28-0.21-0.54-0.46-0.81-0.69c-0.08-0.07-0.14-0.13-0.21-0.18c-0.27-0.25-0.54-0.49-0.81-0.74
			c-0.09,0.07-0.19,0.16-0.33,0.29c-2.46,2.25-4.94,4.46-7.35,6.76c-0.81,0.77-1.58,0.79-2.51,0.41c-0.47-0.19-0.69-0.53-0.66-1.04
			c0.04-0.77,0.29-1.43,0.88-1.97c2.29-2.12,4.57-4.26,6.84-6.39c0.17-0.16,0.34-0.32,0.52-0.51c-0.86-0.81-1.73-1.63-2.59-2.44
			c-0.22,0.19-0.41,0.35-0.59,0.51c-2.16,1.95-4.32,3.91-6.48,5.86c-0.39,0.36-0.79,0.73-1.24,1c-0.77,0.47-1.62,0.18-1.94-0.59
			c-0.31-0.74,0.05-2.26,0.66-2.81c1.69-1.54,3.39-3.07,5.07-4.63c0.65-0.6,1.26-1.23,1.88-1.84c-0.86-0.81-1.71-1.62-2.57-2.42
			c-0.02,0.01-0.03,0.03-0.05,0.04c-2.22,2.02-4.45,4.03-6.66,6.06c-0.54,0.49-1.11,0.9-1.86,0.97c-0.81,0.09-1.3-0.23-1.57-1
			c-0.18-0.54-0.17-1.07,0.17-1.53c0.3-0.4,0.65-0.77,1.02-1.11c2.05-1.89,4.12-3.76,6.19-5.65c0.06-0.06,0.12-0.13,0.18-0.22
			c-0.87-0.82-1.74-1.64-2.62-2.47c-0.11,0.1-0.22,0.19-0.32,0.28c-2.06,1.89-4.11,3.79-6.18,5.66c-0.33,0.3-0.69,0.58-1.08,0.76
			c-0.66,0.29-1.28,0.13-1.81-0.37c-0.53-0.49-0.57-1.11-0.32-1.72c0.15-0.37,0.42-0.72,0.7-1.01c0.69-0.69,1.43-1.34,2.14-2.01
			c1.35-1.26,2.7-2.51,4.03-3.78c0.1-0.09,0.17-0.17,0.23-0.25c-0.86-0.81-1.72-1.62-2.58-2.43c0,0-0.01,0.01-0.01,0.01
			c-1.99,1.78-3.98,3.57-5.98,5.36c-0.31,0.27-0.62,0.56-0.96,0.78c-0.81,0.52-1.49,0.45-2.09-0.18c-0.63-0.65-0.72-1.43-0.19-2.18
			c0.22-0.31,0.49-0.59,0.78-0.85c1.92-1.78,3.85-3.54,5.77-5.31c0.03-0.03,0.06-0.06,0.08-0.09c-0.88-0.83-1.75-1.65-2.63-2.48
			c-0.1,0.09-0.19,0.17-0.27,0.25c-1.78,1.62-3.54,3.27-5.35,4.85c-0.45,0.39-1.05,0.67-1.62,0.87c-0.61,0.22-1.18-0.02-1.59-0.52
			c-0.42-0.52-0.46-1.1-0.1-1.66c0.26-0.39,0.54-0.78,0.88-1.1c1.38-1.31,2.78-2.59,4.17-3.9c0.42-0.39,0.82-0.8,1.27-1.25
			c-0.05-0.05-0.11-0.1-0.16-0.15c-0.8-0.76-1.6-1.51-2.41-2.27c-0.06,0.05-0.12,0.1-0.18,0.15c-1.8,1.6-3.58,3.22-5.38,4.82
			c-0.2,0.18-0.41,0.34-0.63,0.48c-0.91,0.55-1.82,0.31-2.36-0.6c-0.47-0.79-0.26-1.66,0.61-2.45c1.3-1.18,2.62-2.34,3.91-3.52
			c0.46-0.42,0.9-0.87,1.39-1.36c-0.87-0.82-1.74-1.64-2.61-2.46c-0.75,0.69-1.5,1.38-2.25,2.07c-1.03,0.94-2.05,1.89-3.1,2.82
			c-0.81,0.71-1.56,0.77-2.26,0.25c-0.92-0.7-1.06-1.69-0.26-2.53c0.8-0.83,1.69-1.58,2.53-2.38c0.9-0.87,1.79-1.75,2.72-2.68
			c-0.86-0.81-1.72-1.61-2.57-2.42c-0.08,0.07-0.16,0.14-0.24,0.21c-1.43,1.3-2.84,2.62-4.28,3.91c-0.37,0.33-0.8,0.63-1.25,0.83
			c-0.67,0.29-1.37,0.04-1.83-0.53c-0.48-0.61-0.53-1.26-0.1-1.9c0.18-0.27,0.41-0.51,0.65-0.73c0.81-0.75,1.63-1.47,2.43-2.23
			c0.67-0.64,1.33-1.3,2.03-1.99c-0.86-0.81-1.72-1.62-2.59-2.43c-0.01,0.01-0.03,0.02-0.04,0.03c-1.42,1.26-2.86,2.51-4.27,3.79
			c-0.57,0.51-1.24,0.7-1.97,0.62c-1.03-0.12-1.58-0.96-1.21-1.93c0.15-0.4,0.44-0.78,0.75-1.08c1.16-1.11,2.35-2.18,3.53-3.27
			c0.2-0.19,0.41-0.39,0.62-0.61c-0.87-0.82-1.75-1.65-2.62-2.47c-0.02,0.02-0.05,0.04-0.07,0.06c-1.27,1.17-2.53,2.34-3.81,3.49
			c-0.3,0.27-0.66,0.51-1.04,0.67c-0.72,0.31-1.37,0.12-1.84-0.46c-0.52-0.64-0.58-1.41-0.13-2.06c0.17-0.24,0.38-0.45,0.6-0.66
			c1.19-1.12,2.38-2.24,3.57-3.36c0.04-0.04,0.09-0.08,0.13-0.13c-0.87-0.82-1.74-1.64-2.61-2.45c-0.17,0.09-0.34,0.22-0.53,0.38
			c-0.96,0.85-1.87,1.75-2.84,2.58c-0.42,0.35-0.92,0.64-1.44,0.84c-0.59,0.23-1.19,0.1-1.64-0.38c-0.45-0.48-0.51-1.09-0.24-1.67
			c0.22-0.47,0.52-0.94,0.9-1.3c1-0.98,2.05-1.89,3.08-2.83c0.03-0.03,0.06-0.06,0.09-0.08c-0.86-0.81-1.73-1.63-2.59-2.44
			c-1,0.9-1.99,1.81-2.99,2.71c-0.26,0.24-0.54,0.48-0.84,0.66c-0.79,0.47-1.58,0.34-2.17-0.32c-0.57-0.64-0.6-1.39-0.08-2.12
			c0.19-0.26,0.43-0.49,0.67-0.72c0.9-0.86,1.82-1.71,2.72-2.58c0.03-0.03,0.05-0.06,0.08-0.09c-0.37-0.35-0.75-0.7-1.12-1.05
			c-0.5-0.47-1-0.94-1.49-1.41c-0.21,0.19-0.42,0.37-0.62,0.55c-0.89,0.79-1.76,1.6-2.67,2.36c-0.65,0.54-1.32,0.55-1.89,0.14
			c-0.72-0.52-0.98-1.23-0.67-2.03c0.15-0.37,0.4-0.74,0.68-1.02c0.65-0.65,1.36-1.24,2.04-1.86c0.19-0.18,0.38-0.37,0.57-0.55
			c-0.87-0.82-1.74-1.64-2.61-2.46c-0.15,0.12-0.3,0.25-0.44,0.37c-0.65,0.57-1.26,1.18-1.93,1.72c-0.39,0.3-0.85,0.57-1.32,0.69
			c-1.19,0.3-2.15-0.64-1.88-1.85c0.09-0.41,0.35-0.82,0.63-1.14c0.41-0.47,0.91-0.85,1.36-1.29c0.32-0.31,0.64-0.63,0.97-0.96
			c-0.96-0.91-1.92-1.81-2.88-2.72c-0.15,0.18-0.29,0.36-0.44,0.53c-0.61,0.69-1.2,1.4-1.9,2c-0.69,0.6-1.62,0.43-2.22-0.27
			c-0.67-0.77-0.67-1.61,0.02-2.3c0.25-0.25,0.54-0.46,0.81-0.69c0.51-0.43,1.02-0.87,1.54-1.32c-0.13-0.12-0.26-0.25-0.39-0.37
			c-0.79-0.75-1.59-1.48-2.38-2.23c-0.68,0.59-1.33,1.19-2.03,1.76c-0.88,0.72-1.74,0.65-2.44-0.14c-0.65-0.74-0.62-1.59,0.16-2.38
			c0.56-0.57,1.17-1.08,1.77-1.62c-0.29-0.27-0.58-0.54-0.87-0.81c-0.66-0.62-1.31-1.24-1.97-1.86c-0.25,0.31-0.49,0.62-0.74,0.91
			c-0.27,0.31-0.59,0.6-0.93,0.82c-0.85,0.53-1.75,0.28-2.39-0.61c-0.5-0.7-0.36-1.5,0.4-2.12c0.27-0.22,0.59-0.4,0.89-0.58
			c0.21-0.13,0.43-0.25,0.67-0.39c-0.26-0.24-0.52-0.49-0.78-0.73c-0.02,0.01-0.04,0.02-0.06,0.02l-2.31,2.31
			c-0.21,0.22-0.38,0.45-0.52,0.7c-0.27,0.47-0.42,0.97-0.43,1.49c-0.01,0.55,0.13,1.11,0.44,1.65c0.62,1.04,1.4,1.99,2.16,2.94
			c2.77,3.45,5.56,6.88,8.35,10.32c2.67,3.3,5.35,6.6,8.03,9.9c3.05,3.76,6.09,7.53,9.14,11.29c2.38,2.93,4.77,5.85,7.15,8.77
			c2.8,3.43,5.6,6.86,8.4,10.29c2.38,2.93,4.76,5.85,7.14,8.78c2.6,3.21,5.19,6.43,7.78,9.64c2.28,2.82,4.54,5.65,6.83,8.46
			c2.88,3.55,5.78,7.09,8.68,10.63c1.6,1.96,3.2,3.91,4.79,5.87c0.54,0.66,1.05,1.36,1.6,2.03c0.07,0.08,0.12,0.16,0.18,0.24
			c0.09,0.13,0.15,0.25,0.2,0.37c0.03,0.12,0.06,0.24,0.06,0.35h0c0,0-13.46,19.33-38.66,28.97c-0.35,0.06-0.7,0.13-1.05,0.2
			c-0.14,0.03-0.22,0.05-0.22,0.05v0c-0.11,0.03-0.23,0.05-0.34,0.08c-0.87,0.19-1.71,0.49-2.57,0.74
			c-1.75,0.52-3.44,1.14-5.08,1.85c-0.04,0.01-0.07,0.02-0.11,0.03h0.05c-6.73,2.91-12.49,7.32-17.42,12.95
			c-2.23,2.55-4.25,5.27-6.39,7.9c-2.65,3.27-5.5,6.32-9.15,8.52c-0.8,0.48-1.16,1.27-1.05,2.2c0.34,2.74,0.68,5.49,1.09,8.22
			c0.26,1.8,1.12,2.66,2.94,2.98c2.16,0.39,3.74,1.56,4.91,3.38c2.51,3.92,4.99,7.88,7.57,11.76c1.26,1.9,2.61,3.77,4.13,5.47
			c4.15,4.65,9.29,7.92,15.07,10.2c5.77,2.27,11.78,2.96,17.94,2.39c5.55-0.52,10.9-1.77,15.92-4.25c3.4-1.68,6.4-3.9,8.85-6.79
			c2.65-3.13,5.05-6.46,7.24-9.93c3.44-5.46,6.11-11.27,7.82-17.51c0.21-0.77,0.48-1.53,0.81-2.26c0.37-0.83,0.92-1.44,1.63-1.85
			c0.04-0.02,0.09-0.05,0.13-0.07c0.04-0.02,0.08-0.04,0.13-0.06c0.18-0.08,0.37-0.16,0.56-0.22c0.04-0.01,0.07-0.03,0.11-0.04
			c0.03-0.01,0.06-0.02,0.09-0.03c0.16-0.04,0.32-0.08,0.49-0.1c0.32-0.05,0.65-0.11,0.97-0.13c1.55-0.1,2.93,0.15,4.07,0.89
			c0.51,0.39,0.92,0.92,1.22,1.58c0.33,0.72,0.6,1.49,0.81,2.26c1.71,6.24,4.38,12.04,7.82,17.51c2.19,3.48,4.58,6.8,7.24,9.93
			c2.46,2.9,5.46,5.12,8.85,6.79c5.02,2.48,10.37,3.73,15.92,4.25c6.16,0.58,12.17-0.12,17.94-2.39c5.77-2.27,10.91-5.54,15.07-10.2
			c1.52-1.7,2.87-3.57,4.13-5.47c2.58-3.88,5.06-7.83,7.57-11.76c1.16-1.82,2.75-2.99,4.91-3.37c1.81-0.32,2.67-1.18,2.94-2.98
			c0.4-2.73,0.75-5.48,1.09-8.22C299.09,260.94,298.73,260.15,297.93,259.67z M180.37,287.33c-6.43,8.31-14.96,13.05-25.4,14.17
			c-9.3,0.99-17.85-1.3-25.4-6.78c-8.2-5.94-13.16-13.96-14.56-24.07c-0.34-2.42-0.27-4.85,0.04-7.28c0.01-0.08,0.05-0.15,0.13-0.37
			c0.25,0.31,0.46,0.54,0.64,0.79c4.08,5.77,8.15,11.55,12.23,17.32c0.12,0.17,0.25,0.33,0.37,0.5c0.93,1.28,2.77,0.98,3.47-0.35
			c0.96-1.83,1.14-3.7,0.03-5.52c-0.69-1.14-1.48-2.22-2.32-3.26c-4.2-5.16-8.43-10.29-12.66-15.43c-0.57-0.69-0.72-1.44-0.44-2.24
			c2.17-6.16,5.49-11.59,10.48-15.87c5.94-5.08,12.91-7.84,20.63-8.64c9.75-1.01,18.59,1.57,26.29,7.59
			c8.16,6.37,12.78,14.81,13.64,25.17C188.29,272.04,185.89,280.2,180.37,287.33z M207.55,252.18c-0.88-0.16-3.74-0.61-7.55-0.61
			l0,0c0,0,0,0,0,0s0,0,0,0l0,0c-4.01,0-6.97,0.5-7.68,0.63c-1.05,0-1.91-0.4-2.57-1.31c-1.77-2.42-3.54-4.85-5.34-7.24
			c-1.52-2.02-3.01-4.05-4.64-5.98c-2.29-2.71-5.17-4.59-8.33-6.02v0c-3.35-1.65-6.63-2.75-9.71-3.48
			c-1.02-0.42-2.32-0.88-3.97-1.39c0,0,23.19-14.98,42.24-16.4c19.06,1.42,42.24,16.4,42.24,16.4c-1.6,0.5-2.87,0.95-3.87,1.36
			c-3.11,0.73-6.43,1.84-9.81,3.5v0c-3.17,1.44-6.04,3.31-8.33,6.02c-1.63,1.93-3.12,3.97-4.64,5.98c-1.8,2.4-3.57,4.82-5.34,7.24
			C209.56,251.82,208.66,252.21,207.55,252.18z M285,270.63c-1.4,10.11-6.37,18.13-14.56,24.07c-7.56,5.48-16.1,7.77-25.4,6.78
			c-10.45-1.12-18.98-5.86-25.4-14.17c-5.52-7.13-7.92-15.29-7.17-24.28c0.86-10.36,5.48-18.8,13.64-25.17
			c7.7-6.02,16.54-8.6,26.29-7.59c7.72,0.79,14.69,3.56,20.63,8.64c5,4.28,8.31,9.71,10.48,15.87c0.28,0.8,0.12,1.56-0.44,2.24
			c-4.23,5.13-8.46,10.27-12.66,15.43c-0.84,1.03-1.63,2.12-2.32,3.26c-1.1,1.82-0.92,3.69,0.03,5.52c0.7,1.34,2.54,1.63,3.47,0.35
			c0.12-0.17,0.26-0.33,0.37-0.5c4.08-5.77,8.15-11.55,12.23-17.32c0.18-0.25,0.39-0.48,0.64-0.79c0.08,0.21,0.12,0.29,0.13,0.37
			C285.27,265.78,285.34,268.21,285,270.63z"/>
	</g>
</g>
<g id="Capa_2">
	<g>
		<path class="st3" d="M132,321.49c0-0.31-0.02-0.62,0-0.93c0.11-1.81,0.22-3.62,0.33-5.42c1.81-0.22,2.43,0.21,2.56,1.92
			c0.07,0.91,0.01,1.85-0.13,2.76C134.49,321.54,133.77,321.95,132,321.49z"/>
		<g>
			<path class="st3" d="M188.75,310.24c0-4.03-0.08-7.98,0.02-11.91c0.11-3.91,0.4-7.81,0.62-11.86c-0.82,0.36-1.59,0.68-2.34,1.04
				c-0.88,0.42-1.73,0.92-2.64,1.29c-0.9,0.36-1.84,0.64-2.78,0.87c-0.41,0.1-0.69,0.18-0.71,0.66c-0.1,2.46-0.22,4.92-0.29,7.38
				c-0.01,0.25,0.24,0.56,0.46,0.74c0.77,0.64,1.05,1.4,0.76,2.32c-0.26,0.84-0.7,1.15-1.59,1.13c-2.95-0.06-4.86-1.72-5.04-4.73
				c-0.2-3.27-0.3-6.57-0.16-9.84c0.16-3.57,0.54-7.14,1.04-10.68c0.62-4.38,1.78-8.66,3.09-12.89c0.48-1.54,0.82-3.12,1.28-4.67
				c0.68-2.33,1.03-2.93,3.74-1.78c1.78,0.75,2.49,2.31,2.17,4.39c-0.57,3.69-1.07,7.39-1.76,11.06c-0.39,2.07-1.11,4.08-1.67,6.12
				c-0.25,0.92-0.46,1.85-0.68,2.78c-0.14,0.59,0.05,0.89,0.7,0.72c1.48-0.39,2.96-0.8,4.45-1.18c0.74-0.19,1.49-0.35,2.24-0.51
				c0.62-0.13,0.89-0.46,1-1.13c0.36-2.03,0.86-4.04,1.26-6.06c1.44-7.46,3.59-14.71,6.37-21.77c0.68-1.72,1.51-3.39,2.31-5.06
				c0.72-1.51,1.29-1.79,2.84-1.19c0.84,0.32,1.62,0.89,2.29,1.5c0.67,0.62,0.88,1.48,0.57,2.41c-0.72,2.16-1.47,4.31-2.14,6.48
				c-0.81,2.63-1.58,5.27-2.3,7.93c-1.51,5.6-3.12,11.17-4.39,16.82c-1.01,4.49-1.73,9.06-2.27,13.62
				c-0.6,4.97-0.85,9.97-1.24,14.96c-0.08,1.06-0.04,1.07,0.99,1.07c5.51,0,11.03,0.07,16.54-0.02c5.88-0.09,11.77-0.18,17.64-0.54
				c3.89-0.24,7.77-0.39,11.66-0.52c2.88-0.1,5.75-0.55,8.62-0.82c3.46-0.33,6.93-0.51,10.36-1c3.56-0.51,7.09-1.24,10.6-2.01
				c2.24-0.49,4.46-1.15,6.63-1.89c1.94-0.66,3.26-2.12,4.19-3.93c0.28-0.54,0.62-0.9,1.26-0.94c0.67-0.05,1.22,0.26,1.4,0.83
				c0.43,1.33,0.93,2.68,1.03,4.05c0.49,6.25-3.16,12.08-8.98,14.45c-4.5,1.83-9.16,3.11-13.94,3.98
				c-9.74,1.77-19.59,2.58-29.46,3.18c-5.24,0.32-10.47,0.74-15.71,1.05c-3.62,0.21-7.24,0.3-10.87,0.46
				c-3.22,0.14-6.45,0.3-9.67,0.47c-2.06,0.11-4.12,0.32-6.19,0.39c-3.92,0.14-7.84,0.26-11.76,0.3
				c-10.23,0.09-20.45,0.13-30.68,0.17c-1.53,0.01-3.08-0.26-4.6-0.17c-3.86,0.22-7.67-0.29-11.48-0.7
				c-3.34-0.36-6.69-0.74-10.01-1.25c-1.96-0.3-3.88-0.83-5.8-1.34c-1.08-0.28-1.67-1.17-2.07-2.16c-0.82-1.98-0.84-4.03-0.44-6.1
				c0.25-1.32,0.49-2.67,0.96-3.92c0.98-2.57,3-3.88,5.65-4.45c3.55-0.76,7.08-0.16,10.61-0.06c4.26,0.12,8.52,0.28,12.78,0.47
				c2.35,0.11,4.7,0.37,7.05,0.51c8.7,0.51,17.4,1.06,26.11,1.46c3.81,0.18,7.63,0.05,11.45,0.06
				C188.11,310.28,188.34,310.26,188.75,310.24z M261.1,310.07c0.46,2.82,0.87,5.43,1.34,8.03c0.03,0.18,0.45,0.42,0.65,0.39
				c0.18-0.03,0.46-0.4,0.44-0.6c-0.08-0.94-0.26-1.87-0.43-3.07c0.55,0.16,1.05,0.15,1.29,0.39c0.65,0.65,1.19,1.41,1.77,2.13
				c0.56,0.69,0.83,0.73,1.72,0.2c-0.9-1.06-1.8-2.11-2.69-3.16c0.22-0.24,0.4-0.4,0.54-0.59c0.62-0.82,0.65-1.71,0.27-2.63
				c-0.34-0.82-0.94-1.41-1.85-1.4C263.16,309.76,262.18,309.95,261.1,310.07z M132.6,314.05c-0.13-0.01-0.27,0-0.4-0.04
				c-0.79-0.2-1.04,0.09-1.06,0.92c-0.07,2.3-0.23,4.6-0.39,6.9c-0.04,0.51,0.1,0.75,0.61,0.77c0.66,0.02,1.32,0.08,1.98,0.07
				c0.98-0.02,1.83-0.42,2.11-1.38c0.33-1.13,0.59-2.31,0.62-3.48C136.16,315.17,135.13,313.85,132.6,314.05z M181.92,315.28
				c0,2.31-0.02,4.46,0.01,6.6c0.03,2.18,0.05,2.18,2.28,2.03c1.52-0.1,2.41-0.75,2.62-2.26c0.17-1.27,0.21-2.6,0.03-3.86
				c-0.27-1.92-1.18-2.54-3.12-2.51C183.16,315.29,182.59,315.28,181.92,315.28z M188.68,320.05c0.28,1,0.44,1.89,0.79,2.7
				c0.39,0.9,1.21,1.33,2.19,1.3c0.99-0.04,1.82-0.48,2.17-1.46c0.73-2.05,0.68-4.12-0.14-6.12c-0.39-0.96-1.23-1.4-2.31-1.34
				c-1.01,0.05-1.8,0.49-2.06,1.45C189,317.72,188.87,318.93,188.68,320.05z M219.46,317.88c-0.07-1.09-0.1-2.12-0.21-3.13
				c-0.02-0.18-0.41-0.47-0.6-0.45c-0.21,0.02-0.55,0.35-0.55,0.54c0.11,2.48,0.27,4.96,0.41,7.44c0.03,0.49,0.25,0.64,0.71,0.6
				c0.47-0.05,0.52-0.29,0.48-0.71c-0.09-1.07-0.12-2.15-0.18-3.32c0.9,0,1.73,0,2.57,0c0.09,1.26,0.18,2.52,0.26,3.75
				c1.13,0.11,1.14,0.11,1.09-0.9c-0.06-1.32-0.13-2.64-0.21-3.96c-0.07-1.21-0.17-2.41-0.25-3.59c-1.16-0.16-1.18-0.14-1.12,0.9
				c0.05,0.88,0.1,1.77,0.16,2.66C221.12,317.76,220.33,317.82,219.46,317.88z M243.29,312.4c0.02,0.42,0.02,0.84,0.06,1.25
				c0.17,1.63,0.35,3.26,0.51,4.9c0.11,1.12-0.48,1.72-1.51,1.58c-0.79-0.11-0.99-0.72-1.07-1.38c-0.14-1.18-0.23-2.37-0.35-3.56
				c-0.09-0.85-0.2-1.71-0.3-2.54c-1.16-0.01-1.18,0.02-1.04,1.01c0.04,0.26,0.05,0.53,0.08,0.79c0.2,1.63,0.3,3.27,0.63,4.87
				c0.28,1.37,1.5,2.08,2.72,1.84c1.38-0.28,2.18-1.35,2.04-2.77c-0.18-1.76-0.42-3.52-0.55-5.29
				C244.44,312.27,244.11,312.1,243.29,312.4z M177.16,314.75c-0.09-0.01-0.18-0.02-0.28-0.03c-1,3.01-2,6.02-2.99,9.02
				c1.01,0.34,1.16,0.27,1.43-0.57c0.13-0.4,0.22-0.82,0.39-1.21c0.09-0.19,0.32-0.41,0.51-0.43c1.89-0.22,1.89-0.21,2.44,1.6
				c0.27,0.89,0.42,0.96,1.43,0.63C179.12,320.76,178.14,317.75,177.16,314.75z M155.43,314.35c-0.09,0-0.18,0-0.27-0.01
				c-1.07,2.97-2.14,5.95-3.21,8.92c1,0.38,1.15,0.32,1.43-0.51c0.19-0.55,0.37-1.1,0.57-1.68c0.21,0,0.39,0,0.57,0
				c1.74,0.04,1.74,0.04,2.21,1.71c0.26,0.92,0.35,0.97,1.42,0.68C157.25,320.43,156.34,317.39,155.43,314.35z M256.25,310.09
				c-0.07,0.02-0.14,0.04-0.22,0.07c-0.55,3.15-1.11,6.3-1.66,9.44c0.94,0.19,1.33-0.11,1.36-0.9c0.01-0.37,0.13-0.73,0.15-1.1
				c0.02-0.42,0.21-0.59,0.63-0.65c1.76-0.25,1.76-0.26,2.49,1.32c0.41,0.9,0.56,0.94,1.53,0.43
				C259.1,315.83,257.67,312.96,256.25,310.09z M208.68,314.95c-1.08-0.28-1.2-0.21-1.37,0.71c-0.09,0.49-0.17,0.99-0.26,1.48
				c-0.23,1.27-0.46,2.54-0.69,3.81c-0.61-1.71-1.04-3.41-1.48-5.12c-0.26-1.04-0.26-1.04-1.36-0.73c0.01,0.12-0.01,0.25,0.02,0.37
				c0.65,2.53,1.3,5.06,1.94,7.59c0.15,0.58,0.57,0.5,0.99,0.53c0.49,0.03,0.64-0.25,0.72-0.66c0.27-1.43,0.54-2.85,0.8-4.28
				C208.23,317.42,208.45,316.18,208.68,314.95z M212.6,315.48c0.83,0,1.67,0.02,2.51,0c0.95-0.02,0.98-0.09,0.75-0.92
				c-1.26,0-2.5,0.03-3.73-0.01c-0.69-0.02-0.84,0.27-0.8,0.91c0.14,2.37,0.24,4.75,0.32,7.13c0.02,0.51,0.23,0.63,0.69,0.61
				c1.13-0.07,2.27-0.1,3.4-0.17c0.32-0.02,0.73,0.06,0.68-0.51c-0.04-0.49-0.34-0.51-0.72-0.5c-0.94,0.01-1.89,0-2.92,0
				c0-0.84,0-1.75,0-2.72c0.77-0.06,1.54-0.11,2.3-0.17c0.18-0.73,0.01-1.03-0.72-0.96c-0.56,0.06-1.13,0.01-1.77,0.01
				C212.6,317.27,212.6,316.46,212.6,315.48z M139.89,315.5c0.95,0.05,1.82,0.09,2.69,0.14c0.38,0.02,0.79,0.09,0.81-0.47
				c0.02-0.59-0.41-0.58-0.82-0.59c-0.93-0.03-1.85-0.05-2.78-0.09c-1.07-0.05-1.06-0.05-1.11,1.05c-0.1,2.25-0.2,4.49-0.32,6.74
				c-0.03,0.53,0.13,0.78,0.69,0.79c1.08,0.02,2.17,0.09,3.25,0.13c0.86,0.03,0.91-0.04,0.67-0.98c-1.09-0.06-2.19-0.12-3.24-0.17
				c0-0.98,0-1.91,0-2.88c0.66,0.05,1.18,0.09,1.71,0.12c0.38,0.02,0.76,0.05,0.77-0.52c0.01-0.51-0.32-0.54-0.68-0.54
				c-0.57,0-1.14,0-1.79,0C139.8,317.24,139.85,316.4,139.89,315.5z M237.41,314.94c-0.17-1.13-0.86-1.84-1.82-1.97
				c-1.15-0.16-2.28,0.4-2.67,1.53c-0.77,2.21-0.57,4.38,0.62,6.41c0.47,0.8,1.55,1.14,2.53,0.92c0.99-0.22,1.72-0.92,1.83-1.85
				c0.03-0.25-0.13-0.72-0.28-0.75c-0.35-0.07-0.8-0.1-0.85,0.52c-0.05,0.63-0.44,1-1.08,1.08c-0.7,0.09-1.28-0.3-1.57-1.18
				c-0.45-1.4-0.63-2.84-0.32-4.3c0.08-0.37,0.29-0.75,0.55-1.02c0.52-0.55,1.49-0.46,1.76,0.18
				C236.4,315.22,236.83,315.11,237.41,314.94z M147.38,315.86c-0.09,2.33-0.18,4.57-0.26,6.81c-0.01,0.38-0.08,0.75,0.51,0.77
				c0.54,0.02,0.7-0.26,0.71-0.72c0.02-0.85,0.02-1.69,0.06-2.54c0.06-1.44,0.13-2.88,0.19-4.35c0.65,0.04,1.2,0.12,1.75,0.09
				c0.21-0.01,0.4-0.27,0.6-0.41c-0.16-0.21-0.31-0.6-0.48-0.61c-1.61-0.1-3.22-0.15-4.83-0.17c-0.18,0-0.37,0.3-0.56,0.47
				c0.17,0.18,0.32,0.47,0.52,0.51C146.14,315.81,146.72,315.81,147.38,315.86z M227.21,314.88c0.16,2.23,0.31,4.35,0.47,6.48
				c-0.23,0.04-0.39,0.06-0.54,0.1c-0.17,0.04-0.34,0.09-0.79,0.21c0.33,0.37,0.53,0.79,0.74,0.8c0.84,0.02,1.69-0.06,2.53-0.16
				c0.16-0.02,0.41-0.37,0.38-0.51c-0.05-0.2-0.3-0.4-0.51-0.5c-0.16-0.08-0.39-0.02-0.62-0.02c-0.16-2.17-0.31-4.3-0.47-6.44
				c0.4-0.06,0.73-0.12,1.04-0.17c0.2-0.77-0.09-1.01-0.8-0.92c-0.6,0.08-1.21,0.14-1.82,0.14c-0.77-0.01-0.94,0.3-0.61,1.01
				C226.51,314.88,226.82,314.88,227.21,314.88z M249.37,319.37c-0.12-0.89-0.23-1.7-0.32-2.5c-0.18-1.47-0.35-2.95-0.52-4.42
				c-0.05-0.39-0.2-0.64-0.68-0.53c-0.35,0.08-0.59,0.16-0.53,0.6c0.32,2.49,0.61,4.99,0.95,7.48c0.02,0.18,0.32,0.46,0.47,0.45
				c1.42-0.12,2.83-0.3,4.22-0.46c0.09-1,0.02-1.06-0.85-0.95C251.22,319.16,250.33,319.26,249.37,319.37z M161.72,322.83
				c0-0.42-0.01-0.7,0-0.99c0.04-1.96,0.09-3.91,0.13-5.87c0.01-0.41,0.04-0.79-0.58-0.8c-0.64-0.01-0.64,0.36-0.65,0.82
				c-0.03,2.41-0.06,4.81-0.12,7.22c-0.01,0.42,0.1,0.58,0.51,0.59c1.19,0.02,2.38,0.07,3.57,0.11c0.4,0.01,0.83-0.04,0.73-0.55
				c-0.04-0.21-0.44-0.48-0.7-0.5C163.7,322.8,162.77,322.83,161.72,322.83z M169.06,322.96c0-2.33,0-4.58,0-6.82
				c0-0.41,0.09-0.78-0.54-0.81c-0.63-0.03-0.6,0.33-0.61,0.75c-0.04,2.43-0.07,4.87-0.12,7.3c-0.01,0.46,0.2,0.59,0.62,0.59
				c1.16-0.01,2.33,0.02,3.49,0.03c0.39,0,0.76,0,0.76-0.55c0-0.53-0.37-0.49-0.72-0.48C171.02,322.96,170.1,322.96,169.06,322.96z"
				/>
			<path class="st3" d="M247.7,148.94c1.65-1.93,3.27-3.89,4.95-5.79c4.2-4.75,8.73-9.18,13.67-13.16c0.72-0.58,1.24-0.6,2.01-0.09
				c1.85,1.23,2.23,2.79,1.1,4.68c-1.56,2.62-3.74,4.73-5.84,6.89c-4.51,4.63-9.03,9.25-13.53,13.9c-0.81,0.84-1.55,1.74-2.3,2.63
				c-0.27,0.32-0.48,0.68-0.87,1.25c1.13-0.13,2.03-0.25,2.92-0.32c3.19-0.25,6.4-0.58,9.58,0.09c2,0.42,3.04,1.47,3.27,3.1
				c0.04,0.28,0.09,0.62-0.02,0.86c-0.18,0.38-0.43,0.87-0.76,0.98c-0.29,0.1-0.92-0.13-1.09-0.41c-0.79-1.23-1.96-1.18-3.11-0.98
				c-2.68,0.48-5.35,1-8,1.61c-2.16,0.5-4.27,1.19-6.42,1.77c-0.72,0.2-1.09,0.6-1.2,1.36c-0.38,2.62-0.85,5.22-1.2,7.84
				c-0.1,0.74,0.03,1.52,0.18,2.26c0.1,0.5,0.03,0.74-0.47,0.87c-1.53,0.41-3.47-0.74-3.56-2.31c-0.11-1.87,0.01-3.75,0.04-5.62
				c0.01-0.66,0.08-1.32,0.1-1.98c0.01-0.58-0.24-0.84-0.85-0.64c-1.1,0.37-2.2,0.76-3.32,1.06c-0.62,0.16-1.29,0.14-2.21,0.23
				c-1.35,1.77-3.39,3.16-5.91,3.69c-4.48,0.94-9.59-0.24-12.28-4.18c-1.75-2.56-2.3-5.49-2.05-8.49c0.7-8.41,3.5-16.07,8.55-22.88
				c1.43-1.93,3.06-3.66,5.01-5.06c1.97-1.42,4.05-2.04,6.38-0.84c0.62,0.32,0.97,0.17,1.32-0.54c0.99-2.04,2.1-4.02,3.2-6
				c0.2-0.36,0.55-0.65,0.87-0.91c1.06-0.87,2.04-0.85,3.26,0.01c1.13,0.8,1.36,1.41,0.77,2.8c-1.38,3.26-2.9,6.46-4.25,9.73
				c-1.1,2.66-2.04,5.38-3.02,8.08c-0.16,0.44-0.19,0.94-0.21,1.41c-0.03,0.88,0.15,1.65,0.94,2.24c0.27,0.2,0.3,0.7,0.44,1.07
				c-0.33,0.1-0.66,0.3-0.98,0.27c-3.26-0.28-5.45-3.23-4.84-6.6c0.34-1.87,0.83-3.7,1.3-5.73c-0.41,0.45-0.76,0.79-1.06,1.16
				c-4.55,5.8-8.08,12.16-10.23,19.22c-0.84,2.76-1.09,5.62-0.27,8.46c0.96,3.34,4.16,4.5,7.09,2.61c1.49-0.96,2.48-2.36,3.43-3.81
				c0.62-0.95,1.24-1.92,1.98-2.77c1.02-1.17,1.93-1.13,3.06-0.07c0.14,0.13,0.41,0.27,0.58,0.22c1.25-0.33,2.5-0.66,3.72-1.09
				c0.29-0.1,0.6-0.51,0.65-0.82c1.46-8.92,4.04-17.5,7.67-25.77c0.31-0.7,0.67-1.38,1.07-2.03c0.57-0.94,1.34-1.19,2.38-0.89
				c1.3,0.38,2.28,1.21,2.81,2.4c0.24,0.55,0.16,1.36-0.04,1.97c-1.17,3.43-2.42,6.82-3.63,10.23c-0.33,0.91-0.64,1.83-0.96,2.74
				C247.58,148.9,247.64,148.92,247.7,148.94z"/>
			<path class="st3" d="M151.03,270.24c-0.08,0.26-0.18,0.52-0.25,0.78c-1.95,7.3-3.9,14.59-5.84,21.89
				c-0.01,0.05-0.02,0.1-0.04,0.15c-0.78,2.71-2.29,3.47-5.04,2.64c-1.15-0.35-1.89-1.02-2.08-2.14c-0.43-2.47-1.01-4.96-1.09-7.45
				c-0.22-7.15-0.27-14.31,0.38-21.45c0.27-2.9,0.66-5.8,1.71-8.55c0.95-2.48,2.74-4.04,5.3-4.71c0.33-0.09,0.68-0.12,1.02-0.11
				c1.42,0.02,1.94,0.63,1.69,2.01c-0.14,0.75-0.31,1.51-0.58,2.23c-1.4,3.63-1.93,7.43-2.24,11.27c-0.26,3.09-0.39,6.19-0.58,9.28
				c-0.01,0.24,0,0.49,0,0.73c0.07,0.01,0.15,0.03,0.22,0.04c0.11-0.25,0.23-0.5,0.32-0.75c1.82-5.01,3.62-10.02,5.47-15.01
				c0.38-1.04,0.84-2.06,1.37-3.04c1.28-2.38,3.87-2.53,5.46-0.33c1.1,1.52,1.5,3.31,1.88,5.11c0.89,4.28,1.79,8.56,2.7,12.83
				c0.02,0.09,0.09,0.18,0.19,0.39c0.12-0.24,0.21-0.38,0.25-0.53c1.7-6.32,3.38-12.65,5.11-18.96c1.25-4.54,2.53-9.07,4.6-13.32
				c0.59-1.21,1.24-2.41,2.02-3.51c1.88-2.62,6.45-2.59,8.33,0.03c0.15,0.21,0.12,0.8-0.06,0.98c-2.38,2.39-3.59,5.47-5.07,8.4
				c-2.8,5.57-4.33,11.55-5.66,17.58c-1.42,6.41-2.74,12.85-3.85,19.33c-0.59,3.48-0.67,7.06-0.92,10.6
				c-0.06,0.78,0.04,1.61,0.26,2.36c0.17,0.6,0.53,1.22,0.99,1.64c1.13,1.06,1.01,2-0.43,2.57c-2.56,1.02-5.8,0.06-6.99-2.42
				c-1.22-2.54-2.2-5.22-3.05-7.92c-2.27-7.22-3.75-14.62-5.15-22.05c-0.04-0.19-0.11-0.38-0.16-0.57
				C151.15,270.25,151.09,270.24,151.03,270.24z"/>
			<path class="st3" d="M155.16,129.82c-0.33,0.08-0.63,0.13-0.91,0.24c-7.06,2.77-13.75,6.2-19.56,11.15
				c-1.32,1.13-2.46,2.48-3.66,3.75c-0.47,0.5-0.8,1.07-0.15,1.69c-0.94,0.63-2.3,0.55-3.22-0.15c-0.95-0.72-1.34-1.82-0.98-2.87
				c0.57-1.69,1.63-3.09,2.85-4.35c3.04-3.15,6.58-5.66,10.36-7.83c5.46-3.13,11.13-5.76,17.34-7.03c3.44-0.7,6.9-1.21,10.39-0.4
				c2.37,0.55,4.49,1.6,6.04,3.56c1.24,1.57,1.58,3.32,0.85,5.22c-1.03,2.66-2.63,4.97-4.63,6.96c-3.81,3.8-7.72,7.49-11.59,11.22
				c-0.28,0.27-0.58,0.53-1,0.9c0.39,0.13,0.65,0.23,0.91,0.29c4.71,1.16,8.1,3.9,9.68,8.53c1.29,3.79-0.02,7.04-2.41,10.09
				c-2.6,3.31-5.95,5.64-9.47,7.76c-3.35,2.02-6.81,3.85-10.27,5.67c-2.03,1.07-4.22,1.58-6.53,1.01c-2.9-0.72-5.1-3.41-4.97-6.12
				c0.04-0.83,0.28-1.67,0.59-2.44c0.36-0.91,1.07-1.12,1.95-0.7c1.41,0.67,2.46,1.59,2.2,3.36c-0.01,0.1,0,0.21,0.02,0.31
				c0.01,0.04,0.05,0.08,0.16,0.24c1.16-0.56,2.37-1.07,3.51-1.72c4.74-2.69,9.03-6.01,13.15-9.55c1.22-1.05,2.39-2.16,3.53-3.3
				c1.75-1.76,2.84-3.86,3.08-6.36c0.15-1.52-0.46-2.45-1.95-2.67c-3.58-0.54-6.96,0.16-10.26,1.67c-1.38,0.63-2.11,1.49-2.54,2.89
				c-0.8,2.6-1.74,5.15-2.62,7.72c-0.18,0.52-0.16,0.98,0.27,1.45c0.22,0.24,0.3,0.81,0.17,1.13c-0.11,0.27-0.58,0.53-0.91,0.56
				c-1.33,0.13-2.63-0.02-3.85-0.67c-1.04-0.55-1.54-1.41-1.39-2.54c0.22-1.67,0.36-3.4,0.9-4.98c3.32-9.71,7.07-19.25,11.78-28.39
				C152.96,133.34,154.09,131.64,155.16,129.82z M156.69,129.18c0.9,0.31,1.69,0.51,2.42,0.85c1.5,0.7,1.78,1.42,1.11,2.9
				c-1.31,2.91-2.66,5.81-3.99,8.72c-0.26,0.56-0.49,1.14-0.74,1.71c0.69-0.35,1.24-0.79,1.74-1.28c2.13-2.1,4.3-4.16,6.34-6.35
				c1.8-1.93,3.46-4,5.11-6.06c0.38-0.48,0.49-1.18,0.73-1.78c-0.64-0.18-1.27-0.48-1.92-0.52
				C163.82,127.13,160.32,128.05,156.69,129.18z"/>
			<path class="st3" d="M216.04,253.88c-0.9,2-1.52,3.97-1.47,6.11c0.01,0.26,0.07,0.53,0.18,0.76c0.32,0.67-0.04,0.89-0.61,0.93
				c-1.95,0.15-4.16-1.41-4.12-3.33c0.03-1.59,0.08-3.18,0.26-4.75c0.26-2.29,0.62-4.56,1.5-6.72c0.53-1.31,1.26-1.75,2.67-1.54
				c2.34,0.34,3.34,1.74,2.91,4.05c-0.01,0.07,0.02,0.15,0.03,0.19c2.11-0.52,4.21-1.02,6.29-1.56c0.58-0.15,0.89-0.54,1.03-1.17
				c0.54-2.54,1.33-5.01,2.63-7.27c0.8-1.39,1.31-1.52,2.82-1.02c2.25,0.75,3.45,2.7,3.11,5.05c-0.08,0.55-0.11,1.11-0.23,1.65
				c-0.15,0.7,0.2,0.78,0.75,0.68c1.77-0.3,3.54-0.63,5.33-0.88c1.86-0.26,3.73-0.48,5.61-0.61c2.67-0.19,5.36,2.45,5.33,5.13
				c-0.01,0.62-0.59,1.13-1.21,0.89c-1.83-0.71-3.63-0.14-5.41,0.08c-3.26,0.4-6.49,1.02-9.74,1.47c-1.62,0.23-2.78,0.57-3.07,2.6
				c-0.44,3.05-1.39,6.03-1.98,9.07c-1.31,6.83-2.61,13.67-3.74,20.53c-0.57,3.47-0.9,6.99-1.09,10.5c-0.11,1.98,0.14,4.02,0.5,5.99
				c0.16,0.89,0.98,1.66,1.45,2.5c0.18,0.32,0.23,0.7,0.34,1.05c-0.36,0.08-0.79,0.33-1.07,0.22c-0.87-0.36-1.8-0.71-2.49-1.32
				c-2.39-2.09-3.77-4.74-4.01-7.94c-0.29-3.74-0.24-7.47,0.2-11.19c0.48-4.13,0.88-8.27,1.45-12.39c0.57-4.17,1.3-8.32,1.97-12.48
				c0.18-1.1,0.36-2.2,0.57-3.28c0.09-0.45-0.1-0.61-0.48-0.6c-0.84,0.02-1.7,0.01-2.53,0.14
				C217.84,255.72,217.71,255.7,216.04,253.88z"/>
			<path class="st3" d="M203.15,223.03c-2.38-0.9-3.23-2.81-3.52-5.09c-0.16-1.25-0.76-2.28-1.59-3.22
				c-2.35-2.66-4.66-5.35-6.97-8.04c-0.17-0.19-0.23-0.48-0.34-0.72c-0.13,0.1-0.27,0.19-0.4,0.29c0.08,0.8,0.11,1.6,0.24,2.39
				c0.69,4.26,1.39,8.52,2.1,12.78c0.06,0.36,0.18,0.72,0.29,1.07c0.2,0.68-0.01,0.99-0.72,1.05c-1.06,0.09-2.21-0.46-2.6-1.48
				c-0.59-1.55-1.11-3.15-1.52-4.76c-1.34-5.24-2.43-10.53-3.18-15.89c-0.16-1.17,0.95-2.38,2.18-2.32
				c1.33,0.07,2.51,0.62,3.45,1.48c1.97,1.8,3.84,3.71,5.75,5.58c0.17,0.16,0.32,0.35,0.58,0.65c0.02-0.29,0.06-0.44,0.04-0.6
				c-0.4-3.44-0.84-6.88-1.17-10.33c-0.1-1.01,0.05-2.06,0.21-3.08c0.13-0.86,0.61-1.2,1.46-1.11c1.33,0.14,2.31,0.42,2.54,2.22
				c0.88,6.96,1.85,13.91,2.83,20.86c0.37,2.65,0.87,5.28,1.32,8.02c0.36-0.1,0.7-0.17,1.03-0.29c4.73-1.7,9.44-3.48,13.89-5.85
				c0.97-0.52,1.95-1.13,2.73-1.89c0.66-0.64,1.03-1.56,1.55-2.35c0.16-0.25,0.41-0.44,0.61-0.65c0.19,0.22,0.47,0.41,0.56,0.66
				c0.49,1.38,0.01,2.67-0.48,3.93c-0.86,2.21-2.6,3.59-4.54,4.82c-3.42,2.17-7.1,3.77-10.83,5.3c-4.9,2.01-9.8,4.01-14.76,5.84
				c-3.2,1.18-6.5,2.08-9.77,3.04c-0.98,0.29-2.03,0.38-3.06,0.47c-1.89,0.17-2.75-0.69-2.51-2.58c0.17-1.32,0.72-2.44,2.15-2.87
				c2.29-0.67,4.57-1.34,6.85-2.04c2.55-0.79,5.1-1.58,7.65-2.41c2.36-0.77,4.71-1.57,7.07-2.37c0.27-0.09,0.53-0.21,0.8-0.32
				C203.09,223.17,203.12,223.1,203.15,223.03z"/>
			<path class="st3" d="M250.43,263.02c-0.58,0.27-1.15,0.59-1.75,0.79c-2.51,0.8-5.02,1.61-7.56,2.32
				c-2.29,0.63-4.77-1.15-4.97-3.55c-0.04-0.47,0.27-1.08,0.61-1.45c1.24-1.36,2.98-1.89,4.63-2.5c3.16-1.17,6.44-1.87,9.77-2.38
				c2.51-0.38,5.03-0.71,7.54-1.08c2.27-0.33,3.81,2.01,4.03,3.59c0.1,0.72-0.31,1.25-0.88,1.08c-1.09-0.33-2.02,0.07-2.86,0.59
				c-2.87,1.79-5.72,3.62-8.54,5.5c-1.89,1.26-3.72,2.63-5.57,3.95c-0.08,0.05-0.13,0.15-0.13,0.34c1.22-0.4,2.42-0.83,3.65-1.19
				c3.65-1.08,7.29-2.19,10.96-3.18c1.98-0.54,3.73,0.67,4.08,2.59c0.12,0.64-0.1,1.05-0.71,1.21c-4.79,1.23-9.26,3.29-13.68,5.44
				c-3.85,1.87-7.66,3.83-11.44,5.85c-1.12,0.6-2.04,0.53-2.88-0.26c-0.64-0.6-1.17-1.34-1.66-2.08c-0.48-0.73-0.35-1.54,0.24-2.12
				c0.83-0.83,1.76-1.58,2.69-2.31c1.16-0.91,2.49-1.62,3.52-2.65c2.34-2.34,5.03-4.22,7.73-6.08c0.98-0.67,1.97-1.33,2.96-2
				c0.12-0.08,0.21-0.19,0.32-0.28C250.49,263.11,250.46,263.06,250.43,263.02z"/>
			<path class="st3" d="M209.71,215.9c-0.2-0.26-0.22-0.33-0.26-0.34c-1.64-0.32-2.08-1.54-2.36-2.98
				c-1.02-5.14-1.53-10.3-0.93-15.54c0.03-0.28-0.11-0.71-0.32-0.86c-0.68-0.49-0.72-1.11-0.57-1.83c0.49-2.25,1.92-3.79,3.74-5.03
				c2.09-1.42,4.48-1.92,6.92-2.07c3.78-0.24,7.37,2.9,7.89,6.64c0.26,1.89-0.13,3.68-0.61,5.48c-1.15,4.41-3.23,8.38-5.64,12.2
				c-1.3,2.06-2.61,4.11-3.96,6.13c-0.35,0.52-0.81,0.98-1.3,1.39c-1.29,1.08-2.72,1.2-4.24,0.52c-0.6-0.27-1.19-0.61-1.18-1.35
				c0.01-0.8,0.53-1.28,1.24-1.59C208.65,216.45,209.14,216.18,209.71,215.9z M211.51,212.25c0.08,0.01,0.17,0.03,0.25,0.04
				c0.49-0.81,0.95-1.63,1.48-2.42c2.38-3.58,4.52-7.28,5.5-11.54c0.6-2.59,1.31-5.14,0.39-7.8c-0.42-1.2-0.81-1.52-2.09-1.45
				c-1.7,0.09-3.26,0.63-4.73,1.48c-0.81,0.46-1.59,0.89-1.12,2.04c0.05,0.11,0.02,0.26,0.01,0.39c-0.09,1.82-0.24,3.65-0.28,5.47
				c-0.06,3.2-0.12,6.4-0.05,9.59C210.91,209.45,211.29,210.85,211.51,212.25z"/>
			<path class="st3" d="M188.02,225.26c-0.36,0.14-0.72,0.37-1.09,0.4c-1.65,0.12-3.02-0.5-4.06-1.76c-0.46-0.56-0.79-0.6-1.36-0.15
				c-1.51,1.19-3.05,2.37-4.64,3.46c-0.39,0.27-1.03,0.22-1.55,0.24c-0.39,0.01-0.78-0.13-1.17-0.15c-1.06-0.06-1.6-0.47-1.67-1.53
				c-0.15-2.51-0.29-5.02-0.31-7.53c-0.05-4.75,0.47-9.46,1.07-14.16c0.19-1.5,0.36-3,0.57-4.49c0.12-0.9,0.5-1.29,1.42-1.27
				c0.8,0.02,1.62,0.15,2.4,0.38c0.73,0.21,1.03,0.81,1.23,1.59c1.29,4.89,1.83,9.96,3.61,14.72c0.34,0.92,0.63,1.85,0.94,2.79
				c0.19,0.58,0.5,0.84,1.18,0.76c1.15-0.13,2.14,0.29,2.92,1.14c0.16,0.17,0.3,0.48,0.26,0.68c-0.03,0.14-0.4,0.21-0.62,0.3
				c-0.53,0.22-1.09,0.39-1.58,0.68c-0.13,0.08-0.18,0.6-0.06,0.77c0.63,0.84,1.32,1.64,2.01,2.44c0.15,0.17,0.4,0.25,0.6,0.37
				C188.09,225.04,188.06,225.15,188.02,225.26z M177.62,214.03c-0.11,2.9-0.21,5.57-0.32,8.4c0.69-0.49,1.27-0.92,1.87-1.33
				c1.19-0.8,1.21-0.8,0.66-2.1C179.14,217.4,178.41,215.82,177.62,214.03z"/>
			<path class="st3" d="M259.68,278.09c2.26-0.11,3.87,2.45,3.96,3.88c0.03,0.54-0.2,1.09-0.8,0.87c-1.39-0.51-2.64,0.04-3.87,0.44
				c-3.26,1.06-6.49,2.22-9.71,3.39c-4.35,1.58-8.31,3.9-12.22,6.35c-0.61,0.38-1.24,0.72-1.84,1.11c-1.17,0.77-2.3,0.64-3.39-0.15
				c-0.24-0.17-0.47-0.35-0.66-0.57c-1.64-1.96-1.42-2.43-0.12-3.87c2.02-2.23,4.48-3.82,7.18-5.12c4.29-2.07,8.87-3.26,13.41-4.56
				c2.39-0.68,4.84-1.14,7.26-1.69C259.15,278.11,259.42,278.12,259.68,278.09z"/>
			<path class="st3" d="M204.34,288.28c0.27-2.6,0.54-5.43,0.86-8.24c0.31-2.76,0.64-5.53,1.04-8.28c0.17-1.15,0.49-2.28,0.82-3.4
				c0.36-1.22,1.24-1.8,2.52-1.75c0.47,0.02,0.95,0.09,1.42,0.18c1.54,0.31,2.22,1.18,1.97,2.72c-0.34,2.06-0.83,4.1-1.22,6.15
				c-0.54,2.91-1.08,5.83-1.54,8.76c-0.33,2.06-0.56,4.14-0.78,6.22c-0.08,0.81-0.02,1.62,0.65,2.28c0.42,0.41,0.2,0.99-0.33,1.22
				c-1.1,0.48-3.69,0-4.48-0.9c-0.3-0.34-0.52-0.82-0.59-1.27C204.51,290.83,204.46,289.67,204.34,288.28z"/>
			<path class="st4" d="M187.94,119.84c0.1,0.08,0.2,0.17,0.3,0.25c2.74-3.29,5.49-6.58,8.23-9.87c-0.1-0.09-0.21-0.17-0.31-0.26
				C193.42,113.25,190.68,116.54,187.94,119.84z"/>
			<path class="st4" d="M203.96,110.16c2.82,3.38,5.54,6.65,8.27,9.92c0.06-0.05,0.12-0.1,0.18-0.16
				C212.13,119.1,204.62,110.25,203.96,110.16z"/>
			<path class="st4" d="M178.08,103.38c-2.35,0.24-4.26-0.64-5.79-2.36c-1.79-2-2.83-4.39-3.44-6.98c-0.07-0.31-0.19-0.61-0.29-0.91
				c-0.18,0.15-0.24,0.27-0.22,0.38c0.32,2.69,0.73,5.37,2.2,7.72c1.77,2.84,4.94,3.74,8.15,2.18
				C178.33,103.39,178.2,103.36,178.08,103.38z"/>
			<path class="st4" d="M200.92,102.95c-0.15,0.15-0.21,0.4-0.39,0.74c1.11-0.49,8.63-8.12,8.71-8.8c-0.15,0.06-0.24,0.06-0.29,0.11
				C206.27,97.65,203.59,100.29,200.92,102.95z"/>
			<path class="st4" d="M187.28,101.71c1.26,0.76,2.21,1.67,1.93,3.45c0.76-0.62,1.05-1.17,0.88-1.86
				C189.89,102.56,188.31,101.67,187.28,101.71z"/>
			<path class="st4" d="M191.22,95c0.13,0.64,7.79,8.33,8.55,8.59C199.72,102.98,191.96,95.18,191.22,95z"/>
			<path class="st4" d="M211.25,105.08c-0.24-1.71,0.71-2.62,1.84-3.47c-0.78,0.25-1.51,0.55-2.13,1
				C210.06,103.25,210.14,104.21,211.25,105.08z"/>
			<path class="st4" d="M231.83,93.32c-0.07,0.2-0.13,0.4-0.17,0.61c-0.49,2.19-1.33,4.24-2.64,6.07c-1.62,2.27-3.71,3.66-6.65,3.38
				c-0.12-0.01-0.26,0.05-0.49,0.09c3.25,1.49,6.3,0.6,8.1-2.29c1.26-2.03,1.68-4.32,2.04-6.62c0.07-0.45,0.07-0.91,0.11-1.52
				C231.93,93.22,231.85,93.26,231.83,93.32z"/>
			<path d="M285.47,105.88c-0.41-1.02-1.01-1.94-2.14-2.19c-3.1-0.68-6.2-1.39-9.34-1.86c-3.35-0.5-6.74-0.73-10.12-1.08
				c-1.24-0.13-2.47-0.36-3.71-0.4c-2.56-0.08-5.13-0.07-7.7-0.09c-5.19-0.04-10.39-0.08-15.58-0.12c-0.28,0-0.57-0.03-0.76-0.04
				c-0.15-2.25-0.24-4.41-0.45-6.56c-0.41-4.24-1.67-8.23-3.54-12.04c-0.27-0.56-0.66-0.84-1.23-0.99c-2-0.52-3.99-1.06-5.98-1.6
				c-8.23-2.2-16.46-4.41-24.69-6.62c-0.18-0.05-0.34-0.2-0.51-0.31c-0.37,0-0.74,0-1.11,0c-0.2,0.11-0.38,0.26-0.59,0.32
				c-3.09,0.84-6.18,1.68-9.27,2.5c-6.39,1.71-12.78,3.42-19.17,5.12c-0.56,0.15-0.92,0.41-1.19,0.93
				c-3.38,6.56-4.76,13.48-3.89,20.83c0.05,0.46,0.07,0.93,0.1,1.43c-0.35,0.05-0.61,0.09-0.87,0.11c-6.67,0.66-13.35,1.23-20,2
				c-6.35,0.73-12.56,2.13-18.62,4.24c-5.86,2.04-9.59,5.83-10.77,11.98c-0.44,2.32-0.14,4.6,0.65,6.8c0.24,0.69,0.67,1.3,1.52,1.33
				c0.81,0.03,1.17-0.52,1.52-1.17c0.89-1.65,2.14-3.01,3.93-3.66c1.89-0.68,3.82-1.27,5.78-1.7c3.82-0.84,7.65-1.68,11.52-2.25
				c3.56-0.53,7.17-0.7,10.76-1.05c2.61-0.25,5.21-0.69,7.83-0.77c4.13-0.13,8.26-0.09,12.38-0.56c0.33-0.04,0.82,0.22,1.03,0.5
				c3.24,4.3,7.21,7.74,11.94,10.3c0.18,0.1,0.34,0.23,0.44,0.3c-0.67,1.94-1.35,3.8-1.96,5.68c-1.23,3.82-2.56,7.61-3.58,11.48
				c-1.73,6.54-3.31,13.12-4.83,19.71c-0.75,3.26-1.63,6.54-0.7,10c-0.51,0.2-1,0.37-1.48,0.57c-1.63,0.69-3.3,1.29-4.87,2.1
				c-1.74,0.9-3.39,1.98-4.5,3.69c-0.51,0.78-0.59,1.68-0.09,2.31c0.77,0.96,1.6,1.87,3,1.77c0.19-0.01,0.38-0.17,0.57-0.26
				c2.11-1.03,4.15-2.24,6.34-3.06c2.99-1.12,6.06-2.01,9.14-2.88c6.26-1.76,12.51-3.6,19.08-3.89c0.75-0.03,1.07,0.09,1.43,0.69
				c0.31,0.51,0.84,0.95,1.53,0.76c0.72-0.2,0.81-0.84,0.81-1.47c0-0.16-0.02-0.32-0.04-0.47c-0.4-2.57-2.75-4.58-5.45-4.51
				c-6.44,0.16-12.69,1.58-18.92,3.03c-0.83,0.19-0.94,0.14-0.77-0.66c0.79-3.66,1.44-7.37,2.44-10.98
				c1.77-6.42,3.75-12.77,5.66-19.15c0.54-1.8,1.12-3.58,1.65-5.37c0.48-1.62,0.95-3.24,1.39-4.87c0.15-0.55,0.21-1.12,0.31-1.65
				c2.51,0.47,4.94,0.92,7.39,1.37c-0.49,1.19-0.94,2.4-1.47,3.57c-1.89,4.22-3.93,8.38-5.68,12.66c-1.39,3.39-2.54,6.89-3.62,10.4
				c-0.53,1.7-0.7,3.52-0.96,5.29c-0.11,0.75,0.13,1.44,0.87,1.9c0.35,0.21,0.61,0.58,0.89,0.9c0.96,1.14,1.66,1.35,3.06,0.87
				c3.8-1.31,7.72-1.81,11.73-1.6c0.51,0.03,1,0.27,1.5,0.43c0.35,0.11,0.7,0.24,1.05,0.37c0-0.43,0.06-0.87-0.02-1.28
				c-0.07-0.35-0.25-0.71-0.48-0.99c-0.9-1.09-1.99-1.95-3.4-2.19c-1.06-0.18-2.16-0.25-3.24-0.23c-1.81,0.03-3.62,0.16-5.55,0.26
				c2.22-6.31,4.57-12.54,7.3-18.63c0.09,0.13,0.1,0.23,0.1,0.34c0.11,4.24,0.19,8.47,0.34,12.71c0.04,1.13,0.22,2.27,0.46,3.37
				c0.39,1.77,2.4,3.14,4.19,2.96c1.08-0.11,1.3-0.63,0.71-1.56c-0.23-0.36-0.47-0.82-0.46-1.22c0.16-5.03,0.39-10.06,0.56-15.09
				c0.11-3.25,0.2-6.51,0.2-9.76c0-1.23-0.26-2.46-0.41-3.68c0.04-0.03,0.08-0.08,0.13-0.09c0.55-0.1,1.1-0.18,1.64-0.29
				c9.28-1.85,16.77-6.55,22.44-14.14c0.21-0.28,0.69-0.54,1.02-0.52c4.79,0.28,9.57,0.6,14.36,0.92c3.8,0.26,7.61,0.58,11.41,0.78
				c4.5,0.23,9,0.39,13.5,0.52c3.3,0.1,6.59,0.63,9.9-0.1c2.45-0.54,4.46-1.66,5.46-4.01c0.59-1.39,0.88-2.93,1.19-4.43
				C286.32,109.86,286.27,107.83,285.47,105.88z M170.53,101.23c-1.47-2.36-1.88-5.03-2.2-7.72c-0.01-0.11,0.04-0.24,0.22-0.38
				c0.1,0.3,0.22,0.6,0.29,0.91c0.62,2.59,1.65,4.98,3.44,6.98c1.54,1.71,3.44,2.6,5.79,2.36c0.12-0.01,0.25,0.02,0.6,0.04
				C175.47,104.97,172.29,104.07,170.53,101.23z M219.7,101.19c-0.21-0.26-0.34-0.57-0.51-0.87c-0.12,0.1-0.23,0.2-0.35,0.29
				c0.13,0.32,0.26,0.64,0.39,0.96c-0.79-0.69-1.33-0.01-1.92,0.3c-0.55,0.29-1.09,0.62-1.78,1.02c0.11-0.41,0.17-0.64,0.24-0.92
				c-0.87-0.11-1.45,0.32-2,0.83c-0.08,0.08-0.12,0.35-0.06,0.42c0.36,0.41,0.47,0.83-0.06,1.1c-0.29,0.15-0.71,0.06-1.07,0.08
				c-0.05-0.07-0.09-0.14-0.14-0.22c-0.09,0.28-0.15,0.57-0.29,0.83c-0.22,0.42-0.41,0.94-0.77,1.19c-1.74,1.21-3.53,2.35-5.31,3.5
				c-0.28,0.18-0.61,0.29-1.01,0.48c0.13,0.2,0.24,0.39,0.39,0.56c2.28,2.75,4.61,5.47,6.84,8.27c0.78,0.98,1.33,2.15,1.96,3.25
				c0.23,0.4,0.1,0.66-0.39,0.69c-0.74,0.05-1.29-0.09-1.85-0.73c-1.27-1.44-2.69-2.76-4.11-4.07c-2.28-2.1-4.61-4.15-6.9-6.24
				c-0.56-0.51-0.99-0.55-1.56-0.02c-3.29,2.99-6.62,5.95-9.91,8.95c-0.52,0.48-0.92,1.09-1.37,1.65c-0.33,0.41-1.46,0.68-1.87,0.4
				c-0.13-0.09-0.21-0.45-0.13-0.58c0.65-1.15,1.23-2.36,2.05-3.39c2.21-2.78,4.52-5.48,6.78-8.21c0.13-0.15,0.22-0.33,0.29-0.42
				c-2.2-1.43-4.36-2.82-6.48-4.24c-0.25-0.17-0.38-0.54-0.5-0.85c-0.12-0.31-0.17-0.64-0.26-1.04c-0.55,0.25-1.08,0.71-1.47-0.03
				c-0.09-0.17-0.14-0.51-0.04-0.61c0.44-0.47,0.22-0.77-0.21-1.01c-0.49-0.27-1.01-0.47-1.7-0.79c0.12,0.51,0.17,0.74,0.27,1.16
				c-0.79-0.45-1.46-0.8-2.09-1.2c-0.51-0.33-0.97-0.58-1.58-0.06c0.12-0.33,0.23-0.66,0.35-0.99c-0.05-0.04-0.09-0.07-0.14-0.11
				c-0.21,0.2-0.45,0.38-0.62,0.61c-1.63,2.16-4.09,2.03-5.84,1.02c-2.62-1.52-4.09-3.95-4.91-6.78c-0.59-2.04-0.75-4.11-0.07-6.19
				c0.43-1.32,1.33-2.06,2.69-2.27c1.23-0.19,2.38,0.04,3.46,0.62c0.79,0.42,1.56,0.87,2.28,1.28c-0.42,0.86-0.89,1.72-1.26,2.63
				c-0.55,1.31-0.43,2.53,0.67,3.56c0.56,0.52,1.05,1.12,1.62,1.63c0.63,0.56,2.09,0.07,2.24-0.75c0.03-0.16-0.18-0.41-0.35-0.55
				c-0.94-0.81-1.89-1.62-2.86-2.4c-0.39-0.31-0.49-0.58-0.24-1.06c0.66-1.29,1.25-2.62,1.86-3.92c1.16,0.37,1.25,0.53,0.86,1.54
				c-0.28,0.72-0.59,1.42-0.8,2.16c-0.07,0.26,0.01,0.72,0.2,0.89c0.95,0.84,1.96,1.62,2.96,2.4c0.19,0.15,0.47,0.19,0.73,0.29
				c0.04,0.77,0.19,0.86,0.92,0.52c0.14-0.07,0.28-0.15,0.42-0.22c1.1-0.58,1.08-0.55,0.15-1.32c-0.22-0.18-0.22-0.62-0.24-1.02
				c0.84,0.3,1.16,0.01,1.45-0.67c0.41-0.93,1.19-1.06,1.94-0.4c0.1-0.15,0.22-0.29,0.28-0.44c0.38-1.1,0.8-2.19,1.08-3.32
				c0.15-0.62,0.06-1.31,0.01-1.97c-0.01-0.12-0.39-0.34-0.55-0.3c-0.74,0.19-1.48,0.41-2.19,0.69c-0.89,0.35-1.73,1.98-1.48,2.86
				c0.07,0.26,0.37,0.44,0.49,0.7c0.14,0.3,0.2,0.63,0.3,0.95c-0.09,0.05-0.19,0.1-0.28,0.14c-0.45-0.35-0.92-0.68-1.36-1.05
				c-0.33-0.28-0.54-0.29-0.82,0.1c-0.89,1.23-0.94,2.39-0.01,3.9c-0.35-0.02-0.62,0.02-0.84-0.07c-1.12-0.44-2.13-2.13-1.89-3.31
				c0.05-0.22,0.58-0.34,0.85-0.48c0.08-0.37,0.11-0.84,0.27-1.26c0.44-1.16,0.89-2.33,1.43-3.45c0.21-0.42,0.65-0.85,1.08-1.03
				c1.64-0.68,3.31-1.27,4.99-1.85c0.2-0.07,0.58,0.02,0.72,0.18c0.75,0.82,1.52,1.64,2.14,2.56c0.63,0.92,0.37,2.01,0.1,2.99
				c-0.46,1.66-1.01,3.29-1.57,4.92c-0.19,0.55-0.1,0.92,0.32,1.33c2.64,2.57,5.26,5.16,7.86,7.77c0.45,0.45,0.7,0.44,1.15,0
				c2.6-2.61,5.22-5.2,7.86-7.77c0.43-0.41,0.5-0.79,0.32-1.34c-0.52-1.5-1.04-3.01-1.45-4.54c-0.23-0.86-0.25-1.77-0.31-2.66
				c-0.02-0.23,0.12-0.52,0.28-0.71c0.7-0.87,1.41-1.73,2.16-2.55c0.14-0.16,0.52-0.25,0.72-0.18c1.68,0.58,3.35,1.17,4.99,1.85
				c0.44,0.18,0.88,0.6,1.08,1.03c0.61,1.26,1.12,2.58,1.62,3.88c0.1,0.26,0.01,0.58,0.01,0.94c0.23,0,0.54,0,0.85,0
				c0.33,1.93-1.14,4.02-2.38,3.72c0.12-0.73,0.25-1.44,0.36-2.15c0.12-0.76-0.31-1.31-0.77-1.82c-0.1-0.12-0.49-0.12-0.64-0.02
				c-0.49,0.31-0.93,0.69-1.4,1.07c-0.46-0.34-0.36-0.66-0.08-1.02c0.93-1.16,0.43-3.08-0.97-3.64c-0.69-0.27-1.41-0.46-2.12-0.69
				c-0.44-0.14-0.62,0.07-0.6,0.46c0.04,0.78,0.05,1.58,0.22,2.33c0.21,0.93,0.57,1.82,0.87,2.72c0.06,0.18,0.17,0.35,0.26,0.54
				c0.82-0.67,1.62-0.51,2.01,0.45c0.26,0.64,0.53,0.95,1.22,0.54c0.39,0.57,0.33,0.96-0.29,1.29c-0.64,0.34-0.63,0.56-0.03,0.91
				c0.3,0.17,0.6,0.33,0.92,0.47c0.65,0.29,0.82,0.17,0.8-0.52c0.32-0.15,0.65-0.24,0.9-0.43c0.92-0.71,1.81-1.46,2.73-2.18
				c0.4-0.31,0.5-0.62,0.29-1.1c-0.29-0.65-0.52-1.33-0.77-2c-0.41-1.08-0.4-1.1,0.81-1.67c0.31,0.66,0.62,1.32,0.93,1.98
				c0.32,0.67,0.59,1.36,0.96,2c0.27,0.47,0.17,0.74-0.23,1.06c-0.93,0.74-1.84,1.52-2.75,2.29c-0.2,0.17-0.37,0.35-0.64,0.6
				c0.44,0.38,0.77,0.8,1.2,1c0.29,0.14,0.85,0.11,1.06-0.09c0.88-0.84,1.73-1.72,2.47-2.67c0.6-0.77,0.29-1.71-0.01-2.52
				c-0.34-0.92-0.83-1.79-1.32-2.83c1.24-0.54,2.57-1.35,4.02-1.72c2.55-0.65,4.41,0.73,4.72,3.34c0.53,4.55-0.92,8.36-4.45,11.3
				c-1.23,1.02-2.7,1.42-4.32,1.09C220.99,102.5,220.29,101.92,219.7,101.19z M232.02,94.56c-0.36,2.3-0.77,4.6-2.04,6.62
				c-1.8,2.89-4.85,3.78-8.1,2.29c0.23-0.05,0.36-0.11,0.49-0.09c2.94,0.29,5.03-1.11,6.65-3.38c1.31-1.83,2.15-3.87,2.64-6.07
				c0.05-0.21,0.1-0.41,0.17-0.61c0.02-0.06,0.1-0.1,0.3-0.28C232.09,93.65,232.09,94.11,232.02,94.56z"/>
			<path class="st3" d="M257.84,315.73c-0.43-0.87-0.8-1.63-1.25-2.56c-0.16,1.06-0.29,1.9-0.42,2.79
				C256.77,315.88,257.24,315.82,257.84,315.73z"/>
			<path class="st3" d="M199.77,103.59c-0.76-0.26-8.42-7.96-8.55-8.59C191.96,95.18,199.72,102.98,199.77,103.59z"/>
			<path class="st3" d="M209.24,94.9c-0.08,0.67-7.6,8.31-8.71,8.8c0.18-0.35,0.24-0.59,0.39-0.74c2.67-2.65,5.35-5.3,8.03-7.94
				C209,94.96,209.09,94.95,209.24,94.9z"/>
			<path class="st3" d="M196.47,110.21c-2.74,3.29-5.49,6.58-8.23,9.87c-0.1-0.08-0.2-0.17-0.3-0.25c2.74-3.29,5.48-6.59,8.22-9.88
				C196.26,110.04,196.37,110.13,196.47,110.21z"/>
			<path class="st3" d="M212.23,120.08c-2.73-3.27-5.45-6.54-8.27-9.92c0.66,0.09,8.17,8.94,8.45,9.76
				C212.35,119.98,212.29,120.03,212.23,120.08z"/>
			<path class="st3" d="M189.2,105.16c0.28-1.78-0.66-2.68-1.93-3.45c1.03-0.04,2.61,0.85,2.8,1.59
				C190.26,103.99,189.96,104.54,189.2,105.16z"/>
			<path class="st3" d="M211.25,105.08c-1.11-0.87-1.19-1.82-0.29-2.47c0.62-0.45,1.35-0.75,2.13-1
				C211.96,102.46,211.01,103.37,211.25,105.08z"/>
			<path class="st3" d="M262.96,313.94c-0.06-0.29-0.13-0.57-0.18-0.85c-0.11-0.7-0.21-1.4-0.32-2.14c0.79-0.09,1.68-0.57,2.22,0.23
				c0.31,0.47,0.39,1.28,0.22,1.84C264.64,313.86,263.77,313.92,262.96,313.94z"/>
			<path class="st3" d="M183.16,322.79c0-2.15,0-4.27,0-6.39c1.82-0.27,2.39,0.11,2.62,1.83c0.11,0.8,0.13,1.63,0.08,2.44
				C185.72,322.58,185.22,322.97,183.16,322.79z"/>
			<path class="st3" d="M193.16,319.64c-0.1,0.77-0.14,1.51-0.31,2.23c-0.14,0.62-0.48,1.11-1.24,1.12
				c-0.75,0.01-1.12-0.44-1.3-1.06c-0.42-1.53-0.45-3.09-0.09-4.63c0.15-0.64,0.51-1.16,1.31-1.16c0.79,0,1.15,0.53,1.3,1.17
				C193.01,318.08,193.06,318.87,193.16,319.64z"/>
			<path class="st3" d="M177.84,320.41c-0.64,0-1.11,0-1.67,0c0.26-0.83,0.51-1.61,0.76-2.39c0.05,0,0.11,0,0.16,0
				C177.34,318.8,177.58,319.58,177.84,320.41z"/>
			<path class="st3" d="M155.99,320.05c-0.58,0-1.07,0-1.69,0c0.29-0.85,0.56-1.62,0.82-2.4c0.06,0,0.11,0.01,0.17,0.01
				C155.51,318.43,155.74,319.2,155.99,320.05z"/>
		</g>
	</g>
</g>
</svg>
